<svg width="481" height="108" viewBox="0 0 481 108" fill="none" xmlns="http://www.w3.org/2000/svg">
<path d="M282.16 60.4876C284.104 57.7193 282.926 55.3043 281.454 53.6551C279.863 51.8881 277.507 51.299 276.211 52.4182C273.561 54.5975 271.44 60.252 270.793 62.019C270.675 62.4314 270.498 62.8437 270.262 63.1971C260.838 82.0454 252.533 68.2626 252.533 68.2626C237.513 40.1667 264.549 13.4845 265.491 12.6599C279.746 -0.180514 296.415 1.23311 309.608 3.47135C320.152 5.23839 331.107 10.7162 340.06 19.2568C347.6 26.5017 353.608 35.6314 347.305 43.2885C344.301 46.9404 339.471 48.6485 333.935 48.5307C327.043 48.354 315.557 45.5856 317.855 37.5751C318.385 35.8081 319.445 34.4533 320.8 33.3342C323.45 31.1549 328.751 26.2072 328.398 21.554C328.044 17.0186 325.217 13.2489 322.331 10.6573C319.268 7.88894 315.675 6.0041 312.141 5.06168C302.776 2.47003 280.688 -0.769526 265.55 19.4925C265.55 19.4925 253.181 37.8696 262.487 51.299C264.372 53.9496 267.73 55.1865 269.615 53.7729C270.91 52.8305 272.383 51.1812 274.15 48.354C277.802 42.4639 283.397 42.1105 286.873 42.6406C289.052 42.9351 291.349 43.8775 293.293 45.5267C293.823 45.939 294.412 46.5281 294.942 47.2938C298.947 53.0072 295.649 56.4823 291.055 60.4287C289.346 61.9012 286.637 64.3751 285.518 66.79C285.518 66.79 284.163 73.8582 299.772 68.4393C339.118 54.8331 346.952 100.54 314.733 98.2432C302.01 97.3008 281.925 91.7641 266.139 76.5676C266.139 76.5676 274.916 81.5742 281.218 82.8111C286.401 83.8125 289.641 77.9223 286.696 72.8568C284.988 69.9707 283.28 69.205 282.043 66.7311C280.982 64.434 281.041 62.019 282.16 60.4876Z" fill="black" stroke="black" stroke-width="2.94506" stroke-miterlimit="10"/>
<path d="M9 6.97461H26.3291L58.5117 57.4385H58.7021L90.25 6.97461H107.579V98H96.5342V18.1465H96.2803L66.1289 65.2461H51.085L20.2988 18.1465H20.0449V98H9V6.97461Z" fill="white"/>
<path d="M153.168 6.97461H227.88V16.877H164.213V42.6484H202.172V52.5508H164.213V88.1611H227.88V98H153.168V6.97461Z" fill="white"/>
<path d="M297.59 99.2695C283.16 99.2695 271.289 95.5244 261.979 88.0342L265.471 78.1318C274.188 85.6644 284.958 89.4307 297.78 89.4307C303.789 89.4307 308.741 88.6266 312.634 87.0186C316.569 85.4105 319.447 83.2523 321.267 80.5439C323.086 77.8356 323.996 74.7676 323.996 71.3398C323.996 67.4889 322.832 64.5055 320.505 62.3896C318.22 60.2314 315.363 58.708 311.936 57.8193C308.508 56.8883 303.811 55.9785 297.844 55.0898C290.861 54.0742 285.233 52.9316 280.959 51.6621C276.685 50.3926 273.046 48.1709 270.041 44.9971C267.036 41.7809 265.534 37.2318 265.534 31.3496C265.534 25.9329 266.846 21.2992 269.47 17.4482C272.136 13.5973 275.923 10.6774 280.832 8.68848C285.741 6.69954 291.538 5.70508 298.225 5.70508C304.445 5.70508 310.37 6.55143 315.998 8.24414C321.669 9.93685 326.747 12.349 331.232 15.4805L327.868 25.002C323.679 21.9128 319.087 19.5641 314.094 17.9561C309.1 16.348 303.874 15.5439 298.415 15.5439C291.602 15.5439 286.291 16.877 282.482 19.543C278.716 22.1667 276.833 25.8271 276.833 30.5244C276.833 33.9521 277.912 36.6393 280.07 38.5859C282.229 40.4902 284.916 41.8656 288.132 42.7119C291.39 43.5583 295.876 44.4258 301.589 45.3145C308.825 46.457 314.686 47.7054 319.172 49.0596C323.658 50.4137 327.466 52.8258 330.598 56.2959C333.771 59.7236 335.358 64.5902 335.358 70.8955C335.358 76.3968 333.983 81.2845 331.232 85.5586C328.524 89.7904 324.356 93.1335 318.728 95.5879C313.099 98.0423 306.053 99.2695 297.59 99.2695Z" fill="white"/>
<path d="M374.727 6.97461H385.771V39.2207H447.153V6.97461H458.198V98H447.153V49.0596H385.771V98H374.727V6.97461Z" fill="white"/>
<path d="M9 6.97461H26.3291L58.5117 57.4385H58.7021L90.25 6.97461H107.579V98H96.5342V18.1465H96.2803L66.1289 65.2461H51.085L20.2988 18.1465H20.0449V98H9V6.97461Z" stroke="white" stroke-width="4.5"/>
<path d="M153.168 6.97461H227.88V16.877H164.213V42.6484H202.172V52.5508H164.213V88.1611H227.88V98H153.168V6.97461Z" stroke="white" stroke-width="4.5"/>
<path d="M297.59 99.2695C283.16 99.2695 271.289 95.5244 261.979 88.0342L265.471 78.1318C274.188 85.6644 284.958 89.4307 297.78 89.4307C303.789 89.4307 308.741 88.6266 312.634 87.0186C316.569 85.4105 319.447 83.2523 321.267 80.5439C323.086 77.8356 323.996 74.7676 323.996 71.3398C323.996 67.4889 322.832 64.5055 320.505 62.3896C318.22 60.2314 315.363 58.708 311.936 57.8193C308.508 56.8883 303.811 55.9785 297.844 55.0898C290.861 54.0742 285.233 52.9316 280.959 51.6621C276.685 50.3926 273.046 48.1709 270.041 44.9971C267.036 41.7809 265.534 37.2318 265.534 31.3496C265.534 25.9329 266.846 21.2992 269.47 17.4482C272.136 13.5973 275.923 10.6774 280.832 8.68848C285.741 6.69954 291.538 5.70508 298.225 5.70508C304.445 5.70508 310.37 6.55143 315.998 8.24414C321.669 9.93685 326.747 12.349 331.232 15.4805L327.868 25.002C323.679 21.9128 319.087 19.5641 314.094 17.9561C309.1 16.348 303.874 15.5439 298.415 15.5439C291.602 15.5439 286.291 16.877 282.482 19.543C278.716 22.1667 276.833 25.8271 276.833 30.5244C276.833 33.9521 277.912 36.6393 280.07 38.5859C282.229 40.4902 284.916 41.8656 288.132 42.7119C291.39 43.5583 295.876 44.4258 301.589 45.3145C308.825 46.457 314.686 47.7054 319.172 49.0596C323.658 50.4137 327.466 52.8258 330.598 56.2959C333.771 59.7236 335.358 64.5902 335.358 70.8955C335.358 76.3968 333.983 81.2845 331.232 85.5586C328.524 89.7904 324.356 93.1335 318.728 95.5879C313.099 98.0423 306.053 99.2695 297.59 99.2695Z" stroke="white" stroke-width="4.5"/>
<path d="M374.727 6.97461H385.771V39.2207H447.153V6.97461H458.198V98H447.153V49.0596H385.771V98H374.727V6.97461Z" stroke="white" stroke-width="4.5"/>
<path d="M124.046 101.493C103.166 75.9286 135.343 54.0249 135.343 54.0249C135.343 54.0249 144.985 45.9235 164.149 40.1025C183.314 34.2815 180.475 32.1211 180.475 32.1211C180.475 32.1211 181.835 26.7202 151.846 37.162C121.857 47.6038 123.514 18.3188 146.523 9.37723C169.532 0.435692 194.197 -1.18459 222.412 3.73626C235.898 6.07666 242.345 11.4176 245.48 16.3984C251.158 25.4 244.179 37.4621 233.768 36.2018C233.591 36.2018 233.473 36.1418 233.295 36.1418C224.6 34.9416 223.121 27.7404 223.062 23.2996C223.003 19.459 221.761 15.6183 218.922 12.1377C207.388 -1.96472 185.088 1.93595 174.441 4.87645C169.591 6.19668 165.332 8.17702 162.611 10.9375C159.654 13.878 158.767 17.5986 170.242 19.1589C190.589 21.8594 187.927 32.7212 187.927 32.7212C187.336 42.3829 171.898 50.7243 151.018 75.0885C139.425 88.6508 137.887 95.8521 138.774 99.5127C139.425 102.033 143.506 103.893 147.647 103.353C150.782 102.933 155.159 101.193 162.848 95.432C177.635 84.3901 184.142 78.7491 201.887 62.5464C206.264 58.5257 212.948 52.7047 221.938 45.8035C235.898 36.1418 242.818 41.4227 245.658 45.4434C246.781 47.0037 247.432 48.684 247.728 50.3643C252.105 77.1889 202.36 91.2313 195.262 93.6317C188.046 96.0921 189.524 99.5727 189.524 99.5727C192.009 107.194 215.373 91.7714 228.859 93.9918C242.345 96.2121 238.027 105.094 238.027 105.094C232.231 109.534 226.493 101.433 226.493 101.433C222.175 95.7321 217.502 96.6922 210.7 98.1925C207.743 98.8526 176.038 109.594 174.56 103.473C173.081 97.3523 199.343 90.3311 199.343 90.3311C199.343 90.3311 244.06 77.849 236.134 59.6659C236.134 59.6659 228.445 50.0642 207.683 64.2867C186.863 78.5091 177.872 86.8505 166.397 95.312C159.772 100.173 152.379 104.734 144.512 106.414C136.763 108.094 127.772 106.054 124.105 101.673C124.105 101.553 124.105 101.553 124.046 101.493Z" fill="black" stroke="black" stroke-width="1.47253" stroke-miterlimit="10"/>
<path d="M117.537 8.46655C88.1452 -7.73125 62.9945 17.2428 62.9945 17.2428C62.9945 17.2428 53.6292 24.7233 46.9734 39.5663C40.3175 54.4094 37.7848 52.1712 37.7848 52.1712C37.7848 52.1712 31.5413 53.2314 43.5571 29.9655C55.5729 6.69952 21.9404 7.99535 11.6327 25.8424C1.32502 43.6894 -0.500909 62.7734 5.1536 84.6846C10.8081 106.596 31.6002 104.652 31.6002 104.652C31.6002 104.652 44.4406 102.944 42.3791 93.0485C40.9655 86.2749 32.7193 85.1558 27.5949 85.0969C23.1773 85.038 18.7597 84.0956 14.7545 81.9162C-1.44333 73.0811 3.03316 55.7641 6.39052 47.518C7.92195 43.8072 10.2191 40.4498 13.3408 38.3294C16.7571 36.0323 20.998 35.3255 22.765 44.2195C25.8279 60.005 38.3149 57.9435 38.3149 57.9435C49.3883 57.5312 58.9892 45.5742 87.0261 29.3764C102.635 20.3646 110.881 19.1866 115.122 19.8934C118.008 20.3646 120.187 23.5452 119.54 26.7848C119.068 29.1997 117.007 32.616 110.469 38.565C97.7461 50.0507 91.267 55.1162 72.6543 68.7813C68.06 72.1975 61.3452 77.3808 53.4525 84.3312C42.3202 95.169 48.387 100.47 53.0402 102.708C54.8072 103.592 56.751 104.122 58.6947 104.299C89.5 107.715 105.698 69.1347 108.466 63.598C111.293 58.0024 115.24 59.1804 115.24 59.1804C124.016 61.1241 106.287 79.2068 108.82 89.6912C111.352 100.117 121.542 96.8182 121.542 96.8182C126.608 92.3417 117.301 87.8652 117.301 87.8652C110.763 84.5079 111.882 80.9149 113.591 75.6138C114.356 73.3167 126.725 48.7549 119.657 47.6358C112.589 46.5167 104.52 66.8375 104.52 66.8375C104.52 66.8375 90.1479 101.471 69.2969 95.3457C69.2969 95.3457 58.2824 89.3967 74.598 73.2578C90.9136 57.1189 100.514 50.1685 110.233 41.2745C115.829 36.1501 121.071 30.4367 123.015 24.3109C124.9 18.303 122.602 11.3527 117.596 8.46655C117.596 8.46655 117.537 8.46655 117.537 8.46655Z" fill="black" stroke="black" stroke-width="2.94506" stroke-miterlimit="10"/>
<path d="M366.877 97.5216C372.237 100.643 377.774 102.528 382.074 103.647C384.901 104.413 388.082 104.649 391.086 104.177C393.854 103.706 396.74 102.646 396.976 100.231C397.447 95.4012 388.906 94.8122 388.906 94.8122C388.906 94.8122 355.097 92.9862 350.09 74.8447C345.084 56.7031 364.639 57.1744 364.639 57.1744C364.639 57.1744 376.714 56.4675 384.665 69.5436C392.676 82.6196 390.261 95.1067 412.702 102.764C435.379 110.539 457.703 105.414 464.712 101.821C465.595 101.409 466.42 100.938 467.245 100.526C479.143 93.9286 481.027 83.9155 479.143 74.2557C477.729 67.1286 470.897 58.6469 459.529 53.4636C433.907 41.8012 411.819 41.919 398.566 41.5067C385.313 41.0943 389.024 39.0917 389.024 39.0917C413.232 41.2122 419.181 36.3823 419.181 36.3823C421.596 34.8508 423.128 32.377 418.357 29.0785C415.412 27.0759 411.171 25.8979 406.753 25.6034C398.919 25.0733 394.443 25.25 383.487 25.7212C371.884 26.1924 378.127 17.2983 378.127 17.2983C389.26 0.452596 422.185 3.10314 431.668 4.57567C436.263 5.28249 440.504 6.75501 443.213 9.11106C446.276 11.7027 448.161 15.708 443.625 21.3625C441.446 24.0719 440.504 26.3102 440.327 28.1361C439.738 33.9673 449.221 37.9137 458.233 35.6754C470.249 32.6715 465.478 20.1256 465.478 20.1256C465.478 20.1256 458.763 -1.13773 412.467 2.39633C362.283 6.2838 367.172 25.7801 367.172 25.7801C367.172 25.7801 366.936 31.199 387.08 27.6649C407.166 24.1308 397.329 28.6073 397.329 28.6073C397.329 28.6073 396.387 29.5497 380.13 31.0812C380.13 31.0812 350.974 33.7906 345.614 51.1664C337.603 77.024 361.753 94.5176 366.877 97.5216ZM376.242 42.6847C403.808 39.7396 453.521 76.6706 453.521 76.6706C453.521 76.6706 464.653 84.7401 466.538 91.1603C467.539 94.6354 463.239 97.6983 457.408 97.7572C452.048 97.8161 443.743 96.8148 433.377 91.926C414.646 83.1497 383.016 63.359 374.475 52.2856C372.532 49.7528 371.884 47.868 371.648 46.5132C371.413 44.6873 373.297 43.0381 376.242 42.6847Z" fill="black" stroke="black" stroke-width="1.47253" stroke-miterlimit="10"/>
<path d="M49.5 66L14.5 13.5L29 8L65 64L49.5 66Z" fill="white" stroke="white"/>
<path d="M95 38H109V51L95 58V38Z" fill="white" stroke="white" stroke-width="1.5"/>
<path d="M152 40L165.5 36.5V76L152 81V40Z" fill="white" stroke="white" stroke-width="1.5"/>
<path d="M228 7H191L196.47 17H228V7Z" fill="white" stroke="white" stroke-width="4.5"/>
<path d="M218 88H182L172 98H196L218 88Z" fill="white" stroke="white" stroke-width="4.5"/>
<path d="M265.491 12.6599C264.549 13.4845 237.513 40.1667 252.533 68.2626L262.487 51.299C253.181 37.8696 265.55 19.4925 265.55 19.4925C280.688 -0.769526 302.776 2.47003 312.141 5.06168C315.675 6.0041 319.268 7.88894 322.331 10.6573C325.217 13.2489 328.044 17.0186 328.398 21.554C328.751 26.2072 323.45 31.1549 320.8 33.3342C319.445 34.4533 318.385 35.8081 317.855 37.5751C315.557 45.5856 327.043 48.354 333.935 48.5307C339.471 48.6485 344.301 46.9404 347.305 43.2885C353.608 35.6314 347.6 26.5017 340.06 19.2568C331.107 10.7162 320.152 5.23839 309.608 3.47135C296.415 1.23311 279.746 -0.180513 265.491 12.6599Z" fill="black" stroke="black" stroke-width="2.94506" stroke-miterlimit="10" stroke-linejoin="bevel"/>
<path d="M285.518 66.79C286.637 64.3751 288.792 60.9725 290.5 59.5L282.16 60.4876C281.041 62.019 280.982 64.434 282.042 66.7311C283.279 69.205 284.988 69.9707 286.696 72.8568C289.641 77.9223 286.401 83.8124 281.218 82.8111C274.915 81.5742 266.139 76.5676 266.139 76.5676C281.925 91.7641 302.01 97.3008 314.733 98.2432C346.951 100.54 339.118 54.8331 299.772 68.4393C284.163 73.8582 285.518 66.79 285.518 66.79Z" fill="black" stroke="black" stroke-width="2.94506" stroke-miterlimit="10"/>
<path d="M386 7H375V27.5L386 27.2705V13.4728V11.9596V7Z" fill="white" stroke="white" stroke-width="4.5"/>
<path d="M447 43V60.7127V66.1172V93H458V43H447Z" fill="white" stroke="white" stroke-width="4.5"/>
</svg>
