<?xml version="1.0" standalone="no"?>
<!DOCTYPE svg PUBLIC "-//W3C//DTD SVG 1.1//EN" "http://www.w3.org/Graphics/SVG/1.1/DTD/svg11.dtd" >
<svg xmlns="http://www.w3.org/2000/svg" xmlns:xlink="http://www.w3.org/1999/xlink" version="1.1">
<metadata>
Created by FontForge 20170731 at Fri Mar  6 19:48:12 2020
 By Aleksey,,,
Copyright (c) 2020 by YorgoAndCo. All rights reserved.
</metadata>
<defs>
<font id="BrilliantCutPro-Regular" horiz-adv-x="1486" >
  <font-face 
    font-family="Brilliant Cut Pro"
    font-weight="400"
    font-stretch="normal"
    units-per-em="2048"
    panose-1="0 0 5 0 0 0 0 0 0 0"
    ascent="1638"
    descent="-410"
    x-height="1043"
    cap-height="1434"
    bbox="-1450 -532 2925 1979"
    underline-thickness="107"
    underline-position="-427"
    unicode-range="U+000D-FB02"
  />
<missing-glyph horiz-adv-x="1024" 
 />
    <glyph glyph-name="fi" unicode="fi" horiz-adv-x="1382" 
d="M527.5 1332q-57.5 -57 -57.5 -172v-117h379v-150h-379v-893h-165v893h-273l21 150h252v133q0 114 43.5 195t120.5 122.5t176 41.5q105 0 204 -46v-136q-91 36 -164 36q-100 0 -157.5 -57zM1043 1043h165v-1043h-165v1043zM1040 1272.5q-35 34.5 -35 85.5q0 50 35 84.5
t85 34.5t85 -34.5t35 -84.5q0 -51 -35 -85.5t-85 -34.5t-85 34.5z" />
    <glyph glyph-name="fl" unicode="fl" horiz-adv-x="1409" 
d="M527.5 1332q-57.5 -57 -57.5 -172v-117h379v-150h-379v-893h-165v893h-273l21 150h252v133q0 114 43.5 195t120.5 122.5t176 41.5q105 0 204 -46v-136q-91 36 -164 36q-100 0 -157.5 -57zM1060 1536h165v-1536h-165v1536z" />
    <glyph glyph-name=".notdef" horiz-adv-x="1024" 
 />
    <glyph glyph-name=".null" horiz-adv-x="0" 
 />
    <glyph glyph-name="nonmarkingreturn" unicode="&#xd;" horiz-adv-x="1024" 
 />
    <glyph glyph-name="space" unicode=" " horiz-adv-x="554" 
 />
    <glyph glyph-name="exclam" unicode="!" horiz-adv-x="591" 
d="M217 813v621h165v-621l-21 -411h-122zM209.5 14.5q-34.5 34.5 -34.5 91.5q0 55 34.5 89t91.5 34q55 0 89.5 -34t34.5 -89q0 -57 -34.5 -91.5t-89.5 -34.5q-57 0 -91.5 34.5z" />
    <glyph glyph-name="quotedbl" unicode="&#x22;" horiz-adv-x="955" 
d="M204 1434h179l-32 -416h-115zM574 1434h179l-32 -416h-115z" />
    <glyph glyph-name="numbersign" unicode="#" 
d="M1455 866h-390l-102 -298h348v-107h-385l-158 -461h-116l158 461h-309l-158 -461h-116l158 461h-354v107h390l103 298h-348v107h384l158 461h117l-158 -461h308l158 461h117l-158 -461h353v-107zM846 568l103 298h-309l-102 -298h308z" />
    <glyph glyph-name="dollar" unicode="$" 
d="M1254 213q-54 -95 -166 -155t-279 -74v-86h-108v82q-331 3 -549 177l55 156q202 -174 494 -178v543q-158 24 -257.5 54.5t-167.5 106t-68 211.5q0 125 59.5 214.5t170.5 137.5t263 52v82h108v-86q122 -10 233 -48.5t201 -101.5l-53 -150q-167 124 -381 145v-470
q155 -24 257.5 -58.5t172 -115.5t69.5 -224q0 -119 -54 -214zM426.5 948q40.5 -44 107 -66.5t167.5 -39.5v457q-150 -5 -232.5 -67t-82.5 -169q0 -71 40.5 -115zM1050 234q79 76 79 186q0 79 -41.5 127t-109.5 73t-169 42v-522q162 18 241 94z" />
    <glyph glyph-name="percent" unicode="%" 
d="M205.5 913q-66.5 39 -105.5 105.5t-39 146.5q0 78 39 144.5t105.5 105.5t146.5 39t146.5 -39t105.5 -105.5t39 -144.5q0 -80 -39 -146.5t-105.5 -105.5t-146.5 -39t-146.5 39zM1217 1434h192l-1140 -1434h-192zM435 1021.5q38 22.5 60 60.5t22 83q0 44 -22.5 81.5t-60 60
t-82.5 22.5t-82.5 -22.5t-60 -60t-22.5 -81.5q0 -45 22 -83t60 -60.5t83 -22.5t83 22.5zM994.5 24q-66.5 39 -105.5 105.5t-39 146.5q0 78 39 144.5t105.5 105.5t146.5 39t146.5 -39t105.5 -105.5t39 -144.5q0 -80 -39 -146.5t-105.5 -105.5t-146.5 -39t-146.5 39z
M1224 132.5q38 22.5 60 60.5t22 83q0 44 -22.5 81.5t-60 60t-82.5 22.5t-82.5 -22.5t-60 -60t-22.5 -81.5q0 -45 22 -83t60 -60.5t83 -22.5t83 22.5z" />
    <glyph glyph-name="ampersand" unicode="&#x26;" horiz-adv-x="1629" 
d="M1344 0l-125 158q-100 -85 -232 -131.5t-288 -46.5q-177 0 -305 61t-194 167t-66 239q0 130 63.5 233.5t183.5 208.5l154 138l-304 386v21h909v-156h-611l685 -880q71 128 71 295h170q0 -121 -35 -230.5t-102 -198.5l206 -264h-180zM944.5 171.5q103.5 38.5 178.5 109.5
l-497 631l-95 -82q-111 -98 -167 -183t-56 -185q0 -97 47 -171.5t139.5 -116t222.5 -41.5q124 0 227.5 38.5z" />
    <glyph glyph-name="quotesingle" unicode="'" horiz-adv-x="584" 
d="M204 1434h179l-32 -416h-115z" />
    <glyph glyph-name="parenleft" unicode="(" horiz-adv-x="766" 
d="M305.5 -76q-119.5 267 -119.5 588t119.5 588t310.5 453l128 -120q-170 -174 -272 -410t-102 -511t102 -511t272 -410l-128 -120q-191 186 -310.5 453z" />
    <glyph glyph-name="parenright" unicode=")" horiz-adv-x="766" 
d="M22 -409q170 174 272 410t102 511t-102 511t-272 410l128 120q191 -186 310.5 -453t119.5 -588t-119.5 -588t-310.5 -453z" />
    <glyph glyph-name="asterisk" unicode="*" horiz-adv-x="788" 
d="M685 1246l-223 -129l223 -129l-34 -59l-223 129v-258h-68v258l-223 -129l-35 59l223 129l-223 129l35 59l223 -129v258h68v-258l223 129z" />
    <glyph glyph-name="plus" unicode="+" 
d="M1253 794v-155h-432v-432h-155v432h-432v155h432v432h155v-432h432z" />
    <glyph glyph-name="comma" unicode="," horiz-adv-x="584" 
d="M81 -311l167 529l158 -63l-227 -503z" />
    <glyph glyph-name="hyphen" unicode="-" horiz-adv-x="1085" 
d="M154 812h776v-145h-776v145z" />
    <glyph glyph-name="period" unicode="." horiz-adv-x="584" 
d="M202.5 14.5q-34.5 34.5 -34.5 91.5q0 55 34.5 89t91.5 34q55 0 89.5 -34t34.5 -89q0 -57 -34.5 -91.5t-89.5 -34.5q-57 0 -91.5 34.5z" />
    <glyph glyph-name="slash" unicode="/" horiz-adv-x="1010" 
d="M758 1536h191l-696 -1618h-192z" />
    <glyph glyph-name="zero" unicode="0" 
d="M406.5 73q-142.5 93 -218 260t-76.5 386q0 218 75.5 384.5t218.5 258.5t338 92q196 0 338 -92t217 -258.5t75 -384.5q0 -219 -75 -386t-217.5 -260t-337.5 -93t-337.5 93zM988 207q100 72 150.5 203t50.5 309q0 176 -50.5 306.5t-150.5 202t-245 71.5q-144 0 -244 -72
t-151 -202.5t-51 -305.5q0 -177 51 -308.5t151 -203.5t244 -72q145 0 245 72z" />
    <glyph glyph-name="one" unicode="1" horiz-adv-x="802" 
d="M361 1278h-294l23 156h446v-1434h-175v1278z" />
    <glyph glyph-name="two" unicode="2" 
d="M242.5 411.5q81.5 119.5 195.5 178t295 117.5q133 44 208.5 78t125.5 92.5t50 149.5q0 80 -40 142t-121.5 97t-202.5 35q-147 0 -278 -51t-232 -140l-76 139q111 95 262.5 150t327.5 55q174 0 294 -54t180.5 -150t60.5 -222q0 -134 -64.5 -218t-158.5 -129t-252 -97
q-156 -51 -249.5 -95.5t-162.5 -125t-80 -208.5h985l-23 -155h-1126v93q0 199 81.5 318.5z" />
    <glyph glyph-name="three" unicode="3" 
d="M1110.5 893.5q119.5 -56.5 182 -158.5t62.5 -238q0 -149 -76 -266t-224.5 -184t-357.5 -67q-204 0 -358 63t-278 169l90 132q231 -209 552 -209q155 0 262 46.5t160.5 128t53.5 187.5q0 148 -103.5 232.5t-313.5 84.5q-83 0 -159 -13t-156 -34l-18 21l473 490h-702
l22 156h987v-21l-445 -465q38 2 60 2q167 0 286.5 -56.5z" />
    <glyph glyph-name="four" unicode="4" 
d="M1409 526l-23 -156h-245v-370h-175v370h-867l-10 71l570 993h482v-908h268zM323 526h643v752h-210l-433 -749v-3z" />
    <glyph glyph-name="five" unicode="5" 
d="M1094.5 897.5q121.5 -56.5 185.5 -159.5t64 -240q0 -151 -77.5 -268.5t-224 -183.5t-346.5 -66q-361 0 -624 223l90 130q118 -94 246 -146t290 -52q149 0 252.5 45t156 124.5t52.5 183.5q0 99 -47.5 172.5t-137.5 113.5t-213 40q-148 0 -287 -47t-247 -105l-8 7l42 765
h951l-22 -156h-769l-23 -420q96 43 196 69.5t211 26.5q168 0 289.5 -56.5z" />
    <glyph glyph-name="six" unicode="6" 
d="M1118 892q124 -62 189 -168.5t65 -235.5q0 -139 -72.5 -255t-209 -184.5t-319.5 -68.5q-204 0 -350 83.5t-222 233t-76 344.5q0 235 117 420t331 289t496 104l35 -155q-221 0 -386.5 -61t-267 -175t-133.5 -272q100 69 229 116t281 47q169 0 293 -62zM999.5 181.5
q94.5 46.5 145.5 127.5t51 180q0 96 -51 169.5t-146.5 114.5t-225.5 41q-134 0 -255 -37t-216 -94q-1 -13 -1 -39q0 -155 55.5 -269.5t163 -177t260.5 -62.5q125 0 219.5 46.5z" />
    <glyph glyph-name="seven" unicode="7" horiz-adv-x="1400" 
d="M749.5 596q137.5 313 332.5 682h-792l-43 -249h-174l63 405h1212v-12l-98 -195q-369 -696 -520 -1227h-198q80 283 217.5 596z" />
    <glyph glyph-name="eight" unicode="8" 
d="M1278 636.5q79 -94.5 79 -225.5q0 -135 -77 -232t-215.5 -148t-321.5 -51t-321.5 51t-215.5 148t-77 232q0 131 79.5 226t220.5 143q-104 49 -162 130t-58 187q0 113 65 193.5t185.5 122t283.5 41.5t283.5 -41.5t186 -122t65.5 -193.5q0 -106 -58 -187.5t-162 -129.5
q141 -49 220 -143.5zM473.5 1240q-96.5 -59 -96.5 -174q0 -112 97.5 -174t268.5 -62t269 62t98 174q0 115 -97 174t-270 59t-269.5 -59zM971.5 170.5q96.5 35.5 148.5 102t52 155.5q0 85 -52 147t-148.5 95.5t-228.5 33.5t-228.5 -33.5t-148.5 -95.5t-52 -147
q0 -89 52 -155.5t148.5 -102t228.5 -35.5t228.5 35.5z" />
    <glyph glyph-name="nine" unicode="9" 
d="M1065 1369.5q146 -83.5 222 -233t76 -344.5q0 -235 -117 -420t-331 -289t-496 -104l-35 155q221 0 386.5 61t267 175t133.5 272q-100 -69 -229 -116t-281 -47q-169 0 -293 62t-189 168.5t-65 235.5q0 139 72.5 255t209 184.5t319.5 68.5q204 0 350 -83.5zM968 656
q121 37 216 94q1 13 1 39q0 155 -55.5 269.5t-163 177t-260.5 62.5q-125 0 -219.5 -46.5t-145.5 -127.5t-51 -180q0 -96 51 -169.5t146.5 -114.5t225.5 -41q134 0 255 37z" />
    <glyph glyph-name="colon" unicode=":" horiz-adv-x="584" 
d="M209.5 14.5q-34.5 34.5 -34.5 91.5q0 55 34.5 89t91.5 34q55 0 89.5 -34t34.5 -89q0 -57 -34.5 -91.5t-89.5 -34.5q-57 0 -91.5 34.5zM209.5 822.5q-34.5 34.5 -34.5 91.5q0 55 34.5 89t91.5 34q55 0 89.5 -34t34.5 -89q0 -57 -34.5 -91.5t-89.5 -34.5q-57 0 -91.5 34.5z
" />
    <glyph glyph-name="semicolon" unicode=";" horiz-adv-x="507" 
d="M72 -311l167 529l158 -63l-227 -503zM193.5 822.5q-34.5 34.5 -34.5 91.5q0 55 34.5 89t91.5 34q55 0 89.5 -34t34.5 -89q0 -57 -34.5 -91.5t-89.5 -34.5q-57 0 -91.5 34.5z" />
    <glyph glyph-name="less" unicode="&#x3c;" 
d="M1252 1267v-166l-796 -385l796 -384v-166l-1019 495v111z" />
    <glyph glyph-name="equal" unicode="=" 
d="M236 999h1016v-155h-1016v155zM236 590h1016v-156h-1016v156z" />
    <glyph glyph-name="greater" unicode="&#x3e;" 
d="M234 1267l1019 -495v-111l-1019 -495v166l796 384l-796 385v166z" />
    <glyph glyph-name="question" unicode="?" horiz-adv-x="1104" 
d="M729 1407.5q108 -46.5 162 -132.5t54 -204q0 -119 -58.5 -214t-166 -152.5t-248.5 -67.5l-7 -235h-122l-18 373q46 -6 85 -6q111 0 195 33t129.5 96t45.5 150q0 125 -87.5 192.5t-254.5 67.5q-102 0 -200 -22t-176 -56l-30 136q81 37 193.5 62.5t236.5 25.5
q159 0 267 -46.5zM494.5 195q34.5 -34 34.5 -89q0 -57 -34.5 -91.5t-89.5 -34.5q-57 0 -91.5 34.5t-34.5 91.5q0 55 34.5 89t91.5 34q55 0 89.5 -34z" />
    <glyph glyph-name="at" unicode="@" horiz-adv-x="2255" 
d="M1622 905v-532q0 -58 31.5 -98.5t98.5 -40.5q111 0 172.5 87t61.5 255q0 165 -94.5 304t-282.5 223t-455 84q-257 0 -439.5 -77.5t-278 -226t-95.5 -358.5q0 -222 101.5 -375.5t293 -231.5t458.5 -78q201 0 370 33.5t305 88.5l4 -107q-127 -54 -299 -88t-380 -34
q-297 0 -514 91.5t-334 269.5t-117 431q0 238 110 411t318 265.5t497 92.5q301 0 514.5 -100t321.5 -264t108 -354q0 -144 -45.5 -249.5t-127 -162t-188.5 -56.5q-100 0 -167 41t-95 109q-78 -69 -171 -110t-211 -41q-109 0 -205.5 46.5t-156 139t-59.5 225.5q0 138 59 230
t155 135t207 43q203 0 368 -141l6 120h155zM881.5 374q39.5 -60 106.5 -91t148 -31q96 0 170 26.5t151 79.5v316q-77 53 -151 79.5t-170 26.5q-129 0 -211.5 -65t-82.5 -197q0 -84 39.5 -144z" />
    <glyph glyph-name="A" unicode="A" horiz-adv-x="1687" 
d="M1426 0l-172 492h-819l-170 -492h-183l506 1434h511l506 -1434h-179zM489 648h711l-220 630h-273z" />
    <glyph glyph-name="B" unicode="B" horiz-adv-x="1580" 
d="M1264.5 790.5q94.5 -57.5 146 -148.5t51.5 -203q0 -122 -56 -222t-164 -158.5t-256 -58.5h-781v1434h610q127 0 210 -43.5t121.5 -115t38.5 -157.5q0 -84 -36 -151t-106 -107q127 -12 221.5 -69.5zM379 888h415q112 0 165 54t53 141q0 86 -51 140.5t-159 54.5h-423v-390z
M1141.5 192.5q73.5 37.5 110 104t36.5 152.5q0 85 -42 149.5t-116.5 99.5t-168.5 35h-582v-578h583q106 0 179.5 37.5z" />
    <glyph glyph-name="C" unicode="C" horiz-adv-x="1615" 
d="M477.5 73.5q-173.5 93.5 -269.5 261.5t-96 384q0 218 100.5 385t275 258.5t390.5 91.5q194 0 348.5 -63.5t269.5 -172.5l-105 -136q-223 207 -511 207q-170 0 -302.5 -71.5t-206.5 -200.5t-74 -298q0 -168 75.5 -299t210.5 -203.5t307 -72.5q170 0 298 64t228 163
l106 -133q-122 -123 -281 -190.5t-366 -67.5q-224 0 -397.5 93.5z" />
    <glyph glyph-name="D" unicode="D" horiz-adv-x="1693" 
d="M823 1434q235 0 406 -87t261.5 -248t90.5 -379q0 -219 -90.5 -381.5t-260 -250.5t-400.5 -88h-625v1434h618zM1119 222q134 67 205 194t71 304q0 273 -154.5 415.5t-442.5 142.5h-419v-1123h419q187 0 321 67z" />
    <glyph glyph-name="E" unicode="E" horiz-adv-x="1530" 
d="M205 1434h1177v-156h-1003v-406h598v-156h-598v-561h1003v-155h-1177v1434z" />
    <glyph glyph-name="F" unicode="F" horiz-adv-x="1492" 
d="M205 1434h1184v-156h-1010v-409h593v-154h-593v-715h-174v1434z" />
    <glyph glyph-name="G" unicode="G" horiz-adv-x="1721" 
d="M494 73.5q-185 93.5 -283.5 261t-98.5 384.5q0 216 102 383.5t279.5 259.5t398.5 92q311 0 571 -176l-68 -157q-100 78 -224 123t-270 45q-177 0 -314 -71t-213.5 -200t-76.5 -299q0 -174 76 -304t219 -200.5t339 -70.5q101 0 183.5 17t145.5 42t143 65v354h-472l-19 155
h666v-618q-154 -84 -305 -131.5t-343 -47.5q-251 0 -436 93.5z" />
    <glyph glyph-name="H" unicode="H" horiz-adv-x="1725" 
d="M205 1434h174v-508h967v508h174v-1434h-174v771h-967v-771h-174v1434z" />
    <glyph glyph-name="I" unicode="I" horiz-adv-x="584" 
d="M205 1434h174v-1434h-174v1434z" />
    <glyph glyph-name="J" unicode="J" horiz-adv-x="768" 
d="M249.5 185q87.5 39 124 118t36.5 208v923h174v-954q0 -242 -128 -366t-400 -124h-13l-33 156q152 0 239.5 39z" />
    <glyph glyph-name="K" unicode="K" horiz-adv-x="1583" 
d="M1481 1434l-469 -698l467 -736h-208l-391 615h-501v-615h-174v1434h174v-664h456l436 664h210z" />
    <glyph glyph-name="L" unicode="L" horiz-adv-x="1415" 
d="M205 1434h174v-1279h932v-155h-1106v1434z" />
    <glyph glyph-name="M" unicode="M" horiz-adv-x="1963" 
d="M205 1434h273l507 -795h3l497 795h273v-1434h-174v1258h-4l-475 -742h-237l-485 742h-4v-1258h-174v1434z" />
    <glyph glyph-name="N" unicode="N" horiz-adv-x="1637" 
d="M205 1434h424l622 -538h7v538h175v-1434h-175v652l-692 607h-187v-1259h-174v1434z" />
    <glyph glyph-name="O" unicode="O" horiz-adv-x="1756" 
d="M493.5 74.5q-175.5 94.5 -278.5 262.5t-103 381t103 381t278.5 261.5t386.5 93.5t386 -93.5t276.5 -261.5t101.5 -381t-102 -381.5t-276.5 -262.5t-385.5 -94t-386.5 94.5zM1171.5 217q132.5 73 210 203.5t77.5 297.5q0 166 -77 296t-209 202.5t-293 72.5
q-162 0 -295 -72.5t-210.5 -202.5t-77.5 -296q0 -167 78 -297.5t211.5 -203.5t293.5 -73q159 0 291.5 73z" />
    <glyph glyph-name="P" unicode="P" horiz-adv-x="1561" 
d="M1002 1434q135 0 238.5 -54t160.5 -149.5t57 -217.5q0 -127 -57 -223.5t-160 -150t-239 -53.5h-623v-586h-174v1434h797zM1204 812.5q78 71.5 78 200.5q0 125 -78 195t-218 70h-607v-537h607q140 0 218 71.5z" />
    <glyph glyph-name="Q" unicode="Q" horiz-adv-x="1756" 
d="M1505 0l-142 152q-103 -82 -227 -127t-256 -45q-211 0 -386.5 94.5t-278.5 262.5t-103 381t103 381t278.5 261.5t386.5 93.5t386 -93.5t276.5 -261.5t101.5 -381q0 -127 -44 -243.5t-124 -212.5l245 -262h-216zM1080 176.5q95 32.5 172 93.5l-449 480h216l341 -364
q48 70 73.5 154t25.5 178q0 166 -77 296t-209 202.5t-293 72.5q-162 0 -295 -72.5t-210.5 -202.5t-77.5 -296q0 -167 78 -297.5t211.5 -203.5t293.5 -73q105 0 200 32.5z" />
    <glyph glyph-name="R" unicode="R" horiz-adv-x="1656" 
d="M1037 645l458 -645h-209l-442 645h-465v-645h-174v1434h853q126 0 226 -49.5t156 -139t56 -204.5q0 -116 -56 -206t-156 -140t-226 -50h-21zM379 800h662q128 0 204 63.5t76 177.5t-76 175.5t-204 61.5h-662v-478z" />
    <glyph glyph-name="S" unicode="S" horiz-adv-x="1345" 
d="M82 157l55 156q206 -178 509 -178q142 0 234.5 38t135.5 102t43 145q0 91 -54.5 141.5t-135.5 72t-222 42.5q-165 24 -266 54t-172 105.5t-71 214.5q0 128 62.5 219t178.5 138t274 47q147 0 280.5 -40t239.5 -114l-53 -150q-99 73 -217 111t-247 38q-161 0 -250.5 -62.5
t-89.5 -173.5q0 -81 51 -126.5t127.5 -65.5t211.5 -41q171 -27 277 -59t180.5 -113.5t74.5 -230.5q0 -130 -64.5 -230.5t-197.5 -158.5t-333 -58q-341 0 -561 177z" />
    <glyph glyph-name="T" unicode="T" horiz-adv-x="1544" 
d="M685 1278h-619v156h1412v-156h-619v-1278h-174v1278z" />
    <glyph glyph-name="U" unicode="U" horiz-adv-x="1614" 
d="M471.5 49q-141.5 69 -219 205.5t-77.5 334.5v845h174v-830q0 -224 116 -346.5t341 -122.5q228 0 343.5 122t115.5 347v830h175v-845q0 -198 -78 -334.5t-220.5 -205.5t-335.5 -69t-334.5 69z" />
    <glyph glyph-name="V" unicode="V" horiz-adv-x="1590" 
d="M82 1434h183l453 -1279h154l456 1279h180l-517 -1434h-392z" />
    <glyph glyph-name="W" unicode="W" horiz-adv-x="2180" 
d="M82 1434h185l334 -1244l313 1157h353l312 -1157l334 1244h185l-402 -1434h-232l-325 1192h-97l-326 -1192h-232z" />
    <glyph glyph-name="X" unicode="X" horiz-adv-x="1499" 
d="M1417 1434l-469 -715l469 -719h-206l-416 641h-94l-414 -641h-205l465 719l-465 715h205l414 -637h94l416 637h206z" />
    <glyph glyph-name="Y" unicode="Y" horiz-adv-x="1524" 
d="M1452 1434l-605 -921v-513h-175v508l-600 926h212l451 -702h49l456 702h212z" />
    <glyph glyph-name="Z" unicode="Z" horiz-adv-x="1527" 
d="M138 292l1064 931v55h-1064v156h1238v-292l-1064 -930v-57h1077v-155h-1251v292z" />
    <glyph glyph-name="bracketleft" unicode="[" horiz-adv-x="766" 
d="M745 1381h-374v-1738h374v-155h-549v2048h549v-155z" />
    <glyph glyph-name="backslash" unicode="\" horiz-adv-x="1010" 
d="M949 -82h-192l-696 1618h191z" />
    <glyph glyph-name="bracketright" unicode="]" horiz-adv-x="766" 
d="M570 1536v-2048h-549v155h374v1738h-374v155h549z" />
    <glyph glyph-name="asciicircum" unicode="^" 
d="M236 1066l504 368h7l505 -368l-68 -131l-439 338h-3l-440 -338z" />
    <glyph glyph-name="underscore" unicode="_" horiz-adv-x="1320" 
d="M154 0h1012v-146h-1012v146z" />
    <glyph glyph-name="grave" unicode="`" horiz-adv-x="2056" 
d="M1034 1169l-366 365v12h248l244 -366v-11h-126z" />
    <glyph glyph-name="a" unicode="a" horiz-adv-x="1268" 
d="M874 1016.5q108 -47.5 165 -136.5t57 -210v-670h-156l-5 142q-89 -71 -191 -116.5t-232 -45.5q-125 0 -214.5 39.5t-136.5 113.5t-47 175q0 147 109 226t319 79h389v50q0 124 -85.5 192t-246.5 68q-104 0 -203.5 -24t-171.5 -59v144q82 36 184.5 58t209.5 22
q148 0 256 -47.5zM353.5 164q69.5 -58 202.5 -58q108 0 197 39.5t178 108.5v252h-373q-274 0 -274 -183q0 -101 69.5 -159z" />
    <glyph glyph-name="b" unicode="b" horiz-adv-x="1388" 
d="M1019.5 998.5q115.5 -65.5 179.5 -187.5t64 -287q0 -160 -64 -283.5t-180.5 -192t-267.5 -68.5q-127 0 -224.5 36t-181.5 94l-5 -110h-155v1536h165v-600q83 57 179.5 92.5t221.5 35.5q153 0 268.5 -65.5zM905.5 175q90.5 50 139.5 140t49 209q0 124 -49 212.5
t-138.5 135t-211.5 46.5q-102 0 -185 -24.5t-160 -65.5v-614q77 -40 160 -64.5t185 -24.5q120 0 210.5 50z" />
    <glyph glyph-name="c" unicode="c" horiz-adv-x="1283" 
d="M395.5 48.5q-130.5 68.5 -201 191t-70.5 278.5q0 161 74 285t204.5 192.5t293.5 68.5q123 0 236 -38.5t207 -103.5l-40 -153q-80 63 -180.5 101t-213.5 38q-125 0 -218 -48.5t-143 -135.5t-50 -201t50.5 -202t144 -137t219.5 -49q120 0 219.5 42.5t185.5 117.5l60 -147
q-86 -75 -206.5 -121.5t-266.5 -46.5q-174 0 -304.5 68.5z" />
    <glyph glyph-name="d" unicode="d" horiz-adv-x="1388" 
d="M1203 1536v-1536h-156l-5 110q-194 -130 -405 -130q-147 0 -264 68.5t-183 192.5t-66 283q0 164 66 286.5t182.5 188t264.5 65.5q119 0 217.5 -36t183.5 -93v601h165zM1038 215v613q-172 90 -345 90q-117 0 -207 -46.5t-141 -135.5t-51 -212q0 -118 51 -208.5t142 -140.5
t206 -50q173 0 345 90z" />
    <glyph glyph-name="e" unicode="e" horiz-adv-x="1324" 
d="M1198 482h-907q15 -172 129 -269t334 -97q180 0 346 72v-143q-85 -30 -181 -47.5t-192 -17.5q-207 0 -342 72t-198 197t-63 287q0 153 71.5 273t196.5 187.5t278 67.5q152 0 272.5 -71.5t188 -197t67.5 -281.5v-32zM484.5 884.5q-82.5 -43.5 -132 -120.5t-60.5 -175h748
q-11 95 -58 172t-126 122t-183 45q-106 0 -188.5 -43.5z" />
    <glyph glyph-name="f" unicode="f" horiz-adv-x="925" 
d="M527.5 1332q-57.5 -57 -57.5 -172v-117h379v-150h-379v-893h-165v893h-273l21 150h252v133q0 114 43.5 195t120.5 122.5t176 41.5q105 0 204 -46v-136q-91 36 -164 36q-100 0 -157.5 -57z" />
    <glyph glyph-name="g" unicode="g" horiz-adv-x="1334" 
d="M1161 1043v-1100q0 -143 -71.5 -250.5t-202 -166t-303.5 -58.5q-129 0 -229.5 26t-165.5 60v150q76 -40 171 -65.5t208 -25.5q139 0 235 44t144.5 122t48.5 181v147q-84 -56 -178 -91.5t-207 -35.5q-155 0 -267 69t-171 193t-59 286q0 163 60 284t172 186.5t265 65.5
q115 0 210 -37t180 -95l5 111h155zM836 150q79 25 160 66v611q-79 41 -159 66t-170 25q-122 0 -208 -46.5t-130.5 -134.5t-44.5 -209t43.5 -212t130 -141t209.5 -50q90 0 169 25z" />
    <glyph glyph-name="h" unicode="h" horiz-adv-x="1358" 
d="M998 1015q94 -49 141 -138t47 -210v-667h-165v646q0 127 -78 199.5t-230 72.5q-104 0 -193 -28.5t-170 -79.5v-810h-165v1536h165v-621q196 149 417 149q137 0 231 -49z" />
    <glyph glyph-name="i" unicode="i" horiz-adv-x="514" 
d="M175 1043h165v-1043h-165v1043zM172 1272.5q-35 34.5 -35 85.5q0 50 35 84.5t85 34.5t85 -34.5t35 -84.5q0 -51 -35 -85.5t-85 -34.5t-85 34.5z" />
    <glyph glyph-name="j" unicode="j" horiz-adv-x="518" 
d="M-201 -506l-12 156q91 -37 175 -37q100 0 158 62t58 180v1188h165v-1206q0 -117 -46 -200t-126.5 -126t-181.5 -43q-107 0 -190 26zM175 1272.5q-35 34.5 -35 85.5q0 50 35 84.5t85 34.5t85 -34.5t35 -84.5q0 -51 -35 -85.5t-85 -34.5t-85 34.5z" />
    <glyph glyph-name="k" unicode="k" horiz-adv-x="1304" 
d="M1008 0l-316 485h-342v-485h-165v1536h165v-895h321l290 402h202l-328 -465l370 -578h-197z" />
    <glyph glyph-name="l" unicode="l" horiz-adv-x="535" 
d="M185 1536h165v-1536h-165v1536z" />
    <glyph glyph-name="m" unicode="m" horiz-adv-x="2103" 
d="M1751.5 1015q89.5 -49 134.5 -138t45 -210v-667h-165v646q0 126 -74.5 199t-217.5 73q-100 0 -185 -30.5t-167 -86.5q16 -60 16 -134v-667h-165v646q0 126 -74.5 199t-217.5 73q-97 0 -178.5 -28t-157.5 -77v-813h-165v1043h155l6 -128q186 149 398 149q129 0 217.5 -48
t134.5 -136q99 84 205 134t236 50t219.5 -49z" />
    <glyph glyph-name="n" unicode="n" horiz-adv-x="1331" 
d="M974.5 1015q91.5 -49 137.5 -138t46 -210v-667h-165v646q0 127 -76 199.5t-223 72.5q-183 0 -349 -106v-812h-165v1043h155l6 -129q87 67 187 108.5t221 41.5q134 0 225.5 -49z" />
    <glyph glyph-name="o" unicode="o" horiz-adv-x="1412" 
d="M412 50q-133 70 -210.5 194.5t-77.5 282.5q0 156 77.5 278.5t210.5 190.5t294 68t294 -68t210.5 -190.5t77.5 -278.5q0 -158 -77.5 -282.5t-210.5 -194.5t-294 -70t-294 70zM916 185q94 50 148.5 139.5t54.5 202.5q0 112 -54 199t-148.5 134.5t-210.5 47.5t-210 -47.5
t-148 -134.5t-54 -199q0 -113 54 -202.5t148 -139.5t210 -50t210 50z" />
    <glyph glyph-name="p" unicode="p" horiz-adv-x="1334" 
d="M988 998.5q112 -65.5 172 -186.5t60 -284q0 -162 -59 -286t-171 -193t-267 -69q-113 0 -207 35.5t-178 91.5v-619h-165v1555h155l5 -111q87 58 181.5 95t208.5 37q153 0 265 -65.5zM876.5 175q86.5 50 130 141t43.5 212t-44.5 209t-130.5 134.5t-208 46.5
q-91 0 -170.5 -25t-158.5 -66v-612q80 -41 159.5 -65.5t169.5 -24.5q123 0 209.5 50z" />
    <glyph glyph-name="q" unicode="q" horiz-adv-x="1344" 
d="M1171 1043v-1555h-165v619q-84 -56 -178 -91.5t-207 -35.5q-155 0 -267 69t-171 193t-59 286q0 163 60 284t172 186.5t265 65.5q114 0 208.5 -37t181.5 -95l5 111h155zM846.5 149.5q79.5 24.5 159.5 65.5v612q-79 41 -158.5 66t-170.5 25q-121 0 -207 -46.5t-131 -134.5
t-45 -209t43.5 -212t130 -141t209.5 -50q90 0 169.5 24.5z" />
    <glyph glyph-name="r" unicode="r" horiz-adv-x="905" 
d="M660 913q-87 0 -164 -26.5t-151 -74.5v-812h-165v1043h155l6 -129q84 68 176.5 109t203.5 41q40 0 80 -11l22 -161q-76 21 -163 21z" />
    <glyph glyph-name="s" unicode="s" horiz-adv-x="1106" 
d="M284.5 11.5q-108.5 31.5 -192.5 84.5l27 148q76 -55 181.5 -89.5t234.5 -34.5q101 0 170.5 23.5t104 64.5t34.5 94q0 54 -39.5 85.5t-99 47t-163.5 31.5q-137 22 -222 47t-145.5 85.5t-60.5 168.5q0 92 46.5 159t136.5 102.5t218 35.5q123 0 231 -31.5t194 -78.5
l-19 -142q-83 46 -189.5 78.5t-221.5 32.5q-117 0 -176.5 -38t-59.5 -106q0 -53 39.5 -84.5t99 -46.5t163.5 -31q139 -22 225 -47t147 -85.5t61 -168.5q0 -100 -54.5 -175.5t-163 -118t-266.5 -42.5q-132 0 -240.5 31.5z" />
    <glyph glyph-name="t" unicode="t" horiz-adv-x="1041" 
d="M451 893v-561q0 -97 59 -152t169 -55q59 0 111 17t102 47v-141q-117 -68 -258 -68q-165 0 -256.5 88t-91.5 246v579h-253l21 150h232v272l165 21v-293h462v-150h-462z" />
    <glyph glyph-name="u" unicode="u" horiz-adv-x="1300" 
d="M1120 1043v-1043h-155l-6 129q-191 -149 -399 -149q-126 0 -213 49t-130.5 138t-43.5 209v667h165v-646q0 -126 71 -199t208 -73q95 0 178 28.5t160 77.5v812h165z" />
    <glyph glyph-name="v" unicode="v" horiz-adv-x="1233" 
d="M996 1043h175l-432 -1043h-246l-431 1043h175l349 -856h61z" />
    <glyph glyph-name="w" unicode="w" horiz-adv-x="1909" 
d="M62 1043h175l276 -841l295 841h292l295 -841l277 841h174l-344 -1043h-202l-310 888h-71l-311 -888h-201z" />
    <glyph glyph-name="x" unicode="x" horiz-adv-x="1278" 
d="M833 530l362 -530h-198l-313 456h-92l-312 -456h-197l360 530l-350 513h198l301 -437h92l303 437h198z" />
    <glyph glyph-name="y" unicode="y" horiz-adv-x="1233" 
d="M1171 1043l-567 -1355q-43 -111 -122.5 -165.5t-197.5 -54.5q-70 0 -123 15t-99 42v149q87 -61 198 -61q140 0 195 130l118 257h-80l-431 1043h177l347 -856h61l347 856h177z" />
    <glyph glyph-name="z" unicode="z" horiz-adv-x="1157" 
d="M112 231l780 647v23h-780v142h932v-250l-741 -626v-22h741v-145h-932v231z" />
    <glyph glyph-name="braceleft" unicode="{" horiz-adv-x="766" 
d="M332.5 -316q-94.5 115 -94.5 250q0 57 16.5 105t39.5 84t59 82q39 51 57.5 84t18.5 69q0 88 -118 88h-175v132h175q118 0 118 88q0 36 -18.5 69t-57.5 84q-36 46 -59 82t-39.5 84t-16.5 105q0 135 94.5 250t283.5 213l128 -120q-165 -83 -243.5 -172.5t-78.5 -199.5
q0 -46 14.5 -86.5t35 -72t54.5 -75.5q44 -57 65.5 -96t21.5 -84q0 -53 -32 -85t-93 -50q61 -18 93 -50t32 -85q0 -46 -21.5 -85t-65.5 -96q-34 -45 -54.5 -76t-35 -71t-14.5 -86q0 -110 78.5 -199.5t243.5 -172.5l-128 -120q-189 98 -283.5 213z" />
    <glyph glyph-name="bar" unicode="|" horiz-adv-x="584" 
d="M205 1536h174v-2048h-174v2048z" />
    <glyph glyph-name="braceright" unicode="}" horiz-adv-x="766" 
d="M22 -409q165 83 243.5 172.5t78.5 199.5q0 46 -14.5 86t-35 71t-54.5 76q-44 57 -65.5 96t-21.5 85q0 53 32 85t93 50q-61 18 -93 50t-32 85q0 45 21.5 84t65.5 96q34 44 54.5 75.5t35 72t14.5 86.5q0 110 -78.5 199.5t-243.5 172.5l128 120q189 -98 283.5 -213
t94.5 -250q0 -57 -16.5 -105t-39.5 -84t-59 -82q-39 -51 -57.5 -84t-18.5 -69q0 -88 118 -88h175v-132h-175q-118 0 -118 -88q0 -36 18.5 -69t57.5 -84q36 -46 59 -82t39.5 -84t16.5 -105q0 -135 -94.5 -250t-283.5 -213z" />
    <glyph glyph-name="asciitilde" unicode="~" 
d="M494 850q64 0 122.5 -14.5t142.5 -42.5q77 -27 128.5 -40t105.5 -13q75 0 138.5 28t121.5 82v-176q-113 -89 -260 -89q-64 0 -122.5 14.5t-142.5 42.5q-80 27 -130.5 39.5t-103.5 12.5q-75 0 -139 -27.5t-121 -81.5v176q113 89 260 89z" />
    <glyph glyph-name="uni00A0" unicode="&#xa0;" horiz-adv-x="554" 
 />
    <glyph glyph-name="exclamdown" unicode="&#xa1;" horiz-adv-x="591" 
d="M381.5 1028.5q34.5 -34.5 34.5 -91.5q0 -55 -34.5 -89t-89.5 -34q-57 0 -91.5 34t-34.5 89q0 57 34.5 91.5t91.5 34.5q55 0 89.5 -34.5zM230 641h122l21 -411v-621h-165v621z" />
    <glyph glyph-name="cent" unicode="&#xa2;" 
d="M850 178v-178h-107v177q-160 9 -279 80.5t-183.5 191t-64.5 270.5t67 269.5t186.5 189t273.5 80.5v176h107v-176q115 -9 215.5 -51t179.5 -107l-97 -117q-69 56 -157.5 89.5t-190.5 33.5q-124 0 -217 -49t-144 -137t-51 -201q0 -114 51.5 -202t145.5 -137t218 -49
q115 0 203.5 37.5t163.5 104.5l100 -117q-171 -161 -420 -178z" />
    <glyph glyph-name="sterling" unicode="&#xa3;" 
d="M1373 155l-21 -155h-1186l21 146q110 0 202 46.5t144.5 119t52.5 148.5q0 94 -56 187h-363v106h286l-13 16q-49 60 -79.5 104.5t-51 99t-20.5 116.5q0 110 61 192.5t176.5 127.5t275.5 45q240 0 479 -97v-172q-113 52 -236 84t-243 32q-162 0 -248 -61t-86 -165
q0 -52 19 -99.5t45.5 -86t74.5 -97.5l32 -39h544v-106h-473q44 -80 44 -165q0 -70 -40 -135.5t-105 -114.5t-139 -71v-6h903z" />
    <glyph glyph-name="currency" unicode="&#xa4;" 
d="M1276 525.5q-33 -89.5 -93 -159.5l146 -146l-72 -72l-148 148q-74 -57 -167.5 -88t-196.5 -31q-106 0 -201 32t-170 92l-152 -152l-62 62l151 151q-62 70 -95.5 160.5t-33.5 195.5q0 102 32 190.5t91 158.5l-145 145l72 72l146 -146q75 58 168.5 89.5t198.5 31.5
q104 0 198 -31t168 -89l146 145l72 -72l-145 -144q60 -70 92.5 -158.5t32.5 -191.5t-33 -192.5zM952.5 376q93.5 49 147.5 138t54 204t-54 204t-147.5 137.5t-207.5 48.5t-207 -48.5t-147 -137.5t-54 -204t54 -204t147 -138t207 -49t207.5 49z" />
    <glyph glyph-name="yen" unicode="&#xa5;" 
d="M830 680v-1h309v-107h-309v-169h309v-108h-309v-295h-174v295h-307v108h307v169h-307v107h306l-603 755h216l472 -612h6l472 612h217z" />
    <glyph glyph-name="brokenbar" unicode="&#xa6;" horiz-adv-x="584" 
d="M205 1536h174v-682h-174v682zM205 170h174v-682h-174v682z" />
    <glyph glyph-name="section" unicode="&#xa7;" horiz-adv-x="1231" 
d="M975 149.5q45 -64.5 45 -162.5q0 -96 -52.5 -172.5t-150.5 -119.5t-229 -43q-104 0 -196 24t-162 60l5 152q184 -92 371 -92q117 0 185 50t68 135q0 79 -44.5 126t-133.5 72l-244 69q-139 39 -209 114.5t-70 190.5q0 105 60 175t166 118q-178 92 -178 288q0 97 49 169.5
t141 111.5t217 39q102 0 192.5 -24.5t150.5 -58.5l-5 -150q-70 39 -155 64t-179 25q-116 0 -183 -50t-67 -135q0 -79 44 -125.5t133 -72.5l244 -68q139 -39 209.5 -115t70.5 -191q0 -104 -59.5 -174t-164.5 -117q86 -48 131 -112.5zM904 529q0 62 -37 107t-112 65l-259 72
q-84 -40 -128.5 -89t-44.5 -112q0 -62 37 -107t112 -66l258 -71q174 82 174 201z" />
    <glyph glyph-name="dieresis" unicode="&#xa8;" horiz-adv-x="2134" 
d="M854 1274q-34 34 -34 84t34 84.5t84 34.5t84 -34.5t34 -84.5q0 -49 -34.5 -83.5t-83.5 -34.5q-50 0 -84 34zM1198 1270q-34 34 -34 84t34 84.5t84 34.5t84 -34.5t34 -84.5q0 -49 -34.5 -83.5t-83.5 -34.5q-50 0 -84 34z" />
    <glyph glyph-name="copyright" unicode="&#xa9;" horiz-adv-x="1756" 
d="M494 74.5q-176 94.5 -279 263t-103 381.5t103 381.5t278.5 262.5t386.5 94t386 -94t276.5 -262t101.5 -382q0 -213 -102 -381.5t-277 -263t-385 -94.5t-386 94.5zM1219 148q154 84 243.5 233.5t89.5 337.5q0 189 -89.5 338t-243.5 232t-339 83t-339.5 -83t-245 -232
t-90.5 -338q0 -188 90.5 -337.5t245 -233.5t339.5 -84t339 84zM661 360q-98 53 -150 147t-52 214t54.5 214t152 146t221.5 52q102 0 190.5 -32.5t156.5 -86.5l-75 -90q-51 42 -119 67t-146 25q-96 0 -164.5 -37t-104 -104t-35.5 -154t36 -154t105 -104.5t165 -37.5
q88 0 155.5 28t124.5 77l77 -89q-67 -62 -157 -98t-203 -36q-134 0 -232 53z" />
    <glyph glyph-name="ordfeminine" unicode="&#xaa;" horiz-adv-x="1412" 
d="M370.5 408.5q-89.5 39.5 -136.5 113.5t-47 175q0 147 109 226t319 79h389v50q0 124 -85.5 192t-246.5 68q-104 0 -203.5 -24t-171.5 -59v144q82 36 184.5 58t209.5 22q148 0 256 -47.5t165 -136.5t57 -210v-670h-156l-5 142q-89 -71 -191 -116.5t-232 -45.5
q-125 0 -214.5 39.5zM357 712q0 -101 69.5 -159t202.5 -58q108 0 197 39.5t178 108.5v252h-373q-274 0 -274 -183zM199 140h1014v-140h-1014v140z" />
    <glyph glyph-name="guillemotleft" unicode="&#xab;" horiz-adv-x="1406" 
d="M102 522l428 512h191l-425 -512l425 -512h-191zM662 522l428 512h191l-425 -512l425 -512h-191z" />
    <glyph glyph-name="logicalnot" unicode="&#xac;" 
d="M1094 820h-860v155h1016v-517h-156v362z" />
    <glyph glyph-name="uni00AD" unicode="&#xad;" horiz-adv-x="1085" 
d="M154 812h776v-145h-776v145z" />
    <glyph glyph-name="registered" unicode="&#xae;" horiz-adv-x="1319" 
d="M942 1486q127 -70 201 -196.5t74 -288.5q0 -161 -74.5 -288t-201.5 -198t-279 -71q-154 0 -282.5 71t-203 198t-74.5 288q0 162 74.5 288.5t202.5 196.5t283 70q153 0 280 -70zM897 592q106 59 167.5 166t61.5 243q0 138 -61.5 244.5t-167.5 164.5t-235 58
q-130 0 -237 -58t-169.5 -164.5t-62.5 -244.5q0 -136 62.5 -243t169.5 -166t237 -59q129 0 235 59zM876 1018q-43 -42 -112 -46l166 -234h-93l-161 234h-157v-234h-82v544h315q74 0 120.5 -43t46.5 -112q0 -67 -43 -109zM519 1034h208q50 0 79 24t29 69t-29 68.5t-79 23.5
h-208v-185z" />
    <glyph glyph-name="macron" unicode="&#xaf;" horiz-adv-x="2048" 
d="M678 1408h692v-107h-692v107z" />
    <glyph glyph-name="degree" unicode="&#xb0;" horiz-adv-x="704" 
d="M205.5 913q-66.5 39 -105.5 105.5t-39 146.5q0 78 39 144.5t105.5 105.5t146.5 39t146.5 -39t105.5 -105.5t39 -144.5q0 -80 -39 -146.5t-105.5 -105.5t-146.5 -39t-146.5 39zM435 1021.5q38 22.5 60 60.5t22 83q0 44 -22.5 81.5t-60 60t-82.5 22.5t-82.5 -22.5t-60 -60
t-22.5 -81.5q0 -45 22 -83t60 -60.5t83 -22.5t83 22.5z" />
    <glyph glyph-name="plusminus" unicode="&#xb1;" 
d="M234 155h1019v-155h-1019v155zM1253 1040v-155h-432v-432h-155v432h-432v155h432v432h155v-432h432z" />
    <glyph glyph-name="uni00B2" unicode="&#xb2;" horiz-adv-x="704" 
d="M157 1043.5q29 41.5 69.5 65.5t106.5 51q47 19 75 34t46.5 36.5t18.5 51.5q0 40 -31 62t-92 22q-106 0 -196 -65l-38 73q109 80 243 80q97 0 151.5 -42.5t54.5 -122.5q0 -58 -28 -95.5t-67 -58.5t-103 -46q-47 -18 -75.5 -32t-47.5 -34t-21 -49h348l-14 -80h-429v44
q0 64 29 105.5z" />
    <glyph glyph-name="uni00B3" unicode="&#xb3;" horiz-adv-x="704" 
d="M537 1193.5q48 -44.5 48 -119.5q0 -62 -31 -107t-86 -69t-125 -24q-82 0 -142.5 24t-110.5 65l42 72q91 -74 204 -74q76 0 115.5 32t39.5 87q0 52 -40 80t-122 28h-64v14l125 151h-257l11 81h403v-8l-153 -181q95 -7 143 -51.5z" />
    <glyph glyph-name="acute" unicode="&#xb4;" horiz-adv-x="2048" 
d="M876 1180l244 366h248v-12l-366 -365h-126v11z" />
    <glyph glyph-name="uni00B5" unicode="&#xb5;" 
d="M1217 1043v-1043h-127l-12 87q-159 -107 -333 -107q-167 0 -320 99v-591h-155v1555h155v-799q142 -109 320 -109q89 0 169 28.5t147 78.5v801h156z" />
    <glyph glyph-name="paragraph" unicode="&#xb6;" horiz-adv-x="1594" 
d="M1389 -327h-165v1605h-238v-1605h-165v869h-231q-138 0 -248.5 55.5t-174 157t-63.5 234.5q0 132 63.5 233t174 156.5t248.5 55.5h799v-1761zM821 1278h-216q-95 0 -169 -33t-116 -98t-42 -158t42 -159t116 -99.5t169 -33.5h216v581z" />
    <glyph glyph-name="periodcentered" unicode="&#xb7;" horiz-adv-x="584" 
d="M202.5 489.5q-34.5 34.5 -34.5 91.5q0 55 34.5 89t91.5 34q55 0 89.5 -34t34.5 -89q0 -57 -34.5 -91.5t-89.5 -34.5q-57 0 -91.5 34.5z" />
    <glyph glyph-name="cedilla" unicode="&#xb8;" horiz-adv-x="2048" 
d="M811 -326l267 369l84 -9l-194 -437z" />
    <glyph glyph-name="uni00B9" unicode="&#xb9;" horiz-adv-x="704" 
d="M399 974h185l-13 -80h-451l13 80h180v379h-193l13 81h266v-460z" />
    <glyph glyph-name="ordmasculine" unicode="&#xba;" horiz-adv-x="1412" 
d="M412 439q-133 70 -210.5 194.5t-77.5 282.5q0 156 77.5 278.5t210.5 190.5t294 68t294 -68t210.5 -190.5t77.5 -278.5q0 -158 -77.5 -282.5t-210.5 -194.5t-294 -70t-294 70zM916 574q94 50 148.5 139.5t54.5 202.5q0 112 -54 199t-148.5 134.5t-210.5 47.5t-210 -47.5
t-148 -134.5t-54 -199q0 -113 54 -202.5t148 -139.5t210 -50t210 50zM199 140h1014v-140h-1014v140z" />
    <glyph glyph-name="guillemotright" unicode="&#xbb;" horiz-adv-x="1406" 
d="M316 10h-191l425 512l-425 512h191l428 -512zM876 10h-191l425 512l-425 512h191l428 -512z" />
    <glyph glyph-name="onequarter" unicode="&#xbc;" horiz-adv-x="1512" 
d="M102 974h180v379h-193l13 81h266v-460h185l-13 -80h-451zM1288 1434h134l-1197 -1434h-135zM1457 203l-14 -80h-102v-118h-88v118h-352v45l323 377h117v-342h116zM1013 203h240v277h-3z" />
    <glyph glyph-name="onehalf" unicode="&#xbd;" 
d="M1275 1434h134l-1197 -1434h-135zM133 974h180v379h-193l13 81h266v-460h185l-13 -80h-451zM1326 304.5q-28 -37.5 -67 -58.5t-103 -46q-47 -18 -75.5 -32t-47.5 -34t-21 -49h348l-14 -80h-429v44q0 64 29 105.5t69.5 65.5t106.5 51q47 19 75 34t46.5 36.5t18.5 51.5
q0 40 -31 62t-92 22q-106 0 -196 -65l-38 73q109 80 243 80q97 0 151.5 -42.5t54.5 -122.5q0 -58 -28 -95.5z" />
    <glyph glyph-name="threequarters" unicode="&#xbe;" 
d="M1275 1434h134l-1197 -1434h-135zM554 967q-31 -45 -86 -69t-125 -24q-82 0 -142.5 24t-110.5 65l42 72q91 -74 204 -74q76 0 115.5 32t39.5 87q0 52 -40 80t-122 28h-64v14l125 151h-257l11 81h403v-8l-153 -181q95 -7 143 -51.5t48 -119.5q0 -62 -31 -107zM1413 203
l-14 -80h-102v-118h-88v118h-352v45l323 377h117v-342h116zM969 203h240v277h-3z" />
    <glyph glyph-name="questiondown" unicode="&#xbf;" horiz-adv-x="1183" 
d="M585.5 848q-34.5 34 -34.5 89q0 57 34.5 91.5t89.5 34.5q57 0 91.5 -34.5t34.5 -91.5q0 -55 -34.5 -89t-91.5 -34q-55 0 -89.5 34zM1048 -323q-81 -37 -193.5 -62.5t-236.5 -25.5q-159 0 -267 46.5t-162 132.5t-54 204q0 119 58.5 214t166 152.5t248.5 67.5l7 235h122
l18 -373q-46 6 -85 6q-111 0 -195 -33t-129.5 -96t-45.5 -150q0 -125 87.5 -192.5t254.5 -67.5q102 0 200 22t176 56z" />
    <glyph glyph-name="Agrave" unicode="&#xc0;" horiz-adv-x="1687" 
d="M1426 0l-172 492h-819l-170 -492h-183l506 1434h511l506 -1434h-179zM489 648h711l-220 630h-273zM528 1668v162h12l627 -202l-30 -93z" />
    <glyph glyph-name="Aacute" unicode="&#xc1;" horiz-adv-x="1687" 
d="M1426 0l-172 492h-819l-170 -492h-183l506 1434h511l506 -1434h-179zM489 648h711l-220 630h-273zM519 1651l627 202h12v-162l-609 -133z" />
    <glyph glyph-name="Acircumflex" unicode="&#xc2;" horiz-adv-x="1646" 
d="M1426 0l-172 492h-819l-170 -492h-183l506 1434h511l506 -1434h-179zM489 648h711l-220 630h-273zM418 1670l420 203h12l420 -203l-30 -93h-11l-385 152l-385 -152h-11z" />
    <glyph glyph-name="Atilde" unicode="&#xc3;" horiz-adv-x="1665" 
d="M1426 0l-172 492h-819l-170 -492h-183l506 1434h511l506 -1434h-179zM489 648h711l-220 630h-273zM946.5 1555.5q-42.5 19.5 -71.5 47t-67 72.5q-33 38 -54.5 59t-49 35.5t-60.5 14.5q-53 0 -73 -39t-20 -105v-84h-108v92q0 103 48.5 173t152.5 70q54 0 96.5 -19.5
t71.5 -47t67 -72.5q33 -38 54.5 -59t49 -35.5t60.5 -14.5q53 0 73 39.5t20 105.5v83h107v-92q0 -103 -48 -173t-152 -70q-54 0 -96.5 19.5z" />
    <glyph glyph-name="Adieresis" unicode="&#xc4;" horiz-adv-x="1665" 
d="M1426 0l-172 492h-819l-170 -492h-183l506 1434h511l506 -1434h-179zM489 648h711l-220 630h-273zM561 1635q-34 34 -34 84t34 84.5t84 34.5t84 -34.5t34 -84.5q0 -49 -34.5 -83.5t-83.5 -34.5q-50 0 -84 34zM959 1635q-34 34 -34 84t34 84.5t84 34.5t84 -34.5t34 -84.5
q0 -49 -34.5 -83.5t-83.5 -34.5q-50 0 -84 34z" />
    <glyph glyph-name="Aring" unicode="&#xc5;" horiz-adv-x="1665" 
d="M1426 0l-172 492h-819l-170 -492h-183l506 1434h511l506 -1434h-179zM489 648h711l-220 630h-273zM580 1583q-85 45 -85 123t84.5 122t264.5 44q178 0 262.5 -44t84.5 -122t-84 -123t-263 -45t-264 45zM998 1638q53 27 53 68q0 40 -53 67t-155 27q-104 0 -157 -27
t-53 -67q0 -41 53 -68t157 -27q102 0 155 27z" />
    <glyph glyph-name="AE" unicode="&#xc6;" horiz-adv-x="2373" 
d="M2225 1278h-1003v-406h598v-156h-598v-561h1003v-155h-1177v492h-613l-170 -492h-183l506 1434h1637v-156zM489 648h559v630h-341z" />
    <glyph glyph-name="Ccedilla" unicode="&#xc7;" horiz-adv-x="1615" 
d="M1272 61q-140 -66 -319 -78l-171 -386l-157 77l222 306q-217 6 -384 101t-259 260.5t-92 377.5q0 218 100.5 385t275 258.5t390.5 91.5q194 0 348.5 -63.5t269.5 -172.5l-105 -136q-223 207 -511 207q-170 0 -302.5 -71.5t-206.5 -200.5t-74 -298q0 -168 75.5 -299
t210.5 -203.5t307 -72.5q170 0 298 64t228 163l106 -133q-110 -111 -250 -177z" />
    <glyph glyph-name="Egrave" unicode="&#xc8;" horiz-adv-x="1530" 
d="M205 1434h1177v-156h-1003v-406h598v-156h-598v-561h1003v-155h-1177v1434zM485 1668v162h12l627 -202l-30 -93z" />
    <glyph glyph-name="Eacute" unicode="&#xc9;" horiz-adv-x="1530" 
d="M205 1434h1177v-156h-1003v-406h598v-156h-598v-561h1003v-155h-1177v1434zM476 1651l627 202h12v-162l-609 -133z" />
    <glyph glyph-name="Ecircumflex" unicode="&#xca;" horiz-adv-x="1530" 
d="M205 1434h1177v-156h-1003v-406h598v-156h-598v-561h1003v-155h-1177v1434zM375 1670l420 203h12l420 -203l-30 -93h-11l-385 152l-385 -152h-11z" />
    <glyph glyph-name="Edieresis" unicode="&#xcb;" horiz-adv-x="1530" 
d="M205 1434h1177v-156h-1003v-406h598v-156h-598v-561h1003v-155h-1177v1434zM518 1635q-34 34 -34 84t34 84.5t84 34.5t84 -34.5t34 -84.5q0 -49 -34.5 -83.5t-83.5 -34.5q-50 0 -84 34zM916 1635q-34 34 -34 84t34 84.5t84 34.5t84 -34.5t34 -84.5q0 -49 -34.5 -83.5
t-83.5 -34.5q-50 0 -84 34z" />
    <glyph glyph-name="Igrave" unicode="&#xcc;" horiz-adv-x="584" 
d="M205 1434h174v-1434h-174v1434zM-24 1668v162h12l627 -202l-30 -93z" />
    <glyph glyph-name="Iacute" unicode="&#xcd;" horiz-adv-x="584" 
d="M205 1434h174v-1434h-174v1434zM-33 1651l627 202h12v-162l-609 -133z" />
    <glyph glyph-name="Icircumflex" unicode="&#xce;" horiz-adv-x="584" 
d="M205 1434h174v-1434h-174v1434zM-134 1670l420 203h12l420 -203l-30 -93h-11l-385 152l-385 -152h-11z" />
    <glyph glyph-name="Idieresis" unicode="&#xcf;" horiz-adv-x="584" 
d="M205 1434h174v-1434h-174v1434zM9 1635q-34 34 -34 84t34 84.5t84 34.5t84 -34.5t34 -84.5q0 -49 -34.5 -83.5t-83.5 -34.5q-50 0 -84 34zM407 1635q-34 34 -34 84t34 84.5t84 34.5t84 -34.5t34 -84.5q0 -49 -34.5 -83.5t-83.5 -34.5q-50 0 -84 34z" />
    <glyph glyph-name="Eth" unicode="&#xd0;" horiz-adv-x="1693" 
d="M1229 1347q171 -87 261.5 -248t90.5 -379q0 -219 -90.5 -381.5t-260 -250.5t-400.5 -88h-625v675h-185v117h185v642h618q235 0 406 -87zM1119 222q134 67 205 194t71 304q0 273 -154.5 415.5t-442.5 142.5h-419v-486h551v-117h-551v-520h419q187 0 321 67z" />
    <glyph glyph-name="Ntilde" unicode="&#xd1;" horiz-adv-x="1637" 
d="M205 1434h424l622 -538h7v538h175v-1434h-175v652l-692 607h-187v-1259h-174v1434zM922.5 1555.5q-42.5 19.5 -71.5 47t-67 72.5q-33 38 -54.5 59t-49 35.5t-60.5 14.5q-53 0 -73 -39t-20 -105v-84h-108v92q0 103 48.5 173t152.5 70q54 0 96.5 -19.5t71.5 -47t67 -72.5
q33 -38 54.5 -59t49 -35.5t60.5 -14.5q53 0 73 39.5t20 105.5v83h107v-92q0 -103 -48 -173t-152 -70q-54 0 -96.5 19.5z" />
    <glyph glyph-name="Ograve" unicode="&#xd2;" horiz-adv-x="1756" 
d="M493.5 74.5q-175.5 94.5 -278.5 262.5t-103 381t103 381t278.5 261.5t386.5 93.5t386 -93.5t276.5 -261.5t101.5 -381t-102 -381.5t-276.5 -262.5t-385.5 -94t-386.5 94.5zM1171.5 217q132.5 73 210 203.5t77.5 297.5q0 166 -77 296t-209 202.5t-293 72.5
q-162 0 -295 -72.5t-210.5 -202.5t-77.5 -296q0 -167 78 -297.5t211.5 -203.5t293.5 -73q159 0 291.5 73zM562 1668v162h12l627 -202l-30 -93z" />
    <glyph glyph-name="Oacute" unicode="&#xd3;" horiz-adv-x="1746" 
d="M482.5 74.5q-175.5 94.5 -278.5 262.5t-103 381t103 381t278.5 261.5t386.5 93.5t386 -93.5t276.5 -261.5t101.5 -381t-102 -381.5t-276.5 -262.5t-385.5 -94t-386.5 94.5zM1160.5 217q132.5 73 210 203.5t77.5 297.5q0 166 -77 296t-209 202.5t-293 72.5
q-162 0 -295 -72.5t-210.5 -202.5t-77.5 -296q0 -167 78 -297.5t211.5 -203.5t293.5 -73q159 0 291.5 73zM542 1651l627 202h12v-162l-609 -133z" />
    <glyph glyph-name="Ocircumflex" unicode="&#xd4;" horiz-adv-x="1756" 
d="M493.5 74.5q-175.5 94.5 -278.5 262.5t-103 381t103 381t278.5 261.5t386.5 93.5t386 -93.5t276.5 -261.5t101.5 -381t-102 -381.5t-276.5 -262.5t-385.5 -94t-386.5 94.5zM1171.5 217q132.5 73 210 203.5t77.5 297.5q0 166 -77 296t-209 202.5t-293 72.5
q-162 0 -295 -72.5t-210.5 -202.5t-77.5 -296q0 -167 78 -297.5t211.5 -203.5t293.5 -73q159 0 291.5 73zM452 1670l420 203h12l420 -203l-30 -93h-11l-385 152l-385 -152h-11z" />
    <glyph glyph-name="Otilde" unicode="&#xd5;" horiz-adv-x="1756" 
d="M493.5 74.5q-175.5 94.5 -278.5 262.5t-103 381t103 381t278.5 261.5t386.5 93.5t386 -93.5t276.5 -261.5t101.5 -381t-102 -381.5t-276.5 -262.5t-385.5 -94t-386.5 94.5zM1171.5 217q132.5 73 210 203.5t77.5 297.5q0 166 -77 296t-209 202.5t-293 72.5
q-162 0 -295 -72.5t-210.5 -202.5t-77.5 -296q0 -167 78 -297.5t211.5 -203.5t293.5 -73q159 0 291.5 73zM980.5 1555.5q-42.5 19.5 -71.5 47t-67 72.5q-33 38 -54.5 59t-49 35.5t-60.5 14.5q-53 0 -73 -39t-20 -105v-84h-108v92q0 103 48.5 173t152.5 70q54 0 96.5 -19.5
t71.5 -47t67 -72.5q33 -38 54.5 -59t49 -35.5t60.5 -14.5q53 0 73 39.5t20 105.5v83h107v-92q0 -103 -48 -173t-152 -70q-54 0 -96.5 19.5z" />
    <glyph glyph-name="Odieresis" unicode="&#xd6;" horiz-adv-x="1756" 
d="M493.5 74.5q-175.5 94.5 -278.5 262.5t-103 381t103 381t278.5 261.5t386.5 93.5t386 -93.5t276.5 -261.5t101.5 -381t-102 -381.5t-276.5 -262.5t-385.5 -94t-386.5 94.5zM1171.5 217q132.5 73 210 203.5t77.5 297.5q0 166 -77 296t-209 202.5t-293 72.5
q-162 0 -295 -72.5t-210.5 -202.5t-77.5 -296q0 -167 78 -297.5t211.5 -203.5t293.5 -73q159 0 291.5 73zM595 1635q-34 34 -34 84t34 84.5t84 34.5t84 -34.5t34 -84.5q0 -49 -34.5 -83.5t-83.5 -34.5q-50 0 -84 34zM993 1635q-34 34 -34 84t34 84.5t84 34.5t84 -34.5
t34 -84.5q0 -49 -34.5 -83.5t-83.5 -34.5q-50 0 -84 34z" />
    <glyph glyph-name="multiply" unicode="&#xd7;" 
d="M1259 1123l-407 -406l407 -407l-104 -104l-407 407l-407 -407l-103 104l407 407l-407 406l103 104l407 -407l407 407z" />
    <glyph glyph-name="Oslash" unicode="&#xd8;" horiz-adv-x="1756" 
d="M1444 1227q95 -98 147.5 -228t52.5 -281q0 -213 -102 -381.5t-276.5 -262.5t-385.5 -94q-137 0 -262 41t-225 118l-135 -139h-146l202 209q-96 98 -149 228.5t-53 280.5q0 213 103 381t278.5 261.5t386.5 93.5q138 0 262 -41t224 -117l133 138h145zM333.5 508.5
q36.5 -97.5 103.5 -172.5l807 835q-75 57 -168 87.5t-196 30.5q-162 0 -295 -72.5t-210.5 -202.5t-77.5 -296q0 -112 36.5 -209.5zM1423 927.5q-36 97.5 -102 171.5l-808 -835q76 -58 170 -89t197 -31q159 0 291.5 73t210 203.5t77.5 297.5q0 112 -36 209.5z" />
    <glyph glyph-name="Ugrave" unicode="&#xd9;" horiz-adv-x="1644" 
d="M482.5 49q-141.5 69 -219 205.5t-77.5 334.5v845h174v-830q0 -224 116 -346.5t341 -122.5q228 0 343.5 122t115.5 347v830h175v-845q0 -198 -78 -334.5t-220.5 -205.5t-335.5 -69t-334.5 69zM503 1668v162h12l627 -202l-30 -93z" />
    <glyph glyph-name="Uacute" unicode="&#xda;" horiz-adv-x="1625" 
d="M482.5 49q-141.5 69 -219 205.5t-77.5 334.5v845h174v-830q0 -224 116 -346.5t341 -122.5q228 0 343.5 122t115.5 347v830h175v-845q0 -198 -78 -334.5t-220.5 -205.5t-335.5 -69t-334.5 69zM494 1651l627 202h12v-162l-609 -133z" />
    <glyph glyph-name="Ucircumflex" unicode="&#xdb;" horiz-adv-x="1625" 
d="M482.5 49q-141.5 69 -219 205.5t-77.5 334.5v845h174v-830q0 -224 116 -346.5t341 -122.5q228 0 343.5 122t115.5 347v830h175v-845q0 -198 -78 -334.5t-220.5 -205.5t-335.5 -69t-334.5 69zM393 1670l420 203h12l420 -203l-30 -93h-11l-385 152l-385 -152h-11z" />
    <glyph glyph-name="Udieresis" unicode="&#xdc;" horiz-adv-x="1625" 
d="M482.5 49q-141.5 69 -219 205.5t-77.5 334.5v845h174v-830q0 -224 116 -346.5t341 -122.5q228 0 343.5 122t115.5 347v830h175v-845q0 -198 -78 -334.5t-220.5 -205.5t-335.5 -69t-334.5 69zM536 1635q-34 34 -34 84t34 84.5t84 34.5t84 -34.5t34 -84.5
q0 -49 -34.5 -83.5t-83.5 -34.5q-50 0 -84 34zM934 1635q-34 34 -34 84t34 84.5t84 34.5t84 -34.5t34 -84.5q0 -49 -34.5 -83.5t-83.5 -34.5q-50 0 -84 34z" />
    <glyph glyph-name="Yacute" unicode="&#xdd;" horiz-adv-x="1524" 
d="M1452 1434l-605 -921v-513h-175v508l-600 926h212l451 -702h49l456 702h212zM438 1651l627 202h12v-162l-609 -133z" />
    <glyph glyph-name="Thorn" unicode="&#xde;" horiz-adv-x="1561" 
d="M379 1434v-274h623q135 0 238.5 -54t160.5 -149.5t57 -217.5q0 -127 -57 -223.5t-160 -150t-239 -53.5h-623v-312h-174v1434h174zM1204 538.5q78 71.5 78 200.5q0 125 -78.5 195.5t-217.5 70.5h-607v-538h607q140 0 218 71.5z" />
    <glyph glyph-name="germandbls" unicode="&#xdf;" horiz-adv-x="1575" 
d="M251.5 1299.5q66.5 124.5 194 190.5t305.5 66q135 0 231 -37t145 -104t49 -156q0 -82 -37.5 -140.5t-89.5 -94.5t-135 -79q-59 -30 -92.5 -51.5t-56 -49.5t-22.5 -64q0 -54 37 -86t129 -47l270 -50q157 -29 228 -98t71 -186q0 -93 -54.5 -168.5t-160.5 -120t-255 -44.5
q-213 0 -390 84v161q75 -44 174 -74.5t217 -30.5q99 0 167.5 23.5t102.5 65t34 94.5q0 60 -39 95t-126 49l-273 48q-154 26 -223 94t-69 183q0 78 34.5 132t84 87t128.5 73q64 33 99 55t58.5 53.5t23.5 74.5q0 72 -65.5 113t-194.5 41q-125 0 -215.5 -48.5t-138 -141.5
t-47.5 -226v-1497h-165v1513q0 174 66.5 298.5z" />
    <glyph glyph-name="agrave" unicode="&#xe0;" horiz-adv-x="1268" 
d="M874 1016.5q108 -47.5 165 -136.5t57 -210v-670h-156l-5 142q-89 -71 -191 -116.5t-232 -45.5q-125 0 -214.5 39.5t-136.5 113.5t-47 175q0 147 109 226t319 79h389v50q0 124 -85.5 192t-246.5 68q-104 0 -203.5 -24t-171.5 -59v144q82 36 184.5 58t209.5 22
q148 0 256 -47.5zM353.5 164q69.5 -58 202.5 -58q108 0 197 39.5t178 108.5v252h-373q-274 0 -274 -183q0 -101 69.5 -159zM611 1169l-366 365v12h248l244 -366v-11h-126z" />
    <glyph glyph-name="aacute" unicode="&#xe1;" horiz-adv-x="1268" 
d="M874 1016.5q108 -47.5 165 -136.5t57 -210v-670h-156l-5 142q-89 -71 -191 -116.5t-232 -45.5q-125 0 -214.5 39.5t-136.5 113.5t-47 175q0 147 109 226t319 79h389v50q0 124 -85.5 192t-246.5 68q-104 0 -203.5 -24t-171.5 -59v144q82 36 184.5 58t209.5 22
q148 0 256 -47.5zM353.5 164q69.5 -58 202.5 -58q108 0 197 39.5t178 108.5v252h-373q-274 0 -274 -183q0 -101 69.5 -159zM450 1180l244 366h248v-12l-366 -365h-126v11z" />
    <glyph glyph-name="acircumflex" unicode="&#xe2;" horiz-adv-x="1268" 
d="M874 1016.5q108 -47.5 165 -136.5t57 -210v-670h-156l-5 142q-89 -71 -191 -116.5t-232 -45.5q-125 0 -214.5 39.5t-136.5 113.5t-47 175q0 147 109 226t319 79h389v50q0 124 -85.5 192t-246.5 68q-104 0 -203.5 -24t-171.5 -59v144q82 36 184.5 58t209.5 22
q148 0 256 -47.5zM353.5 164q69.5 -58 202.5 -58q108 0 197 39.5t178 108.5v252h-373q-274 0 -274 -183q0 -101 69.5 -159zM194 1180l340 366h136l340 -366v-11h-116l-292 238l-292 -238h-116v11z" />
    <glyph glyph-name="atilde" unicode="&#xe3;" horiz-adv-x="1268" 
d="M874 1016.5q108 -47.5 165 -136.5t57 -210v-670h-156l-5 142q-89 -71 -191 -116.5t-232 -45.5q-125 0 -214.5 39.5t-136.5 113.5t-47 175q0 147 109 226t319 79h389v50q0 124 -85.5 192t-246.5 68q-104 0 -203.5 -24t-171.5 -59v144q82 36 184.5 58t209.5 22
q148 0 256 -47.5zM353.5 164q69.5 -58 202.5 -58q108 0 197 39.5t178 108.5v252h-373q-274 0 -274 -183q0 -101 69.5 -159zM702 1190.5q-42 21.5 -70 52.5t-65 82q-31 43 -51.5 67t-49 40.5t-64.5 16.5q-53 0 -73 -39t-20 -105v-121h-108v129q0 103 48.5 173t152.5 70
q57 0 99 -21.5t70 -52.5t65 -82q31 -43 51.5 -67t49 -40.5t64.5 -16.5q53 0 73 39t20 105v121h107v-129q0 -103 -48 -173t-152 -70q-57 0 -99 21.5z" />
    <glyph glyph-name="adieresis" unicode="&#xe4;" horiz-adv-x="1268" 
d="M874 1016.5q108 -47.5 165 -136.5t57 -210v-670h-156l-5 142q-89 -71 -191 -116.5t-232 -45.5q-125 0 -214.5 39.5t-136.5 113.5t-47 175q0 147 109 226t319 79h389v50q0 124 -85.5 192t-246.5 68q-104 0 -203.5 -24t-171.5 -59v144q82 36 184.5 58t209.5 22
q148 0 256 -47.5zM353.5 164q69.5 -58 202.5 -58q108 0 197 39.5t178 108.5v252h-373q-274 0 -274 -183q0 -101 69.5 -159zM346 1274q-34 34 -34 84t34 84.5t84 34.5t84 -34.5t34 -84.5q0 -49 -34.5 -83.5t-83.5 -34.5q-50 0 -84 34zM690 1270q-34 34 -34 84t34 84.5
t84 34.5t84 -34.5t34 -84.5q0 -49 -34.5 -83.5t-83.5 -34.5q-50 0 -84 34z" />
    <glyph glyph-name="aring" unicode="&#xe5;" horiz-adv-x="1268" 
d="M874 1016.5q108 -47.5 165 -136.5t57 -210v-670h-156l-5 142q-89 -71 -191 -116.5t-232 -45.5q-125 0 -214.5 39.5t-136.5 113.5t-47 175q0 147 109 226t319 79h389v50q0 124 -85.5 192t-246.5 68q-104 0 -203.5 -24t-171.5 -59v144q82 36 184.5 58t209.5 22
q148 0 256 -47.5zM353.5 164q69.5 -58 202.5 -58q108 0 197 39.5t178 108.5v252h-373q-274 0 -274 -183q0 -101 69.5 -159zM415.5 1192.5q-78.5 23.5 -120 66t-41.5 99.5q0 56 41.5 98.5t120 66t186.5 23.5t186 -23.5t119.5 -66t41.5 -98.5t-41 -99t-119.5 -66.5
t-186.5 -23.5t-186.5 23.5zM754 1278q55 31 55 80q0 48 -55 78.5t-152 30.5q-98 0 -153 -30.5t-55 -78.5q0 -49 54.5 -80t153.5 -31q97 0 152 31z" />
    <glyph glyph-name="ae" unicode="&#xe6;" horiz-adv-x="2144" 
d="M2018 482h-907q15 -172 129 -269t334 -97q180 0 346 72v-143q-85 -30 -181 -47.5t-192 -17.5q-207 0 -342.5 73t-200.5 203q-130 -276 -484 -276q-121 0 -213 41t-142.5 114.5t-50.5 168.5q0 96 49.5 166.5t149.5 109t247 38.5h390v2v30q0 126 -88 197t-254 71
q-101 0 -198 -21.5t-177 -56.5l-31 136q82 37 194.5 62.5t235.5 25.5q153 0 262.5 -49.5t166.5 -141.5q74 91 185.5 141t243.5 50q152 0 272.5 -71.5t188 -197t67.5 -281.5v-32zM1311 887.5q-80 -40.5 -130.5 -112t-65.5 -164.5v-22h745q-11 95 -58 172t-126 122t-183 45
q-102 0 -182 -40.5zM815 185.5q102 71.5 141 215.5q-8 38 -11 93h-346q-160 0 -237.5 -48t-77.5 -135q0 -58 32.5 -102.5t95 -69.5t149.5 -25q152 0 254 71.5z" />
    <glyph glyph-name="ccedilla" unicode="&#xe7;" horiz-adv-x="1283" 
d="M998.5 39.5q-100.5 -44.5 -220.5 -55.5l-172 -387l-157 77l222 307q-166 6 -289.5 76t-190.5 189.5t-67 271.5q0 161 74 285t204.5 192.5t293.5 68.5q123 0 236 -38.5t207 -103.5l-40 -153q-80 63 -180.5 101t-213.5 38q-125 0 -218 -48.5t-143 -135.5t-50 -201
t50.5 -202t144 -137t219.5 -49q120 0 219.5 42.5t185.5 117.5l60 -147q-74 -64 -174.5 -108.5z" />
    <glyph glyph-name="egrave" unicode="&#xe8;" horiz-adv-x="1324" 
d="M1198 482h-907q15 -172 129 -269t334 -97q180 0 346 72v-143q-85 -30 -181 -47.5t-192 -17.5q-207 0 -342 72t-198 197t-63 287q0 153 71.5 273t196.5 187.5t278 67.5q152 0 272.5 -71.5t188 -197t67.5 -281.5v-32zM484.5 884.5q-82.5 -43.5 -132 -120.5t-60.5 -175h748
q-11 95 -58 172t-126 122t-183 45q-106 0 -188.5 -43.5zM685 1169l-366 365v12h248l244 -366v-11h-126z" />
    <glyph glyph-name="eacute" unicode="&#xe9;" horiz-adv-x="1324" 
d="M1198 482h-907q15 -172 129 -269t334 -97q180 0 346 72v-143q-85 -30 -181 -47.5t-192 -17.5q-207 0 -342 72t-198 197t-63 287q0 153 71.5 273t196.5 187.5t278 67.5q152 0 272.5 -71.5t188 -197t67.5 -281.5v-32zM484.5 884.5q-82.5 -43.5 -132 -120.5t-60.5 -175h748
q-11 95 -58 172t-126 122t-183 45q-106 0 -188.5 -43.5zM524 1180l244 366h248v-12l-366 -365h-126v11z" />
    <glyph glyph-name="ecircumflex" unicode="&#xea;" horiz-adv-x="1324" 
d="M1198 482h-907q15 -172 129 -269t334 -97q180 0 346 72v-143q-85 -30 -181 -47.5t-192 -17.5q-207 0 -342 72t-198 197t-63 287q0 153 71.5 273t196.5 187.5t278 67.5q152 0 272.5 -71.5t188 -197t67.5 -281.5v-32zM484.5 884.5q-82.5 -43.5 -132 -120.5t-60.5 -175h748
q-11 95 -58 172t-126 122t-183 45q-106 0 -188.5 -43.5zM268 1180l340 366h136l340 -366v-11h-116l-292 238l-292 -238h-116v11z" />
    <glyph glyph-name="edieresis" unicode="&#xeb;" horiz-adv-x="1324" 
d="M1198 482h-907q15 -172 129 -269t334 -97q180 0 346 72v-143q-85 -30 -181 -47.5t-192 -17.5q-207 0 -342 72t-198 197t-63 287q0 153 71.5 273t196.5 187.5t278 67.5q152 0 272.5 -71.5t188 -197t67.5 -281.5v-32zM484.5 884.5q-82.5 -43.5 -132 -120.5t-60.5 -175h748
q-11 95 -58 172t-126 122t-183 45q-106 0 -188.5 -43.5zM420 1274q-34 34 -34 84t34 84.5t84 34.5t84 -34.5t34 -84.5q0 -49 -34.5 -83.5t-83.5 -34.5q-50 0 -84 34zM764 1270q-34 34 -34 84t34 84.5t84 34.5t84 -34.5t34 -84.5q0 -49 -34.5 -83.5t-83.5 -34.5q-50 0 -84 34
z" />
    <glyph glyph-name="igrave" unicode="&#xec;" horiz-adv-x="514" 
d="M175 1043h165v-1043h-165v1043zM266 1169l-366 365v12h248l244 -366v-11h-126z" />
    <glyph glyph-name="iacute" unicode="&#xed;" horiz-adv-x="514" 
d="M175 1043h165v-1043h-165v1043zM105 1180l244 366h248v-12l-366 -365h-126v11z" />
    <glyph glyph-name="icircumflex" unicode="&#xee;" horiz-adv-x="514" 
d="M175 1043h165v-1043h-165v1043zM-151 1180l340 366h136l340 -366v-11h-116l-292 238l-292 -238h-116v11z" />
    <glyph glyph-name="idieresis" unicode="&#xef;" horiz-adv-x="514" 
d="M175 1043h165v-1043h-165v1043zM1 1274q-34 34 -34 84t34 84.5t84 34.5t84 -34.5t34 -84.5q0 -49 -34.5 -83.5t-83.5 -34.5q-50 0 -84 34zM345 1270q-34 34 -34 84t34 84.5t84 34.5t84 -34.5t34 -84.5q0 -49 -34.5 -83.5t-83.5 -34.5q-50 0 -84 34z" />
    <glyph glyph-name="eth" unicode="&#xf0;" horiz-adv-x="1419" 
d="M1238 915.5q57 -162.5 57 -303.5q0 -197 -77 -340t-211.5 -217.5t-305.5 -74.5q-160 0 -292 68.5t-208.5 192.5t-76.5 285q0 159 73.5 281t202.5 189.5t289 67.5q99 0 184 -22.5t171 -66.5q-55 133 -141 265h-366v107h291q-66 91 -152 189h189q79 -89 147 -189h257v-107
h-187q99 -162 156 -324.5zM916 188.5q96 53.5 152 161t56 262.5q0 84 -20 175q-97 60 -195 90.5t-212 30.5q-122 0 -213 -48t-140.5 -135t-49.5 -203q0 -114 53.5 -202t146 -136.5t207.5 -48.5q119 0 215 53.5z" />
    <glyph glyph-name="ntilde" unicode="&#xf1;" horiz-adv-x="1331" 
d="M974.5 1015q91.5 -49 137.5 -138t46 -210v-667h-165v646q0 127 -76 199.5t-223 72.5q-183 0 -349 -106v-812h-165v1043h155l6 -129q87 67 187 108.5t221 41.5q134 0 225.5 -49zM764 1190.5q-42 21.5 -70 52.5t-65 82q-31 43 -51.5 67t-49 40.5t-64.5 16.5q-53 0 -73 -39
t-20 -105v-121h-108v129q0 103 48.5 173t152.5 70q57 0 99 -21.5t70 -52.5t65 -82q31 -43 51.5 -67t49 -40.5t64.5 -16.5q53 0 73 39t20 105v121h107v-129q0 -103 -48 -173t-152 -70q-57 0 -99 21.5z" />
    <glyph glyph-name="ograve" unicode="&#xf2;" horiz-adv-x="1412" 
d="M412 50q-133 70 -210.5 194.5t-77.5 282.5q0 156 77.5 278.5t210.5 190.5t294 68t294 -68t210.5 -190.5t77.5 -278.5q0 -158 -77.5 -282.5t-210.5 -194.5t-294 -70t-294 70zM916 185q94 50 148.5 139.5t54.5 202.5q0 112 -54 199t-148.5 134.5t-210.5 47.5t-210 -47.5
t-148 -134.5t-54 -199q0 -113 54 -202.5t148 -139.5t210 -50t210 50zM715 1169l-366 365v12h248l244 -366v-11h-126z" />
    <glyph glyph-name="oacute" unicode="&#xf3;" horiz-adv-x="1412" 
d="M412 50q-133 70 -210.5 194.5t-77.5 282.5q0 156 77.5 278.5t210.5 190.5t294 68t294 -68t210.5 -190.5t77.5 -278.5q0 -158 -77.5 -282.5t-210.5 -194.5t-294 -70t-294 70zM916 185q94 50 148.5 139.5t54.5 202.5q0 112 -54 199t-148.5 134.5t-210.5 47.5t-210 -47.5
t-148 -134.5t-54 -199q0 -113 54 -202.5t148 -139.5t210 -50t210 50zM554 1180l244 366h248v-12l-366 -365h-126v11z" />
    <glyph glyph-name="ocircumflex" unicode="&#xf4;" horiz-adv-x="1412" 
d="M412 50q-133 70 -210.5 194.5t-77.5 282.5q0 156 77.5 278.5t210.5 190.5t294 68t294 -68t210.5 -190.5t77.5 -278.5q0 -158 -77.5 -282.5t-210.5 -194.5t-294 -70t-294 70zM916 185q94 50 148.5 139.5t54.5 202.5q0 112 -54 199t-148.5 134.5t-210.5 47.5t-210 -47.5
t-148 -134.5t-54 -199q0 -113 54 -202.5t148 -139.5t210 -50t210 50zM298 1180l340 366h136l340 -366v-11h-116l-292 238l-292 -238h-116v11z" />
    <glyph glyph-name="otilde" unicode="&#xf5;" horiz-adv-x="1412" 
d="M412 50q-133 70 -210.5 194.5t-77.5 282.5q0 156 77.5 278.5t210.5 190.5t294 68t294 -68t210.5 -190.5t77.5 -278.5q0 -158 -77.5 -282.5t-210.5 -194.5t-294 -70t-294 70zM916 185q94 50 148.5 139.5t54.5 202.5q0 112 -54 199t-148.5 134.5t-210.5 47.5t-210 -47.5
t-148 -134.5t-54 -199q0 -113 54 -202.5t148 -139.5t210 -50t210 50zM806 1190.5q-42 21.5 -70 52.5t-65 82q-31 43 -51.5 67t-49 40.5t-64.5 16.5q-53 0 -73 -39t-20 -105v-121h-108v129q0 103 48.5 173t152.5 70q57 0 99 -21.5t70 -52.5t65 -82q31 -43 51.5 -67t49 -40.5
t64.5 -16.5q53 0 73 39t20 105v121h107v-129q0 -103 -48 -173t-152 -70q-57 0 -99 21.5z" />
    <glyph glyph-name="odieresis" unicode="&#xf6;" horiz-adv-x="1412" 
d="M412 50q-133 70 -210.5 194.5t-77.5 282.5q0 156 77.5 278.5t210.5 190.5t294 68t294 -68t210.5 -190.5t77.5 -278.5q0 -158 -77.5 -282.5t-210.5 -194.5t-294 -70t-294 70zM916 185q94 50 148.5 139.5t54.5 202.5q0 112 -54 199t-148.5 134.5t-210.5 47.5t-210 -47.5
t-148 -134.5t-54 -199q0 -113 54 -202.5t148 -139.5t210 -50t210 50zM450 1274q-34 34 -34 84t34 84.5t84 34.5t84 -34.5t34 -84.5q0 -49 -34.5 -83.5t-83.5 -34.5q-50 0 -84 34zM794 1270q-34 34 -34 84t34 84.5t84 34.5t84 -34.5t34 -84.5q0 -49 -34.5 -83.5t-83.5 -34.5
q-50 0 -84 34z" />
    <glyph glyph-name="divide" unicode="&#xf7;" 
d="M655.5 966.5q-34.5 34.5 -34.5 91.5q0 55 34.5 89t91.5 34q55 0 89.5 -34t34.5 -89q0 -57 -34.5 -91.5t-89.5 -34.5q-57 0 -91.5 34.5zM236 794h1016v-155h-1016v155zM655.5 280.5q-34.5 34.5 -34.5 91.5q0 55 34.5 89t91.5 34q55 0 89.5 -34t34.5 -89q0 -57 -34.5 -91.5
t-89.5 -34.5q-57 0 -91.5 34.5z" />
    <glyph glyph-name="oslash" unicode="&#xf8;" horiz-adv-x="1412" 
d="M1142 893q70 -71 108 -164t38 -202q0 -158 -77.5 -282.5t-210.5 -194.5t-294 -70q-99 0 -189 27.5t-164 78.5l-84 -86h-145l149 153q-71 73 -110 168.5t-39 205.5q0 156 77.5 278.5t210.5 190.5t294 68q100 0 190.5 -26.5t164.5 -77.5l81 83h146zM318.5 386.5
q24.5 -65.5 69.5 -116.5l559 573q-104 65 -241 65q-116 0 -210 -47.5t-148 -134.5t-54 -199q0 -75 24.5 -140.5zM1095 664q-24 63 -68 112l-560 -574q50 -32 111 -49.5t128 -17.5q116 0 210 50t148.5 139.5t54.5 202.5q0 74 -24 137z" />
    <glyph glyph-name="ugrave" unicode="&#xf9;" horiz-adv-x="1300" 
d="M1120 1043v-1043h-155l-6 129q-191 -149 -399 -149q-126 0 -213 49t-130.5 138t-43.5 209v667h165v-646q0 -126 71 -199t208 -73q95 0 178 28.5t160 77.5v812h165zM639 1169l-366 365v12h248l244 -366v-11h-126z" />
    <glyph glyph-name="uacute" unicode="&#xfa;" horiz-adv-x="1300" 
d="M1120 1043v-1043h-155l-6 129q-191 -149 -399 -149q-126 0 -213 49t-130.5 138t-43.5 209v667h165v-646q0 -126 71 -199t208 -73q95 0 178 28.5t160 77.5v812h165zM478 1180l244 366h248v-12l-366 -365h-126v11z" />
    <glyph glyph-name="ucircumflex" unicode="&#xfb;" horiz-adv-x="1300" 
d="M1120 1043v-1043h-155l-6 129q-191 -149 -399 -149q-126 0 -213 49t-130.5 138t-43.5 209v667h165v-646q0 -126 71 -199t208 -73q95 0 178 28.5t160 77.5v812h165zM222 1180l340 366h136l340 -366v-11h-116l-292 238l-292 -238h-116v11z" />
    <glyph glyph-name="udieresis" unicode="&#xfc;" horiz-adv-x="1300" 
d="M1120 1043v-1043h-155l-6 129q-191 -149 -399 -149q-126 0 -213 49t-130.5 138t-43.5 209v667h165v-646q0 -126 71 -199t208 -73q95 0 178 28.5t160 77.5v812h165zM374 1274q-34 34 -34 84t34 84.5t84 34.5t84 -34.5t34 -84.5q0 -49 -34.5 -83.5t-83.5 -34.5
q-50 0 -84 34zM718 1270q-34 34 -34 84t34 84.5t84 34.5t84 -34.5t34 -84.5q0 -49 -34.5 -83.5t-83.5 -34.5q-50 0 -84 34z" />
    <glyph glyph-name="yacute" unicode="&#xfd;" horiz-adv-x="1233" 
d="M1171 1043l-567 -1355q-43 -111 -122.5 -165.5t-197.5 -54.5q-70 0 -123 15t-99 42v149q87 -61 198 -61q140 0 195 130l118 257h-80l-431 1043h177l347 -856h61l347 856h177zM465 1180l244 366h248v-12l-366 -365h-126v11z" />
    <glyph glyph-name="thorn" unicode="&#xfe;" horiz-adv-x="1334" 
d="M988 998.5q112 -65.5 172 -186.5t60 -284q0 -162 -59 -286t-171 -193t-267 -69q-113 0 -207 35.5t-178 91.5v-619h-165v2048h165v-601q84 57 178 93t207 36q153 0 265 -65.5zM876.5 175q86.5 50 130 141t43.5 212t-44.5 209t-130.5 134.5t-208 46.5q-91 0 -170.5 -25
t-158.5 -66v-612q80 -41 159.5 -65.5t169.5 -24.5q123 0 209.5 50z" />
    <glyph glyph-name="ydieresis" unicode="&#xff;" horiz-adv-x="1233" 
d="M1171 1043l-567 -1355q-43 -111 -122.5 -165.5t-197.5 -54.5q-70 0 -123 15t-99 42v149q87 -61 198 -61q140 0 195 130l118 257h-80l-431 1043h177l347 -856h61l347 856h177zM361 1274q-34 34 -34 84t34 84.5t84 34.5t84 -34.5t34 -84.5q0 -49 -34.5 -83.5t-83.5 -34.5
q-50 0 -84 34zM705 1270q-34 34 -34 84t34 84.5t84 34.5t84 -34.5t34 -84.5q0 -49 -34.5 -83.5t-83.5 -34.5q-50 0 -84 34z" />
    <glyph glyph-name="Amacron" unicode="&#x100;" horiz-adv-x="1665" 
d="M1426 0l-172 492h-819l-170 -492h-183l506 1434h511l506 -1434h-179zM489 648h711l-220 630h-273zM498 1761h692v-116h-692v116z" />
    <glyph glyph-name="amacron" unicode="&#x101;" horiz-adv-x="1268" 
d="M874 1016.5q108 -47.5 165 -136.5t57 -210v-670h-156l-5 142q-89 -71 -191 -116.5t-232 -45.5q-125 0 -214.5 39.5t-136.5 113.5t-47 175q0 147 109 226t319 79h389v50q0 124 -85.5 192t-246.5 68q-104 0 -203.5 -24t-171.5 -59v144q82 36 184.5 58t209.5 22
q148 0 256 -47.5zM353.5 164q69.5 -58 202.5 -58q108 0 197 39.5t178 108.5v252h-373q-274 0 -274 -183q0 -101 69.5 -159zM256 1408h692v-107h-692v107z" />
    <glyph glyph-name="Abreve" unicode="&#x102;" horiz-adv-x="1687" 
d="M1426 0l-172 492h-819l-170 -492h-183l506 1434h511l506 -1434h-179zM489 648h711l-220 630h-273zM575.5 1633.5q-87.5 74.5 -87.5 216.5h157q0 -81 48 -123t151 -42t151.5 42t48.5 123h157q0 -142 -88 -216.5t-269 -74.5t-268.5 74.5z" />
    <glyph glyph-name="abreve" unicode="&#x103;" horiz-adv-x="1268" 
d="M874 1016.5q108 -47.5 165 -136.5t57 -210v-670h-156l-5 142q-89 -71 -191 -116.5t-232 -45.5q-125 0 -214.5 39.5t-136.5 113.5t-47 175q0 147 109 226t319 79h389v50q0 124 -85.5 192t-246.5 68q-104 0 -203.5 -24t-171.5 -59v144q82 36 184.5 58t209.5 22
q148 0 256 -47.5zM353.5 164q69.5 -58 202.5 -58q108 0 197 39.5t178 108.5v252h-373q-274 0 -274 -183q0 -101 69.5 -159zM334.5 1270.5q-88.5 95.5 -88.5 266.5h147q0 -111 51 -173t158 -62q106 0 157 62t51 173h148q0 -171 -88.5 -266.5t-267.5 -95.5t-267.5 95.5z" />
    <glyph glyph-name="Aogonek" unicode="&#x104;" horiz-adv-x="1665" 
d="M1431 -439q0 -40 4 -73l-163 34q-1 11 -1 33q0 245 176 445h-21l-172 492h-819l-170 -492h-183l506 1434h511l506 -1434q-174 -199 -174 -439zM489 648h711l-220 630h-273z" />
    <glyph glyph-name="aogonek" unicode="&#x105;" horiz-adv-x="1268" 
d="M1096 0q-174 -199 -174 -439q0 -40 4 -73l-163 34q-1 11 -1 33q0 249 178 447l-5 140q-89 -71 -191 -116.5t-232 -45.5q-125 0 -214.5 39.5t-136.5 113.5t-47 175q0 147 109 226t319 79h389v50q0 124 -85.5 192t-246.5 68q-104 0 -203.5 -24t-171.5 -59v144
q82 36 184.5 58t209.5 22q148 0 256 -47.5t165 -136.5t57 -210v-670zM353.5 164q69.5 -58 202.5 -58q108 0 197 39.5t178 108.5v252h-373q-274 0 -274 -183q0 -101 69.5 -159z" />
    <glyph glyph-name="Cacute" unicode="&#x106;" horiz-adv-x="1615" 
d="M477.5 73.5q-173.5 93.5 -269.5 261.5t-96 384q0 218 100.5 385t275 258.5t390.5 91.5q194 0 348.5 -63.5t269.5 -172.5l-105 -136q-223 207 -511 207q-170 0 -302.5 -71.5t-206.5 -200.5t-74 -298q0 -168 75.5 -299t210.5 -203.5t307 -72.5q170 0 298 64t228 163
l106 -133q-122 -123 -281 -190.5t-366 -67.5q-224 0 -397.5 93.5zM549 1651l627 202h12v-162l-609 -133z" />
    <glyph glyph-name="cacute" unicode="&#x107;" horiz-adv-x="1283" 
d="M395.5 48.5q-130.5 68.5 -201 191t-70.5 278.5q0 161 74 285t204.5 192.5t293.5 68.5q123 0 236 -38.5t207 -103.5l-40 -153q-80 63 -180.5 101t-213.5 38q-125 0 -218 -48.5t-143 -135.5t-50 -201t50.5 -202t144 -137t219.5 -49q120 0 219.5 42.5t185.5 117.5l60 -147
q-86 -75 -206.5 -121.5t-266.5 -46.5q-174 0 -304.5 68.5zM552 1180l244 366h248v-12l-366 -365h-126v11z" />
    <glyph glyph-name="Cdotaccent" unicode="&#x10a;" horiz-adv-x="1615" 
d="M477.5 73.5q-173.5 93.5 -269.5 261.5t-96 384q0 218 100.5 385t275 258.5t390.5 91.5q194 0 348.5 -63.5t269.5 -172.5l-105 -136q-223 207 -511 207q-170 0 -302.5 -71.5t-206.5 -200.5t-74 -298q0 -168 75.5 -299t210.5 -203.5t307 -72.5q170 0 298 64t228 163
l106 -133q-122 -123 -281 -190.5t-366 -67.5q-224 0 -397.5 93.5zM790 1634q-34 34 -34 84t34 84.5t84 34.5t84 -34.5t34 -84.5q0 -49 -34.5 -83.5t-83.5 -34.5q-50 0 -84 34z" />
    <glyph glyph-name="cdotaccent" unicode="&#x10b;" horiz-adv-x="1283" 
d="M395.5 48.5q-130.5 68.5 -201 191t-70.5 278.5q0 161 74 285t204.5 192.5t293.5 68.5q123 0 236 -38.5t207 -103.5l-40 -153q-80 63 -180.5 101t-213.5 38q-125 0 -218 -48.5t-143 -135.5t-50 -201t50.5 -202t144 -137t219.5 -49q120 0 219.5 42.5t185.5 117.5l60 -147
q-86 -75 -206.5 -121.5t-266.5 -46.5q-174 0 -304.5 68.5zM619 1272.5q-35 34.5 -35 85.5q0 50 35 84.5t85 34.5t85 -34.5t35 -84.5q0 -51 -35 -85.5t-85 -34.5t-85 34.5z" />
    <glyph glyph-name="Ccaron" unicode="&#x10c;" horiz-adv-x="1615" 
d="M477.5 73.5q-173.5 93.5 -269.5 261.5t-96 384q0 218 100.5 385t275 258.5t390.5 91.5q194 0 348.5 -63.5t269.5 -172.5l-105 -136q-223 207 -511 207q-170 0 -302.5 -71.5t-206.5 -200.5t-74 -298q0 -168 75.5 -299t210.5 -203.5t307 -72.5q170 0 298 64t228 163
l106 -133q-122 -123 -281 -190.5t-366 -67.5q-224 0 -397.5 93.5zM478 1877h11l385 -152l385 152h11l30 -93l-420 -203h-12l-420 203z" />
    <glyph glyph-name="ccaron" unicode="&#x10d;" horiz-adv-x="1283" 
d="M395.5 48.5q-130.5 68.5 -201 191t-70.5 278.5q0 161 74 285t204.5 192.5t293.5 68.5q123 0 236 -38.5t207 -103.5l-40 -153q-80 63 -180.5 101t-213.5 38q-125 0 -218 -48.5t-143 -135.5t-50 -201t50.5 -202t144 -137t219.5 -49q120 0 219.5 42.5t185.5 117.5l60 -147
q-86 -75 -206.5 -121.5t-266.5 -46.5q-174 0 -304.5 68.5zM296 1546h116l292 -238l292 238h116v-11l-340 -366h-136l-340 366v11z" />
    <glyph glyph-name="Dcaron" unicode="&#x10e;" horiz-adv-x="1693" 
d="M823 1434q235 0 406 -87t261.5 -248t90.5 -379q0 -219 -90.5 -381.5t-260 -250.5t-400.5 -88h-625v1434h618zM1119 222q134 67 205 194t71 304q0 273 -154.5 415.5t-442.5 142.5h-419v-1123h419q187 0 321 67zM381 1877h11l385 -152l385 152h11l30 -93l-420 -203h-12
l-420 203z" />
    <glyph glyph-name="dcaron" unicode="&#x10f;" horiz-adv-x="1388" 
d="M1038 1536h165v-1536h-156l-5 110q-194 -130 -405 -130q-147 0 -264 68.5t-183 192.5t-66 283q0 164 66 286.5t182.5 188t264.5 65.5q119 0 217.5 -36t183.5 -93v601zM1306 1536h166l-40 -362h-136zM1038 215v613q-172 90 -345 90q-117 0 -207 -46.5t-141 -135.5
t-51 -212q0 -118 51 -208.5t142 -140.5t206 -50q173 0 345 90z" />
    <glyph glyph-name="Dcroat" unicode="&#x110;" horiz-adv-x="1693" 
d="M1229 1347q171 -87 261.5 -248t90.5 -379q0 -219 -90.5 -381.5t-260 -250.5t-400.5 -88h-625v675h-185v117h185v642h618q235 0 406 -87zM1119 222q134 67 205 194t71 304q0 273 -154.5 415.5t-442.5 142.5h-419v-486h551v-117h-551v-520h419q187 0 321 67z" />
    <glyph glyph-name="dcroat" unicode="&#x111;" horiz-adv-x="1388" 
d="M1335 1240h-132v-1240h-156l-5 110q-194 -130 -405 -130q-147 0 -264 68.5t-183 192.5t-66 283q0 164 66 286.5t182.5 188t264.5 65.5q119 0 217.5 -36t183.5 -93v305h-435v107h435v189h165v-189h132v-107zM1038 215v613q-172 90 -345 90q-117 0 -207 -46.5t-141 -135.5
t-51 -212q0 -118 51 -208.5t142 -140.5t206 -50q173 0 345 90z" />
    <glyph glyph-name="Emacron" unicode="&#x112;" horiz-adv-x="1530" 
d="M205 1434h1177v-156h-1003v-406h598v-156h-598v-561h1003v-155h-1177v1434zM455 1761h692v-116h-692v116z" />
    <glyph glyph-name="emacron" unicode="&#x113;" horiz-adv-x="1324" 
d="M1198 482h-907q15 -172 129 -269t334 -97q180 0 346 72v-143q-85 -30 -181 -47.5t-192 -17.5q-207 0 -342 72t-198 197t-63 287q0 153 71.5 273t196.5 187.5t278 67.5q152 0 272.5 -71.5t188 -197t67.5 -281.5v-32zM484.5 884.5q-82.5 -43.5 -132 -120.5t-60.5 -175h748
q-11 95 -58 172t-126 122t-183 45q-106 0 -188.5 -43.5zM330 1408h692v-107h-692v107z" />
    <glyph glyph-name="Edotaccent" unicode="&#x116;" horiz-adv-x="1530" 
d="M205 1434h1177v-156h-1003v-406h598v-156h-598v-561h1003v-155h-1177v1434zM717 1634q-34 34 -34 84t34 84.5t84 34.5t84 -34.5t34 -84.5q0 -49 -34.5 -83.5t-83.5 -34.5q-50 0 -84 34z" />
    <glyph glyph-name="edotaccent" unicode="&#x117;" horiz-adv-x="1324" 
d="M1198 482h-907q15 -172 129 -269t334 -97q180 0 346 72v-143q-85 -30 -181 -47.5t-192 -17.5q-207 0 -342 72t-198 197t-63 287q0 153 71.5 273t196.5 187.5t278 67.5q152 0 272.5 -71.5t188 -197t67.5 -281.5v-32zM484.5 884.5q-82.5 -43.5 -132 -120.5t-60.5 -175h748
q-11 95 -58 172t-126 122t-183 45q-106 0 -188.5 -43.5zM592 1243q-34 34 -34 84t34 84.5t84 34.5t84 -34.5t34 -84.5q0 -49 -34.5 -83.5t-83.5 -34.5q-50 0 -84 34z" />
    <glyph glyph-name="Eogonek" unicode="&#x118;" horiz-adv-x="1530" 
d="M379 1278v-406h598v-156h-598v-561h1003v-155q-174 -199 -174 -439q0 -40 4 -73l-163 34q-1 11 -1 33q0 245 176 445h-1019v1434h1177v-156h-1003z" />
    <glyph glyph-name="eogonek" unicode="&#x119;" horiz-adv-x="1324" 
d="M1198 482h-907q15 -172 129 -269t334 -97q180 0 346 72v-143q-96 -34 -200 -51q-169 -195 -169 -433q0 -40 4 -73l-163 34l-1 32q0 236 159 426h-3q-207 0 -342 72t-198 197t-63 287q0 153 71.5 273t196.5 187.5t278 67.5q152 0 272.5 -71.5t188 -197t67.5 -281.5v-32z
M484.5 884.5q-82.5 -43.5 -132 -120.5t-60.5 -175h748q-11 95 -58 172t-126 122t-183 45q-106 0 -188.5 -43.5z" />
    <glyph glyph-name="Ecaron" unicode="&#x11a;" horiz-adv-x="1530" 
d="M205 1434h1177v-156h-1003v-406h598v-156h-598v-561h1003v-155h-1177v1434zM405 1877h11l385 -152l385 152h11l30 -93l-420 -203h-12l-420 203z" />
    <glyph glyph-name="ecaron" unicode="&#x11b;" horiz-adv-x="1324" 
d="M1198 482h-907q15 -172 129 -269t334 -97q180 0 346 72v-143q-85 -30 -181 -47.5t-192 -17.5q-207 0 -342 72t-198 197t-63 287q0 153 71.5 273t196.5 187.5t278 67.5q152 0 272.5 -71.5t188 -197t67.5 -281.5v-32zM484.5 884.5q-82.5 -43.5 -132 -120.5t-60.5 -175h748
q-11 95 -58 172t-126 122t-183 45q-106 0 -188.5 -43.5zM268 1546h116l292 -238l292 238h116v-11l-340 -366h-136l-340 366v11z" />
    <glyph glyph-name="Gbreve" unicode="&#x11e;" horiz-adv-x="1721" 
d="M494 73.5q-185 93.5 -283.5 261t-98.5 384.5q0 216 102 383.5t279.5 259.5t398.5 92q311 0 571 -176l-68 -157q-100 78 -224 123t-270 45q-177 0 -314 -71t-213.5 -200t-76.5 -299q0 -174 76 -304t219 -200.5t339 -70.5q101 0 183.5 17t145.5 42t143 65v354h-472l-19 155
h666v-618q-154 -84 -305 -131.5t-343 -47.5q-251 0 -436 93.5zM623.5 1633.5q-87.5 74.5 -87.5 216.5h157q0 -81 48 -123t151 -42t151.5 42t48.5 123h157q0 -142 -88 -216.5t-269 -74.5t-268.5 74.5z" />
    <glyph glyph-name="gbreve" unicode="&#x11f;" horiz-adv-x="1334" 
d="M1161 1043v-1100q0 -143 -71.5 -250.5t-202 -166t-303.5 -58.5q-129 0 -229.5 26t-165.5 60v150q76 -40 171 -65.5t208 -25.5q139 0 235 44t144.5 122t48.5 181v147q-84 -56 -178 -91.5t-207 -35.5q-155 0 -267 69t-171 193t-59 286q0 163 60 284t172 186.5t265 65.5
q115 0 210 -37t180 -95l5 111h155zM836 150q79 25 160 66v611q-79 41 -159 66t-170 25q-122 0 -208 -46.5t-130.5 -134.5t-44.5 -209t43.5 -212t130 -141t209.5 -50q90 0 169 25zM383.5 1270.5q-88.5 95.5 -88.5 266.5h147q0 -111 51 -173t158 -62q106 0 157 62t51 173h148
q0 -171 -88.5 -266.5t-267.5 -95.5t-267.5 95.5z" />
    <glyph glyph-name="Gdotaccent" unicode="&#x120;" horiz-adv-x="1721" 
d="M494 73.5q-185 93.5 -283.5 261t-98.5 384.5q0 216 102 383.5t279.5 259.5t398.5 92q311 0 571 -176l-68 -157q-100 78 -224 123t-270 45q-177 0 -314 -71t-213.5 -200t-76.5 -299q0 -174 76 -304t219 -200.5t339 -70.5q101 0 183.5 17t145.5 42t143 65v354h-472l-19 155
h666v-618q-154 -84 -305 -131.5t-343 -47.5q-251 0 -436 93.5zM808 1634q-34 34 -34 84t34 84.5t84 34.5t84 -34.5t34 -84.5q0 -49 -34.5 -83.5t-83.5 -34.5q-50 0 -84 34z" />
    <glyph glyph-name="gdotaccent" unicode="&#x121;" horiz-adv-x="1334" 
d="M1161 1043v-1100q0 -143 -71.5 -250.5t-202 -166t-303.5 -58.5q-129 0 -229.5 26t-165.5 60v150q76 -40 171 -65.5t208 -25.5q139 0 235 44t144.5 122t48.5 181v147q-84 -56 -178 -91.5t-207 -35.5q-155 0 -267 69t-171 193t-59 286q0 163 60 284t172 186.5t265 65.5
q115 0 210 -37t180 -95l5 111h155zM836 150q79 25 160 66v611q-79 41 -159 66t-170 25q-122 0 -208 -46.5t-130.5 -134.5t-44.5 -209t43.5 -212t130 -141t209.5 -50q90 0 169 25zM566 1272.5q-35 34.5 -35 85.5q0 50 35 84.5t85 34.5t85 -34.5t35 -84.5q0 -51 -35 -85.5
t-85 -34.5t-85 34.5z" />
    <glyph glyph-name="uni0122" unicode="&#x122;" horiz-adv-x="1721" 
d="M494 73.5q-185 93.5 -283.5 261t-98.5 384.5q0 216 102 383.5t279.5 259.5t398.5 92q311 0 571 -176l-68 -157q-100 78 -224 123t-270 45q-177 0 -314 -71t-213.5 -200t-76.5 -299q0 -174 76 -304t219 -200.5t339 -70.5q101 0 183.5 17t145.5 42t143 65v354h-472l-19 155
h666v-618q-154 -84 -305 -131.5t-343 -47.5q-251 0 -436 93.5zM751 -500l143 379h211v-12l-243 -379h-111v12z" />
    <glyph glyph-name="uni0123" unicode="&#x123;" horiz-adv-x="1334" 
d="M1161 1043v-1100q0 -143 -71.5 -250.5t-202 -166t-303.5 -58.5q-129 0 -229.5 26t-165.5 60v150q76 -40 171 -65.5t208 -25.5q139 0 235 44t144.5 122t48.5 181v147q-84 -56 -178 -91.5t-207 -35.5q-155 0 -267 69t-171 193t-59 286q0 163 60 284t172 186.5t265 65.5
q115 0 210 -37t180 -95l5 111h155zM836 150q79 25 160 66v611q-79 41 -159 66t-170 25q-122 0 -208 -46.5t-130.5 -134.5t-44.5 -209t43.5 -212t130 -141t209.5 -50q90 0 169 25zM723 1536h111l-130 -362h-211z" />
    <glyph glyph-name="Hbar" unicode="&#x126;" horiz-adv-x="1725" 
d="M1704 1249v-117h-184v-1132h-174v771h-967v-771h-174v1132h-185v117h185v185h174v-185h967v185h174v-185h184zM1346 926v206h-967v-206h967z" />
    <glyph glyph-name="hbar" unicode="&#x127;" horiz-adv-x="1358" 
d="M998 1015q94 -49 141 -138t47 -210v-667h-165v646q0 127 -78 199.5t-230 72.5q-104 0 -193 -28.5t-170 -79.5v-810h-165v1240h-135v107h135v189h165v-189h432v-107h-432v-325q196 149 417 149q137 0 231 -49z" />
    <glyph glyph-name="Imacron" unicode="&#x12a;" horiz-adv-x="584" 
d="M205 1434h174v-1434h-174v1434zM-54 1761h692v-116h-692v116z" />
    <glyph glyph-name="imacron" unicode="&#x12b;" horiz-adv-x="514" 
d="M175 1043h165v-1043h-165v1043zM-89 1408h692v-107h-692v107z" />
    <glyph glyph-name="Iogonek" unicode="&#x12e;" horiz-adv-x="584" 
d="M379 0q-174 -199 -174 -439q0 -40 4 -73l-163 34q-1 11 -1 33q0 245 176 445h-16v1434h174v-1434z" />
    <glyph glyph-name="iogonek" unicode="&#x12f;" horiz-adv-x="514" 
d="M342 1442.5q35 -34.5 35 -84.5q0 -51 -35 -85.5t-85 -34.5t-85 34.5t-35 85.5q0 50 35 84.5t85 34.5t85 -34.5zM175 1043h165v-1043q-174 -199 -174 -439q0 -40 4 -73l-163 34q-1 11 -1 33q0 245 176 445h-7v1043z" />
    <glyph glyph-name="Idotaccent" unicode="&#x130;" horiz-adv-x="584" 
d="M205 1434h174v-1434h-174v1434zM208 1634q-34 34 -34 84t34 84.5t84 34.5t84 -34.5t34 -84.5q0 -49 -34.5 -83.5t-83.5 -34.5q-50 0 -84 34z" />
    <glyph glyph-name="dotlessi" unicode="&#x131;" horiz-adv-x="514" 
d="M175 1043h165v-1043h-165v1043z" />
    <glyph glyph-name="uni0136" unicode="&#x136;" horiz-adv-x="1583" 
d="M1481 1434l-469 -698l467 -736h-208l-391 615h-501v-615h-174v1434h174v-664h456l436 664h210zM564 -500l143 379h211v-12l-243 -379h-111v12z" />
    <glyph glyph-name="uni0137" unicode="&#x137;" horiz-adv-x="1304" 
d="M1008 0l-316 485h-342v-485h-165v1536h165v-895h321l290 402h202l-328 -465l370 -578h-197zM467 -500l143 379h211v-12l-243 -379h-111v12z" />
    <glyph glyph-name="Lacute" unicode="&#x139;" horiz-adv-x="1415" 
d="M205 1434h174v-1279h932v-155h-1106v1434zM-29 1651l627 202h12v-162l-609 -133z" />
    <glyph glyph-name="lacute" unicode="&#x13a;" horiz-adv-x="535" 
d="M185 1536h165v-1536h-165v1536zM-58 1753l627 202h12v-162l-609 -133z" />
    <glyph glyph-name="uni013B" unicode="&#x13b;" horiz-adv-x="1415" 
d="M205 1434h174v-1279h932v-155h-1106v1434zM579 -500l143 379h211v-12l-243 -379h-111v12z" />
    <glyph glyph-name="uni013C" unicode="&#x13c;" horiz-adv-x="535" 
d="M185 1536h165v-1536h-165v1536zM90 -500l143 379h211v-12l-243 -379h-111v12z" />
    <glyph glyph-name="Lcaron" unicode="&#x13d;" horiz-adv-x="1415" 
d="M379 1434v-1279h932v-155h-1106v1434h174zM887 1434h178l-215 -391h-158z" />
    <glyph glyph-name="lcaron" unicode="&#x13e;" horiz-adv-x="535" 
d="M185 1536h165v-1536h-165v1536zM-129 1979h11l385 -152l385 152h11l30 -93l-420 -203h-12l-420 203z" />
    <glyph glyph-name="Lslash" unicode="&#x141;" horiz-adv-x="1415" 
d="M379 155h932v-155h-1106v641l-185 -74v115l185 74v678h174v-641l444 176v-115l-444 -176v-523z" />
    <glyph glyph-name="lslash" unicode="&#x142;" horiz-adv-x="535" 
d="M482 986v-139l-132 -79v-768h-165v707l-133 -79v139l133 79v690h165v-629z" />
    <glyph glyph-name="Nacute" unicode="&#x143;" horiz-adv-x="1637" 
d="M205 1434h424l622 -538h7v538h175v-1434h-175v652l-692 607h-187v-1259h-174v1434zM495 1651l627 202h12v-162l-609 -133z" />
    <glyph glyph-name="nacute" unicode="&#x144;" horiz-adv-x="1331" 
d="M974.5 1015q91.5 -49 137.5 -138t46 -210v-667h-165v646q0 127 -76 199.5t-223 72.5q-183 0 -349 -106v-812h-165v1043h155l6 -129q87 67 187 108.5t221 41.5q134 0 225.5 -49zM512 1180l244 366h248v-12l-366 -365h-126v11z" />
    <glyph glyph-name="uni0145" unicode="&#x145;" horiz-adv-x="1637" 
d="M205 1434h424l622 -538h7v538h175v-1434h-175v652l-692 607h-187v-1259h-174v1434zM643 -500l143 379h211v-12l-243 -379h-111v12z" />
    <glyph glyph-name="uni0146" unicode="&#x146;" horiz-adv-x="1331" 
d="M974.5 1015q91.5 -49 137.5 -138t46 -210v-667h-165v646q0 127 -76 199.5t-223 72.5q-183 0 -349 -106v-812h-165v1043h155l6 -129q87 67 187 108.5t221 41.5q134 0 225.5 -49zM487 -500l143 379h211v-12l-243 -379h-111v12z" />
    <glyph glyph-name="Ncaron" unicode="&#x147;" horiz-adv-x="1637" 
d="M205 1434h424l622 -538h7v538h175v-1434h-175v652l-692 607h-187v-1259h-174v1434zM424 1877h11l385 -152l385 152h11l30 -93l-420 -203h-12l-420 203z" />
    <glyph glyph-name="ncaron" unicode="&#x148;" horiz-adv-x="1331" 
d="M974.5 1015q91.5 -49 137.5 -138t46 -210v-667h-165v646q0 127 -76 199.5t-223 72.5q-183 0 -349 -106v-812h-165v1043h155l6 -129q87 67 187 108.5t221 41.5q134 0 225.5 -49zM256 1546h116l292 -238l292 238h116v-11l-340 -366h-136l-340 366v11z" />
    <glyph glyph-name="Eng" unicode="&#x14a;" horiz-adv-x="1637" 
d="M1433 1434v-1467q0 -232 -129.5 -355.5t-391.5 -123.5h-21v153q137 0 218 39t115 112t34 183v677l-692 607h-187v-1259h-174v1434h424l622 -538h7v538h175z" />
    <glyph glyph-name="eng" unicode="&#x14b;" horiz-adv-x="1331" 
d="M974.5 1015q91.5 -49 137.5 -138t46 -210v-830q0 -116 -46.5 -199t-127 -126.5t-179.5 -43.5q-106 0 -190 26v136q62 -17 146 -17q109 0 170.5 62t61.5 180v791q0 127 -76 199.5t-223 72.5q-183 0 -349 -106v-812h-165v1043h155l6 -129q87 67 187 108.5t221 41.5
q134 0 225.5 -49z" />
    <glyph glyph-name="Omacron" unicode="&#x14c;" horiz-adv-x="1756" 
d="M493.5 74.5q-175.5 94.5 -278.5 262.5t-103 381t103 381t278.5 261.5t386.5 93.5t386 -93.5t276.5 -261.5t101.5 -381t-102 -381.5t-276.5 -262.5t-385.5 -94t-386.5 94.5zM1171.5 217q132.5 73 210 203.5t77.5 297.5q0 166 -77 296t-209 202.5t-293 72.5
q-162 0 -295 -72.5t-210.5 -202.5t-77.5 -296q0 -167 78 -297.5t211.5 -203.5t293.5 -73q159 0 291.5 73zM532 1761h692v-116h-692v116z" />
    <glyph glyph-name="omacron" unicode="&#x14d;" horiz-adv-x="1412" 
d="M412 50q-133 70 -210.5 194.5t-77.5 282.5q0 156 77.5 278.5t210.5 190.5t294 68t294 -68t210.5 -190.5t77.5 -278.5q0 -158 -77.5 -282.5t-210.5 -194.5t-294 -70t-294 70zM916 185q94 50 148.5 139.5t54.5 202.5q0 112 -54 199t-148.5 134.5t-210.5 47.5t-210 -47.5
t-148 -134.5t-54 -199q0 -113 54 -202.5t148 -139.5t210 -50t210 50zM360 1408h692v-107h-692v107z" />
    <glyph glyph-name="Ohungarumlaut" unicode="&#x150;" horiz-adv-x="1756" 
d="M493.5 74.5q-175.5 94.5 -278.5 262.5t-103 381t103 381t278.5 261.5t386.5 93.5t386 -93.5t276.5 -261.5t101.5 -381t-102 -381.5t-276.5 -262.5t-385.5 -94t-386.5 94.5zM1171.5 217q132.5 73 210 203.5t77.5 297.5q0 166 -77 296t-209 202.5t-293 72.5
q-162 0 -295 -72.5t-210.5 -202.5t-77.5 -296q0 -167 78 -297.5t211.5 -203.5t293.5 -73q159 0 291.5 73zM667 1902h159l-99 -327h-156zM1077 1902h159l-100 -327h-155z" />
    <glyph glyph-name="ohungarumlaut" unicode="&#x151;" horiz-adv-x="1412" 
d="M412 50q-133 70 -210.5 194.5t-77.5 282.5q0 156 77.5 278.5t210.5 190.5t294 68t294 -68t210.5 -190.5t77.5 -278.5q0 -158 -77.5 -282.5t-210.5 -194.5t-294 -70t-294 70zM916 185q94 50 148.5 139.5t54.5 202.5q0 112 -54 199t-148.5 134.5t-210.5 47.5t-210 -47.5
t-148 -134.5t-54 -199q0 -113 54 -202.5t148 -139.5t210 -50t210 50zM486 1536h159l-90 -362h-155zM895 1536h159l-90 -362h-155z" />
    <glyph glyph-name="OE" unicode="&#x152;" horiz-adv-x="2795" 
d="M1644 1278v-406h598v-156h-598v-561h1003v-155h-1177v237q-106 -122 -259.5 -189.5t-330.5 -67.5q-211 0 -386.5 94.5t-278.5 262.5t-103 381t103 381t278.5 261.5t386.5 93.5q177 0 330.5 -67t259.5 -188v235h1177v-156h-1003zM1171.5 217q132.5 73 210 203.5
t77.5 297.5q0 166 -77 296t-209 202.5t-293 72.5q-162 0 -295 -72.5t-210.5 -202.5t-77.5 -296q0 -167 78 -297.5t211.5 -203.5t293.5 -73q159 0 291.5 73z" />
    <glyph glyph-name="oe" unicode="&#x153;" horiz-adv-x="2318" 
d="M1286 482q15 -172 129 -269t334 -97q180 0 346 72v-143q-85 -30 -181 -47.5t-192 -17.5q-194 0 -325 64t-200 179q-78 -114 -207.5 -178.5t-283.5 -64.5q-161 0 -294 70t-210.5 194.5t-77.5 282.5q0 156 77.5 278.5t210.5 190.5t294 68q156 0 286 -64t207 -177
q72 113 194.5 177t271.5 64q152 0 272.5 -71.5t188 -197t67.5 -281.5v-32h-907zM1479.5 884.5q-82.5 -43.5 -132 -120.5t-60.5 -175h748q-11 95 -58 172t-126 122t-183 45q-106 0 -188.5 -43.5zM916 185q94 50 148.5 139.5t54.5 202.5q0 112 -54 199t-148.5 134.5
t-210.5 47.5t-210 -47.5t-148 -134.5t-54 -199q0 -113 54 -202.5t148 -139.5t210 -50t210 50z" />
    <glyph glyph-name="Racute" unicode="&#x154;" horiz-adv-x="1656" 
d="M1037 645l458 -645h-209l-442 645h-465v-645h-174v1434h853q126 0 226 -49.5t156 -139t56 -204.5q0 -116 -56 -206t-156 -140t-226 -50h-21zM379 800h662q128 0 204 63.5t76 177.5t-76 175.5t-204 61.5h-662v-478zM486 1651l627 202h12v-162l-609 -133z" />
    <glyph glyph-name="racute" unicode="&#x155;" horiz-adv-x="905" 
d="M660 913q-87 0 -164 -26.5t-151 -74.5v-812h-165v1043h155l6 -129q84 68 176.5 109t203.5 41q40 0 80 -11l22 -161q-76 21 -163 21zM302 1180l244 366h248v-12l-366 -365h-126v11z" />
    <glyph glyph-name="uni0156" unicode="&#x156;" horiz-adv-x="1656" 
d="M1037 645l458 -645h-209l-442 645h-465v-645h-174v1434h853q126 0 226 -49.5t156 -139t56 -204.5q0 -116 -56 -206t-156 -140t-226 -50h-21zM379 800h662q128 0 204 63.5t76 177.5t-76 175.5t-204 61.5h-662v-478zM634 -500l143 379h211v-12l-243 -379h-111v12z" />
    <glyph glyph-name="uni0157" unicode="&#x157;" horiz-adv-x="905" 
d="M660 913q-87 0 -164 -26.5t-151 -74.5v-812h-165v1043h155l6 -129q84 68 176.5 109t203.5 41q40 0 80 -11l22 -161q-76 21 -163 21zM87 -500l143 379h211v-12l-243 -379h-111v12z" />
    <glyph glyph-name="Rcaron" unicode="&#x158;" horiz-adv-x="1656" 
d="M1037 645l458 -645h-209l-442 645h-465v-645h-174v1434h853q126 0 226 -49.5t156 -139t56 -204.5q0 -116 -56 -206t-156 -140t-226 -50h-21zM379 800h662q128 0 204 63.5t76 177.5t-76 175.5t-204 61.5h-662v-478zM415 1877h11l385 -152l385 152h11l30 -93l-420 -203h-12
l-420 203z" />
    <glyph glyph-name="rcaron" unicode="&#x159;" horiz-adv-x="905" 
d="M660 913q-87 0 -164 -26.5t-151 -74.5v-812h-165v1043h155l6 -129q84 68 176.5 109t203.5 41q40 0 80 -11l22 -161q-76 21 -163 21zM46 1546h116l292 -238l292 238h116v-11l-340 -366h-136l-340 366v11z" />
    <glyph glyph-name="Sacute" unicode="&#x15a;" horiz-adv-x="1345" 
d="M82 157l55 156q206 -178 509 -178q142 0 234.5 38t135.5 102t43 145q0 91 -54.5 141.5t-135.5 72t-222 42.5q-165 24 -266 54t-172 105.5t-71 214.5q0 128 62.5 219t178.5 138t274 47q147 0 280.5 -40t239.5 -114l-53 -150q-99 73 -217 111t-247 38q-161 0 -250.5 -62.5
t-89.5 -173.5q0 -81 51 -126.5t127.5 -65.5t211.5 -41q171 -27 277 -59t180.5 -113.5t74.5 -230.5q0 -130 -64.5 -230.5t-197.5 -158.5t-333 -58q-341 0 -561 177zM334 1651l627 202h12v-162l-609 -133z" />
    <glyph glyph-name="sacute" unicode="&#x15b;" horiz-adv-x="1106" 
d="M284.5 11.5q-108.5 31.5 -192.5 84.5l27 148q76 -55 181.5 -89.5t234.5 -34.5q101 0 170.5 23.5t104 64.5t34.5 94q0 54 -39.5 85.5t-99 47t-163.5 31.5q-137 22 -222 47t-145.5 85.5t-60.5 168.5q0 92 46.5 159t136.5 102.5t218 35.5q123 0 231 -31.5t194 -78.5
l-19 -142q-83 46 -189.5 78.5t-221.5 32.5q-117 0 -176.5 -38t-59.5 -106q0 -53 39.5 -84.5t99 -46.5t163.5 -31q139 -22 225 -47t147 -85.5t61 -168.5q0 -100 -54.5 -175.5t-163 -118t-266.5 -42.5q-132 0 -240.5 31.5zM393 1180l244 366h248v-12l-366 -365h-126v11z" />
    <glyph glyph-name="Scedilla" unicode="&#x15e;" horiz-adv-x="1345" 
d="M1182.5 211q-55.5 -96 -170.5 -156t-288 -72l-171 -386l-157 77l222 306q-324 7 -536 177l55 156q206 -178 509 -178q142 0 234.5 38t135.5 102t43 145q0 91 -54.5 141.5t-135.5 72t-222 42.5q-165 24 -266 54t-172 105.5t-71 214.5q0 128 62.5 219t178.5 138t274 47
q147 0 280.5 -40t239.5 -114l-53 -150q-99 73 -217 111t-247 38q-161 0 -250.5 -62.5t-89.5 -173.5q0 -81 51 -126.5t127.5 -65.5t211.5 -41q171 -27 277 -59t180.5 -113.5t74.5 -230.5q0 -120 -55.5 -216z" />
    <glyph glyph-name="scedilla" unicode="&#x15f;" horiz-adv-x="1106" 
d="M911 92.5q-98 -88.5 -287 -107.5l-172 -388l-157 77l221 306q-129 1 -235.5 32.5t-188.5 83.5l27 148q76 -55 181.5 -89.5t234.5 -34.5q101 0 170.5 23.5t104 64.5t34.5 94q0 54 -39.5 85.5t-99 47t-163.5 31.5q-137 22 -222 47t-145.5 85.5t-60.5 168.5q0 92 46.5 159
t136.5 102.5t218 35.5q123 0 231 -31.5t194 -78.5l-19 -142q-83 46 -189.5 78.5t-221.5 32.5q-117 0 -176.5 -38t-59.5 -106q0 -53 39.5 -84.5t99 -46.5t163.5 -31q139 -22 225 -47t147 -85.5t61 -168.5q0 -135 -98 -223.5z" />
    <glyph glyph-name="Scaron" unicode="&#x160;" horiz-adv-x="1345" 
d="M82 157l55 156q206 -178 509 -178q142 0 234.5 38t135.5 102t43 145q0 91 -54.5 141.5t-135.5 72t-222 42.5q-165 24 -266 54t-172 105.5t-71 214.5q0 128 62.5 219t178.5 138t274 47q147 0 280.5 -40t239.5 -114l-53 -150q-99 73 -217 111t-247 38q-161 0 -250.5 -62.5
t-89.5 -173.5q0 -81 51 -126.5t127.5 -65.5t211.5 -41q171 -27 277 -59t180.5 -113.5t74.5 -230.5q0 -130 -64.5 -230.5t-197.5 -158.5t-333 -58q-341 0 -561 177zM263 1877h11l385 -152l385 152h11l30 -93l-420 -203h-12l-420 203z" />
    <glyph glyph-name="scaron" unicode="&#x161;" horiz-adv-x="1106" 
d="M284.5 11.5q-108.5 31.5 -192.5 84.5l27 148q76 -55 181.5 -89.5t234.5 -34.5q101 0 170.5 23.5t104 64.5t34.5 94q0 54 -39.5 85.5t-99 47t-163.5 31.5q-137 22 -222 47t-145.5 85.5t-60.5 168.5q0 92 46.5 159t136.5 102.5t218 35.5q123 0 231 -31.5t194 -78.5
l-19 -142q-83 46 -189.5 78.5t-221.5 32.5q-117 0 -176.5 -38t-59.5 -106q0 -53 39.5 -84.5t99 -46.5t163.5 -31q139 -22 225 -47t147 -85.5t61 -168.5q0 -100 -54.5 -175.5t-163 -118t-266.5 -42.5q-132 0 -240.5 31.5zM137 1546h116l292 -238l292 238h116v-11l-340 -366
h-136l-340 366v11z" />
    <glyph glyph-name="uni0162" unicode="&#x162;" horiz-adv-x="1544" 
d="M66 1434h1412v-156h-619v-1278h-24l-179 -403l-157 77l236 326h-50v1278h-619v156z" />
    <glyph glyph-name="uni0163" unicode="&#x163;" horiz-adv-x="1041" 
d="M451 893v-561q0 -97 59 -152t169 -55q59 0 111 17t102 47v-141q-93 -53 -194 -64l-172 -387l-157 77l223 308q-146 11 -226 98t-80 234v579h-253l21 150h232v272l165 21v-293h462v-150h-462z" />
    <glyph glyph-name="Tcaron" unicode="&#x164;" horiz-adv-x="1544" 
d="M685 1278h-619v156h1412v-156h-619v-1278h-174v1278zM376 1877h11l385 -152l385 152h11l30 -93l-420 -203h-12l-420 203z" />
    <glyph glyph-name="tcaron" unicode="&#x165;" horiz-adv-x="1041" 
d="M451 893v-561q0 -97 59 -152t169 -55q59 0 111 17t102 47v-141q-117 -68 -258 -68q-165 0 -256.5 88t-91.5 246v579h-253l21 150h232v272l165 21v-293h462v-150h-462zM29 1833h116l292 -238l292 238h116v-11l-340 -366h-136l-340 366v11z" />
    <glyph glyph-name="Tbar" unicode="&#x166;" horiz-adv-x="1544" 
d="M1478 1278h-619v-531h368v-107h-368v-640h-174v640h-368v107h368v531h-619v156h1412v-156z" />
    <glyph glyph-name="tbar" unicode="&#x167;" horiz-adv-x="1041" 
d="M451 893v-292h460v-117h-460v-152q0 -97 59 -152t169 -55q59 0 111 17t102 47v-141q-117 -68 -258 -68q-165 0 -256.5 88t-91.5 246v170h-232v117h232v292h-253l21 150h232v272l165 21v-293h462v-150h-462z" />
    <glyph glyph-name="Umacron" unicode="&#x16a;" horiz-adv-x="1625" 
d="M482.5 49q-141.5 69 -219 205.5t-77.5 334.5v845h174v-830q0 -224 116 -346.5t341 -122.5q228 0 343.5 122t115.5 347v830h175v-845q0 -198 -78 -334.5t-220.5 -205.5t-335.5 -69t-334.5 69zM473 1761h692v-116h-692v116z" />
    <glyph glyph-name="umacron" unicode="&#x16b;" horiz-adv-x="1300" 
d="M1120 1043v-1043h-155l-6 129q-191 -149 -399 -149q-126 0 -213 49t-130.5 138t-43.5 209v667h165v-646q0 -126 71 -199t208 -73q95 0 178 28.5t160 77.5v812h165zM284 1408h692v-107h-692v107z" />
    <glyph glyph-name="Uring" unicode="&#x16e;" horiz-adv-x="1614" 
d="M471.5 49q-141.5 69 -219 205.5t-77.5 334.5v845h174v-830q0 -224 116 -346.5t341 -122.5q228 0 343.5 122t115.5 347v830h175v-845q0 -198 -78 -334.5t-220.5 -205.5t-335.5 -69t-334.5 69zM544 1583q-85 45 -85 123t84.5 122t264.5 44q178 0 262.5 -44t84.5 -122
t-84 -123t-263 -45t-264 45zM962 1638q53 27 53 68q0 40 -53 67t-155 27q-104 0 -157 -27t-53 -67q0 -41 53 -68t157 -27q102 0 155 27z" />
    <glyph glyph-name="uring" unicode="&#x16f;" horiz-adv-x="1300" 
d="M1120 1043v-1043h-155l-6 129q-191 -149 -399 -149q-126 0 -213 49t-130.5 138t-43.5 209v667h165v-646q0 -126 71 -199t208 -73q95 0 178 28.5t160 77.5v812h165zM443.5 1192.5q-78.5 23.5 -120 66t-41.5 99.5q0 56 41.5 98.5t120 66t186.5 23.5t186 -23.5t119.5 -66
t41.5 -98.5t-41 -99t-119.5 -66.5t-186.5 -23.5t-186.5 23.5zM782 1278q55 31 55 80q0 48 -55 78.5t-152 30.5q-98 0 -153 -30.5t-55 -78.5q0 -49 54.5 -80t153.5 -31q97 0 152 31z" />
    <glyph glyph-name="Uhungarumlaut" unicode="&#x170;" horiz-adv-x="1625" 
d="M482.5 49q-141.5 69 -219 205.5t-77.5 334.5v845h174v-830q0 -224 116 -346.5t341 -122.5q228 0 343.5 122t115.5 347v830h175v-845q0 -198 -78 -334.5t-220.5 -205.5t-335.5 -69t-334.5 69zM608 1902h159l-99 -327h-156zM1018 1902h159l-100 -327h-155z" />
    <glyph glyph-name="uhungarumlaut" unicode="&#x171;" horiz-adv-x="1300" 
d="M1120 1043v-1043h-155l-6 129q-191 -149 -399 -149q-126 0 -213 49t-130.5 138t-43.5 209v667h165v-646q0 -126 71 -199t208 -73q95 0 178 28.5t160 77.5v812h165zM410 1536h159l-90 -362h-155zM819 1536h159l-90 -362h-155z" />
    <glyph glyph-name="Uogonek" unicode="&#x172;" horiz-adv-x="1625" 
d="M1451 1434v-845q0 -250 -124 -401.5t-344 -192.5q-169 -197 -169 -433q0 -41 4 -74l-163 34l-1 32q0 236 159 426q-192 1 -333 70.5t-217.5 205.5t-76.5 333v845h174v-830q0 -224 116 -346.5t341 -122.5q228 0 343.5 122t115.5 347v830h175z" />
    <glyph glyph-name="uogonek" unicode="&#x173;" horiz-adv-x="1300" 
d="M1120 0q-174 -199 -174 -439q0 -40 4 -73l-163 34q-1 11 -1 33q0 248 179 448l-6 126q-191 -149 -399 -149q-126 0 -213 49t-130.5 138t-43.5 209v667h165v-646q0 -126 71 -199t208 -73q95 0 178 28.5t160 77.5v812h165v-1043z" />
    <glyph glyph-name="Wcircumflex" unicode="&#x174;" horiz-adv-x="2180" 
d="M82 1434h185l334 -1244l313 1157h353l312 -1157l334 1244h185l-402 -1434h-232l-325 1192h-97l-326 -1192h-232zM664 1670l420 203h12l420 -203l-30 -93h-11l-385 152l-385 -152h-11z" />
    <glyph glyph-name="wcircumflex" unicode="&#x175;" horiz-adv-x="1909" 
d="M62 1043h175l276 -841l295 841h292l295 -841l277 841h174l-344 -1043h-202l-310 888h-71l-311 -888h-201zM547 1180l340 366h136l340 -366v-11h-116l-292 238l-292 -238h-116v11z" />
    <glyph glyph-name="Ycircumflex" unicode="&#x176;" horiz-adv-x="1524" 
d="M1452 1434l-605 -921v-513h-175v508l-600 926h212l451 -702h49l456 702h212zM337 1670l420 203h12l420 -203l-30 -93h-11l-385 152l-385 -152h-11z" />
    <glyph glyph-name="ycircumflex" unicode="&#x177;" horiz-adv-x="1233" 
d="M1171 1043l-567 -1355q-43 -111 -122.5 -165.5t-197.5 -54.5q-70 0 -123 15t-99 42v149q87 -61 198 -61q140 0 195 130l118 257h-80l-431 1043h177l347 -856h61l347 856h177zM209 1180l340 366h136l340 -366v-11h-116l-292 238l-292 -238h-116v11z" />
    <glyph glyph-name="Ydieresis" unicode="&#x178;" horiz-adv-x="1524" 
d="M1452 1434l-605 -921v-513h-175v508l-600 926h212l451 -702h49l456 702h212zM480 1635q-34 34 -34 84t34 84.5t84 34.5t84 -34.5t34 -84.5q0 -49 -34.5 -83.5t-83.5 -34.5q-50 0 -84 34zM878 1635q-34 34 -34 84t34 84.5t84 34.5t84 -34.5t34 -84.5q0 -49 -34.5 -83.5
t-83.5 -34.5q-50 0 -84 34z" />
    <glyph glyph-name="Zacute" unicode="&#x179;" horiz-adv-x="1527" 
d="M138 292l1064 931v55h-1064v156h1238v-292l-1064 -930v-57h1077v-155h-1251v292zM456 1651l627 202h12v-162l-609 -133z" />
    <glyph glyph-name="zacute" unicode="&#x17a;" horiz-adv-x="1157" 
d="M112 231l780 647v23h-780v142h932v-250l-741 -626v-22h741v-145h-932v231zM432 1180l244 366h248v-12l-366 -365h-126v11z" />
    <glyph glyph-name="Zdotaccent" unicode="&#x17b;" horiz-adv-x="1527" 
d="M138 292l1064 931v55h-1064v156h1238v-292l-1064 -930v-57h1077v-155h-1251v292zM697 1634q-34 34 -34 84t34 84.5t84 34.5t84 -34.5t34 -84.5q0 -49 -34.5 -83.5t-83.5 -34.5q-50 0 -84 34z" />
    <glyph glyph-name="zdotaccent" unicode="&#x17c;" horiz-adv-x="1157" 
d="M112 231l780 647v23h-780v142h932v-250l-741 -626v-22h741v-145h-932v231zM499 1272.5q-35 34.5 -35 85.5q0 50 35 84.5t85 34.5t85 -34.5t35 -84.5q0 -51 -35 -85.5t-85 -34.5t-85 34.5z" />
    <glyph glyph-name="Zcaron" unicode="&#x17d;" horiz-adv-x="1527" 
d="M138 292l1064 931v55h-1064v156h1238v-292l-1064 -930v-57h1077v-155h-1251v292zM385 1877h11l385 -152l385 152h11l30 -93l-420 -203h-12l-420 203z" />
    <glyph glyph-name="zcaron" unicode="&#x17e;" horiz-adv-x="1157" 
d="M112 231l780 647v23h-780v142h932v-250l-741 -626v-22h741v-145h-932v231zM176 1546h116l292 -238l292 238h116v-11l-340 -366h-136l-340 366v11z" />
    <glyph glyph-name="florin" unicode="&#x192;" 
d="M1136.5 1283.5q-41.5 -24.5 -69.5 -72.5t-52 -129l-129 -429h466v-107h-498l-225 -752q-50 -167 -129 -246.5t-216 -79.5q-99 0 -185 26v144q66 -25 149 -25q63 0 104.5 24.5t69.5 73t52 129.5l212 706h-437v107h469l142 475q33 111 77.5 182t109.5 107.5t158 36.5
q101 0 185 -27v-143q-66 24 -148 24q-64 0 -105.5 -24.5z" />
    <glyph glyph-name="uni0218" unicode="&#x218;" horiz-adv-x="1345" 
d="M82 157l55 156q206 -178 509 -178q142 0 234.5 38t135.5 102t43 145q0 91 -54.5 141.5t-135.5 72t-222 42.5q-165 24 -266 54t-172 105.5t-71 214.5q0 128 62.5 219t178.5 138t274 47q147 0 280.5 -40t239.5 -114l-53 -150q-99 73 -217 111t-247 38q-161 0 -250.5 -62.5
t-89.5 -173.5q0 -81 51 -126.5t127.5 -65.5t211.5 -41q171 -27 277 -59t180.5 -113.5t74.5 -230.5q0 -130 -64.5 -230.5t-197.5 -158.5t-333 -58q-341 0 -561 177zM469 -500l143 379h211v-12l-243 -379h-111v12z" />
    <glyph glyph-name="uni0219" unicode="&#x219;" horiz-adv-x="1106" 
d="M284.5 11.5q-108.5 31.5 -192.5 84.5l27 148q76 -55 181.5 -89.5t234.5 -34.5q101 0 170.5 23.5t104 64.5t34.5 94q0 54 -39.5 85.5t-99 47t-163.5 31.5q-137 22 -222 47t-145.5 85.5t-60.5 168.5q0 92 46.5 159t136.5 102.5t218 35.5q123 0 231 -31.5t194 -78.5
l-19 -142q-83 46 -189.5 78.5t-221.5 32.5q-117 0 -176.5 -38t-59.5 -106q0 -53 39.5 -84.5t99 -46.5t163.5 -31q139 -22 225 -47t147 -85.5t61 -168.5q0 -100 -54.5 -175.5t-163 -118t-266.5 -42.5q-132 0 -240.5 31.5zM368 -500l143 379h211v-12l-243 -379h-111v12z" />
    <glyph glyph-name="uni021A" unicode="&#x21a;" horiz-adv-x="1544" 
d="M685 1278h-619v156h1412v-156h-619v-1278h-174v1278zM572 -500l143 379h211v-12l-243 -379h-111v12z" />
    <glyph glyph-name="uni021B" unicode="&#x21b;" horiz-adv-x="1041" 
d="M451 893v-561q0 -97 59 -152t169 -55q59 0 111 17t102 47v-141q-117 -68 -258 -68q-165 0 -256.5 88t-91.5 246v579h-253l21 150h232v272l165 21v-293h462v-150h-462zM442 -500l143 379h211v-12l-243 -379h-111v12z" />
    <glyph glyph-name="uni0237" unicode="&#x237;" horiz-adv-x="518" 
d="M-201 -506l-12 156q91 -37 175 -37q100 0 158 62t58 180v1188h165v-1206q0 -117 -46 -200t-126.5 -126t-181.5 -43q-107 0 -190 26z" />
    <glyph glyph-name="circumflex" unicode="&#x2c6;" horiz-adv-x="2048" 
d="M616 1180l340 366h136l340 -366v-11h-116l-292 238l-292 -238h-116v11z" />
    <glyph glyph-name="caron" unicode="&#x2c7;" horiz-adv-x="2074" 
d="M642 1545h116l292 -238l292 238h116v-11l-340 -366h-136l-340 366v11z" />
    <glyph glyph-name="breve" unicode="&#x2d8;" horiz-adv-x="2048" 
d="M742.5 1270.5q-88.5 95.5 -88.5 266.5h147q0 -111 51 -173t158 -62q106 0 157 62t51 173h148q0 -171 -88.5 -266.5t-267.5 -95.5t-267.5 95.5z" />
    <glyph glyph-name="dotaccent" unicode="&#x2d9;" horiz-adv-x="2048" 
d="M939 1272.5q-35 34.5 -35 85.5q0 50 35 84.5t85 34.5t85 -34.5t35 -84.5q0 -51 -35 -85.5t-85 -34.5t-85 34.5z" />
    <glyph glyph-name="ring" unicode="&#x2da;" horiz-adv-x="2048" 
d="M845.5 1192.5q-78.5 23.5 -120 66t-41.5 99.5q0 56 41.5 98.5t120 66t186.5 23.5t186 -23.5t119.5 -66t41.5 -98.5t-41 -99t-119.5 -66.5t-186.5 -23.5t-186.5 23.5zM1184 1278q55 31 55 80q0 48 -55 78.5t-152 30.5q-98 0 -153 -30.5t-55 -78.5q0 -49 54.5 -80
t153.5 -31q97 0 152 31z" />
    <glyph glyph-name="ogonek" unicode="&#x2db;" horiz-adv-x="2048" 
d="M858 -445q0 251 182 452l152 -7q-174 -199 -174 -439q0 -40 4 -73l-163 34q-1 11 -1 33z" />
    <glyph glyph-name="tilde" unicode="&#x2dc;" horiz-adv-x="2048" 
d="M1124 1190.5q-42 21.5 -70 52.5t-65 82q-31 43 -51.5 67t-49 40.5t-64.5 16.5q-53 0 -73 -39t-20 -105v-121h-108v129q0 103 48.5 173t152.5 70q57 0 99 -21.5t70 -52.5t65 -82q31 -43 51.5 -67t49 -40.5t64.5 -16.5q53 0 73 39t20 105v121h107v-129q0 -103 -48 -173
t-152 -70q-57 0 -99 21.5z" />
    <glyph glyph-name="hungarumlaut" unicode="&#x2dd;" horiz-adv-x="2048" 
d="M783 1536h159l-90 -362h-155zM1192 1536h159l-90 -362h-155z" />
    <glyph glyph-name="gravecomb" unicode="&#x300;" horiz-adv-x="0" 
d="M-1361 1668v162h12l627 -202l-30 -93z" />
    <glyph glyph-name="acutecomb" unicode="&#x301;" horiz-adv-x="0" 
d="M-1347 1651l627 202h12v-162l-609 -133z" />
    <glyph glyph-name="uni0302" unicode="&#x302;" horiz-adv-x="0" 
d="M-1450 1670l420 203h12l420 -203l-30 -93h-11l-385 152l-385 -152h-11z" />
    <glyph glyph-name="tildecomb" unicode="&#x303;" horiz-adv-x="0" 
d="M-921.5 1555.5q-42.5 19.5 -71.5 47t-67 72.5q-33 38 -54.5 59t-49 35.5t-60.5 14.5q-53 0 -73 -39t-20 -105v-84h-108v92q0 103 48.5 173t152.5 70q54 0 96.5 -19.5t71.5 -47t67 -72.5q33 -38 54.5 -59t49 -35.5t60.5 -14.5q53 0 73 39.5t20 105.5v83h107v-92
q0 -103 -48 -173t-152 -70q-54 0 -96.5 19.5z" />
    <glyph glyph-name="uni0304" unicode="&#x304;" horiz-adv-x="0" 
d="M-1370 1761h692v-116h-692v116z" />
    <glyph glyph-name="uni0306" unicode="&#x306;" horiz-adv-x="0" 
d="M-1319.5 1633.5q-87.5 74.5 -87.5 216.5h157q0 -81 48 -123t151 -42t151.5 42t48.5 123h157q0 -142 -88 -216.5t-269 -74.5t-268.5 74.5z" />
    <glyph glyph-name="uni0307" unicode="&#x307;" horiz-adv-x="0" 
d="M-1127 1634q-34 34 -34 84t34 84.5t84 34.5t84 -34.5t34 -84.5q0 -49 -34.5 -83.5t-83.5 -34.5q-50 0 -84 34z" />
    <glyph glyph-name="uni0308" unicode="&#x308;" horiz-adv-x="0" 
d="M-1221 1635q-34 34 -34 84t34 84.5t84 34.5t84 -34.5t34 -84.5q0 -49 -34.5 -83.5t-83.5 -34.5q-50 0 -84 34zM-823 1635q-34 34 -34 84t34 84.5t84 34.5t84 -34.5t34 -84.5q0 -49 -34.5 -83.5t-83.5 -34.5q-50 0 -84 34z" />
    <glyph glyph-name="uni030A" unicode="&#x30a;" horiz-adv-x="0" 
d="M-1286 1583q-85 45 -85 123t84.5 122t264.5 44q178 0 262.5 -44t84.5 -122t-84 -123t-263 -45t-264 45zM-868 1638q53 27 53 68q0 40 -53 67t-155 27q-104 0 -157 -27t-53 -67q0 -41 53 -68t157 -27q102 0 155 27z" />
    <glyph glyph-name="uni030B" unicode="&#x30b;" horiz-adv-x="0" 
d="M-1232 1902h159l-99 -327h-156zM-822 1902h159l-100 -327h-155z" />
    <glyph glyph-name="uni030C" unicode="&#x30c;" horiz-adv-x="0" 
d="M-1420 1877h11l385 -152l385 152h11l30 -93l-420 -203h-12l-420 203z" />
    <glyph glyph-name="uni0312" unicode="&#x312;" horiz-adv-x="0" 
d="M-952 1536h111l-130 -362h-211z" />
    <glyph glyph-name="uni0326" unicode="&#x326;" horiz-adv-x="0" 
d="M-1201 -500l143 379h211v-12l-243 -379h-111v12z" />
    <glyph glyph-name="uni0327" unicode="&#x327;" horiz-adv-x="0" 
d="M-1157 -326l267 369l84 -9l-194 -437z" />
    <glyph glyph-name="uni0328" unicode="&#x328;" horiz-adv-x="0" 
d="M-1110 -445q0 251 182 452l152 -7q-174 -199 -174 -439q0 -40 4 -73l-163 34q-1 11 -1 33z" />
    <glyph glyph-name="uni03BC" unicode="&#x3bc;" 
d="M1217 1043v-1043h-127l-12 87q-159 -107 -333 -107q-167 0 -320 99v-591h-155v1555h155v-799q142 -109 320 -109q89 0 169 28.5t147 78.5v801h156z" />
    <glyph glyph-name="Wgrave" unicode="&#x1e80;" horiz-adv-x="2180" 
d="M82 1434h185l334 -1244l313 1157h353l312 -1157l334 1244h185l-402 -1434h-232l-325 1192h-97l-326 -1192h-232zM774 1668v162h12l627 -202l-30 -93z" />
    <glyph glyph-name="wgrave" unicode="&#x1e81;" horiz-adv-x="1909" 
d="M62 1043h175l276 -841l295 841h292l295 -841l277 841h174l-344 -1043h-202l-310 888h-71l-311 -888h-201zM964 1169l-366 365v12h248l244 -366v-11h-126z" />
    <glyph glyph-name="Wacute" unicode="&#x1e82;" horiz-adv-x="2180" 
d="M82 1434h185l334 -1244l313 1157h353l312 -1157l334 1244h185l-402 -1434h-232l-325 1192h-97l-326 -1192h-232zM765 1651l627 202h12v-162l-609 -133z" />
    <glyph glyph-name="wacute" unicode="&#x1e83;" horiz-adv-x="1909" 
d="M62 1043h175l276 -841l295 841h292l295 -841l277 841h174l-344 -1043h-202l-310 888h-71l-311 -888h-201zM803 1180l244 366h248v-12l-366 -365h-126v11z" />
    <glyph glyph-name="Wdieresis" unicode="&#x1e84;" horiz-adv-x="2180" 
d="M82 1434h185l334 -1244l313 1157h353l312 -1157l334 1244h185l-402 -1434h-232l-325 1192h-97l-326 -1192h-232zM807 1635q-34 34 -34 84t34 84.5t84 34.5t84 -34.5t34 -84.5q0 -49 -34.5 -83.5t-83.5 -34.5q-50 0 -84 34zM1205 1635q-34 34 -34 84t34 84.5t84 34.5
t84 -34.5t34 -84.5q0 -49 -34.5 -83.5t-83.5 -34.5q-50 0 -84 34z" />
    <glyph glyph-name="wdieresis" unicode="&#x1e85;" horiz-adv-x="1909" 
d="M62 1043h175l276 -841l295 841h292l295 -841l277 841h174l-344 -1043h-202l-310 888h-71l-311 -888h-201zM699 1274q-34 34 -34 84t34 84.5t84 34.5t84 -34.5t34 -84.5q0 -49 -34.5 -83.5t-83.5 -34.5q-50 0 -84 34zM1043 1270q-34 34 -34 84t34 84.5t84 34.5t84 -34.5
t34 -84.5q0 -49 -34.5 -83.5t-83.5 -34.5q-50 0 -84 34z" />
    <glyph glyph-name="uni1E9E" unicode="&#x1e9e;" horiz-adv-x="1564" 
d="M525 103v159q92 -66 209.5 -104t258.5 -38q152 0 230 50.5t78 132.5q0 57 -41.5 90t-104.5 49t-170 33q-134 22 -215.5 45.5t-139.5 77.5t-58 150q0 84 42 134.5t103.5 76t164.5 52.5t164.5 52.5t103.5 76t42 134.5v4h-429q-194 0 -289 -92.5t-95 -280.5v-905h-174v917
q0 249 141.5 383t409.5 134h603v-138q0 -137 -59.5 -215t-141 -110.5t-207.5 -60.5q-77 -17 -118.5 -30t-69 -37t-27.5 -63q0 -50 38 -79t95.5 -44t157.5 -31q140 -23 227 -49.5t149.5 -89t62.5 -174.5q0 -93 -55 -168.5t-164.5 -120t-265.5 -44.5q-259 0 -456 123z" />
    <glyph glyph-name="Ygrave" unicode="&#x1ef2;" horiz-adv-x="1524" 
d="M1452 1434l-605 -921v-513h-175v508l-600 926h212l451 -702h49l456 702h212zM447 1668v162h12l627 -202l-30 -93z" />
    <glyph glyph-name="ygrave" unicode="&#x1ef3;" horiz-adv-x="1233" 
d="M1171 1043l-567 -1355q-43 -111 -122.5 -165.5t-197.5 -54.5q-70 0 -123 15t-99 42v149q87 -61 198 -61q140 0 195 130l118 257h-80l-431 1043h177l347 -856h61l347 856h177zM626 1169l-366 365v12h248l244 -366v-11h-126z" />
    <glyph glyph-name="endash" unicode="&#x2013;" horiz-adv-x="1320" 
d="M154 811h1012v-146h-1012v146z" />
    <glyph glyph-name="emdash" unicode="&#x2014;" horiz-adv-x="2048" 
d="M154 811h1740v-146h-1740v146z" />
    <glyph glyph-name="quoteleft" unicode="&#x2018;" horiz-adv-x="584" 
d="M312 1120h-178l198 416h116z" />
    <glyph glyph-name="quoteright" unicode="&#x2019;" horiz-adv-x="584" 
d="M272 1536h178l-198 -416h-116z" />
    <glyph glyph-name="quotesinglbase" unicode="&#x201a;" horiz-adv-x="584" 
d="M272 151h178l-198 -416h-116z" />
    <glyph glyph-name="quotedblleft" unicode="&#x201c;" horiz-adv-x="981" 
d="M313 1120h-178l198 416h116zM710 1120h-178l198 416h116z" />
    <glyph glyph-name="quotedblright" unicode="&#x201d;" horiz-adv-x="981" 
d="M272 1536h178l-198 -416h-116zM669 1536h178l-198 -416h-116z" />
    <glyph glyph-name="quotedblbase" unicode="&#x201e;" horiz-adv-x="981" 
d="M228 151h178l-198 -416h-116zM625 151h178l-198 -416h-116z" />
    <glyph glyph-name="dagger" unicode="&#x2020;" horiz-adv-x="983" 
d="M881 1226v-156h-306v-672h-165v672h-308v156h308v310h165v-310h306z" />
    <glyph glyph-name="daggerdbl" unicode="&#x2021;" horiz-adv-x="1037" 
d="M881 1100h-306v-267h306v-155h-306v-280h-165v280h-308v155h308v267h-308v155h308v281h165v-281h306v-155z" />
    <glyph glyph-name="bullet" unicode="&#x2022;" horiz-adv-x="762" 
d="M286 550q-59 32 -91 90.5t-32 135.5q0 74 32 131.5t91 89t136 31.5q74 0 131.5 -31.5t90 -89t32.5 -131.5q0 -77 -32.5 -135.5t-90 -90.5t-131.5 -32q-77 0 -136 32z" />
    <glyph glyph-name="ellipsis" unicode="&#x2026;" horiz-adv-x="1366" 
d="M202.5 14.5q-34.5 34.5 -34.5 91.5q0 55 34.5 89t91.5 34q55 0 89.5 -34t34.5 -89q0 -57 -34.5 -91.5t-89.5 -34.5q-57 0 -91.5 34.5zM593.5 14.5q-34.5 34.5 -34.5 91.5q0 55 34.5 89t91.5 34q55 0 89.5 -34t34.5 -89q0 -57 -34.5 -91.5t-89.5 -34.5q-57 0 -91.5 34.5z
M984.5 14.5q-34.5 34.5 -34.5 91.5q0 55 34.5 89t91.5 34q55 0 89.5 -34t34.5 -89q0 -57 -34.5 -91.5t-89.5 -34.5q-57 0 -91.5 34.5z" />
    <glyph glyph-name="perthousand" unicode="&#x2030;" horiz-adv-x="2253" 
d="M205.5 913q-66.5 39 -105.5 105.5t-39 146.5q0 78 39 144.5t105.5 105.5t146.5 39t146.5 -39t105.5 -105.5t39 -144.5q0 -80 -39 -146.5t-105.5 -105.5t-146.5 -39t-146.5 39zM1217 1434h192l-1140 -1434h-192zM435 1021.5q38 22.5 60 60.5t22 83q0 44 -22.5 81.5t-60 60
t-82.5 22.5t-82.5 -22.5t-60 -60t-22.5 -81.5q0 -45 22 -83t60 -60.5t83 -22.5t83 22.5zM994.5 24q-66.5 39 -105.5 105.5t-39 146.5q0 78 39 144.5t105.5 105.5t146.5 39t146.5 -39t105.5 -105.5t39 -144.5q0 -80 -39 -146.5t-105.5 -105.5t-146.5 -39t-146.5 39z
M1761.5 24q-66.5 39 -105.5 105.5t-39 146.5q0 78 39 144.5t105.5 105.5t146.5 39t146.5 -39t105.5 -105.5t39 -144.5q0 -80 -39 -146.5t-105.5 -105.5t-146.5 -39t-146.5 39zM1224 132.5q38 22.5 60 60.5t22 83q0 44 -22.5 81.5t-60 60t-82.5 22.5t-82.5 -22.5t-60 -60
t-22.5 -81.5q0 -45 22 -83t60 -60.5t83 -22.5t83 22.5zM1991 132.5q38 22.5 60 60.5t22 83q0 44 -22.5 81.5t-60 60t-82.5 22.5t-82.5 -22.5t-60 -60t-22.5 -81.5q0 -45 22 -83t60 -60.5t83 -22.5t83 22.5z" />
    <glyph glyph-name="guilsinglleft" unicode="&#x2039;" horiz-adv-x="846" 
d="M102 522l428 512h191l-425 -512l425 -512h-191z" />
    <glyph glyph-name="guilsinglright" unicode="&#x203a;" horiz-adv-x="846" 
d="M316 10h-191l425 512l-425 512h191l428 -512z" />
    <glyph glyph-name="fraction" unicode="&#x2044;" horiz-adv-x="78" 
d="M571 1434h134l-1197 -1434h-135z" />
    <glyph glyph-name="uni2070" unicode="&#x2070;" horiz-adv-x="704" 
d="M205.5 913q-66.5 39 -105.5 105.5t-39 146.5q0 78 39 144.5t105.5 105.5t146.5 39t146.5 -39t105.5 -105.5t39 -144.5q0 -80 -39 -146.5t-105.5 -105.5t-146.5 -39t-146.5 39zM454.5 988q46.5 27 73.5 74t27 103q0 55 -27 101t-73.5 73t-102.5 27t-102.5 -27t-73.5 -73
t-27 -101q0 -56 27 -103t73.5 -74t102.5 -27t102.5 27z" />
    <glyph glyph-name="uni2074" unicode="&#x2074;" horiz-adv-x="704" 
d="M624 1092l-14 -80h-102v-118h-88v118h-352v45l323 377h117v-342h116zM180 1092h240v277h-3z" />
    <glyph glyph-name="uni2075" unicode="&#x2075;" horiz-adv-x="704" 
d="M530.5 1200.5q56.5 -46.5 56.5 -125.5q0 -57 -29.5 -103t-85.5 -72t-133 -26q-140 0 -247 91l40 73q93 -77 208 -77q77 0 117.5 33.5t40.5 84.5q0 49 -38.5 78t-114.5 29q-97 0 -187 -46l-7 8l15 286h373l-12 -81h-278l-7 -132q59 26 128 26q104 0 160.5 -46.5z" />
    <glyph glyph-name="uni2076" unicode="&#x2076;" horiz-adv-x="704" 
d="M541 1208.5q56 -46.5 56 -127.5q0 -58 -29.5 -105t-84.5 -74.5t-127 -27.5q-81 0 -139 35t-87.5 94t-29.5 130q0 90 45.5 163t130.5 115.5t199 42.5l13 -89q-133 0 -206 -44t-90 -123q98 57 201 57q92 0 148 -46.5zM471 996q38 35 38 90q0 52 -36.5 79t-101.5 27
q-50 0 -97 -14.5t-87 -37.5q2 -80 47.5 -129.5t131.5 -49.5q67 0 105 35z" />
    <glyph glyph-name="uni2077" unicode="&#x2077;" horiz-adv-x="704" 
d="M356 1110.5q49 111.5 117 242.5h-274l-19 -102h-83l32 183h473v-5l-41 -82q-68 -137 -115 -245t-76 -208h-93q30 105 79 216.5z" />
    <glyph glyph-name="uni2078" unicode="&#x2078;" horiz-adv-x="704" 
d="M558.5 1132q29.5 -36 29.5 -89q0 -83 -64.5 -126t-171.5 -43t-171.5 43t-64.5 126q0 53 29.5 89t83.5 54q-39 19 -60.5 51t-21.5 73q0 69 56.5 106.5t148.5 37.5t148.5 -37.5t56.5 -106.5q0 -41 -21.5 -73t-60.5 -51q54 -18 83.5 -54zM257.5 1346q-36.5 -20 -36.5 -57
q0 -38 36 -59.5t95 -21.5q58 0 94.5 21.5t36.5 59.5q0 37 -37 57t-94 20q-58 0 -94.5 -20zM463.5 982.5q40.5 25.5 40.5 72.5q0 45 -40.5 70.5t-111.5 25.5q-70 0 -111 -25.5t-41 -70.5q0 -47 40.5 -72.5t111.5 -25.5t111.5 25.5z" />
    <glyph glyph-name="uni2079" unicode="&#x2079;" horiz-adv-x="701" 
d="M473 1419q58 -35 87.5 -94t29.5 -130q0 -90 -45.5 -163t-130.5 -115.5t-199 -42.5l-13 89q133 0 206 44t90 123q-98 -57 -201 -57q-92 0 -148 46.5t-56 127.5q0 58 29.5 105t84.5 74.5t127 27.5q81 0 139 -35zM217.5 1163q36.5 -27 101.5 -27q50 0 97 14.5t87 37.5
q-2 80 -47.5 129.5t-131.5 49.5q-67 0 -105 -35t-38 -90q0 -52 36.5 -79z" />
    <glyph glyph-name="uni2080" unicode="&#x2080;" horiz-adv-x="704" 
d="M205.5 19q-66.5 39 -105.5 105.5t-39 146.5q0 78 39 144.5t105.5 105.5t146.5 39t146.5 -39t105.5 -105.5t39 -144.5q0 -80 -39 -146.5t-105.5 -105.5t-146.5 -39t-146.5 39zM454.5 94q46.5 27 73.5 74t27 103q0 55 -27 101t-73.5 73t-102.5 27t-102.5 -27t-73.5 -73
t-27 -101q0 -56 27 -103t73.5 -74t102.5 -27t102.5 27z" />
    <glyph glyph-name="uni2081" unicode="&#x2081;" horiz-adv-x="704" 
d="M399 80h185l-13 -80h-451l13 80h180v379h-193l13 81h266v-460z" />
    <glyph glyph-name="uni2082" unicode="&#x2082;" horiz-adv-x="704" 
d="M157 149.5q29 41.5 69.5 65.5t106.5 51q47 19 75 34t46.5 36.5t18.5 51.5q0 40 -31 62t-92 22q-106 0 -196 -65l-38 73q109 80 243 80q97 0 151.5 -42.5t54.5 -122.5q0 -58 -28 -95.5t-67 -58.5t-103 -46q-47 -18 -75.5 -32t-47.5 -34t-21 -49h348l-14 -80h-429v44
q0 64 29 105.5z" />
    <glyph glyph-name="uni2083" unicode="&#x2083;" horiz-adv-x="704" 
d="M537 299.5q48 -44.5 48 -119.5q0 -62 -31 -107t-86 -69t-125 -24q-82 0 -142.5 24t-110.5 65l42 72q91 -74 204 -74q76 0 115.5 32t39.5 87q0 52 -40 80t-122 28h-64v14l125 151h-257l11 81h403v-8l-153 -181q95 -7 143 -51.5z" />
    <glyph glyph-name="uni2084" unicode="&#x2084;" horiz-adv-x="704" 
d="M624 198l-14 -80h-102v-118h-88v118h-352v45l323 377h117v-342h116zM180 198h240v277h-3z" />
    <glyph glyph-name="uni2085" unicode="&#x2085;" horiz-adv-x="704" 
d="M530.5 306.5q56.5 -46.5 56.5 -125.5q0 -57 -29.5 -103t-85.5 -72t-133 -26q-140 0 -247 91l40 73q93 -77 208 -77q77 0 117.5 33.5t40.5 84.5q0 49 -38.5 78t-114.5 29q-97 0 -187 -46l-7 8l15 286h373l-12 -81h-278l-7 -132q59 26 128 26q104 0 160.5 -46.5z" />
    <glyph glyph-name="uni2086" unicode="&#x2086;" horiz-adv-x="704" 
d="M541 314.5q56 -46.5 56 -127.5q0 -58 -29.5 -105t-84.5 -74.5t-127 -27.5q-81 0 -139 35t-87.5 94t-29.5 130q0 90 45.5 163t130.5 115.5t199 42.5l13 -89q-133 0 -206 -44t-90 -123q98 57 201 57q92 0 148 -46.5zM471 102q38 35 38 90q0 52 -36.5 79t-101.5 27
q-50 0 -97 -14.5t-87 -37.5q2 -80 47.5 -129.5t131.5 -49.5q67 0 105 35z" />
    <glyph glyph-name="uni2087" unicode="&#x2087;" horiz-adv-x="704" 
d="M356 216.5q49 111.5 117 242.5h-274l-19 -102h-83l32 183h473v-5l-41 -82q-68 -137 -115 -245t-76 -208h-93q30 105 79 216.5z" />
    <glyph glyph-name="uni2088" unicode="&#x2088;" horiz-adv-x="704" 
d="M558.5 233q29.5 -36 29.5 -89q0 -83 -64.5 -126t-171.5 -43t-171.5 43t-64.5 126q0 53 29.5 89t83.5 54q-39 19 -60.5 51t-21.5 73q0 69 56.5 106.5t148.5 37.5t148.5 -37.5t56.5 -106.5q0 -41 -21.5 -73t-60.5 -51q54 -18 83.5 -54zM257.5 447q-36.5 -20 -36.5 -57
q0 -38 36 -59.5t95 -21.5q58 0 94.5 21.5t36.5 59.5q0 37 -37 57t-94 20q-58 0 -94.5 -20zM463.5 83.5q40.5 25.5 40.5 72.5q0 45 -40.5 70.5t-111.5 25.5q-70 0 -111 -25.5t-41 -70.5q0 -47 40.5 -72.5t111.5 -25.5t111.5 25.5z" />
    <glyph glyph-name="uni2089" unicode="&#x2089;" horiz-adv-x="701" 
d="M473 525q58 -35 87.5 -94t29.5 -130q0 -90 -45.5 -163t-130.5 -115.5t-199 -42.5l-13 89q133 0 206 44t90 123q-98 -57 -201 -57q-92 0 -148 46.5t-56 127.5q0 58 29.5 105t84.5 74.5t127 27.5q81 0 139 -35zM217.5 269q36.5 -27 101.5 -27q50 0 97 14.5t87 37.5
q-2 80 -47.5 129.5t-131.5 49.5q-67 0 -105 -35t-38 -90q0 -52 36.5 -79z" />
    <glyph glyph-name="Euro" unicode="&#x20ac;" 
d="M798 1245.5q-113 -46.5 -191.5 -132.5t-114.5 -203h764v-107h-787q-5 -45 -5 -84t5 -86h787v-107h-763q36 -116 115.5 -202.5t193 -133t249.5 -46.5q182 0 334 81v-181q-158 -64 -344 -64q-188 0 -342 67.5t-257 191t-142 287.5h-220v107h202q-4 37 -4 86q0 48 4 84h-202
v107h220q40 166 146 289.5t260 190.5t335 67q179 0 344 -66v-185q-152 86 -339 86q-135 0 -248 -46.5z" />
    <glyph glyph-name="uni2116" unicode="&#x2116;" horiz-adv-x="3049" 
d="M205 1434h424l622 -538h7v538h175v-1434h-175v652l-692 607h-187v-1259h-174v1434zM2049 439q-133 70 -210.5 194.5t-77.5 282.5q0 156 77.5 278.5t210.5 190.5t294 68t294 -68t210.5 -190.5t77.5 -278.5q0 -158 -77.5 -282.5t-210.5 -194.5t-294 -70t-294 70zM2553 574
q94 50 148.5 139.5t54.5 202.5q0 112 -54 199t-148.5 134.5t-210.5 47.5t-210 -47.5t-148 -134.5t-54 -199q0 -113 54 -202.5t148 -139.5t210 -50t210 50zM1836 140h1014v-140h-1014v140z" />
    <glyph glyph-name="trademark" unicode="&#x2122;" horiz-adv-x="1266" 
d="M102 1464v72h475v-72h-196v-421h-82v421h-197zM1075 1536h106v-493h-83v377l-152 -222h-56l-156 222v-377h-82v493h109l157 -225z" />
    <glyph glyph-name="oneeighth" unicode="&#x215b;" 
d="M1275 1434h134l-1197 -1434h-135zM133 974h180v379h-193l13 81h266v-460h185l-13 -80h-451zM1347.5 243q29.5 -36 29.5 -89q0 -83 -64.5 -126t-171.5 -43t-171.5 43t-64.5 126q0 53 29.5 89t83.5 54q-39 19 -60.5 51t-21.5 73q0 69 56.5 106.5t148.5 37.5t148.5 -37.5
t56.5 -106.5q0 -41 -21.5 -73t-60.5 -51q54 -18 83.5 -54zM1046.5 457q-36.5 -20 -36.5 -57q0 -38 36 -59.5t95 -21.5q58 0 94.5 21.5t36.5 59.5q0 37 -37 57t-94 20q-58 0 -94.5 -20zM1252.5 93.5q40.5 25.5 40.5 72.5q0 45 -40.5 70.5t-111.5 25.5q-70 0 -111 -25.5
t-41 -70.5q0 -47 40.5 -72.5t111.5 -25.5t111.5 25.5z" />
    <glyph glyph-name="threeeighths" unicode="&#x215c;" 
d="M1275 1434h134l-1197 -1434h-135zM554 967q-31 -45 -86 -69t-125 -24q-82 0 -142.5 24t-110.5 65l42 72q91 -74 204 -74q76 0 115.5 32t39.5 87q0 52 -40 80t-122 28h-64v14l125 151h-257l11 81h403v-8l-153 -181q95 -7 143 -51.5t48 -119.5q0 -62 -31 -107zM1347.5 243
q29.5 -36 29.5 -89q0 -83 -64.5 -126t-171.5 -43t-171.5 43t-64.5 126q0 53 29.5 89t83.5 54q-39 19 -60.5 51t-21.5 73q0 69 56.5 106.5t148.5 37.5t148.5 -37.5t56.5 -106.5q0 -41 -21.5 -73t-60.5 -51q54 -18 83.5 -54zM1046.5 457q-36.5 -20 -36.5 -57q0 -38 36 -59.5
t95 -21.5q58 0 94.5 21.5t36.5 59.5q0 37 -37 57t-94 20q-58 0 -94.5 -20zM1252.5 93.5q40.5 25.5 40.5 72.5q0 45 -40.5 70.5t-111.5 25.5q-70 0 -111 -25.5t-41 -70.5q0 -47 40.5 -72.5t111.5 -25.5t111.5 25.5z" />
    <glyph glyph-name="fiveeighths" unicode="&#x215d;" 
d="M1275 1434h134l-1197 -1434h-135zM557.5 972q-29.5 -46 -85.5 -72t-133 -26q-140 0 -247 91l40 73q93 -77 208 -77q77 0 117.5 33.5t40.5 84.5q0 49 -38.5 78t-114.5 29q-97 0 -187 -46l-7 8l15 286h373l-12 -81h-278l-7 -132q59 26 128 26q104 0 160.5 -46.5
t56.5 -125.5q0 -57 -29.5 -103zM1347.5 243q29.5 -36 29.5 -89q0 -83 -64.5 -126t-171.5 -43t-171.5 43t-64.5 126q0 53 29.5 89t83.5 54q-39 19 -60.5 51t-21.5 73q0 69 56.5 106.5t148.5 37.5t148.5 -37.5t56.5 -106.5q0 -41 -21.5 -73t-60.5 -51q54 -18 83.5 -54z
M1046.5 457q-36.5 -20 -36.5 -57q0 -38 36 -59.5t95 -21.5q58 0 94.5 21.5t36.5 59.5q0 37 -37 57t-94 20q-58 0 -94.5 -20zM1252.5 93.5q40.5 25.5 40.5 72.5q0 45 -40.5 70.5t-111.5 25.5q-70 0 -111 -25.5t-41 -70.5q0 -47 40.5 -72.5t111.5 -25.5t111.5 25.5z" />
    <glyph glyph-name="seveneighths" unicode="&#x215e;" 
d="M1275 1434h134l-1197 -1434h-135zM180 1251h-83l32 183h473v-5l-41 -82q-68 -137 -115 -245t-76 -208h-93q30 105 79 216.5t117 242.5h-274zM1347.5 243q29.5 -36 29.5 -89q0 -83 -64.5 -126t-171.5 -43t-171.5 43t-64.5 126q0 53 29.5 89t83.5 54q-39 19 -60.5 51
t-21.5 73q0 69 56.5 106.5t148.5 37.5t148.5 -37.5t56.5 -106.5q0 -41 -21.5 -73t-60.5 -51q54 -18 83.5 -54zM1046.5 457q-36.5 -20 -36.5 -57q0 -38 36 -59.5t95 -21.5q58 0 94.5 21.5t36.5 59.5q0 37 -37 57t-94 20q-58 0 -94.5 -20zM1252.5 93.5q40.5 25.5 40.5 72.5
q0 45 -40.5 70.5t-111.5 25.5q-70 0 -111 -25.5t-41 -70.5q0 -47 40.5 -72.5t111.5 -25.5t111.5 25.5z" />
    <glyph glyph-name="partialdiff" unicode="&#x2202;" 
d="M1209.5 1097.5q118.5 -238.5 118.5 -466.5q0 -198 -78 -346t-211.5 -226.5t-296.5 -78.5q-164 0 -297 68t-210 192.5t-77 284.5q0 162 69.5 284t195.5 188.5t291 66.5q190 0 372 -102q-62 150 -167.5 296.5t-243.5 277.5h214q202 -200 320.5 -438.5zM961 189.5
q95 54.5 148 162t53 260.5q0 82 -21 179q-102 57 -201 87t-207 30q-129 0 -221.5 -46.5t-141 -133t-48.5 -203.5q0 -115 53.5 -204t148.5 -137.5t218 -48.5q124 0 219 54.5z" />
    <glyph glyph-name="product" unicode="&#x220f;" 
d="M1425 1536v-155h-355v-1512h-155v1512h-344v-1512h-155v1512h-355v155h1364z" />
    <glyph glyph-name="summation" unicode="&#x2211;" 
d="M145 173l590 513v62l-590 513v275h1197v-155h-1004v-56l586 -510v-196l-586 -510v-56h1004v-155h-1197v275z" />
    <glyph glyph-name="minus" unicode="&#x2212;" 
d="M234 794h1019v-155h-1019v155z" />
    <glyph glyph-name="radical" unicode="&#x221a;" 
d="M1026 1535h443v-155h-320l-406 -1470h-304l-326 1133h162l281 -978h68z" />
    <glyph glyph-name="infinity" unicode="&#x221e;" 
d="M1205 941q62 -34 97.5 -93t35.5 -131t-35.5 -131.5t-97.5 -93.5t-138 -34q-82 0 -142.5 22.5t-101.5 59t-80 88.5q-39 -52 -80 -88.5t-101 -59t-143 -22.5q-76 0 -138 34t-97.5 93.5t-35.5 131.5t35.5 131t97.5 93t138 34q119 0 192 -44.5t132 -125.5q39 52 80 88.5
t101 59t143 22.5q76 0 138 -34zM569 605q58 39 111 112q-53 73 -111 112t-150 39q-48 0 -85.5 -20t-58 -54.5t-20.5 -76.5q0 -43 20.5 -77.5t58 -54t85.5 -19.5q92 0 150 39zM1185.5 609q45.5 43 45.5 108q0 42 -20.5 76.5t-58 54.5t-85.5 20q-92 0 -150 -39t-111 -112
q53 -73 111 -112t150 -39q73 0 118.5 43z" />
    <glyph glyph-name="integral" unicode="&#x222b;" 
d="M80 -105v160q81 -30 154 -30q65 0 110 22t79.5 71.5t67.5 137.5l365 977q62 162 151.5 242.5t223.5 80.5q89 0 176 -26v-160q-83 30 -154 30q-65 0 -110 -22t-79.5 -71.5t-67.5 -137.5l-366 -977q-62 -162 -151.5 -242.5t-223.5 -80.5q-90 0 -175 26z" />
    <glyph glyph-name="approxequal" unicode="&#x2248;" 
d="M494 621q64 0 122.5 -14.5t142.5 -42.5q77 -27 128.5 -40t105.5 -13q75 0 138.5 28t121.5 82v-176q-113 -89 -260 -89q-64 0 -122.5 14.5t-142.5 42.5q-80 27 -130.5 39.5t-103.5 12.5q-75 0 -139 -27.5t-121 -81.5v176q113 89 260 89zM494 1078q64 0 122.5 -14.5
t142.5 -42.5q77 -27 128.5 -40t105.5 -13q75 0 138.5 28t121.5 82v-176q-113 -89 -260 -89q-64 0 -122.5 14.5t-142.5 42.5q-80 27 -130.5 39.5t-103.5 12.5q-75 0 -139 -27.5t-121 -81.5v176q113 89 260 89z" />
    <glyph glyph-name="notequal" unicode="&#x2260;" 
d="M1252 1434l-272 -435h272v-155h-369l-159 -254h528v-156h-626l-271 -434h-119l271 434h-271v156h369l159 254h-528v155h625l272 435h119z" />
    <glyph glyph-name="lessequal" unicode="&#x2264;" 
d="M1252 1481v-166l-796 -385l796 -384v-166l-1019 495v111zM233 0v155h1019v-155h-1019z" />
    <glyph glyph-name="greaterequal" unicode="&#x2265;" 
d="M234 155h1019v-155h-1019v155zM234 1481l1019 -495v-111l-1019 -495v166l796 384l-796 385v166z" />
    <glyph glyph-name="lozenge" unicode="&#x25ca;" horiz-adv-x="1326" 
d="M82 768l581 788l581 -788l-581 -788zM1109 768l-446 613l-446 -613l446 -613z" />
    <glyph glyph-name="i.loclTRK" horiz-adv-x="514" 
d="M175 1043h165v-1043h-165v1043zM172 1272.5q-35 34.5 -35 85.5q0 50 35 84.5t85 34.5t85 -34.5t35 -84.5q0 -51 -35 -85.5t-85 -34.5t-85 34.5z" />
    <glyph glyph-name="zero.lf" 
d="M406.5 73q-142.5 93 -218 260t-76.5 386q0 218 75.5 384.5t218.5 258.5t338 92q196 0 338 -92t217 -258.5t75 -384.5q0 -219 -75 -386t-217.5 -260t-337.5 -93t-337.5 93zM988 207q100 72 150.5 203t50.5 309q0 176 -50.5 306.5t-150.5 202t-245 71.5q-144 0 -244 -72
t-151 -202.5t-51 -305.5q0 -177 51 -308.5t151 -203.5t244 -72q145 0 245 72z" />
    <glyph glyph-name="one.lf" horiz-adv-x="802" 
d="M361 1278h-294l23 156h446v-1434h-175v1278z" />
    <glyph glyph-name="two.lf" 
d="M242.5 411.5q81.5 119.5 195.5 178t295 117.5q133 44 208.5 78t125.5 92.5t50 149.5q0 80 -40 142t-121.5 97t-202.5 35q-147 0 -278 -51t-232 -140l-76 139q111 95 262.5 150t327.5 55q174 0 294 -54t180.5 -150t60.5 -222q0 -134 -64.5 -218t-158.5 -129t-252 -97
q-156 -51 -249.5 -95.5t-162.5 -125t-80 -208.5h985l-23 -155h-1126v93q0 199 81.5 318.5z" />
    <glyph glyph-name="three.lf" 
d="M1110.5 893.5q119.5 -56.5 182 -158.5t62.5 -238q0 -149 -76 -266t-224.5 -184t-357.5 -67q-204 0 -358 63t-278 169l90 132q231 -209 552 -209q155 0 262 46.5t160.5 128t53.5 187.5q0 148 -103.5 232.5t-313.5 84.5q-83 0 -159 -13t-156 -34l-18 21l473 490h-702
l22 156h987v-21l-445 -465q38 2 60 2q167 0 286.5 -56.5z" />
    <glyph glyph-name="four.lf" 
d="M1409 526l-23 -156h-245v-370h-175v370h-867l-10 71l570 993h482v-908h268zM323 526h643v752h-210l-433 -749v-3z" />
    <glyph glyph-name="five.lf" 
d="M1094.5 897.5q121.5 -56.5 185.5 -159.5t64 -240q0 -151 -77.5 -268.5t-224 -183.5t-346.5 -66q-361 0 -624 223l90 130q118 -94 246 -146t290 -52q149 0 252.5 45t156 124.5t52.5 183.5q0 99 -47.5 172.5t-137.5 113.5t-213 40q-148 0 -287 -47t-247 -105l-8 7l42 765
h951l-22 -156h-769l-23 -420q96 43 196 69.5t211 26.5q168 0 289.5 -56.5z" />
    <glyph glyph-name="six.lf" 
d="M1118 892q124 -62 189 -168.5t65 -235.5q0 -139 -72.5 -255t-209 -184.5t-319.5 -68.5q-204 0 -350 83.5t-222 233t-76 344.5q0 235 117 420t331 289t496 104l35 -155q-221 0 -386.5 -61t-267 -175t-133.5 -272q100 69 229 116t281 47q169 0 293 -62zM999.5 181.5
q94.5 46.5 145.5 127.5t51 180q0 96 -51 169.5t-146.5 114.5t-225.5 41q-134 0 -255 -37t-216 -94q-1 -13 -1 -39q0 -155 55.5 -269.5t163 -177t260.5 -62.5q125 0 219.5 46.5z" />
    <glyph glyph-name="seven.lf" horiz-adv-x="1400" 
d="M749.5 596q137.5 313 332.5 682h-792l-43 -249h-174l63 405h1212v-12l-98 -195q-369 -696 -520 -1227h-198q80 283 217.5 596z" />
    <glyph glyph-name="eight.lf" 
d="M1278 636.5q79 -94.5 79 -225.5q0 -135 -77 -232t-215.5 -148t-321.5 -51t-321.5 51t-215.5 148t-77 232q0 131 79.5 226t220.5 143q-104 49 -162 130t-58 187q0 113 65 193.5t185.5 122t283.5 41.5t283.5 -41.5t186 -122t65.5 -193.5q0 -106 -58 -187.5t-162 -129.5
q141 -49 220 -143.5zM473.5 1240q-96.5 -59 -96.5 -174q0 -112 97.5 -174t268.5 -62t269 62t98 174q0 115 -97 174t-270 59t-269.5 -59zM971.5 170.5q96.5 35.5 148.5 102t52 155.5q0 85 -52 147t-148.5 95.5t-228.5 33.5t-228.5 -33.5t-148.5 -95.5t-52 -147
q0 -89 52 -155.5t148.5 -102t228.5 -35.5t228.5 35.5z" />
    <glyph glyph-name="nine.lf" 
d="M1065 1369.5q146 -83.5 222 -233t76 -344.5q0 -235 -117 -420t-331 -289t-496 -104l-35 155q221 0 386.5 61t267 175t133.5 272q-100 -69 -229 -116t-281 -47q-169 0 -293 62t-189 168.5t-65 235.5q0 139 72.5 255t209 184.5t319.5 68.5q204 0 350 -83.5zM968 656
q121 37 216 94q1 13 1 39q0 155 -55.5 269.5t-163 177t-260.5 62.5q-125 0 -219.5 -46.5t-145.5 -127.5t-51 -180q0 -96 51 -169.5t146.5 -114.5t225.5 -41q134 0 255 37z" />
    <glyph glyph-name="zero.osf" horiz-adv-x="1412" 
d="M412 50q-133 70 -210.5 194.5t-77.5 282.5q0 156 77.5 278.5t210.5 190.5t294 68t294 -68t210.5 -190.5t77.5 -278.5q0 -158 -77.5 -282.5t-210.5 -194.5t-294 -70t-294 70zM916 185q94 50 148 139.5t54 202.5q0 112 -54 199t-148 134.5t-210 47.5t-209.5 -47.5
t-147.5 -134.5t-54 -199q0 -113 54 -202.5t148 -139.5t209 -50q116 0 210 50z" />
    <glyph glyph-name="one.osf" horiz-adv-x="1429" 
d="M837 155h461l-21 -155h-1125l21 155h490v733h-504l22 155h656v-888z" />
    <glyph glyph-name="two.osf" horiz-adv-x="1346" 
d="M159 163q311 114 475.5 185t268.5 158t104 195q0 106 -84.5 164t-243.5 58q-142 0 -276 -38.5t-237 -99.5l-21 142q106 61 244 99t294 38q152 0 260.5 -40t166 -117.5t57.5 -187.5q0 -123 -82 -220.5t-243.5 -177t-413.5 -155.5v-11h782l-21 -155h-1053v155q18 7 23 8z
" />
    <glyph glyph-name="three.osf" 
d="M1110.5 503.5q119.5 -56.5 182 -158.5t62.5 -238q0 -149 -76 -266t-224.5 -184t-357.5 -67q-204 0 -358 63t-278 169l90 132q231 -209 552 -209q155 0 262 46.5t160.5 128t53.5 187.5q0 148 -103.5 232.5t-313.5 84.5q-83 0 -159 -13t-156 -34l-18 21l473 490h-702
l22 156h987v-21l-445 -465q38 2 60 2q167 0 286.5 -56.5z" />
    <glyph glyph-name="four.osf" 
d="M1409 136l-23 -156h-245v-370h-175v370h-867l-10 71l570 993h482v-908h268zM323 136h643v752h-210l-433 -749v-3z" />
    <glyph glyph-name="five.osf" 
d="M1094.5 507.5q121.5 -56.5 185.5 -159.5t64 -240q0 -151 -77.5 -268.5t-224 -183.5t-346.5 -66q-361 0 -624 223l90 130q118 -94 246 -146t290 -52q149 0 252.5 45t156 124.5t52.5 183.5q0 99 -47.5 172.5t-137.5 113.5t-213 40q-148 0 -287 -47t-247 -105l-8 7l42 765
h951l-22 -156h-769l-23 -420q96 43 196 69.5t211 26.5q168 0 289.5 -56.5z" />
    <glyph glyph-name="six.osf" 
d="M1118 892q124 -62 189 -168.5t65 -235.5q0 -139 -72.5 -255t-209 -184.5t-319.5 -68.5q-204 0 -350 83.5t-222 233t-76 344.5q0 235 117 420t331 289t496 104l35 -155q-221 0 -386.5 -61t-267 -175t-133.5 -272q100 69 229 116t281 47q169 0 293 -62zM999.5 181.5
q94.5 46.5 145.5 127.5t51 180q0 96 -51 169.5t-146.5 114.5t-225.5 41q-134 0 -255 -37t-216 -94q-1 -13 -1 -39q0 -155 55.5 -269.5t163 -177t260.5 -62.5q125 0 219.5 46.5z" />
    <glyph glyph-name="seven.osf" horiz-adv-x="1400" 
d="M749.5 206q137.5 313 332.5 682h-792l-43 -249h-174l63 405h1212v-12l-98 -195q-369 -696 -520 -1227h-198q80 283 217.5 596z" />
    <glyph glyph-name="eight.osf" 
d="M1278 636.5q79 -94.5 79 -225.5q0 -135 -77 -232t-215.5 -148t-321.5 -51t-321.5 51t-215.5 148t-77 232q0 131 79.5 226t220.5 143q-104 49 -162 130t-58 187q0 113 65 193.5t185.5 122t283.5 41.5t283.5 -41.5t186 -122t65.5 -193.5q0 -106 -58 -187.5t-162 -129.5
q141 -49 220 -143.5zM473.5 1240q-96.5 -59 -96.5 -174q0 -112 97.5 -174t268.5 -62t269 62t98 174q0 115 -97 174t-270 59t-269.5 -59zM971.5 170.5q96.5 35.5 148.5 102t52 155.5q0 85 -52 147t-148.5 95.5t-228.5 33.5t-228.5 -33.5t-148.5 -95.5t-52 -147
q0 -89 52 -155.5t148.5 -102t228.5 -35.5t228.5 35.5z" />
    <glyph glyph-name="nine.osf" 
d="M1065 980.5q146 -83.5 222 -233t76 -344.5q0 -235 -117 -420t-331 -289t-496 -104l-35 155q221 0 386.5 61t267 175t133.5 272q-100 -69 -229 -116t-281 -47q-169 0 -293 62t-189 168.5t-65 235.5q0 139 72.5 255t209 184.5t319.5 68.5q204 0 350 -83.5zM968 267
q121 37 216 94q1 13 1 39q0 155 -55.5 269.5t-163 177t-260.5 62.5q-125 0 -219.5 -46.5t-145.5 -127.5t-51 -180q0 -96 51 -169.5t146.5 -114.5t225.5 -41q134 0 255 37z" />
    <glyph glyph-name="zero.tf" 
d="M406.5 73q-142.5 93 -218 260t-76.5 386q0 218 75.5 384.5t218.5 258.5t338 92q196 0 338 -92t217 -258.5t75 -384.5q0 -219 -75 -386t-217.5 -260t-337.5 -93t-337.5 93zM988 207q100 72 150.5 203t50.5 309q0 176 -50.5 306.5t-150.5 202t-245 71.5q-144 0 -244 -72
t-151 -202.5t-51 -305.5q0 -177 51 -308.5t151 -203.5t244 -72q145 0 245 72z" />
    <glyph glyph-name="one.tf" 
d="M851 155h505l-21 -155h-1183l21 155h503v1123h-517l22 156h670v-1279z" />
    <glyph glyph-name="two.tf" 
d="M242.5 411.5q81.5 119.5 195.5 178t295 117.5q133 44 208.5 78t125.5 92.5t50 149.5q0 80 -40 142t-121.5 97t-202.5 35q-147 0 -278 -51t-232 -140l-76 139q111 95 262.5 150t327.5 55q174 0 294 -54t180.5 -150t60.5 -222q0 -134 -64.5 -218t-158.5 -129t-252 -97
q-156 -51 -249.5 -95.5t-162.5 -125t-80 -208.5h985l-23 -155h-1126v93q0 199 81.5 318.5z" />
    <glyph glyph-name="three.tf" 
d="M1110.5 893.5q119.5 -56.5 182 -158.5t62.5 -238q0 -149 -76 -266t-224.5 -184t-357.5 -67q-204 0 -358 63t-278 169l90 132q231 -209 552 -209q155 0 262 46.5t160.5 128t53.5 187.5q0 148 -103.5 232.5t-313.5 84.5q-83 0 -159 -13t-156 -34l-18 21l473 490h-702
l22 156h987v-21l-445 -465q38 2 60 2q167 0 286.5 -56.5z" />
    <glyph glyph-name="four.tf" 
d="M1409 526l-23 -156h-245v-370h-175v370h-867l-10 71l570 993h482v-908h268zM323 526h643v752h-210l-433 -749v-3z" />
    <glyph glyph-name="five.tf" 
d="M1094.5 897.5q121.5 -56.5 185.5 -159.5t64 -240q0 -151 -77.5 -268.5t-224 -183.5t-346.5 -66q-361 0 -624 223l90 130q118 -94 246 -146t290 -52q149 0 252.5 45t156 124.5t52.5 183.5q0 99 -47.5 172.5t-137.5 113.5t-213 40q-148 0 -287 -47t-247 -105l-8 7l42 765
h951l-22 -156h-769l-23 -420q96 43 196 69.5t211 26.5q168 0 289.5 -56.5z" />
    <glyph glyph-name="six.tf" 
d="M1118 892q124 -62 189 -168.5t65 -235.5q0 -139 -72.5 -255t-209 -184.5t-319.5 -68.5q-204 0 -350 83.5t-222 233t-76 344.5q0 235 117 420t331 289t496 104l35 -155q-221 0 -386.5 -61t-267 -175t-133.5 -272q100 69 229 116t281 47q169 0 293 -62zM999.5 181.5
q94.5 46.5 145.5 127.5t51 180q0 96 -51 169.5t-146.5 114.5t-225.5 41q-134 0 -255 -37t-216 -94q-1 -13 -1 -39q0 -155 55.5 -269.5t163 -177t260.5 -62.5q125 0 219.5 46.5z" />
    <glyph glyph-name="seven.tf" 
d="M803.5 596q137.5 313 332.5 682h-792l-43 -249h-174l63 405h1212v-12l-98 -195q-369 -696 -520 -1227h-198q80 283 217.5 596z" />
    <glyph glyph-name="eight.tf" 
d="M1278 636.5q79 -94.5 79 -225.5q0 -135 -77 -232t-215.5 -148t-321.5 -51t-321.5 51t-215.5 148t-77 232q0 131 79.5 226t220.5 143q-104 49 -162 130t-58 187q0 113 65 193.5t185.5 122t283.5 41.5t283.5 -41.5t186 -122t65.5 -193.5q0 -106 -58 -187.5t-162 -129.5
q141 -49 220 -143.5zM473.5 1240q-96.5 -59 -96.5 -174q0 -112 97.5 -174t268.5 -62t269 62t98 174q0 115 -97 174t-270 59t-269.5 -59zM971.5 170.5q96.5 35.5 148.5 102t52 155.5q0 85 -52 147t-148.5 95.5t-228.5 33.5t-228.5 -33.5t-148.5 -95.5t-52 -147
q0 -89 52 -155.5t148.5 -102t228.5 -35.5t228.5 35.5z" />
    <glyph glyph-name="nine.tf" 
d="M1065 1370.5q146 -83.5 222 -233t76 -344.5q0 -235 -117 -420t-331 -289t-496 -104l-35 155q221 0 386.5 61t267 175t133.5 272q-100 -69 -229 -116t-281 -47q-169 0 -293 62t-189 168.5t-65 235.5q0 139 72.5 255t209 184.5t319.5 68.5q204 0 350 -83.5zM968 657
q121 37 216 94q1 13 1 39q0 155 -55.5 269.5t-163 177t-260.5 62.5q-125 0 -219.5 -46.5t-145.5 -127.5t-51 -180q0 -96 51 -169.5t146.5 -114.5t225.5 -41q134 0 255 37z" />
    <glyph glyph-name="zero.dnom" horiz-adv-x="704" 
d="M205.5 19q-66.5 39 -105.5 105.5t-39 146.5q0 78 39 144.5t105.5 105.5t146.5 39t146.5 -39t105.5 -105.5t39 -144.5q0 -80 -39 -146.5t-105.5 -105.5t-146.5 -39t-146.5 39zM454.5 94q46.5 27 73.5 74t27 103q0 55 -27 101t-73.5 73t-102.5 27t-102.5 -27t-73.5 -73
t-27 -101q0 -56 27 -103t73.5 -74t102.5 -27t102.5 27z" />
    <glyph glyph-name="one.dnom" horiz-adv-x="704" 
d="M399 80h185l-13 -80h-451l13 80h180v379h-193l13 81h266v-460z" />
    <glyph glyph-name="two.dnom" horiz-adv-x="704" 
d="M157 149.5q29 41.5 69.5 65.5t106.5 51q47 19 75 34t46.5 36.5t18.5 51.5q0 40 -31 62t-92 22q-106 0 -196 -65l-38 73q109 80 243 80q97 0 151.5 -42.5t54.5 -122.5q0 -58 -28 -95.5t-67 -58.5t-103 -46q-47 -18 -75.5 -32t-47.5 -34t-21 -49h348l-14 -80h-429v44
q0 64 29 105.5z" />
    <glyph glyph-name="three.dnom" horiz-adv-x="704" 
d="M537 299.5q48 -44.5 48 -119.5q0 -62 -31 -107t-86 -69t-125 -24q-82 0 -142.5 24t-110.5 65l42 72q91 -74 204 -74q76 0 115.5 32t39.5 87q0 52 -40 80t-122 28h-64v14l125 151h-257l11 81h403v-8l-153 -181q95 -7 143 -51.5z" />
    <glyph glyph-name="four.dnom" horiz-adv-x="704" 
d="M624 198l-14 -80h-102v-118h-88v118h-352v45l323 377h117v-342h116zM180 198h240v277h-3z" />
    <glyph glyph-name="five.dnom" horiz-adv-x="704" 
d="M530.5 306.5q56.5 -46.5 56.5 -125.5q0 -57 -29.5 -103t-85.5 -72t-133 -26q-140 0 -247 91l40 73q93 -77 208 -77q77 0 117.5 33.5t40.5 84.5q0 49 -38.5 78t-114.5 29q-97 0 -187 -46l-7 8l15 286h373l-12 -81h-278l-7 -132q59 26 128 26q104 0 160.5 -46.5z" />
    <glyph glyph-name="six.dnom" horiz-adv-x="704" 
d="M541 314.5q56 -46.5 56 -127.5q0 -58 -29.5 -105t-84.5 -74.5t-127 -27.5q-81 0 -139 35t-87.5 94t-29.5 130q0 90 45.5 163t130.5 115.5t199 42.5l13 -89q-133 0 -206 -44t-90 -123q98 57 201 57q92 0 148 -46.5zM471 102q38 35 38 90q0 52 -36.5 79t-101.5 27
q-50 0 -97 -14.5t-87 -37.5q2 -80 47.5 -129.5t131.5 -49.5q67 0 105 35z" />
    <glyph glyph-name="seven.dnom" horiz-adv-x="704" 
d="M356 216.5q49 111.5 117 242.5h-274l-19 -102h-83l32 183h473v-5l-41 -82q-68 -137 -115 -245t-76 -208h-93q30 105 79 216.5z" />
    <glyph glyph-name="eight.dnom" horiz-adv-x="704" 
d="M558.5 233q29.5 -36 29.5 -89q0 -83 -64.5 -126t-171.5 -43t-171.5 43t-64.5 126q0 53 29.5 89t83.5 54q-39 19 -60.5 51t-21.5 73q0 69 56.5 106.5t148.5 37.5t148.5 -37.5t56.5 -106.5q0 -41 -21.5 -73t-60.5 -51q54 -18 83.5 -54zM257.5 447q-36.5 -20 -36.5 -57
q0 -38 36 -59.5t95 -21.5q58 0 94.5 21.5t36.5 59.5q0 37 -37 57t-94 20q-58 0 -94.5 -20zM463.5 83.5q40.5 25.5 40.5 72.5q0 45 -40.5 70.5t-111.5 25.5q-70 0 -111 -25.5t-41 -70.5q0 -47 40.5 -72.5t111.5 -25.5t111.5 25.5z" />
    <glyph glyph-name="nine.dnom" horiz-adv-x="701" 
d="M473 525q58 -35 87.5 -94t29.5 -130q0 -90 -45.5 -163t-130.5 -115.5t-199 -42.5l-13 89q133 0 206 44t90 123q-98 -57 -201 -57q-92 0 -148 46.5t-56 127.5q0 58 29.5 105t84.5 74.5t127 27.5q81 0 139 -35zM217.5 269q36.5 -27 101.5 -27q50 0 97 14.5t87 37.5
q-2 80 -47.5 129.5t-131.5 49.5q-67 0 -105 -35t-38 -90q0 -52 36.5 -79z" />
    <glyph glyph-name="zero.numr" horiz-adv-x="704" 
d="M205.5 913q-66.5 39 -105.5 105.5t-39 146.5q0 78 39 144.5t105.5 105.5t146.5 39t146.5 -39t105.5 -105.5t39 -144.5q0 -80 -39 -146.5t-105.5 -105.5t-146.5 -39t-146.5 39zM454.5 988q46.5 27 73.5 74t27 103q0 55 -27 101t-73.5 73t-102.5 27t-102.5 -27t-73.5 -73
t-27 -101q0 -56 27 -103t73.5 -74t102.5 -27t102.5 27z" />
    <glyph glyph-name="one.numr" horiz-adv-x="704" 
d="M399 974h185l-13 -80h-451l13 80h180v379h-193l13 81h266v-460z" />
    <glyph glyph-name="two.numr" horiz-adv-x="704" 
d="M157 1043.5q29 41.5 69.5 65.5t106.5 51q47 19 75 34t46.5 36.5t18.5 51.5q0 40 -31 62t-92 22q-106 0 -196 -65l-38 73q109 80 243 80q97 0 151.5 -42.5t54.5 -122.5q0 -58 -28 -95.5t-67 -58.5t-103 -46q-47 -18 -75.5 -32t-47.5 -34t-21 -49h348l-14 -80h-429v44
q0 64 29 105.5z" />
    <glyph glyph-name="three.numr" horiz-adv-x="704" 
d="M537 1193.5q48 -44.5 48 -119.5q0 -62 -31 -107t-86 -69t-125 -24q-82 0 -142.5 24t-110.5 65l42 72q91 -74 204 -74q76 0 115.5 32t39.5 87q0 52 -40 80t-122 28h-64v14l125 151h-257l11 81h403v-8l-153 -181q95 -7 143 -51.5z" />
    <glyph glyph-name="four.numr" horiz-adv-x="704" 
d="M624 1092l-14 -80h-102v-118h-88v118h-352v45l323 377h117v-342h116zM180 1092h240v277h-3z" />
    <glyph glyph-name="five.numr" horiz-adv-x="704" 
d="M530.5 1200.5q56.5 -46.5 56.5 -125.5q0 -57 -29.5 -103t-85.5 -72t-133 -26q-140 0 -247 91l40 73q93 -77 208 -77q77 0 117.5 33.5t40.5 84.5q0 49 -38.5 78t-114.5 29q-97 0 -187 -46l-7 8l15 286h373l-12 -81h-278l-7 -132q59 26 128 26q104 0 160.5 -46.5z" />
    <glyph glyph-name="six.numr" horiz-adv-x="704" 
d="M541 1208.5q56 -46.5 56 -127.5q0 -58 -29.5 -105t-84.5 -74.5t-127 -27.5q-81 0 -139 35t-87.5 94t-29.5 130q0 90 45.5 163t130.5 115.5t199 42.5l13 -89q-133 0 -206 -44t-90 -123q98 57 201 57q92 0 148 -46.5zM471 996q38 35 38 90q0 52 -36.5 79t-101.5 27
q-50 0 -97 -14.5t-87 -37.5q2 -80 47.5 -129.5t131.5 -49.5q67 0 105 35z" />
    <glyph glyph-name="seven.numr" horiz-adv-x="704" 
d="M356 1110.5q49 111.5 117 242.5h-274l-19 -102h-83l32 183h473v-5l-41 -82q-68 -137 -115 -245t-76 -208h-93q30 105 79 216.5z" />
    <glyph glyph-name="eight.numr" horiz-adv-x="704" 
d="M558.5 1132q29.5 -36 29.5 -89q0 -83 -64.5 -126t-171.5 -43t-171.5 43t-64.5 126q0 53 29.5 89t83.5 54q-39 19 -60.5 51t-21.5 73q0 69 56.5 106.5t148.5 37.5t148.5 -37.5t56.5 -106.5q0 -41 -21.5 -73t-60.5 -51q54 -18 83.5 -54zM257.5 1346q-36.5 -20 -36.5 -57
q0 -38 36 -59.5t95 -21.5q58 0 94.5 21.5t36.5 59.5q0 37 -37 57t-94 20q-58 0 -94.5 -20zM463.5 982.5q40.5 25.5 40.5 72.5q0 45 -40.5 70.5t-111.5 25.5q-70 0 -111 -25.5t-41 -70.5q0 -47 40.5 -72.5t111.5 -25.5t111.5 25.5z" />
    <glyph glyph-name="nine.numr" horiz-adv-x="701" 
d="M473 1419q58 -35 87.5 -94t29.5 -130q0 -90 -45.5 -163t-130.5 -115.5t-199 -42.5l-13 89q133 0 206 44t90 123q-98 -57 -201 -57q-92 0 -148 46.5t-56 127.5q0 58 29.5 105t84.5 74.5t127 27.5q81 0 139 -35zM217.5 1163q36.5 -27 101.5 -27q50 0 97 14.5t87 37.5
q-2 80 -47.5 129.5t-131.5 49.5q-67 0 -105 -35t-38 -90q0 -52 36.5 -79z" />
    <glyph glyph-name="exclamdown.case" horiz-adv-x="591" 
d="M381.5 1418.5q34.5 -34.5 34.5 -91.5q0 -55 -34.5 -89t-89.5 -34q-57 0 -91.5 34t-34.5 89q0 57 34.5 91.5t91.5 34.5q55 0 89.5 -34.5zM230 1031h122l21 -411v-621h-165v621z" />
    <glyph glyph-name="questiondown.case" horiz-adv-x="1183" 
d="M585.5 1238q-34.5 34 -34.5 89q0 57 34.5 91.5t89.5 34.5q57 0 91.5 -34.5t34.5 -91.5q0 -55 -34.5 -89t-91.5 -34q-55 0 -89.5 34zM1048 67q-81 -37 -193.5 -62.5t-236.5 -25.5q-159 0 -267 46.5t-162 132.5t-54 204q0 119 58.5 214t166 152.5t248.5 67.5l7 235h122
l18 -373q-46 6 -85 6q-111 0 -195 -33t-129.5 -96t-45.5 -150q0 -125 87.5 -192.5t254.5 -67.5q102 0 200 22t176 56z" />
    <glyph glyph-name="parenleft.case" horiz-adv-x="766" 
d="M305.5 129q-119.5 267 -119.5 588t119.5 588t310.5 453l128 -120q-170 -174 -272 -410t-102 -511t102 -511t272 -410l-128 -120q-191 186 -310.5 453z" />
    <glyph glyph-name="parenright.case" horiz-adv-x="766" 
d="M22 -204q170 174 272 410t102 511t-102 511t-272 410l128 120q191 -186 310.5 -453t119.5 -588t-119.5 -588t-310.5 -453z" />
    <glyph glyph-name="braceleft.case" horiz-adv-x="766" 
d="M332.5 -111q-94.5 115 -94.5 250q0 57 16.5 105t39.5 84t59 82q39 51 57.5 84t18.5 69q0 88 -118 88h-175v132h175q118 0 118 88q0 36 -18.5 69t-57.5 84q-36 46 -59 82t-39.5 84t-16.5 105q0 135 94.5 250t283.5 213l128 -120q-165 -83 -243.5 -172.5t-78.5 -199.5
q0 -46 14.5 -86.5t35 -72t54.5 -75.5q44 -57 65.5 -96t21.5 -84q0 -53 -32 -85t-93 -50q61 -18 93 -50t32 -85q0 -46 -21.5 -85t-65.5 -96q-34 -45 -54.5 -76t-35 -71t-14.5 -86q0 -110 78.5 -199.5t243.5 -172.5l-128 -120q-189 98 -283.5 213z" />
    <glyph glyph-name="braceright.case" horiz-adv-x="766" 
d="M22 -204q165 83 243.5 172.5t78.5 199.5q0 46 -14.5 86t-35 71t-54.5 76q-44 57 -65.5 96t-21.5 85q0 53 32 85t93 50q-61 18 -93 50t-32 85q0 45 21.5 84t65.5 96q34 44 54.5 75.5t35 72t14.5 86.5q0 110 -78.5 199.5t-243.5 172.5l128 120q189 -98 283.5 -213
t94.5 -250q0 -57 -16.5 -105t-39.5 -84t-59 -82q-39 -51 -57.5 -84t-18.5 -69q0 -88 118 -88h175v-132h-175q-118 0 -118 -88q0 -36 18.5 -69t57.5 -84q36 -46 59 -82t39.5 -84t16.5 -105q0 -135 -94.5 -250t-283.5 -213z" />
    <glyph glyph-name="bracketleft.case" horiz-adv-x="766" 
d="M745 1586h-374v-1738h374v-155h-549v2048h549v-155z" />
    <glyph glyph-name="bracketright.case" horiz-adv-x="766" 
d="M570 1741v-2048h-549v155h374v1738h-374v155h549z" />
    <glyph glyph-name="quotesinglbase.case" horiz-adv-x="584" 
d="M272 396h178l-198 -416h-116z" />
    <glyph glyph-name="quotedblbase.case" horiz-adv-x="981" 
d="M228 396h178l-198 -416h-116zM625 396h178l-198 -416h-116z" />
    <glyph glyph-name="quotedblleft.case" horiz-adv-x="981" 
d="M313 1018h-178l198 416h116zM710 1018h-178l198 416h116z" />
    <glyph glyph-name="quotedblright.case" horiz-adv-x="995" 
d="M285 1434h178l-198 -416h-116zM682 1434h178l-198 -416h-116z" />
    <glyph glyph-name="quoteleft.case" horiz-adv-x="584" 
d="M312 1018h-178l198 416h116z" />
    <glyph glyph-name="quoteright.case" horiz-adv-x="584" 
d="M272 1434h178l-198 -416h-116z" />
    <glyph glyph-name="guillemotleft.case" horiz-adv-x="1406" 
d="M102 645l428 512h191l-425 -512l425 -512h-191zM662 645l428 512h191l-425 -512l425 -512h-191z" />
    <glyph glyph-name="guillemotright.case" horiz-adv-x="1406" 
d="M316 133h-191l425 512l-425 512h191l428 -512zM876 133h-191l425 512l-425 512h191l428 -512z" />
    <glyph glyph-name="guilsinglleft.case" horiz-adv-x="846" 
d="M102 645l428 512h191l-425 -512l425 -512h-191z" />
    <glyph glyph-name="guilsinglright.case" horiz-adv-x="846" 
d="M316 133h-191l425 512l-425 512h191l428 -512z" />
    <glyph glyph-name="quotedbl.case" horiz-adv-x="955" 
d="M204 1434h179l-32 -416h-115zM574 1434h179l-32 -416h-115z" />
    <glyph glyph-name="quotesingle.case" horiz-adv-x="584" 
d="M204 1434h179l-32 -416h-115z" />
    <glyph glyph-name="at.case" horiz-adv-x="2255" 
d="M1622 1113v-532q0 -58 31.5 -98.5t98.5 -40.5q111 0 172.5 87t61.5 255q0 165 -94.5 304t-282.5 223t-455 84q-257 0 -439.5 -77.5t-278 -226t-95.5 -358.5q0 -222 101.5 -375.5t293 -231.5t458.5 -78q201 0 370 33.5t305 88.5l4 -107q-127 -54 -299 -88t-380 -34
q-297 0 -514 91.5t-334 269.5t-117 431q0 238 110 411t318 265.5t497 92.5q301 0 514.5 -100t321.5 -264t108 -354q0 -144 -45.5 -249.5t-127 -162t-188.5 -56.5q-100 0 -167 41t-95 109q-78 -69 -171 -110t-211 -41q-109 0 -205.5 46.5t-156 139t-59.5 225.5q0 138 59 230
t155 135t207 43q203 0 368 -141l6 120h155zM881.5 582q39.5 -60 106.5 -91t148 -31q96 0 170 26.5t151 79.5v316q-77 53 -151 79.5t-170 26.5q-129 0 -211.5 -65t-82.5 -197q0 -84 39.5 -144z" />
    </font>
</defs>
</svg>
