<?xml version="1.0" standalone="no"?>
<!DOCTYPE svg PUBLIC "-//W3C//DTD SVG 1.1//EN" "http://www.w3.org/Graphics/SVG/1.1/DTD/svg11.dtd" >
<svg xmlns="http://www.w3.org/2000/svg" xmlns:xlink="http://www.w3.org/1999/xlink" version="1.1">
<metadata>
Created by FontForge 20170731 at Fri Mar  6 19:48:12 2020
 By Aleksey,,,
Copyright (c) 2020 by YorgoAndCo. All rights reserved.
</metadata>
<defs>
<font id="BrilliantCutPro-Bold" horiz-adv-x="1604" >
  <font-face 
    font-family="Brilliant Cut Pro"
    font-weight="700"
    font-stretch="normal"
    units-per-em="2048"
    panose-1="0 0 8 0 0 0 0 0 0 0"
    ascent="1638"
    descent="-410"
    x-height="1060"
    cap-height="1434"
    bbox="-1469 -532 3113 1999"
    underline-thickness="183"
    underline-position="-579"
    unicode-range="U+000D-FB02"
  />
<missing-glyph horiz-adv-x="1024" 
 />
    <glyph glyph-name="fi" unicode="fi" horiz-adv-x="1511" 
d="M622.5 1260.5q-40.5 -36.5 -40.5 -115.5v-85h323v-264h-323v-796h-291v796h-260l37 264h223v111q0 120 47.5 205.5t132 130.5t195.5 45q123 0 239 -63v-237q-42 20 -81.5 32.5t-82.5 12.5q-78 0 -118.5 -36.5zM1053 1060h291v-1060h-291v1060zM1109 1204q-41 24 -65 65
t-24 90t24 90.5t65 65.5t90 24t90 -24t65 -65.5t24 -90.5t-24 -90t-65 -65t-90 -24t-90 24z" />
    <glyph glyph-name="fl" unicode="fl" horiz-adv-x="1544" 
d="M622.5 1260.5q-40.5 -36.5 -40.5 -115.5v-85h323v-264h-323v-796h-291v796h-260l37 264h223v111q0 120 47.5 205.5t132 130.5t195.5 45q123 0 239 -63v-237q-42 20 -81.5 32.5t-82.5 12.5q-78 0 -118.5 -36.5zM1077 1536h290v-1536h-290v1536z" />
    <glyph glyph-name=".notdef" horiz-adv-x="1024" 
 />
    <glyph glyph-name=".null" horiz-adv-x="0" 
 />
    <glyph glyph-name="nonmarkingreturn" unicode="&#xd;" horiz-adv-x="1024" 
 />
    <glyph glyph-name="space" unicode=" " horiz-adv-x="680" 
 />
    <glyph glyph-name="exclam" unicode="!" horiz-adv-x="687" 
d="M200 897v537h291v-537l-37 -445h-218zM214 30.5q-50 50.5 -50 133.5q0 78 50 127t132 49q52 0 93 -22.5t63.5 -62.5t22.5 -91q0 -83 -49.5 -133.5t-129.5 -50.5q-82 0 -132 50.5z" />
    <glyph glyph-name="quotedbl" unicode="&#x22;" horiz-adv-x="1118" 
d="M187 1434h313l-56 -416h-200zM619 1434h313l-56 -416h-200z" />
    <glyph glyph-name="numbersign" unicode="#" 
d="M1581 861h-383l-99 -289h321v-182h-383l-134 -390h-201l134 390h-292l-134 -390h-200l134 390h-321v182h383l99 289h-321v183h383l134 390h201l-134 -390h292l134 390h200l-134 -390h321v-183zM898 572l99 289h-292l-99 -289h292z" />
    <glyph glyph-name="dollar" unicode="$" 
d="M1360 228q-55 -96 -167.5 -158t-280.5 -82v-90h-183v82q-343 7 -574 170l96 271q106 -81 224 -122t254 -46v353q-154 22 -260 57.5t-178.5 119.5t-72.5 234q0 133 62 228t176.5 147t272.5 60v84h183v-89q240 -24 436 -145l-95 -264q-152 110 -341 135v-306
q150 -25 255.5 -64t176.5 -125t71 -234q0 -120 -55 -216zM583 950.5q50 -32.5 146 -52.5v280q-97 -8 -146.5 -43t-49.5 -93q0 -59 50 -91.5zM1053.5 328q46.5 44 46.5 103q0 61 -48 94t-140 52v-312q95 19 141.5 63z" />
    <glyph glyph-name="percent" unicode="%" 
d="M218 898q-69 40 -109 108.5t-40 150.5q0 81 40 149.5t109 108t152 39.5t151.5 -39.5t108.5 -108t40 -149.5q0 -82 -40 -150.5t-108.5 -108.5t-151.5 -40t-152 40zM1168 1434h335l-1067 -1434h-335zM427.5 1098.5q23.5 23.5 23.5 58.5q0 33 -23.5 56.5t-57.5 23.5
t-58 -23.5t-24 -56.5q0 -34 24 -58t58 -24t57.5 23.5zM1093 26q-69 40 -109 108.5t-40 150.5q0 81 40 149.5t109 108t152 39.5t151.5 -39.5t108.5 -108t40 -149.5q0 -82 -40 -150.5t-108.5 -108.5t-151.5 -40t-152 40zM1302.5 226.5q23.5 23.5 23.5 58.5q0 33 -23.5 56.5
t-57.5 23.5t-58 -23.5t-24 -56.5q0 -34 24 -58t58 -24t57.5 23.5z" />
    <glyph glyph-name="ampersand" unicode="&#x26;" horiz-adv-x="1701" 
d="M1313 0l-100 127q-101 -71 -227 -109t-273 -38q-183 0 -316 63.5t-202.5 172.5t-69.5 242q0 129 53 223.5t159 188.5l169 155l-305 388v21h982v-273h-446l466 -605q37 106 37 235h300q0 -134 -37.5 -258t-108.5 -226l236 -307h-317zM1047 339l-382 484l-60 -52
q-87 -77 -129 -143t-42 -142q0 -71 36 -124.5t105.5 -83t169.5 -29.5q179 0 302 90z" />
    <glyph glyph-name="quotesingle" unicode="'" horiz-adv-x="685" 
d="M187 1434h313l-56 -416h-200z" />
    <glyph glyph-name="parenleft" unicode="(" horiz-adv-x="837" 
d="M288 -80.5q-119 260.5 -119 592.5t119 592.5t317 451.5l227 -213q-336 -356 -336 -831t336 -831l-227 -213q-198 191 -317 451.5z" />
    <glyph glyph-name="parenright" unicode=")" horiz-adv-x="837" 
d="M5 -319q336 356 336 831t-336 831l227 213q198 -191 317 -451.5t119 -592.5t-119 -592.5t-317 -451.5z" />
    <glyph glyph-name="asterisk" unicode="*" horiz-adv-x="825" 
d="M722 1223l-199 -114l199 -115l-55 -96l-199 114v-229h-111v230l-199 -115l-56 96l199 115l-199 114l56 96l199 -115v230h111v-229l199 114z" />
    <glyph glyph-name="plus" unicode="+" 
d="M1345 853v-273h-407v-406h-272v406h-407v273h407v407h272v-407h407z" />
    <glyph glyph-name="comma" unicode="," horiz-adv-x="685" 
d="M88 -310l152 581l276 -111l-260 -532z" />
    <glyph glyph-name="hyphen" unicode="-" horiz-adv-x="1068" 
d="M146 867h776v-255h-776v255z" />
    <glyph glyph-name="period" unicode="." horiz-adv-x="685" 
d="M213 30.5q-50 50.5 -50 133.5q0 78 50 127t132 49q52 0 93 -22.5t63.5 -62.5t22.5 -91q0 -83 -49.5 -133.5t-129.5 -50.5q-82 0 -132 50.5z" />
    <glyph glyph-name="slash" unicode="/" horiz-adv-x="1156" 
d="M758 1536h336l-696 -1618h-337z" />
    <glyph glyph-name="zero" unicode="0" 
d="M449.5 68q-154.5 88 -241.5 255t-88 396q0 228 87 394t242 253.5t355 87.5t354 -87.5t240 -253t86 -394.5t-86 -396t-240 -255t-354 -88t-354.5 88zM1062.5 369.5q93.5 117.5 93.5 349.5q0 228 -93.5 345t-260.5 117q-109 0 -188.5 -52t-122.5 -155.5t-43 -254.5
q0 -229 94 -348t260 -119q167 0 260.5 117.5z" />
    <glyph glyph-name="one" unicode="1" horiz-adv-x="966" 
d="M391 1161h-336l38 273h607v-1434h-309v1161z" />
    <glyph glyph-name="two" unicode="2" 
d="M244 475q86 119 205 175t304 110q120 35 187 61.5t110.5 70t43.5 110.5q0 83 -69 133t-213 50q-143 0 -277.5 -49t-240.5 -129l-133 244q125 92 296 147.5t362 55.5q190 0 321.5 -56.5t197 -158t65.5 -235.5q0 -146 -73 -234.5t-177.5 -133t-276.5 -92.5
q-132 -36 -211 -65.5t-139.5 -79.5t-78.5 -126h974l-38 -273h-1225v156q0 200 86 319z" />
    <glyph glyph-name="three" unicode="3" 
d="M1232.5 884.5q107.5 -58.5 163.5 -156.5t56 -227q0 -153 -80 -271t-236.5 -184t-378.5 -66q-213 0 -382 60.5t-309 167.5l160 234q106 -91 242 -140.5t300 -49.5q189 0 282 66.5t93 182.5q0 106 -84 163t-275 57q-125 0 -307 -29l-23 28l342 441h-588l39 273h1093v-21
l-366 -458q151 -12 258.5 -70.5z" />
    <glyph glyph-name="four" unicode="4" 
d="M1525 578l-39 -272h-249v-306h-308v306h-813l-20 114l522 1014h619v-856h288zM512 578h417v583h-138l-279 -579v-4z" />
    <glyph glyph-name="five" unicode="5" 
d="M1168.5 910.5q126.5 -56.5 191 -160t64.5 -243.5q0 -159 -82.5 -278t-236 -184t-358.5 -65q-200 0 -368.5 58.5t-297.5 155.5l159 229q125 -86 247.5 -128.5t262.5 -42.5q173 0 260 62.5t87 174.5q0 111 -81.5 171.5t-234.5 60.5q-135 0 -275.5 -38t-246.5 -80l-11 11
l41 820h1009l-38 -273h-689l-11 -238q158 44 302 44q180 0 306.5 -56.5z" />
    <glyph glyph-name="six" unicode="6" 
d="M1222 902.5q125 -64.5 190 -172t65 -235.5q0 -140 -75 -257.5t-219.5 -187.5t-342.5 -70q-223 0 -380.5 83.5t-238.5 234t-81 349.5q0 237 126 420t354.5 285t527.5 102l62 -273q-597 0 -722 -328q211 114 436 114q173 0 298 -64.5zM1023.5 283.5q70.5 31.5 107.5 87.5
t37 126q0 105 -90 164.5t-252 59.5q-97 0 -194 -16t-177 -42v-9q0 -197 101.5 -299.5t299.5 -102.5q97 0 167.5 31.5z" />
    <glyph glyph-name="seven" unicode="7" horiz-adv-x="1442" 
d="M658.5 530q123.5 286 304.5 631h-590l-40 -247h-307l73 520h1331v-19l-173 -345q-155 -305 -264.5 -569.5t-168.5 -500.5h-349q60 244 183.5 530z" />
    <glyph glyph-name="eight" unicode="8" 
d="M1383.5 635.5q66.5 -91.5 66.5 -214.5q0 -140 -83 -239.5t-230 -150.5t-335 -51t-335 51t-230 150.5t-83 239.5q0 123 66.5 214.5t184.5 146.5q-73 56 -112.5 132t-39.5 165q0 113 64.5 197.5t188 131t296.5 46.5t296.5 -46.5t188 -131t64.5 -197.5q0 -89 -39.5 -165
t-112.5 -132q118 -55 184.5 -146.5zM608.5 1140q-60.5 -41 -60.5 -119q0 -161 254 -161t254 161q0 78 -60.5 119t-193.5 41t-193.5 -41zM1038 305q84 53 84 148q0 93 -83 140.5t-237 47.5t-237 -47.5t-83 -140.5q0 -95 84 -148t236 -53t236 53z" />
    <glyph glyph-name="nine" unicode="9" 
d="M1144.5 1369.5q157.5 -83.5 238.5 -234t81 -349.5q0 -237 -126 -420t-354.5 -285t-527.5 -102l-62 273q597 0 722 328q-211 -114 -436 -114q-173 0 -298 64.5t-190 172t-65 235.5q0 140 75 257.5t219.5 187.5t342.5 70q223 0 380.5 -83.5zM972 728q97 16 177 42v9
q0 197 -101.5 299.5t-299.5 102.5q-97 0 -167.5 -31.5t-107.5 -87.5t-37 -126q0 -105 90 -164.5t252 -59.5q97 0 194 16z" />
    <glyph glyph-name="colon" unicode=":" horiz-adv-x="685" 
d="M214 30.5q-50 50.5 -50 133.5q0 78 50 127t132 49q52 0 93 -22.5t63.5 -62.5t22.5 -91q0 -83 -49.5 -133.5t-129.5 -50.5q-82 0 -132 50.5zM214 737.5q-50 50.5 -50 133.5q0 78 50 127t132 49q52 0 93 -22.5t63.5 -62.5t22.5 -91q0 -83 -49.5 -133.5t-129.5 -50.5
q-82 0 -132 50.5z" />
    <glyph glyph-name="semicolon" unicode=";" horiz-adv-x="668" 
d="M86 -310l152 581l276 -111l-260 -532zM211 737.5q-50 50.5 -50 133.5q0 78 50 127t132 49q52 0 93 -22.5t63.5 -62.5t22.5 -91q0 -83 -49.5 -133.5t-129.5 -50.5q-82 0 -132 50.5z" />
    <glyph glyph-name="less" unicode="&#x3c;" 
d="M1345 1301v-291l-661 -294l661 -292v-291l-1086 492v182z" />
    <glyph glyph-name="equal" unicode="=" 
d="M259 1058h1086v-273h-1086v273zM259 648h1086v-272h-1086v272z" />
    <glyph glyph-name="greater" unicode="&#x3e;" 
d="M259 1301l1086 -494v-182l-1086 -492v291l661 292l-661 294v291z" />
    <glyph glyph-name="question" unicode="?" horiz-adv-x="1105" 
d="M753.5 1405.5q119.5 -48.5 178 -138t58.5 -212.5q0 -115 -56.5 -213.5t-162 -164.5t-247.5 -85l-10 -140h-218l-31 378q68 -11 141 -11q141 0 217 52t76 143q0 90 -73 137.5t-215 47.5q-191 0 -370 -70l-50 237q91 38 211 63t254 25q178 0 297.5 -48.5zM500 317.5
q41 -22.5 63.5 -62.5t22.5 -91q0 -83 -49.5 -133.5t-129.5 -50.5q-82 0 -132 50.5t-50 133.5q0 78 50 127t132 49q52 0 93 -22.5z" />
    <glyph glyph-name="at" unicode="@" horiz-adv-x="2435" 
d="M1736 918v-474q0 -106 101 -106q107 0 164 66t57 198q0 145 -93 274t-282 209.5t-460 80.5q-258 0 -436.5 -74t-269.5 -216.5t-91 -346.5q0 -317 224 -476t638 -159q364 0 653 82l1 -185q-265 -80 -654 -80q-324 0 -561 92.5t-365 276t-128 449.5q0 250 115.5 434.5
t338 284.5t535.5 100q330 0 562.5 -107.5t348.5 -279t116 -359.5q0 -144 -57 -253.5t-157.5 -169.5t-227.5 -60q-116 0 -198.5 37t-124.5 103q-77 -62 -164.5 -101t-193.5 -39t-198 45.5t-149 138t-57 226.5q0 136 57 228t149 136.5t198 44.5q172 0 329 -117l7 97h273z
M1071 415q49 -41 135 -41q68 0 122 13t117 42v199q-63 29 -117.5 42.5t-121.5 13.5q-87 0 -135.5 -40t-48.5 -115q0 -73 49 -114z" />
    <glyph glyph-name="A" unicode="A" horiz-adv-x="1805" 
d="M1406 0l-132 382h-739l-130 -382h-323l506 1434h629l506 -1434h-317zM627 655h553l-174 506h-207z" />
    <glyph glyph-name="B" unicode="B" horiz-adv-x="1709" 
d="M1417 807q89 -64 133.5 -157t44.5 -199q0 -121 -58.5 -224t-170 -165t-262.5 -62h-899v1434h691q140 0 231.5 -44t133.5 -116.5t42 -161.5q0 -66 -26 -124t-75 -99q126 -18 215 -82zM514 936h364q59 0 89 30.5t30 80.5q0 52 -29 83t-88 31h-366v-225zM1233.5 327
q56.5 54 56.5 142q0 57 -25 101t-72 68.5t-109 24.5h-570v-390h555q108 0 164.5 54z" />
    <glyph glyph-name="C" unicode="C" horiz-adv-x="1693" 
d="M493.5 72.5q-178.5 92.5 -276 260t-97.5 386.5q0 220 106 387t287.5 257.5t401.5 90.5q399 0 656 -260l-190 -234q-199 203 -463 203q-139 0 -245.5 -54.5t-165.5 -155t-59 -234.5q0 -135 61.5 -237t172.5 -157t256 -55q167 0 281.5 67t197.5 164l192 -230
q-131 -143 -300 -217t-400 -74q-237 0 -415.5 92.5z" />
    <glyph glyph-name="D" unicode="D" horiz-adv-x="1819" 
d="M944 1434q233 0 403.5 -90t260.5 -251t90 -369q0 -213 -89.5 -377t-257 -255.5t-393.5 -91.5h-753v1434h739zM1153.5 327q106.5 54 162 155t55.5 242q0 220 -118.5 328.5t-355.5 108.5h-383v-888h383q150 0 256.5 54z" />
    <glyph glyph-name="E" unicode="E" horiz-adv-x="1642" 
d="M205 1434h1285v-273h-976v-236h563v-273h-563v-379h976v-273h-1285v1434z" />
    <glyph glyph-name="F" unicode="F" horiz-adv-x="1594" 
d="M205 1434h1287v-273h-978v-237h562v-271h-562v-653h-309v1434z" />
    <glyph glyph-name="G" unicode="G" horiz-adv-x="1779" 
d="M522 73q-193 93 -297.5 260.5t-104.5 385.5t105.5 385t288.5 258.5t409 91.5q297 0 564 -148l-102 -284q-91 67 -203 104t-241 37q-151 0 -262 -53.5t-171 -153.5t-60 -237q0 -142 64.5 -243t183 -153.5t278.5 -52.5q101 0 169 11t156 34l28 7v242h-397l-36 273h742v-709
q-161 -71 -314.5 -109.5t-348.5 -38.5q-258 0 -451 93z" />
    <glyph glyph-name="H" unicode="H" horiz-adv-x="1858" 
d="M205 1434h309v-456h830v456h309v-1434h-309v705h-830v-705h-309v1434z" />
    <glyph glyph-name="I" unicode="I" horiz-adv-x="718" 
d="M205 1434h309v-1434h-309v1434z" />
    <glyph glyph-name="J" unicode="J" horiz-adv-x="862" 
d="M230.5 284q76.5 29 107 94t30.5 185v871h309v-928q0 -265 -145.5 -394.5t-439.5 -129.5h-20l-62 273q144 0 220.5 29z" />
    <glyph glyph-name="K" unicode="K" horiz-adv-x="1713" 
d="M1257 0l-341 548h-402v-548h-309v1434h309v-613h318l416 613h367l-466 -674l477 -760h-369z" />
    <glyph glyph-name="L" unicode="L" horiz-adv-x="1458" 
d="M205 1434h309v-1161h857v-273h-1166v1434z" />
    <glyph glyph-name="M" unicode="M" horiz-adv-x="2114" 
d="M205 1434h482l369 -755h4l368 755h482v-1434h-309v1123h-4l-327 -658h-424l-328 658h-4v-1123h-309v1434z" />
    <glyph glyph-name="N" unicode="N" horiz-adv-x="1792" 
d="M205 1434h570l494 -452h9v452h309v-1434h-309v550l-614 575h-150v-1125h-309v1434z" />
    <glyph glyph-name="O" unicode="O" horiz-adv-x="1824" 
d="M515 74q-182 94 -288.5 262.5t-106.5 380.5t106.5 380t288.5 262.5t399 94.5q218 0 398.5 -94.5t285.5 -262.5t105 -380t-105 -380.5t-285.5 -262.5t-398.5 -94q-217 0 -399 94zM1147.5 326q105.5 56 167 158t61.5 233q0 129 -60.5 230.5t-166.5 158.5t-235 57
q-131 0 -237.5 -57t-167.5 -158.5t-61 -230.5q0 -131 62 -233t168.5 -158t235.5 -56q128 0 233.5 56z" />
    <glyph glyph-name="P" unicode="P" horiz-adv-x="1678" 
d="M1117 1434q138 0 246 -58t168 -157.5t60 -219.5q0 -123 -59.5 -223.5t-167.5 -158t-247 -57.5h-603v-560h-309v1434h912zM1232 876.5q50 43.5 50 122.5t-49.5 120.5t-142.5 41.5h-576v-328h576q92 0 142 43.5z" />
    <glyph glyph-name="Q" unicode="Q" horiz-adv-x="1824" 
d="M1420 0l-92 104q-95 -60 -201 -92t-213 -32q-217 0 -399 94t-288.5 262.5t-106.5 380.5t106.5 380t288.5 262.5t399 94.5q218 0 398.5 -94.5t285.5 -262.5t105 -380q0 -114 -42.5 -222.5t-119.5 -203.5l257 -291h-378zM1137 321l-396 448h378l216 -245q41 87 41 193
q0 129 -60.5 230.5t-166.5 158.5t-235 57q-131 0 -237.5 -57t-167.5 -158.5t-61 -230.5q0 -131 62 -233t168.5 -158t235.5 -56q121 0 223 51z" />
    <glyph glyph-name="R" unicode="R" horiz-adv-x="1779" 
d="M1578 796.5q-54 -94.5 -151 -153t-222 -67.5l398 -576h-369l-370 574h-350v-574h-309v1434h957q136 0 243 -57t167 -155t60 -216q0 -115 -54 -209.5zM514 847h620q90 0 139.5 42t49.5 117q0 76 -49 115.5t-140 39.5h-620v-314z" />
    <glyph glyph-name="S" unicode="S" horiz-adv-x="1445" 
d="M82 150l96 271q113 -87 240.5 -128t275.5 -41q169 0 251 50t82 129q0 57 -42.5 89.5t-107.5 48t-180 31.5q-172 24 -282.5 56.5t-190 118t-79.5 242.5q0 141 69.5 239t197.5 148t303 50q159 0 301 -40t259 -112l-95 -264q-199 143 -460 143q-129 0 -194.5 -35.5
t-65.5 -103.5q0 -54 41.5 -85t105 -47t176.5 -34q173 -28 285 -63t193 -123t81 -246q0 -137 -71.5 -241.5t-217.5 -163.5t-364 -59q-366 0 -607 170z" />
    <glyph glyph-name="T" unicode="T" horiz-adv-x="1661" 
d="M676 1161h-606v273h1521v-273h-606v-1161h-309v1161z" />
    <glyph glyph-name="U" unicode="U" horiz-adv-x="1720" 
d="M501 50.5q-156 70.5 -245.5 218.5t-89.5 371v794h309v-773q0 -198 96.5 -303.5t287.5 -105.5q193 0 289.5 105.5t96.5 303.5v773h309v-794q0 -223 -90 -371t-246.5 -218.5t-358.5 -70.5t-358 70.5z" />
    <glyph glyph-name="V" unicode="V" horiz-adv-x="1711" 
d="M82 1434h323l396 -1161h109l403 1161h316l-508 -1434h-531z" />
    <glyph glyph-name="W" unicode="W" horiz-adv-x="2303" 
d="M82 1434h327l234 -1112l239 1092h539l239 -1092l234 1112h327l-351 -1434h-417l-259 1141h-85l-259 -1141h-417z" />
    <glyph glyph-name="X" unicode="X" horiz-adv-x="1659" 
d="M1577 1434l-444 -717l444 -717h-363l-346 581h-85l-338 -581h-363l434 717l-434 717h363l338 -580h85l346 580h363z" />
    <glyph glyph-name="Y" unicode="Y" horiz-adv-x="1617" 
d="M1553 1434l-594 -960v-474h-309v465l-586 969h373l330 -582h74l340 582h372z" />
    <glyph glyph-name="Z" unicode="Z" horiz-adv-x="1612" 
d="M142 467l995 643v51h-995v273h1304v-467l-995 -643v-51h1018v-273h-1327v467z" />
    <glyph glyph-name="bracketleft" unicode="[" horiz-adv-x="837" 
d="M833 1263h-353v-1502h353v-273h-662v2048h662v-273z" />
    <glyph glyph-name="backslash" unicode="\" horiz-adv-x="1156" 
d="M1095 -82h-337l-696 1618h336z" />
    <glyph glyph-name="bracketright" unicode="]" horiz-adv-x="837" 
d="M666 1536v-2048h-662v273h353v1502h-353v273h662z" />
    <glyph glyph-name="asciicircum" unicode="^" 
d="M259 1171l539 263h8l539 -263l-114 -234l-427 219h-4l-429 -219z" />
    <glyph glyph-name="underscore" unicode="_" horiz-adv-x="1327" 
d="M146 0h1035v-254h-1035v254z" />
    <glyph glyph-name="grave" unicode="`" horiz-adv-x="2050" 
d="M937 1164l-412 372v18h435l196 -371v-19h-219z" />
    <glyph glyph-name="a" unicode="a" horiz-adv-x="1314" 
d="M904.5 1033q118.5 -48 182.5 -139.5t64 -218.5v-675h-273l-6 100q-81 -54 -169.5 -87t-201.5 -33q-123 0 -214 39t-140.5 114t-49.5 181q0 160 117 244.5t340 84.5h306v19q0 86 -68 129.5t-202 43.5q-104 0 -201.5 -23t-171.5 -59v249q88 37 193.5 58t215.5 21
q160 0 278.5 -48zM444.5 236q47.5 -38 139.5 -38q71 0 137 23t139 65v174h-279q-100 0 -142 -29t-42 -88q0 -69 47.5 -107z" />
    <glyph glyph-name="b" unicode="b" horiz-adv-x="1430" 
d="M1078.5 1014.5q114.5 -66.5 179 -191t64.5 -292.5q0 -167 -65 -291.5t-179.5 -192t-259.5 -67.5q-113 0 -200 33.5t-163 89.5l-6 -103h-272v1536h290v-570q73 52 158 83.5t193 31.5q146 0 260.5 -66.5zM875.5 268.5q69.5 34.5 108 101.5t38.5 161q0 142 -83.5 218.5
t-225.5 76.5q-68 0 -127.5 -15t-118.5 -41v-480q59 -26 118.5 -41t127.5 -15q93 0 162.5 34.5z" />
    <glyph glyph-name="c" unicode="c" horiz-adv-x="1285" 
d="M387 48q-136 68 -208 191t-72 282q0 168 79.5 295t218 196t309.5 69q223 0 440 -123l-69 -272q-164 122 -355 122q-103 0 -175.5 -34t-110 -96.5t-37.5 -147.5t37 -147.5t107.5 -96.5t169.5 -34q106 0 196.5 37.5t173.5 105.5l106 -258q-88 -71 -213.5 -114t-276.5 -43
q-184 0 -320 68z" />
    <glyph glyph-name="d" unicode="d" horiz-adv-x="1430" 
d="M1253 1536v-1536h-273l-6 103q-76 -55 -163.5 -89t-198.5 -34q-145 0 -259.5 67.5t-180 192.5t-65.5 291q0 167 65.5 292t180 191.5t259.5 66.5q106 0 191 -31.5t159 -83.5v570h291zM446 370q39 -67 108.5 -101.5t161.5 -34.5q67 0 126.5 15t119.5 41v480
q-60 26 -119.5 41t-126.5 15q-92 0 -161.5 -33.5t-108.5 -100t-39 -161.5q0 -94 39 -161z" />
    <glyph glyph-name="e" unicode="e" horiz-adv-x="1372" 
d="M1254 442h-846q54 -226 392 -226q175 0 327 67v-245q-86 -28 -184 -43t-195 -15q-212 0 -355.5 70t-214.5 195t-71 288t77.5 287.5t210.5 192.5t294 68q158 0 287 -72.5t203.5 -206.5t74.5 -312v-48zM506 785.5q-74 -58.5 -98 -160.5h562q-24 100 -96 159.5t-180 59.5
q-114 0 -188 -58.5z" />
    <glyph glyph-name="f" unicode="f" horiz-adv-x="994" 
d="M622.5 1260.5q-40.5 -36.5 -40.5 -115.5v-85h323v-264h-323v-796h-291v796h-260l37 264h223v111q0 120 47.5 205.5t132 130.5t195.5 45q123 0 239 -63v-237q-42 20 -81.5 32.5t-82.5 12.5q-78 0 -118.5 -36.5z" />
    <glyph glyph-name="g" unicode="g" horiz-adv-x="1382" 
d="M1220 1060v-1089q0 -157 -82 -270.5t-226 -173t-328 -59.5q-128 0 -229.5 21t-169.5 54v259q174 -80 370 -80q186 0 280 75.5t94 204.5v91q-71 -51 -154 -82t-185 -31q-144 0 -256 67.5t-174.5 192t-62.5 291.5t63 291.5t175 191.5t255 67q107 0 192 -34t158 -89l7 102
h273zM815 249q57 15 114 41v480q-57 26 -114 41t-121 15q-138 0 -217.5 -76.5t-79.5 -218.5t79.5 -219.5t217.5 -77.5q64 0 121 15z" />
    <glyph glyph-name="h" unicode="h" horiz-adv-x="1434" 
d="M1075.5 1029.5q96.5 -51.5 146 -147t49.5 -224.5v-658h-290v618q0 98 -61.5 153t-181.5 55q-137 0 -271 -59v-767h-290v1536h290v-584q175 129 374 129q138 0 234.5 -51.5z" />
    <glyph glyph-name="i" unicode="i" horiz-adv-x="623" 
d="M166 1060h291v-1060h-291v1060zM222 1204q-41 24 -65 65t-24 90t24 90.5t65 65.5t90 24t90 -24t65 -65.5t24 -90.5t-24 -90t-65 -65t-90 -24t-90 24z" />
    <glyph glyph-name="j" unicode="j" horiz-adv-x="624" 
d="M-66 -525.5q-49 6.5 -90 19.5l-20 271q40 -17 88.5 -30t93.5 -13q80 0 120.5 45t40.5 130v1163h291v-1192q0 -125 -52 -215.5t-143 -137.5t-207 -47q-73 0 -122 6.5zM222 1204q-41 24 -65 65t-24 90t24 90.5t65 65.5t90 24t90 -24t65 -65.5t24 -90.5t-24 -90t-65 -65
t-90 -24t-90 24z" />
    <glyph glyph-name="k" unicode="k" horiz-adv-x="1412" 
d="M987 0l-242 428h-278v-428h-290v1536h290v-835h246l229 359h354l-302 -467l340 -593h-347z" />
    <glyph glyph-name="l" unicode="l" horiz-adv-x="644" 
d="M177 1536h290v-1536h-290v1536z" />
    <glyph glyph-name="m" unicode="m" horiz-adv-x="2143" 
d="M1794 1029.5q92 -51.5 139 -147t47 -224.5v-658h-291v618q0 98 -57 153t-169 55q-130 0 -251 -59q9 -51 9 -109v-658h-291v618q0 98 -57 153t-169 55q-128 0 -243 -55v-771h-290v1060h272l7 -110q170 131 361 131q123 0 211.5 -44.5t137.5 -128.5q189 173 410 173
q132 0 224 -51.5z" />
    <glyph glyph-name="n" unicode="n" horiz-adv-x="1404" 
d="M1050.5 1029.5q94.5 -51.5 142.5 -147t48 -224.5v-658h-290v618q0 98 -59.5 153t-175.5 55q-131 0 -255 -56v-770h-290v1060h272l7 -112q175 133 371 133q135 0 229.5 -51.5z" />
    <glyph glyph-name="o" unicode="o" horiz-adv-x="1429" 
d="M410 50q-139 70 -221 195.5t-82 285.5t82 285.5t221 195t304 69.5q166 0 305 -69.5t220.5 -195t81.5 -285.5t-81.5 -285.5t-220.5 -195.5t-305 -70q-165 0 -304 70zM870.5 287q70.5 35 111.5 98.5t41 145.5t-41 145t-111.5 97.5t-156.5 34.5t-156 -34.5t-110.5 -97.5
t-40.5 -145t40.5 -145.5t110.5 -98.5t156 -35t156.5 35z" />
    <glyph glyph-name="p" unicode="p" horiz-adv-x="1382" 
d="M1048 1014q112 -67 174.5 -191.5t62.5 -291.5t-62.5 -291.5t-174 -192t-255.5 -67.5q-103 0 -185.5 31t-153.5 82v-605h-291v1572h272l7 -102q73 55 158 89t193 34q143 0 255 -67zM906 311.5q80 77.5 80 219.5t-80 218.5t-218 76.5q-63 0 -120 -15t-114 -41v-481
q58 -26 114.5 -40.5t119.5 -14.5q138 0 218 77.5z" />
    <glyph glyph-name="q" unicode="q" horiz-adv-x="1393" 
d="M1230 1060v-1572h-291v605q-71 -51 -154 -82t-185 -31q-144 0 -255.5 67.5t-174.5 192t-63 291.5t63 291.5t175 191.5t255 67q107 0 192 -34t159 -89l6 102h273zM825 249q57 15 114 41v480q-57 26 -114 41t-120 15q-138 0 -218 -76.5t-80 -218.5t79.5 -219.5t218.5 -77.5
q63 0 120 15z" />
    <glyph glyph-name="r" unicode="r" horiz-adv-x="954" 
d="M698 817q-125 0 -237 -49v-768h-290v1060h272l7 -111q175 132 363 132q5 0 23 -3l36 -282q-90 21 -174 21z" />
    <glyph glyph-name="s" unicode="s" horiz-adv-x="1146" 
d="M297 7q-113 27 -205 80l46 256q82 -56 190.5 -87t226.5 -31q103 0 154.5 24.5t51.5 62.5q0 26 -25 41.5t-64 24t-110 18.5q-134 19 -225.5 46t-159 98.5t-67.5 200.5q0 107 52 183.5t150 116.5t235 40q110 0 216.5 -25.5t201.5 -71.5l-33 -246q-95 45 -197.5 71
t-196.5 26q-146 0 -146 -71q0 -30 27.5 -47.5t69 -27.5t121.5 -23q135 -22 223.5 -49t153.5 -93.5t65 -185.5q0 -108 -57 -188.5t-172.5 -125t-285.5 -44.5q-127 0 -240 27z" />
    <glyph glyph-name="t" unicode="t" horiz-adv-x="1052" 
d="M546 796v-398q0 -79 44.5 -121.5t127.5 -42.5q58 0 106 20t91 52v-244q-124 -82 -282 -82q-180 0 -279 99t-99 288v429h-224l37 264h187v283l291 37v-320h374v-264h-374z" />
    <glyph glyph-name="u" unicode="u" horiz-adv-x="1381" 
d="M1210 1060v-1060h-272l-7 111q-170 -131 -361 -131q-131 0 -222.5 51.5t-138 146.5t-46.5 224v658h291v-618q0 -98 56 -153t167 -55q124 0 243 55v771h290z" />
    <glyph glyph-name="v" unicode="v" horiz-adv-x="1317" 
d="M957 1060h306l-386 -1060h-437l-386 1060h305l252 -729h95z" />
    <glyph glyph-name="w" unicode="w" horiz-adv-x="1967" 
d="M54 1060h307l191 -712l197 712h470l196 -712l191 712h308l-307 -1060h-362l-221 787h-81l-221 -787h-362z" />
    <glyph glyph-name="x" unicode="x" horiz-adv-x="1349" 
d="M1281 1060l-318 -535l312 -525h-347l-217 395h-79l-210 -395h-348l305 526l-310 534h347l216 -401h79l222 401h348z" />
    <glyph glyph-name="y" unicode="y" horiz-adv-x="1317" 
d="M1263 1060l-469 -1280q-112 -312 -446 -312q-93 0 -162.5 17.5t-131.5 48.5v258q107 -70 249 -70q171 0 229 155l51 123h-143l-386 1060h309l249 -729h94l248 729h309z" />
    <glyph glyph-name="z" unicode="z" horiz-adv-x="1249" 
d="M120 399l741 378v34h-741v249h1008v-435l-668 -338v-34h668v-253h-1008v399z" />
    <glyph glyph-name="braceleft" unicode="{" horiz-adv-x="837" 
d="M285.5 -286q-104.5 123 -104.5 266q0 52 15.5 95.5t37 75t54.5 72.5q32 38 46.5 62t14.5 48q0 28 -18 46t-56 18h-155v230h155q38 0 56 18t18 46q0 24 -14.5 48t-46.5 62q-33 41 -54.5 72.5t-37 75t-15.5 95.5q0 143 104.5 266t319.5 246l227 -213
q-118 -65 -187.5 -118.5t-103.5 -110t-34 -124.5q0 -49 23 -89.5t67 -94.5q39 -47 59 -80.5t20 -70.5q0 -53 -33.5 -85t-104.5 -58q71 -26 104.5 -58t33.5 -85q0 -37 -19 -69.5t-60 -83.5q-44 -53 -67 -93.5t-23 -88.5q0 -68 34 -124.5t103.5 -110t187.5 -118.5l-227 -213
q-215 123 -319.5 246z" />
    <glyph glyph-name="bar" unicode="|" horiz-adv-x="718" 
d="M205 1536h309v-2048h-309v2048z" />
    <glyph glyph-name="braceright" unicode="}" horiz-adv-x="837" 
d="M5 -319q118 65 187.5 118.5t103.5 110t34 124.5q0 48 -23 88.5t-67 93.5q-41 51 -60 83.5t-19 69.5q0 53 33.5 85t104.5 58q-71 26 -104.5 58t-33.5 85q0 37 20 70.5t59 80.5q44 54 67 94.5t23 89.5q0 68 -34 124.5t-103.5 110t-187.5 118.5l227 213q215 -123 319.5 -246
t104.5 -266q0 -52 -15.5 -95.5t-37 -75t-54.5 -72.5q-32 -38 -46.5 -62t-14.5 -48q0 -28 18 -46t56 -18h155v-230h-155q-38 0 -56 -18t-18 -46q0 -24 14.5 -48t46.5 -62q33 -41 54.5 -72.5t37 -75t15.5 -95.5q0 -143 -104.5 -266t-319.5 -246z" />
    <glyph glyph-name="asciitilde" unicode="~" 
d="M382.5 887.5q69.5 20.5 149.5 20.5q73 0 137.5 -14.5t157.5 -43.5q87 -26 138 -38t107 -12q78 0 147.5 29t125.5 79v-304q-54 -35 -124 -56t-149 -21q-73 0 -137.5 14.5t-157.5 43.5q-84 26 -136.5 38.5t-108.5 12.5q-78 0 -147.5 -29.5t-125.5 -79.5v304
q54 36 123.5 56.5z" />
    <glyph glyph-name="uni00A0" unicode="&#xa0;" horiz-adv-x="680" 
 />
    <glyph glyph-name="exclamdown" unicode="&#xa1;" horiz-adv-x="687" 
d="M471.5 1029.5q49.5 -50.5 49.5 -133.5q0 -51 -22.5 -91t-63.5 -62.5t-93 -22.5q-82 0 -132 49t-50 127q0 83 50 133.5t132 50.5q80 0 129.5 -50.5zM232 608h218l37 -445v-537h-291v537z" />
    <glyph glyph-name="cent" unicode="&#xa2;" 
d="M948 174v-174h-183v171q-160 14 -277 86t-179 191t-62 271q0 149 66.5 266.5t184 189.5t267.5 89v170h183v-170q116 -13 213.5 -56.5t173.5 -108.5l-171 -208q-125 107 -300 107q-95 0 -165.5 -34.5t-108.5 -97.5t-38 -147q0 -85 38.5 -147.5t110.5 -96.5t168 -34
q99 0 172.5 31.5t140.5 89.5l174 -209q-166 -154 -408 -179z" />
    <glyph glyph-name="sterling" unicode="&#xa3;" 
d="M1498 273l-37 -273h-1282l36 255q100 0 177 34t119 91t42 123q0 53 -22 105h-352v182h240q-46 68 -71.5 129.5t-25.5 135.5q0 123 69 213t195.5 138t296.5 48q125 0 252 -24.5t243 -66.5v-299q-116 55 -245.5 88t-249.5 33q-121 0 -183.5 -40t-62.5 -117q0 -60 26 -113.5
t75 -124.5h526v-182h-424q9 -30 9 -63q0 -60 -30 -112.5t-78.5 -91t-103.5 -59.5v-9h861z" />
    <glyph glyph-name="currency" unicode="&#xa4;" 
d="M1350.5 542q-26.5 -83 -76.5 -150l115 -116l-122 -122l-118 118q-72 -50 -160 -76t-185 -26q-100 0 -191.5 28.5t-165.5 81.5l-124 -124l-105 104l123 123q-53 68 -81.5 153.5t-28.5 182.5q0 93 26.5 175t75.5 150l-115 115l123 122l117 -117q73 50 161 76.5t185 26.5
t185 -26.5t161 -76.5l117 117l122 -122l-114 -115q49 -68 75.5 -150t26.5 -175q0 -94 -26.5 -177zM956.5 469.5q68.5 35.5 108 100t39.5 149.5q0 84 -39.5 149t-108 100.5t-152.5 35.5t-152.5 -35.5t-108 -100.5t-39.5 -149q0 -85 39.5 -149.5t108 -100t152.5 -35.5
t152.5 35.5z" />
    <glyph glyph-name="yen" unicode="&#xa5;" 
d="M1561 1434l-605 -677h289v-182h-289v-132h289v-183h-289v-260h-308v260h-287v183h287v132h-287v182h281l-599 677h382l373 -427h8l373 427h382z" />
    <glyph glyph-name="brokenbar" unicode="&#xa6;" horiz-adv-x="718" 
d="M205 1536h309v-682h-309v682zM205 170h309v-682h-309v682z" />
    <glyph glyph-name="section" unicode="&#xa7;" horiz-adv-x="1232" 
d="M1020 165.5q30 -60.5 30 -143.5q0 -105 -56.5 -191t-166 -136.5t-261.5 -50.5q-99 0 -187 18.5t-156 46.5l1 269q91 -39 182 -61t192 -22q86 0 128 32t42 85q0 50 -27 80t-89 47l-231 64q-153 44 -229.5 124.5t-76.5 206.5q0 111 53 181t139 104q-59 49 -92.5 122
t-33.5 162q0 107 50 186t149 122t240 43q96 0 180 -19t134 -46l-1 -263q-158 77 -305 77q-83 0 -124 -32t-41 -84q0 -50 27 -80t90 -48l231 -64q152 -43 228.5 -124t76.5 -207q0 -109 -51 -178.5t-135 -104.5q60 -55 90 -115.5zM805.5 451.5q23.5 32.5 23.5 67.5
q0 33 -18.5 61.5t-53.5 37.5l-264 70q-42 -20 -65.5 -52.5t-23.5 -67.5q0 -33 18.5 -61.5t53.5 -37.5l264 -70q42 20 65.5 52.5z" />
    <glyph glyph-name="dieresis" unicode="&#xa8;" horiz-adv-x="2067" 
d="M761.5 1210.5q-38.5 22.5 -61 61.5t-22.5 84q0 46 22.5 84.5t61 61t84.5 22.5t84.5 -22.5t61 -61t22.5 -84.5q0 -45 -22.5 -84t-61 -61.5t-84.5 -22.5t-84.5 22.5zM1156.5 1209.5q-38.5 22.5 -61 61.5t-22.5 84q0 46 22.5 84.5t61 61t84.5 22.5t84.5 -22.5t61 -61
t22.5 -84.5q0 -45 -22.5 -84t-61 -61.5t-84.5 -22.5t-84.5 22.5z" />
    <glyph glyph-name="copyright" unicode="&#xa9;" horiz-adv-x="1824" 
d="M515 74.5q-182 94.5 -288.5 263t-106.5 381.5t106.5 381.5t288.5 263.5t399 95q218 0 398.5 -94.5t285.5 -263.5t105 -382t-105 -381.5t-285.5 -263t-398.5 -94.5q-217 0 -399 94.5zM1234.5 198q145.5 77 230 213.5t84.5 307.5q0 172 -84.5 309t-230 213.5t-320.5 76.5
t-321.5 -76.5t-232 -213.5t-85.5 -309q0 -171 85.5 -307.5t232 -213.5t321.5 -77t320.5 77zM690.5 359q-100.5 52 -153.5 145.5t-53 216.5q0 121 58 215t156.5 145.5t216.5 51.5q113 0 205.5 -34t161.5 -92l-128 -155q-93 80 -224 80q-107 0 -163.5 -57t-56.5 -154
q0 -98 57.5 -154.5t165.5 -56.5q74 0 129 23t104 66l131 -156q-148 -136 -369 -136q-137 0 -237.5 52z" />
    <glyph glyph-name="ordfeminine" unicode="&#xaa;" horiz-adv-x="1429" 
d="M355 391q-91 39 -140.5 114t-49.5 181q0 160 117 244.5t340 84.5h306v19q0 86 -68 129.5t-202 43.5q-104 0 -201.5 -23t-171.5 -59v249q88 37 193.5 58t215.5 21q160 0 278.5 -48t182.5 -139.5t64 -218.5v-675h-273l-6 100q-81 -54 -169.5 -87t-201.5 -33q-123 0 -214 39
zM507 803q-42 -29 -42 -88q0 -69 47.5 -107t139.5 -38q71 0 137 23t139 65v174h-279q-100 0 -142 -29zM191 244h1047v-244h-1047v244z" />
    <glyph glyph-name="guillemotleft" unicode="&#xab;" horiz-adv-x="1559" 
d="M102 530l411 512h336l-408 -512l408 -512h-336zM704 530l411 512h336l-408 -512l408 -512h-336z" />
    <glyph glyph-name="logicalnot" unicode="&#xac;" 
d="M1072 740h-813v273h1085v-592h-272v319z" />
    <glyph glyph-name="uni00AD" unicode="&#xad;" horiz-adv-x="1068" 
d="M146 867h776v-255h-776v255z" />
    <glyph glyph-name="registered" unicode="&#xae;" horiz-adv-x="1319" 
d="M942 1486q127 -70 201 -196.5t74 -288.5q0 -161 -74.5 -288t-201.5 -198t-279 -71q-154 0 -282.5 71t-203 198t-74.5 288q0 162 74.5 288.5t202.5 196.5t283 70q153 0 280 -70zM866 644.5q92 51.5 146 144.5t54 212q0 121 -53.5 213.5t-146 143t-204.5 50.5
q-114 0 -207 -50.5t-147.5 -143t-54.5 -213.5q0 -119 54.5 -212t148 -144.5t206.5 -51.5q112 0 204 51.5zM873 992q-30 -40 -80 -53l119 -173h-152l-107 167h-81v-167h-136v473h313q44 0 79.5 -20.5t55 -55t19.5 -76.5q0 -55 -30 -95zM572 1033h131q64 0 64 54
q0 26 -16.5 39.5t-47.5 13.5h-131v-107z" />
    <glyph glyph-name="macron" unicode="&#xaf;" horiz-adv-x="2048" 
d="M645 1445h758v-182h-758v182z" />
    <glyph glyph-name="degree" unicode="&#xb0;" horiz-adv-x="739" 
d="M218 898q-69 40 -109 108.5t-40 150.5q0 81 40 149.5t109 108t152 39.5t151.5 -39.5t108.5 -108t40 -149.5q0 -82 -40 -150.5t-108.5 -108.5t-151.5 -40t-152 40zM427.5 1098.5q23.5 23.5 23.5 58.5q0 33 -23.5 56.5t-57.5 23.5t-58 -23.5t-24 -56.5q0 -34 24 -58t58 -24
t57.5 23.5z" />
    <glyph glyph-name="plusminus" unicode="&#xb1;" 
d="M259 273h1086v-273h-1086v273zM1345 1099v-273h-407v-406h-272v406h-407v273h407v407h272v-407h407z" />
    <glyph glyph-name="uni00B2" unicode="&#xb2;" horiz-adv-x="739" 
d="M149 1065.5q34 47.5 79.5 71.5t115.5 49q58 20 83 34.5t25 39.5q0 47 -91 47q-110 0 -202 -67l-63 122q129 92 280 92q107 0 169.5 -45t62.5 -133q0 -64 -33 -104t-77.5 -60.5t-112.5 -40.5q-53 -15 -79.5 -27.5t-31.5 -32.5h342l-22 -132h-479v64q0 75 34 122.5z" />
    <glyph glyph-name="uni00B3" unicode="&#xb3;" horiz-adv-x="739" 
d="M582 1174.5q40 -41.5 40 -109.5q0 -64 -33.5 -111t-90.5 -71.5t-126 -24.5q-93 0 -161 26t-124 74l62 120q43 -33 98 -53t113 -20q56 0 81 19.5t25 51.5q0 66 -122 66h-91v11l103 148h-229l21 133h462v-8l-146 -198q78 -12 118 -53.5z" />
    <glyph glyph-name="acute" unicode="&#xb4;" horiz-adv-x="2048" 
d="M870 1183l196 371h435v-18l-412 -372h-219v19z" />
    <glyph glyph-name="uni00B5" unicode="&#xb5;" 
d="M1326 1060v-1060h-219l-11 53q-139 -73 -290 -73q-131 0 -255 55v-547h-273v1572h273v-746q113 -62 255 -62q133 0 247 61v747h273z" />
    <glyph glyph-name="paragraph" unicode="&#xb6;" horiz-adv-x="1741" 
d="M1536 -335h-291v1496h-196v-1496h-291v886h-190q-139 0 -248.5 58t-171 159t-61.5 226q0 122 61.5 222.5t171 159t248.5 58.5h968v-1769zM758 1161h-163q-95 0 -147 -42t-52 -125q0 -81 52.5 -126t146.5 -45h163v338z" />
    <glyph glyph-name="periodcentered" unicode="&#xb7;" horiz-adv-x="685" 
d="M213 454.5q-50 50.5 -50 133.5q0 78 50 127t132 49q52 0 93 -22.5t63.5 -62.5t22.5 -91q0 -83 -49.5 -133.5t-129.5 -50.5q-82 0 -132 50.5z" />
    <glyph glyph-name="cedilla" unicode="&#xb8;" horiz-adv-x="2048" 
d="M749 -297l333 378l138 -18l-196 -495z" />
    <glyph glyph-name="uni00B9" unicode="&#xb9;" horiz-adv-x="739" 
d="M448 1011h182l-22 -132h-499l23 132h173v290h-196l23 133h316v-423z" />
    <glyph glyph-name="ordmasculine" unicode="&#xba;" horiz-adv-x="1429" 
d="M410 422q-139 70 -221 195.5t-82 285.5t82 285.5t221 195t304 69.5q166 0 305 -69.5t220.5 -195t81.5 -285.5t-81.5 -285.5t-220.5 -195.5t-305 -70q-165 0 -304 70zM870.5 659q70.5 35 111.5 98.5t41 145.5t-41 145t-111.5 97.5t-156.5 34.5t-156 -34.5t-110.5 -97.5
t-40.5 -145t40.5 -145.5t110.5 -98.5t156 -35t156.5 35zM191 244h1047v-244h-1047v244z" />
    <glyph glyph-name="guillemotright" unicode="&#xbb;" horiz-adv-x="1559" 
d="M444 18h-336l408 512l-408 512h336l411 -512zM1046 18h-336l408 512l-408 512h336l411 -512z" />
    <glyph glyph-name="onequarter" unicode="&#xbc;" horiz-adv-x="1610" 
d="M125 1011h173v290h-196l23 133h316v-423h182l-22 -132h-499zM1279 1434h227l-1175 -1434h-227zM1539 232l-22 -132h-79v-92h-146v92h-345v68l291 395h200v-331h101zM1129 232h163v237h-4z" />
    <glyph glyph-name="onehalf" unicode="&#xbd;" 
d="M1276 1434h227l-1175 -1434h-227zM132 1011h173v290h-196l23 133h316v-423h182l-22 -132h-499zM1450 300q-33 -40 -77.5 -60.5t-112.5 -40.5q-53 -15 -79.5 -27.5t-31.5 -32.5h342l-22 -132h-479v64q0 75 34 122.5t79.5 71.5t115.5 49q58 20 83 34.5t25 39.5q0 47 -91 47
q-110 0 -202 -67l-63 122q129 92 280 92q107 0 169.5 -45t62.5 -133q0 -64 -33 -104z" />
    <glyph glyph-name="threequarters" unicode="&#xbe;" 
d="M441 1024.5q25 19.5 25 51.5q0 66 -122 66h-91v11l103 148h-229l21 133h462v-8l-146 -198q78 -12 118 -53.5t40 -109.5q0 -64 -33.5 -111t-90.5 -71.5t-126 -24.5q-93 0 -161 26t-124 74l62 120q43 -33 98 -53t113 -20q56 0 81 19.5zM1276 1434h227l-1175 -1434h-227z
M1528 231l-22 -132h-79v-92h-146v92h-345v68l291 395h200v-331h101zM1118 231h163v237h-4z" />
    <glyph glyph-name="questiondown" unicode="&#xbf;" horiz-adv-x="1225" 
d="M603 742.5q-41 22.5 -63.5 62.5t-22.5 91q0 83 49.5 133.5t129.5 50.5q82 0 132 -50.5t50 -133.5q0 -78 -50 -127t-132 -49q-52 0 -93 22.5zM1112 -306q-91 -38 -211 -63t-254 -25q-178 0 -297.5 48.5t-178 138t-58.5 212.5q0 115 56.5 213.5t162 164.5t247.5 85l10 140
h218l31 -378q-68 11 -141 11q-141 0 -217 -52t-76 -143q0 -90 73 -137.5t215 -47.5q191 0 370 70z" />
    <glyph glyph-name="Agrave" unicode="&#xc0;" horiz-adv-x="1805" 
d="M1406 0l-132 382h-739l-130 -382h-323l506 1434h629l506 -1434h-317zM627 655h553l-174 506h-207zM577 1598v285h19l645 -188l-49 -159z" />
    <glyph glyph-name="Aacute" unicode="&#xc1;" horiz-adv-x="1805" 
d="M1406 0l-132 382h-739l-130 -382h-323l506 1434h629l506 -1434h-317zM627 655h553l-174 506h-207zM563 1700l645 188h19v-285l-615 -62z" />
    <glyph glyph-name="Acircumflex" unicode="&#xc2;" horiz-adv-x="1764" 
d="M1406 0l-132 382h-739l-130 -382h-323l506 1434h629l506 -1434h-317zM627 655h553l-174 506h-207zM457 1699l436 190h18l436 -190l-45 -157h-18l-382 99l-382 -99h-18z" />
    <glyph glyph-name="Atilde" unicode="&#xc3;" horiz-adv-x="1800" 
d="M1406 0l-132 382h-739l-130 -382h-323l506 1434h629l506 -1434h-317zM627 655h553l-174 506h-207zM986 1554q-45 18 -75.5 42.5t-69.5 63.5q-39 40 -66 59t-59 19q-58 0 -58 -72v-110h-183v126q0 65 26.5 119t81 87t133.5 33q57 0 101.5 -17.5t75.5 -42.5t70 -64
q39 -40 66 -59t59 -19q58 0 58 72v109h182v-125q0 -65 -26.5 -119t-80.5 -87t-133 -33q-57 0 -102 18z" />
    <glyph glyph-name="Adieresis" unicode="&#xc4;" horiz-adv-x="1800" 
d="M1406 0l-132 382h-739l-130 -382h-323l506 1434h629l506 -1434h-317zM627 655h553l-174 506h-207zM606.5 1572.5q-38.5 22.5 -61 61.5t-22.5 84q0 46 22.5 84.5t61 61t84.5 22.5t84.5 -22.5t61 -61t22.5 -84.5q0 -45 -22.5 -84t-61 -61.5t-84.5 -22.5t-84.5 22.5z
M1028.5 1572.5q-38.5 22.5 -61 61.5t-22.5 84q0 46 22.5 84.5t61 61t84.5 22.5t84.5 -22.5t61 -61t22.5 -84.5q0 -45 -22.5 -84t-61 -61.5t-84.5 -22.5t-84.5 22.5z" />
    <glyph glyph-name="Aring" unicode="&#xc5;" horiz-adv-x="1800" 
d="M1406 0l-132 382h-739l-130 -382h-323l506 1434h629l506 -1434h-317zM627 655h553l-174 506h-207zM607 1583q-90 47 -90 133q0 85 90 131t295 46q204 0 293.5 -46t89.5 -131q0 -86 -88.5 -133t-294.5 -47q-205 0 -295 47zM1005 1672q36 18 36 44q0 25 -36 42t-105 17
q-70 0 -106 -17t-36 -42q0 -27 36 -44.5t106 -17.5q69 0 105 18z" />
    <glyph glyph-name="AE" unicode="&#xc6;" horiz-adv-x="2498" 
d="M2346 1161h-976v-236h563v-273h-563v-379h976v-273h-1285v382h-526l-130 -382h-323l506 1434h1758v-273zM627 655h434v506h-262z" />
    <glyph glyph-name="Ccedilla" unicode="&#xc7;" horiz-adv-x="1693" 
d="M1357.5 76.5q-138.5 -71.5 -319.5 -90.5l-166 -418l-275 135l246 279q-218 13 -381.5 108.5t-252.5 258t-89 370.5q0 220 106 387t287.5 257.5t401.5 90.5q399 0 656 -260l-190 -234q-199 203 -463 203q-139 0 -245.5 -54.5t-165.5 -155t-59 -234.5q0 -135 61.5 -237
t172.5 -157t256 -55q167 0 281.5 67t197.5 164l192 -230q-113 -123 -251.5 -194.5z" />
    <glyph glyph-name="Egrave" unicode="&#xc8;" horiz-adv-x="1642" 
d="M205 1434h1285v-273h-976v-236h563v-273h-563v-379h976v-273h-1285v1434zM525 1598v285h19l645 -188l-49 -159z" />
    <glyph glyph-name="Eacute" unicode="&#xc9;" horiz-adv-x="1642" 
d="M205 1434h1285v-273h-976v-236h563v-273h-563v-379h976v-273h-1285v1434zM511 1700l645 188h19v-285l-615 -62z" />
    <glyph glyph-name="Ecircumflex" unicode="&#xca;" horiz-adv-x="1642" 
d="M205 1434h1285v-273h-976v-236h563v-273h-563v-379h976v-273h-1285v1434zM405 1699l436 190h18l436 -190l-45 -157h-18l-382 99l-382 -99h-18z" />
    <glyph glyph-name="Edieresis" unicode="&#xcb;" horiz-adv-x="1642" 
d="M205 1434h1285v-273h-976v-236h563v-273h-563v-379h976v-273h-1285v1434zM554.5 1572.5q-38.5 22.5 -61 61.5t-22.5 84q0 46 22.5 84.5t61 61t84.5 22.5t84.5 -22.5t61 -61t22.5 -84.5q0 -45 -22.5 -84t-61 -61.5t-84.5 -22.5t-84.5 22.5zM976.5 1572.5
q-38.5 22.5 -61 61.5t-22.5 84q0 46 22.5 84.5t61 61t84.5 22.5t84.5 -22.5t61 -61t22.5 -84.5q0 -45 -22.5 -84t-61 -61.5t-84.5 -22.5t-84.5 22.5z" />
    <glyph glyph-name="Igrave" unicode="&#xcc;" horiz-adv-x="718" 
d="M205 1434h309v-1434h-309v1434zM34 1598v285h19l645 -188l-49 -159z" />
    <glyph glyph-name="Iacute" unicode="&#xcd;" horiz-adv-x="718" 
d="M205 1434h309v-1434h-309v1434zM20 1700l645 188h19v-285l-615 -62z" />
    <glyph glyph-name="Icircumflex" unicode="&#xce;" horiz-adv-x="718" 
d="M205 1434h309v-1434h-309v1434zM-86 1699l436 190h18l436 -190l-45 -157h-18l-382 99l-382 -99h-18z" />
    <glyph glyph-name="Idieresis" unicode="&#xcf;" horiz-adv-x="718" 
d="M205 1434h309v-1434h-309v1434zM63.5 1572.5q-38.5 22.5 -61 61.5t-22.5 84q0 46 22.5 84.5t61 61t84.5 22.5t84.5 -22.5t61 -61t22.5 -84.5q0 -45 -22.5 -84t-61 -61.5t-84.5 -22.5t-84.5 22.5zM485.5 1572.5q-38.5 22.5 -61 61.5t-22.5 84q0 46 22.5 84.5t61 61
t84.5 22.5t84.5 -22.5t61 -61t22.5 -84.5q0 -45 -22.5 -84t-61 -61.5t-84.5 -22.5t-84.5 22.5z" />
    <glyph glyph-name="Eth" unicode="&#xd0;" horiz-adv-x="1819" 
d="M1347.5 1344q170.5 -90 260.5 -251t90 -369q0 -213 -89.5 -377t-257 -255.5t-393.5 -91.5h-753v625h-185v201h185v608h739q233 0 403.5 -90zM1153.5 327q106.5 54 162 155t55.5 242q0 220 -118.5 328.5t-355.5 108.5h-383v-335h492v-201h-492v-352h383q150 0 256.5 54z
" />
    <glyph glyph-name="Ntilde" unicode="&#xd1;" horiz-adv-x="1792" 
d="M205 1434h570l494 -452h9v452h309v-1434h-309v550l-614 575h-150v-1125h-309v1434zM981 1554q-45 18 -75.5 42.5t-69.5 63.5q-39 40 -66 59t-59 19q-58 0 -58 -72v-110h-183v126q0 65 26.5 119t81 87t133.5 33q57 0 101.5 -17.5t75.5 -42.5t70 -64q39 -40 66 -59t59 -19
q58 0 58 72v109h182v-125q0 -65 -26.5 -119t-80.5 -87t-133 -33q-57 0 -102 18z" />
    <glyph glyph-name="Ograve" unicode="&#xd2;" horiz-adv-x="1824" 
d="M515 74q-182 94 -288.5 262.5t-106.5 380.5t106.5 380t288.5 262.5t399 94.5q218 0 398.5 -94.5t285.5 -262.5t105 -380t-105 -380.5t-285.5 -262.5t-398.5 -94q-217 0 -399 94zM1147.5 326q105.5 56 167 158t61.5 233q0 129 -60.5 230.5t-166.5 158.5t-235 57
q-131 0 -237.5 -57t-167.5 -158.5t-61 -230.5q0 -131 62 -233t168.5 -158t235.5 -56q128 0 233.5 56zM587 1598v285h19l645 -188l-49 -159z" />
    <glyph glyph-name="Oacute" unicode="&#xd3;" horiz-adv-x="1821" 
d="M513 74q-182 94 -288.5 262.5t-106.5 380.5t106.5 380t288.5 262.5t399 94.5q218 0 398.5 -94.5t285.5 -262.5t105 -380t-105 -380.5t-285.5 -262.5t-398.5 -94q-217 0 -399 94zM1145.5 326q105.5 56 167 158t61.5 233q0 129 -60.5 230.5t-166.5 158.5t-235 57
q-131 0 -237.5 -57t-167.5 -158.5t-61 -230.5q0 -131 62 -233t168.5 -158t235.5 -56q128 0 233.5 56zM570 1700l645 188h19v-285l-615 -62z" />
    <glyph glyph-name="Ocircumflex" unicode="&#xd4;" horiz-adv-x="1824" 
d="M515 74q-182 94 -288.5 262.5t-106.5 380.5t106.5 380t288.5 262.5t399 94.5q218 0 398.5 -94.5t285.5 -262.5t105 -380t-105 -380.5t-285.5 -262.5t-398.5 -94q-217 0 -399 94zM1147.5 326q105.5 56 167 158t61.5 233q0 129 -60.5 230.5t-166.5 158.5t-235 57
q-131 0 -237.5 -57t-167.5 -158.5t-61 -230.5q0 -131 62 -233t168.5 -158t235.5 -56q128 0 233.5 56zM467 1699l436 190h18l436 -190l-45 -157h-18l-382 99l-382 -99h-18z" />
    <glyph glyph-name="Otilde" unicode="&#xd5;" horiz-adv-x="1824" 
d="M515 74q-182 94 -288.5 262.5t-106.5 380.5t106.5 380t288.5 262.5t399 94.5q218 0 398.5 -94.5t285.5 -262.5t105 -380t-105 -380.5t-285.5 -262.5t-398.5 -94q-217 0 -399 94zM1147.5 326q105.5 56 167 158t61.5 233q0 129 -60.5 230.5t-166.5 158.5t-235 57
q-131 0 -237.5 -57t-167.5 -158.5t-61 -230.5q0 -131 62 -233t168.5 -158t235.5 -56q128 0 233.5 56zM996 1554q-45 18 -75.5 42.5t-69.5 63.5q-39 40 -66 59t-59 19q-58 0 -58 -72v-110h-183v126q0 65 26.5 119t81 87t133.5 33q57 0 101.5 -17.5t75.5 -42.5t70 -64
q39 -40 66 -59t59 -19q58 0 58 72v109h182v-125q0 -65 -26.5 -119t-80.5 -87t-133 -33q-57 0 -102 18z" />
    <glyph glyph-name="Odieresis" unicode="&#xd6;" horiz-adv-x="1824" 
d="M515 74q-182 94 -288.5 262.5t-106.5 380.5t106.5 380t288.5 262.5t399 94.5q218 0 398.5 -94.5t285.5 -262.5t105 -380t-105 -380.5t-285.5 -262.5t-398.5 -94q-217 0 -399 94zM1147.5 326q105.5 56 167 158t61.5 233q0 129 -60.5 230.5t-166.5 158.5t-235 57
q-131 0 -237.5 -57t-167.5 -158.5t-61 -230.5q0 -131 62 -233t168.5 -158t235.5 -56q128 0 233.5 56zM616.5 1572.5q-38.5 22.5 -61 61.5t-22.5 84q0 46 22.5 84.5t61 61t84.5 22.5t84.5 -22.5t61 -61t22.5 -84.5q0 -45 -22.5 -84t-61 -61.5t-84.5 -22.5t-84.5 22.5z
M1038.5 1572.5q-38.5 22.5 -61 61.5t-22.5 84q0 46 22.5 84.5t61 61t84.5 22.5t84.5 -22.5t61 -61t22.5 -84.5q0 -45 -22.5 -84t-61 -61.5t-84.5 -22.5t-84.5 22.5z" />
    <glyph glyph-name="multiply" unicode="&#xd7;" 
d="M1356 1080l-363 -363l363 -363l-182 -182l-363 363l-363 -363l-182 182l363 363l-363 363l182 182l363 -363l363 363z" />
    <glyph glyph-name="Oslash" unicode="&#xd8;" horiz-adv-x="1824" 
d="M1503 1219q95 -98 147.5 -226t52.5 -276q0 -212 -105 -380.5t-285.5 -262.5t-398.5 -94q-124 0 -238.5 31.5t-211.5 91.5l-95 -103h-249l201 216q-96 98 -148.5 225.5t-52.5 275.5q0 212 106.5 380t288.5 262.5t399 94.5q123 0 237 -31.5t210 -90.5l95 102h247zM536 446
l614 659q-105 58 -236 58t-237.5 -57t-167.5 -158.5t-61 -230.5q0 -156 88 -271zM1353.5 863.5q-22.5 68.5 -65.5 124.5l-614 -660q110 -58 240 -58q128 0 233.5 56t167 158t61.5 233q0 78 -22.5 146.5z" />
    <glyph glyph-name="Ugrave" unicode="&#xd9;" horiz-adv-x="1759" 
d="M503 50.5q-156 70.5 -245.5 218.5t-89.5 371v794h309v-773q0 -198 96.5 -303.5t287.5 -105.5q193 0 289.5 105.5t96.5 303.5v773h309v-794q0 -223 -90 -371t-246.5 -218.5t-358.5 -70.5t-358 70.5zM539 1598v285h19l645 -188l-49 -159z" />
    <glyph glyph-name="Uacute" unicode="&#xda;" horiz-adv-x="1723" 
d="M503 50.5q-156 70.5 -245.5 218.5t-89.5 371v794h309v-773q0 -198 96.5 -303.5t287.5 -105.5q193 0 289.5 105.5t96.5 303.5v773h309v-794q0 -223 -90 -371t-246.5 -218.5t-358.5 -70.5t-358 70.5zM524 1700l645 188h19v-285l-615 -62z" />
    <glyph glyph-name="Ucircumflex" unicode="&#xdb;" horiz-adv-x="1723" 
d="M503 50.5q-156 70.5 -245.5 218.5t-89.5 371v794h309v-773q0 -198 96.5 -303.5t287.5 -105.5q193 0 289.5 105.5t96.5 303.5v773h309v-794q0 -223 -90 -371t-246.5 -218.5t-358.5 -70.5t-358 70.5zM419 1699l436 190h18l436 -190l-45 -157h-18l-382 99l-382 -99h-18z" />
    <glyph glyph-name="Udieresis" unicode="&#xdc;" horiz-adv-x="1723" 
d="M503 50.5q-156 70.5 -245.5 218.5t-89.5 371v794h309v-773q0 -198 96.5 -303.5t287.5 -105.5q193 0 289.5 105.5t96.5 303.5v773h309v-794q0 -223 -90 -371t-246.5 -218.5t-358.5 -70.5t-358 70.5zM568.5 1572.5q-38.5 22.5 -61 61.5t-22.5 84q0 46 22.5 84.5t61 61
t84.5 22.5t84.5 -22.5t61 -61t22.5 -84.5q0 -45 -22.5 -84t-61 -61.5t-84.5 -22.5t-84.5 22.5zM990.5 1572.5q-38.5 22.5 -61 61.5t-22.5 84q0 46 22.5 84.5t61 61t84.5 22.5t84.5 -22.5t61 -61t22.5 -84.5q0 -45 -22.5 -84t-61 -61.5t-84.5 -22.5t-84.5 22.5z" />
    <glyph glyph-name="Yacute" unicode="&#xdd;" horiz-adv-x="1617" 
d="M1553 1434l-594 -960v-474h-309v465l-586 969h373l330 -582h74l340 582h372zM471 1700l645 188h19v-285l-615 -62z" />
    <glyph glyph-name="Thorn" unicode="&#xde;" horiz-adv-x="1678" 
d="M514 1434v-256h603q138 0 246 -57.5t168 -157t60 -219.5q0 -123 -59.5 -223.5t-167.5 -158t-247 -57.5h-603v-305h-309v1434h309zM1232 621.5q50 43.5 50 122.5t-49.5 120.5t-142.5 41.5h-576v-328h576q92 0 142 43.5z" />
    <glyph glyph-name="germandbls" unicode="&#xdf;" horiz-adv-x="1668" 
d="M334.5 1406.5q157.5 149.5 448.5 149.5q154 0 268 -45.5t174 -125.5t60 -181q0 -93 -40 -159t-93.5 -105t-131.5 -82q-57 -31 -81.5 -49.5t-24.5 -40.5q0 -25 18.5 -39.5t65.5 -24.5l265 -55q166 -35 239 -108t73 -199q0 -101 -58.5 -183t-173.5 -130.5t-278 -48.5
q-197 0 -369 61v273q81 -40 176.5 -64.5t195.5 -24.5q110 0 163 27t53 70q0 25 -17 39.5t-58 21.5l-271 52q-154 29 -229.5 106.5t-75.5 209.5q0 91 36 152.5t85 97t123 73.5q62 32 89.5 54t27.5 53q0 28 -24 51.5t-71.5 37.5t-115.5 14q-149 0 -232.5 -82t-83.5 -252v-1462
h-290v1483q0 286 157.5 435.5z" />
    <glyph glyph-name="agrave" unicode="&#xe0;" horiz-adv-x="1314" 
d="M904.5 1033q118.5 -48 182.5 -139.5t64 -218.5v-675h-273l-6 100q-81 -54 -169.5 -87t-201.5 -33q-123 0 -214 39t-140.5 114t-49.5 181q0 160 117 244.5t340 84.5h306v19q0 86 -68 129.5t-202 43.5q-104 0 -201.5 -23t-171.5 -59v249q88 37 193.5 58t215.5 21
q160 0 278.5 -48zM444.5 236q47.5 -38 139.5 -38q71 0 137 23t139 65v174h-279q-100 0 -142 -29t-42 -88q0 -69 47.5 -107zM528 1164l-412 372v18h435l196 -371v-19h-219z" />
    <glyph glyph-name="aacute" unicode="&#xe1;" horiz-adv-x="1314" 
d="M904.5 1033q118.5 -48 182.5 -139.5t64 -218.5v-675h-273l-6 100q-81 -54 -169.5 -87t-201.5 -33q-123 0 -214 39t-140.5 114t-49.5 181q0 160 117 244.5t340 84.5h306v19q0 86 -68 129.5t-202 43.5q-104 0 -201.5 -23t-171.5 -59v249q88 37 193.5 58t215.5 21
q160 0 278.5 -48zM444.5 236q47.5 -38 139.5 -38q71 0 137 23t139 65v174h-279q-100 0 -142 -29t-42 -88q0 -69 47.5 -107zM460 1183l196 371h435v-18l-412 -372h-219v19z" />
    <glyph glyph-name="acircumflex" unicode="&#xe2;" horiz-adv-x="1314" 
d="M904.5 1033q118.5 -48 182.5 -139.5t64 -218.5v-675h-273l-6 100q-81 -54 -169.5 -87t-201.5 -33q-123 0 -214 39t-140.5 114t-49.5 181q0 160 117 244.5t340 84.5h306v19q0 86 -68 129.5t-202 43.5q-104 0 -201.5 -23t-171.5 -59v249q88 37 193.5 58t215.5 21
q160 0 278.5 -48zM444.5 236q47.5 -38 139.5 -38q71 0 137 23t139 65v174h-279q-100 0 -142 -29t-42 -88q0 -69 47.5 -107zM187 1183l302 371h252l302 -371v-19h-196l-232 156l-232 -156h-196v19z" />
    <glyph glyph-name="atilde" unicode="&#xe3;" horiz-adv-x="1314" 
d="M904.5 1033q118.5 -48 182.5 -139.5t64 -218.5v-675h-273l-6 100q-81 -54 -169.5 -87t-201.5 -33q-123 0 -214 39t-140.5 114t-49.5 181q0 160 117 244.5t340 84.5h306v19q0 86 -68 129.5t-202 43.5q-104 0 -201.5 -23t-171.5 -59v249q88 37 193.5 58t215.5 21
q160 0 278.5 -48zM444.5 236q47.5 -38 139.5 -38q71 0 137 23t139 65v174h-279q-100 0 -142 -29t-42 -88q0 -69 47.5 -107zM698.5 1182.5q-44.5 18.5 -75 44t-69.5 66.5q-38 41 -65 61t-60 20q-58 0 -58 -73v-117h-183v134q0 65 26.5 119t80.5 86.5t134 32.5
q58 0 102.5 -18.5t75 -44t68.5 -65.5q41 -43 67 -62t59 -19q58 0 58 73v117h182v-134q0 -65 -26.5 -119t-80.5 -87t-133 -33q-58 0 -102.5 18.5z" />
    <glyph glyph-name="adieresis" unicode="&#xe4;" horiz-adv-x="1314" 
d="M904.5 1033q118.5 -48 182.5 -139.5t64 -218.5v-675h-273l-6 100q-81 -54 -169.5 -87t-201.5 -33q-123 0 -214 39t-140.5 114t-49.5 181q0 160 117 244.5t340 84.5h306v19q0 86 -68 129.5t-202 43.5q-104 0 -201.5 -23t-171.5 -59v249q88 37 193.5 58t215.5 21
q160 0 278.5 -48zM444.5 236q47.5 -38 139.5 -38q71 0 137 23t139 65v174h-279q-100 0 -142 -29t-42 -88q0 -69 47.5 -107zM333.5 1210.5q-38.5 22.5 -61 61.5t-22.5 84q0 46 22.5 84.5t61 61t84.5 22.5t84.5 -22.5t61 -61t22.5 -84.5q0 -45 -22.5 -84t-61 -61.5
t-84.5 -22.5t-84.5 22.5zM728.5 1209.5q-38.5 22.5 -61 61.5t-22.5 84q0 46 22.5 84.5t61 61t84.5 22.5t84.5 -22.5t61 -61t22.5 -84.5q0 -45 -22.5 -84t-61 -61.5t-84.5 -22.5t-84.5 22.5z" />
    <glyph glyph-name="aring" unicode="&#xe5;" horiz-adv-x="1314" 
d="M904.5 1033q118.5 -48 182.5 -139.5t64 -218.5v-675h-273l-6 100q-81 -54 -169.5 -87t-201.5 -33q-123 0 -214 39t-140.5 114t-49.5 181q0 160 117 244.5t340 84.5h306v19q0 86 -68 129.5t-202 43.5q-104 0 -201.5 -23t-171.5 -59v249q88 37 193.5 58t215.5 21
q160 0 278.5 -48zM444.5 236q47.5 -38 139.5 -38q71 0 137 23t139 65v174h-279q-100 0 -142 -29t-42 -88q0 -69 47.5 -107zM406.5 1188q-86.5 24 -131.5 68t-45 103t45 103t131.5 68t208.5 24t208 -24t130.5 -68t44.5 -103q0 -58 -44.5 -102t-131 -68.5t-207.5 -24.5
q-122 0 -208.5 24zM719 1311.5q36 18.5 36 47.5t-36 47.5t-104 18.5q-70 0 -106 -18.5t-36 -47.5t36.5 -47.5t105.5 -18.5q68 0 104 18.5z" />
    <glyph glyph-name="ae" unicode="&#xe6;" horiz-adv-x="2150" 
d="M2032 442h-846q54 -226 392 -226q175 0 327 67v-245q-86 -28 -184 -43t-195 -15q-179 0 -309.5 50.5t-210.5 143.5q-87 -97 -200.5 -145.5t-279.5 -48.5q-125 0 -222.5 42t-152 119t-54.5 180q0 102 52.5 176.5t154 114.5t244.5 40h348q-6 83 -79.5 128.5t-208.5 45.5
q-190 0 -369 -71l-51 237q91 39 210.5 64t254.5 25q137 0 243.5 -34.5t175.5 -99.5q78 65 179.5 99.5t215.5 34.5q158 0 287 -72.5t203.5 -206.5t74.5 -312v-48zM1285.5 787q-73.5 -57 -98.5 -157v-5h561q-24 100 -96 159.5t-180 59.5q-113 0 -186.5 -57zM780.5 244
q76.5 31 133.5 95q-16 51 -22 98h-270q-115 0 -170 -26t-55 -78q0 -57 53 -88.5t154 -31.5q100 0 176.5 31z" />
    <glyph glyph-name="ccedilla" unicode="&#xe7;" horiz-adv-x="1285" 
d="M1037 43q-92 -39 -201 -54l-167 -421l-275 135l246 279q-165 12 -285.5 83t-184 188.5t-63.5 267.5q0 168 79.5 295t218 196t309.5 69q223 0 440 -123l-69 -272q-164 122 -355 122q-103 0 -175.5 -34t-110 -96.5t-37.5 -147.5t37 -147.5t107.5 -96.5t169.5 -34
q106 0 196.5 37.5t173.5 105.5l106 -258q-68 -55 -160 -94z" />
    <glyph glyph-name="egrave" unicode="&#xe8;" horiz-adv-x="1372" 
d="M1254 442h-846q54 -226 392 -226q175 0 327 67v-245q-86 -28 -184 -43t-195 -15q-212 0 -355.5 70t-214.5 195t-71 288t77.5 287.5t210.5 192.5t294 68q158 0 287 -72.5t203.5 -206.5t74.5 -312v-48zM506 785.5q-74 -58.5 -98 -160.5h562q-24 100 -96 159.5t-180 59.5
q-114 0 -188 -58.5zM613 1164l-412 372v18h435l196 -371v-19h-219z" />
    <glyph glyph-name="eacute" unicode="&#xe9;" horiz-adv-x="1372" 
d="M1254 442h-846q54 -226 392 -226q175 0 327 67v-245q-86 -28 -184 -43t-195 -15q-212 0 -355.5 70t-214.5 195t-71 288t77.5 287.5t210.5 192.5t294 68q158 0 287 -72.5t203.5 -206.5t74.5 -312v-48zM506 785.5q-74 -58.5 -98 -160.5h562q-24 100 -96 159.5t-180 59.5
q-114 0 -188 -58.5zM545 1183l196 371h435v-18l-412 -372h-219v19z" />
    <glyph glyph-name="ecircumflex" unicode="&#xea;" horiz-adv-x="1372" 
d="M1254 442h-846q54 -226 392 -226q175 0 327 67v-245q-86 -28 -184 -43t-195 -15q-212 0 -355.5 70t-214.5 195t-71 288t77.5 287.5t210.5 192.5t294 68q158 0 287 -72.5t203.5 -206.5t74.5 -312v-48zM506 785.5q-74 -58.5 -98 -160.5h562q-24 100 -96 159.5t-180 59.5
q-114 0 -188 -58.5zM272 1183l302 371h252l302 -371v-19h-196l-232 156l-232 -156h-196v19z" />
    <glyph glyph-name="edieresis" unicode="&#xeb;" horiz-adv-x="1372" 
d="M1254 442h-846q54 -226 392 -226q175 0 327 67v-245q-86 -28 -184 -43t-195 -15q-212 0 -355.5 70t-214.5 195t-71 288t77.5 287.5t210.5 192.5t294 68q158 0 287 -72.5t203.5 -206.5t74.5 -312v-48zM506 785.5q-74 -58.5 -98 -160.5h562q-24 100 -96 159.5t-180 59.5
q-114 0 -188 -58.5zM418.5 1210.5q-38.5 22.5 -61 61.5t-22.5 84q0 46 22.5 84.5t61 61t84.5 22.5t84.5 -22.5t61 -61t22.5 -84.5q0 -45 -22.5 -84t-61 -61.5t-84.5 -22.5t-84.5 22.5zM813.5 1209.5q-38.5 22.5 -61 61.5t-22.5 84q0 46 22.5 84.5t61 61t84.5 22.5
t84.5 -22.5t61 -61t22.5 -84.5q0 -45 -22.5 -84t-61 -61.5t-84.5 -22.5t-84.5 22.5z" />
    <glyph glyph-name="igrave" unicode="&#xec;" horiz-adv-x="623" 
d="M166 1060h291v-1060h-291v1060zM225 1164l-412 372v18h435l196 -371v-19h-219z" />
    <glyph glyph-name="iacute" unicode="&#xed;" horiz-adv-x="623" 
d="M166 1060h291v-1060h-291v1060zM157 1183l196 371h435v-18l-412 -372h-219v19z" />
    <glyph glyph-name="icircumflex" unicode="&#xee;" horiz-adv-x="623" 
d="M166 1060h291v-1060h-291v1060zM-116 1183l302 371h252l302 -371v-19h-196l-232 156l-232 -156h-196v19z" />
    <glyph glyph-name="idieresis" unicode="&#xef;" horiz-adv-x="623" 
d="M166 1060h291v-1060h-291v1060zM30.5 1210.5q-38.5 22.5 -61 61.5t-22.5 84q0 46 22.5 84.5t61 61t84.5 22.5t84.5 -22.5t61 -61t22.5 -84.5q0 -45 -22.5 -84t-61 -61.5t-84.5 -22.5t-84.5 22.5zM425.5 1209.5q-38.5 22.5 -61 61.5t-22.5 84q0 46 22.5 84.5t61 61
t84.5 22.5t84.5 -22.5t61 -61t22.5 -84.5q0 -45 -22.5 -84t-61 -61.5t-84.5 -22.5t-84.5 22.5z" />
    <glyph glyph-name="eth" unicode="&#xf0;" horiz-adv-x="1441" 
d="M1286 912.5q48 -149.5 48 -284.5q0 -199 -80.5 -346t-223 -224.5t-325.5 -77.5q-165 0 -302 70t-216.5 197.5t-79.5 291.5q0 158 81.5 281.5t215 192t284.5 68.5q69 0 128.5 -10t122.5 -32q-37 82 -93 173h-349v183h223q-51 69 -111 141h330q56 -70 104 -141h261v-183
h-149q83 -150 131 -299.5zM869.5 293q74.5 41 119.5 125.5t45 209.5q0 54 -6 106q-84 38 -160.5 56t-164.5 18q-86 0 -153.5 -34.5t-105 -97.5t-37.5 -146t38.5 -146t106 -97.5t153.5 -34.5q90 0 164.5 41z" />
    <glyph glyph-name="ntilde" unicode="&#xf1;" horiz-adv-x="1404" 
d="M1050.5 1029.5q94.5 -51.5 142.5 -147t48 -224.5v-658h-290v618q0 98 -59.5 153t-175.5 55q-131 0 -255 -56v-770h-290v1060h272l7 -112q175 133 371 133q135 0 229.5 -51.5zM785.5 1182.5q-44.5 18.5 -75 44t-69.5 66.5q-38 41 -65 61t-60 20q-58 0 -58 -73v-117h-183
v134q0 65 26.5 119t80.5 86.5t134 32.5q58 0 102.5 -18.5t75 -44t68.5 -65.5q41 -43 67 -62t59 -19q58 0 58 73v117h182v-134q0 -65 -26.5 -119t-80.5 -87t-133 -33q-58 0 -102.5 18.5z" />
    <glyph glyph-name="ograve" unicode="&#xf2;" horiz-adv-x="1429" 
d="M410 50q-139 70 -221 195.5t-82 285.5t82 285.5t221 195t304 69.5q166 0 305 -69.5t220.5 -195t81.5 -285.5t-81.5 -285.5t-220.5 -195.5t-305 -70q-165 0 -304 70zM870.5 287q70.5 35 111.5 98.5t41 145.5t-41 145t-111.5 97.5t-156.5 34.5t-156 -34.5t-110.5 -97.5
t-40.5 -145t40.5 -145.5t110.5 -98.5t156 -35t156.5 35zM627 1164l-412 372v18h435l196 -371v-19h-219z" />
    <glyph glyph-name="oacute" unicode="&#xf3;" horiz-adv-x="1429" 
d="M410 50q-139 70 -221 195.5t-82 285.5t82 285.5t221 195t304 69.5q166 0 305 -69.5t220.5 -195t81.5 -285.5t-81.5 -285.5t-220.5 -195.5t-305 -70q-165 0 -304 70zM870.5 287q70.5 35 111.5 98.5t41 145.5t-41 145t-111.5 97.5t-156.5 34.5t-156 -34.5t-110.5 -97.5
t-40.5 -145t40.5 -145.5t110.5 -98.5t156 -35t156.5 35zM559 1183l196 371h435v-18l-412 -372h-219v19z" />
    <glyph glyph-name="ocircumflex" unicode="&#xf4;" horiz-adv-x="1429" 
d="M410 50q-139 70 -221 195.5t-82 285.5t82 285.5t221 195t304 69.5q166 0 305 -69.5t220.5 -195t81.5 -285.5t-81.5 -285.5t-220.5 -195.5t-305 -70q-165 0 -304 70zM870.5 287q70.5 35 111.5 98.5t41 145.5t-41 145t-111.5 97.5t-156.5 34.5t-156 -34.5t-110.5 -97.5
t-40.5 -145t40.5 -145.5t110.5 -98.5t156 -35t156.5 35zM286 1183l302 371h252l302 -371v-19h-196l-232 156l-232 -156h-196v19z" />
    <glyph glyph-name="otilde" unicode="&#xf5;" horiz-adv-x="1429" 
d="M410 50q-139 70 -221 195.5t-82 285.5t82 285.5t221 195t304 69.5q166 0 305 -69.5t220.5 -195t81.5 -285.5t-81.5 -285.5t-220.5 -195.5t-305 -70q-165 0 -304 70zM870.5 287q70.5 35 111.5 98.5t41 145.5t-41 145t-111.5 97.5t-156.5 34.5t-156 -34.5t-110.5 -97.5
t-40.5 -145t40.5 -145.5t110.5 -98.5t156 -35t156.5 35zM797.5 1182.5q-44.5 18.5 -75 44t-69.5 66.5q-38 41 -65 61t-60 20q-58 0 -58 -73v-117h-183v134q0 65 26.5 119t80.5 86.5t134 32.5q58 0 102.5 -18.5t75 -44t68.5 -65.5q41 -43 67 -62t59 -19q58 0 58 73v117h182
v-134q0 -65 -26.5 -119t-80.5 -87t-133 -33q-58 0 -102.5 18.5z" />
    <glyph glyph-name="odieresis" unicode="&#xf6;" horiz-adv-x="1429" 
d="M410 50q-139 70 -221 195.5t-82 285.5t82 285.5t221 195t304 69.5q166 0 305 -69.5t220.5 -195t81.5 -285.5t-81.5 -285.5t-220.5 -195.5t-305 -70q-165 0 -304 70zM870.5 287q70.5 35 111.5 98.5t41 145.5t-41 145t-111.5 97.5t-156.5 34.5t-156 -34.5t-110.5 -97.5
t-40.5 -145t40.5 -145.5t110.5 -98.5t156 -35t156.5 35zM432.5 1210.5q-38.5 22.5 -61 61.5t-22.5 84q0 46 22.5 84.5t61 61t84.5 22.5t84.5 -22.5t61 -61t22.5 -84.5q0 -45 -22.5 -84t-61 -61.5t-84.5 -22.5t-84.5 22.5zM827.5 1209.5q-38.5 22.5 -61 61.5t-22.5 84
q0 46 22.5 84.5t61 61t84.5 22.5t84.5 -22.5t61 -61t22.5 -84.5q0 -45 -22.5 -84t-61 -61.5t-84.5 -22.5t-84.5 22.5z" />
    <glyph glyph-name="divide" unicode="&#xf7;" 
d="M675 990.5q-50 50.5 -50 133.5q0 78 50 127t132 49q52 0 93 -22.5t63.5 -62.5t22.5 -91q0 -83 -49.5 -133.5t-129.5 -50.5q-82 0 -132 50.5zM259 853h1086v-273h-1086v273zM675 187.5q-50 50.5 -50 133.5q0 78 50 127t132 49q52 0 93 -22.5t63.5 -62.5t22.5 -91
q0 -83 -49.5 -133.5t-129.5 -50.5q-82 0 -132 50.5z" />
    <glyph glyph-name="oslash" unicode="&#xf8;" horiz-adv-x="1429" 
d="M1174 899q70 -72 108.5 -166t38.5 -202q0 -160 -81.5 -285.5t-220.5 -195.5t-305 -70q-170 0 -311 73l-49 -53h-247l148 162q-71 73 -109.5 166.5t-38.5 202.5q0 160 82 285.5t221 195t304 69.5q171 0 313 -74l48 53h246zM452 378l377 412q-52 18 -115 18
q-86 0 -156 -34.5t-110.5 -97.5t-40.5 -145q0 -88 45 -153zM977 683l-377 -413q53 -18 114 -18q86 0 156.5 35t111.5 98.5t41 145.5q0 85 -46 152z" />
    <glyph glyph-name="ugrave" unicode="&#xf9;" horiz-adv-x="1381" 
d="M1210 1060v-1060h-272l-7 111q-170 -131 -361 -131q-131 0 -222.5 51.5t-138 146.5t-46.5 224v658h291v-618q0 -98 56 -153t167 -55q124 0 243 55v771h290zM586 1164l-412 372v18h435l196 -371v-19h-219z" />
    <glyph glyph-name="uacute" unicode="&#xfa;" horiz-adv-x="1381" 
d="M1210 1060v-1060h-272l-7 111q-170 -131 -361 -131q-131 0 -222.5 51.5t-138 146.5t-46.5 224v658h291v-618q0 -98 56 -153t167 -55q124 0 243 55v771h290zM518 1183l196 371h435v-18l-412 -372h-219v19z" />
    <glyph glyph-name="ucircumflex" unicode="&#xfb;" horiz-adv-x="1381" 
d="M1210 1060v-1060h-272l-7 111q-170 -131 -361 -131q-131 0 -222.5 51.5t-138 146.5t-46.5 224v658h291v-618q0 -98 56 -153t167 -55q124 0 243 55v771h290zM245 1183l302 371h252l302 -371v-19h-196l-232 156l-232 -156h-196v19z" />
    <glyph glyph-name="udieresis" unicode="&#xfc;" horiz-adv-x="1381" 
d="M1210 1060v-1060h-272l-7 111q-170 -131 -361 -131q-131 0 -222.5 51.5t-138 146.5t-46.5 224v658h291v-618q0 -98 56 -153t167 -55q124 0 243 55v771h290zM391.5 1210.5q-38.5 22.5 -61 61.5t-22.5 84q0 46 22.5 84.5t61 61t84.5 22.5t84.5 -22.5t61 -61t22.5 -84.5
q0 -45 -22.5 -84t-61 -61.5t-84.5 -22.5t-84.5 22.5zM786.5 1209.5q-38.5 22.5 -61 61.5t-22.5 84q0 46 22.5 84.5t61 61t84.5 22.5t84.5 -22.5t61 -61t22.5 -84.5q0 -45 -22.5 -84t-61 -61.5t-84.5 -22.5t-84.5 22.5z" />
    <glyph glyph-name="yacute" unicode="&#xfd;" horiz-adv-x="1317" 
d="M1263 1060l-469 -1280q-112 -312 -446 -312q-93 0 -162.5 17.5t-131.5 48.5v258q107 -70 249 -70q171 0 229 155l51 123h-143l-386 1060h309l249 -729h94l248 729h309zM504 1183l196 371h435v-18l-412 -372h-219v19z" />
    <glyph glyph-name="thorn" unicode="&#xfe;" horiz-adv-x="1382" 
d="M1048 1014q112 -67 174.5 -191.5t62.5 -291.5t-62.5 -291.5t-174 -192t-255.5 -67.5q-103 0 -185.5 31t-153.5 82v-605h-291v2048h291v-569q72 51 154 82.5t185 31.5q143 0 255 -67zM906 311.5q80 77.5 80 219.5t-80 218.5t-218 76.5q-63 0 -120 -15t-114 -41v-481
q58 -26 114.5 -40.5t119.5 -14.5q138 0 218 77.5z" />
    <glyph glyph-name="ydieresis" unicode="&#xff;" horiz-adv-x="1317" 
d="M1263 1060l-469 -1280q-112 -312 -446 -312q-93 0 -162.5 17.5t-131.5 48.5v258q107 -70 249 -70q171 0 229 155l51 123h-143l-386 1060h309l249 -729h94l248 729h309zM377.5 1210.5q-38.5 22.5 -61 61.5t-22.5 84q0 46 22.5 84.5t61 61t84.5 22.5t84.5 -22.5t61 -61
t22.5 -84.5q0 -45 -22.5 -84t-61 -61.5t-84.5 -22.5t-84.5 22.5zM772.5 1209.5q-38.5 22.5 -61 61.5t-22.5 84q0 46 22.5 84.5t61 61t84.5 22.5t84.5 -22.5t61 -61t22.5 -84.5q0 -45 -22.5 -84t-61 -61.5t-84.5 -22.5t-84.5 22.5z" />
    <glyph glyph-name="Amacron" unicode="&#x100;" horiz-adv-x="1800" 
d="M1406 0l-132 382h-739l-130 -382h-323l506 1434h629l506 -1434h-317zM627 655h553l-174 506h-207zM523 1815h758v-201h-758v201z" />
    <glyph glyph-name="amacron" unicode="&#x101;" horiz-adv-x="1314" 
d="M904.5 1033q118.5 -48 182.5 -139.5t64 -218.5v-675h-273l-6 100q-81 -54 -169.5 -87t-201.5 -33q-123 0 -214 39t-140.5 114t-49.5 181q0 160 117 244.5t340 84.5h306v19q0 86 -68 129.5t-202 43.5q-104 0 -201.5 -23t-171.5 -59v249q88 37 193.5 58t215.5 21
q160 0 278.5 -48zM444.5 236q47.5 -38 139.5 -38q71 0 137 23t139 65v174h-279q-100 0 -142 -29t-42 -88q0 -69 47.5 -107zM236 1445h758v-182h-758v182z" />
    <glyph glyph-name="Abreve" unicode="&#x102;" horiz-adv-x="1805" 
d="M1406 0l-132 382h-739l-130 -382h-323l506 1434h629l506 -1434h-317zM627 655h553l-174 506h-207zM610.5 1627.5q-94.5 86.5 -94.5 259.5h273q0 -67 27 -97t86 -30q60 0 87 30t27 97h273q0 -173 -94.5 -259.5t-292.5 -86.5q-197 0 -291.5 86.5z" />
    <glyph glyph-name="abreve" unicode="&#x103;" horiz-adv-x="1314" 
d="M904.5 1033q118.5 -48 182.5 -139.5t64 -218.5v-675h-273l-6 100q-81 -54 -169.5 -87t-201.5 -33q-123 0 -214 39t-140.5 114t-49.5 181q0 160 117 244.5t340 84.5h306v19q0 86 -68 129.5t-202 43.5q-104 0 -201.5 -23t-171.5 -59v249q88 37 193.5 58t215.5 21
q160 0 278.5 -48zM444.5 236q47.5 -38 139.5 -38q71 0 137 23t139 65v174h-279q-100 0 -142 -29t-42 -88q0 -69 47.5 -107zM228 1552h257q0 -84 31 -125.5t99 -41.5t98.5 41.5t30.5 125.5h257q0 -386 -386 -386q-387 0 -387 386z" />
    <glyph glyph-name="Aogonek" unicode="&#x104;" horiz-adv-x="1800" 
d="M1722 0q-178 -195 -178 -440q0 -39 4 -72l-286 62q-1 132 49 245t140 205h-45l-132 382h-739l-130 -382h-323l506 1434h629l506 -1434h-1zM627 655h553l-174 506h-207z" />
    <glyph glyph-name="aogonek" unicode="&#x105;" horiz-adv-x="1314" 
d="M1151 0q-178 -195 -178 -440q0 -39 4 -72l-286 62q-1 132 49 245t140 205h-2l-6 100q-81 -54 -169.5 -87t-201.5 -33q-123 0 -214 39t-140.5 114t-49.5 181q0 160 117 244.5t340 84.5h306v19q0 86 -68 129.5t-202 43.5q-104 0 -201.5 -23t-171.5 -59v249q88 37 193.5 58
t215.5 21q160 0 278.5 -48t182.5 -139.5t64 -218.5v-675zM444.5 236q47.5 -38 139.5 -38q71 0 137 23t139 65v174h-279q-100 0 -142 -29t-42 -88q0 -69 47.5 -107z" />
    <glyph glyph-name="Cacute" unicode="&#x106;" horiz-adv-x="1693" 
d="M493.5 72.5q-178.5 92.5 -276 260t-97.5 386.5q0 220 106 387t287.5 257.5t401.5 90.5q399 0 656 -260l-190 -234q-199 203 -463 203q-139 0 -245.5 -54.5t-165.5 -155t-59 -234.5q0 -135 61.5 -237t172.5 -157t256 -55q167 0 281.5 67t197.5 164l192 -230
q-131 -143 -300 -217t-400 -74q-237 0 -415.5 92.5zM569 1700l645 188h19v-285l-615 -62z" />
    <glyph glyph-name="cacute" unicode="&#x107;" horiz-adv-x="1285" 
d="M387 48q-136 68 -208 191t-72 282q0 168 79.5 295t218 196t309.5 69q223 0 440 -123l-69 -272q-164 122 -355 122q-103 0 -175.5 -34t-110 -96.5t-37.5 -147.5t37 -147.5t107.5 -96.5t169.5 -34q106 0 196.5 37.5t173.5 105.5l106 -258q-88 -71 -213.5 -114t-276.5 -43
q-184 0 -320 68zM560 1183l196 371h435v-18l-412 -372h-219v19z" />
    <glyph glyph-name="Cdotaccent" unicode="&#x10a;" horiz-adv-x="1693" 
d="M493.5 72.5q-178.5 92.5 -276 260t-97.5 386.5q0 220 106 387t287.5 257.5t401.5 90.5q399 0 656 -260l-190 -234q-199 203 -463 203q-139 0 -245.5 -54.5t-165.5 -155t-59 -234.5q0 -135 61.5 -237t172.5 -157t256 -55q167 0 281.5 67t197.5 164l192 -230
q-131 -143 -300 -217t-400 -74q-237 0 -415.5 92.5zM823.5 1572.5q-38.5 22.5 -61 61.5t-22.5 84q0 46 22.5 84.5t61 61t84.5 22.5t84.5 -22.5t61 -61t22.5 -84.5q0 -45 -22.5 -84t-61 -61.5t-84.5 -22.5t-84.5 22.5z" />
    <glyph glyph-name="cdotaccent" unicode="&#x10b;" horiz-adv-x="1285" 
d="M387 48q-136 68 -208 191t-72 282q0 168 79.5 295t218 196t309.5 69q223 0 440 -123l-69 -272q-164 122 -355 122q-103 0 -175.5 -34t-110 -96.5t-37.5 -147.5t37 -147.5t107.5 -96.5t169.5 -34q106 0 196.5 37.5t173.5 105.5l106 -258q-88 -71 -213.5 -114t-276.5 -43
q-184 0 -320 68zM625 1204q-41 24 -65 65t-24 90t24 90.5t65 65.5t90 24t90 -24t65 -65.5t24 -90.5t-24 -90t-65 -65t-90 -24t-90 24z" />
    <glyph glyph-name="Ccaron" unicode="&#x10c;" horiz-adv-x="1693" 
d="M493.5 72.5q-178.5 92.5 -276 260t-97.5 386.5q0 220 106 387t287.5 257.5t401.5 90.5q399 0 656 -260l-190 -234q-199 203 -463 203q-139 0 -245.5 -54.5t-165.5 -155t-59 -234.5q0 -135 61.5 -237t172.5 -157t256 -55q167 0 281.5 67t197.5 164l192 -230
q-131 -143 -300 -217t-400 -74q-237 0 -415.5 92.5zM508 1897h18l382 -99l382 99h18l45 -157l-436 -190h-18l-436 190z" />
    <glyph glyph-name="ccaron" unicode="&#x10d;" horiz-adv-x="1285" 
d="M387 48q-136 68 -208 191t-72 282q0 168 79.5 295t218 196t309.5 69q223 0 440 -123l-69 -272q-164 122 -355 122q-103 0 -175.5 -34t-110 -96.5t-37.5 -147.5t37 -147.5t107.5 -96.5t169.5 -34q106 0 196.5 37.5t173.5 105.5l106 -258q-88 -71 -213.5 -114t-276.5 -43
q-184 0 -320 68zM287 1555h196l232 -156l232 156h196v-19l-302 -371h-252l-302 371v19z" />
    <glyph glyph-name="Dcaron" unicode="&#x10e;" horiz-adv-x="1819" 
d="M944 1434q233 0 403.5 -90t260.5 -251t90 -369q0 -213 -89.5 -377t-257 -255.5t-393.5 -91.5h-753v1434h739zM1153.5 327q106.5 54 162 155t55.5 242q0 220 -118.5 328.5t-355.5 108.5h-383v-888h383q150 0 256.5 54zM459 1897h18l382 -99l382 99h18l45 -157l-436 -190
h-18l-436 190z" />
    <glyph glyph-name="dcaron" unicode="&#x10f;" horiz-adv-x="1430" 
d="M962 1536h291v-1536h-273l-6 103q-76 -55 -163.5 -89t-198.5 -34q-145 0 -259.5 67.5t-180 192.5t-65.5 291q0 167 65.5 292t180 191.5t259.5 66.5q106 0 191 -31.5t159 -83.5v570zM1339 1536h291l-56 -362h-237zM446 370q39 -67 108.5 -101.5t161.5 -34.5q67 0 126.5 15
t119.5 41v480q-60 26 -119.5 41t-126.5 15q-92 0 -161.5 -33.5t-108.5 -100t-39 -161.5q0 -94 39 -161z" />
    <glyph glyph-name="Dcroat" unicode="&#x110;" horiz-adv-x="1819" 
d="M1347.5 1344q170.5 -90 260.5 -251t90 -369q0 -213 -89.5 -377t-257 -255.5t-393.5 -91.5h-753v625h-185v201h185v608h739q233 0 403.5 -90zM1153.5 327q106.5 54 162 155t55.5 242q0 220 -118.5 328.5t-355.5 108.5h-383v-335h492v-201h-492v-352h383q150 0 256.5 54z
" />
    <glyph glyph-name="dcroat" unicode="&#x111;" horiz-adv-x="1430" 
d="M1395 1212h-142v-1212h-273l-6 103q-76 -55 -163.5 -89t-198.5 -34q-145 0 -259.5 67.5t-180 192.5t-65.5 291q0 167 65.5 292t180 191.5t259.5 66.5q106 0 191 -31.5t159 -83.5v246h-375v183h375v141h291v-141h142v-183zM446 370q39 -67 108.5 -101.5t161.5 -34.5
q67 0 126.5 15t119.5 41v480q-60 26 -119.5 41t-126.5 15q-92 0 -161.5 -33.5t-108.5 -100t-39 -161.5q0 -94 39 -161z" />
    <glyph glyph-name="Emacron" unicode="&#x112;" horiz-adv-x="1642" 
d="M205 1434h1285v-273h-976v-236h563v-273h-563v-379h976v-273h-1285v1434zM471 1815h758v-201h-758v201z" />
    <glyph glyph-name="emacron" unicode="&#x113;" horiz-adv-x="1372" 
d="M1254 442h-846q54 -226 392 -226q175 0 327 67v-245q-86 -28 -184 -43t-195 -15q-212 0 -355.5 70t-214.5 195t-71 288t77.5 287.5t210.5 192.5t294 68q158 0 287 -72.5t203.5 -206.5t74.5 -312v-48zM506 785.5q-74 -58.5 -98 -160.5h562q-24 100 -96 159.5t-180 59.5
q-114 0 -188 -58.5zM321 1445h758v-182h-758v182z" />
    <glyph glyph-name="Edotaccent" unicode="&#x116;" horiz-adv-x="1642" 
d="M205 1434h1285v-273h-976v-236h563v-273h-563v-379h976v-273h-1285v1434zM765.5 1572.5q-38.5 22.5 -61 61.5t-22.5 84q0 46 22.5 84.5t61 61t84.5 22.5t84.5 -22.5t61 -61t22.5 -84.5q0 -45 -22.5 -84t-61 -61.5t-84.5 -22.5t-84.5 22.5z" />
    <glyph glyph-name="edotaccent" unicode="&#x117;" horiz-adv-x="1372" 
d="M1254 442h-846q54 -226 392 -226q175 0 327 67v-245q-86 -28 -184 -43t-195 -15q-212 0 -355.5 70t-214.5 195t-71 288t77.5 287.5t210.5 192.5t294 68q158 0 287 -72.5t203.5 -206.5t74.5 -312v-48zM506 785.5q-74 -58.5 -98 -160.5h562q-24 100 -96 159.5t-180 59.5
q-114 0 -188 -58.5zM615.5 1198.5q-38.5 22.5 -61 61.5t-22.5 84q0 46 22.5 84.5t61 61t84.5 22.5t84.5 -22.5t61 -61t22.5 -84.5q0 -45 -22.5 -84t-61 -61.5t-84.5 -22.5t-84.5 22.5z" />
    <glyph glyph-name="Eogonek" unicode="&#x118;" horiz-adv-x="1642" 
d="M514 1161v-236h563v-273h-563v-379h976v-273q-178 -195 -178 -440q0 -39 4 -72l-286 62q-1 132 49 245t140 205h-1014v1434h1285v-273h-976z" />
    <glyph glyph-name="eogonek" unicode="&#x119;" horiz-adv-x="1372" 
d="M1254 442h-846q54 -226 392 -226q175 0 327 67v-245q-64 -21 -154 -38h2q-178 -195 -178 -440q0 -39 4 -72l-286 62q-1 125 44 233.5t127 198.5q-191 10 -321 82.5t-194 193t-64 275.5q0 163 77.5 287.5t210.5 192.5t294 68q158 0 287 -72.5t203.5 -206.5t74.5 -312v-48z
M506 785.5q-74 -58.5 -98 -160.5h562q-24 100 -96 159.5t-180 59.5q-114 0 -188 -58.5z" />
    <glyph glyph-name="Ecaron" unicode="&#x11a;" horiz-adv-x="1642" 
d="M205 1434h1285v-273h-976v-236h563v-273h-563v-379h976v-273h-1285v1434zM450 1897h18l382 -99l382 99h18l45 -157l-436 -190h-18l-436 190z" />
    <glyph glyph-name="ecaron" unicode="&#x11b;" horiz-adv-x="1372" 
d="M1254 442h-846q54 -226 392 -226q175 0 327 67v-245q-86 -28 -184 -43t-195 -15q-212 0 -355.5 70t-214.5 195t-71 288t77.5 287.5t210.5 192.5t294 68q158 0 287 -72.5t203.5 -206.5t74.5 -312v-48zM506 785.5q-74 -58.5 -98 -160.5h562q-24 100 -96 159.5t-180 59.5
q-114 0 -188 -58.5zM272 1555h196l232 -156l232 156h196v-19l-302 -371h-252l-302 371v19z" />
    <glyph glyph-name="Gbreve" unicode="&#x11e;" horiz-adv-x="1779" 
d="M522 73q-193 93 -297.5 260.5t-104.5 385.5t105.5 385t288.5 258.5t409 91.5q297 0 564 -148l-102 -284q-91 67 -203 104t-241 37q-151 0 -262 -53.5t-171 -153.5t-60 -237q0 -142 64.5 -243t183 -153.5t278.5 -52.5q101 0 169 11t156 34l28 7v242h-397l-36 273h742v-709
q-161 -71 -314.5 -109.5t-348.5 -38.5q-258 0 -451 93zM631.5 1627.5q-94.5 86.5 -94.5 259.5h273q0 -67 27 -97t86 -30q60 0 87 30t27 97h273q0 -173 -94.5 -259.5t-292.5 -86.5q-197 0 -291.5 86.5z" />
    <glyph glyph-name="gbreve" unicode="&#x11f;" horiz-adv-x="1382" 
d="M1220 1060v-1089q0 -157 -82 -270.5t-226 -173t-328 -59.5q-128 0 -229.5 21t-169.5 54v259q174 -80 370 -80q186 0 280 75.5t94 204.5v91q-71 -51 -154 -82t-185 -31q-144 0 -256 67.5t-174.5 192t-62.5 291.5t63 291.5t175 191.5t255 67q107 0 192 -34t158 -89l7 102
h273zM815 249q57 15 114 41v480q-57 26 -114 41t-121 15q-138 0 -217.5 -76.5t-79.5 -218.5t79.5 -219.5t217.5 -77.5q64 0 121 15zM293 1552h257q0 -84 31 -125.5t99 -41.5t98.5 41.5t30.5 125.5h257q0 -386 -386 -386q-387 0 -387 386z" />
    <glyph glyph-name="Gdotaccent" unicode="&#x120;" horiz-adv-x="1779" 
d="M522 73q-193 93 -297.5 260.5t-104.5 385.5t105.5 385t288.5 258.5t409 91.5q297 0 564 -148l-102 -284q-91 67 -203 104t-241 37q-151 0 -262 -53.5t-171 -153.5t-60 -237q0 -142 64.5 -243t183 -153.5t278.5 -52.5q101 0 169 11t156 34l28 7v242h-397l-36 273h742v-709
q-161 -71 -314.5 -109.5t-348.5 -38.5q-258 0 -451 93zM838.5 1572.5q-38.5 22.5 -61 61.5t-22.5 84q0 46 22.5 84.5t61 61t84.5 22.5t84.5 -22.5t61 -61t22.5 -84.5q0 -45 -22.5 -84t-61 -61.5t-84.5 -22.5t-84.5 22.5z" />
    <glyph glyph-name="gdotaccent" unicode="&#x121;" horiz-adv-x="1382" 
d="M1220 1060v-1089q0 -157 -82 -270.5t-226 -173t-328 -59.5q-128 0 -229.5 21t-169.5 54v259q174 -80 370 -80q186 0 280 75.5t94 204.5v91q-71 -51 -154 -82t-185 -31q-144 0 -256 67.5t-174.5 192t-62.5 291.5t63 291.5t175 191.5t255 67q107 0 192 -34t158 -89l7 102
h273zM815 249q57 15 114 41v480q-57 26 -114 41t-121 15q-138 0 -217.5 -76.5t-79.5 -218.5t79.5 -219.5t217.5 -77.5q64 0 121 15zM590 1204q-41 24 -65 65t-24 90t24 90.5t65 65.5t90 24t90 -24t65 -65.5t24 -90.5t-24 -90t-65 -65t-90 -24t-90 24z" />
    <glyph glyph-name="uni0122" unicode="&#x122;" horiz-adv-x="1779" 
d="M522 73q-193 93 -297.5 260.5t-104.5 385.5t105.5 385t288.5 258.5t409 91.5q297 0 564 -148l-102 -284q-91 67 -203 104t-241 37q-151 0 -262 -53.5t-171 -153.5t-60 -237q0 -142 64.5 -243t183 -153.5t278.5 -52.5q101 0 169 11t156 34l28 7v242h-397l-36 273h742v-709
q-161 -71 -314.5 -109.5t-348.5 -38.5q-258 0 -451 93zM715 -493l135 374h373v-19l-318 -374h-190v19z" />
    <glyph glyph-name="uni0123" unicode="&#x123;" horiz-adv-x="1382" 
d="M1220 1060v-1089q0 -157 -82 -270.5t-226 -173t-328 -59.5q-128 0 -229.5 21t-169.5 54v259q174 -80 370 -80q186 0 280 75.5t94 204.5v91q-71 -51 -154 -82t-185 -31q-144 0 -256 67.5t-174.5 192t-62.5 291.5t63 291.5t175 191.5t255 67q107 0 192 -34t158 -89l7 102
h273zM815 249q57 15 114 41v480q-57 26 -114 41t-121 15q-138 0 -217.5 -76.5t-79.5 -218.5t79.5 -219.5t217.5 -77.5q64 0 121 15zM739 1536h190l-120 -362h-372z" />
    <glyph glyph-name="Hbar" unicode="&#x126;" horiz-adv-x="1858" 
d="M1837 1313v-201h-184v-1112h-309v705h-830v-705h-309v1112h-185v201h185v121h309v-121h830v121h309v-121h184zM1344 978v134h-830v-134h830z" />
    <glyph glyph-name="hbar" unicode="&#x127;" horiz-adv-x="1434" 
d="M1075.5 1029.5q96.5 -51.5 146 -147t49.5 -224.5v-658h-290v618q0 98 -61.5 153t-181.5 55q-137 0 -271 -59v-767h-290v1212h-145v183h145v141h290v-141h373v-183h-373v-260q175 129 374 129q138 0 234.5 -51.5z" />
    <glyph glyph-name="Imacron" unicode="&#x12a;" horiz-adv-x="718" 
d="M205 1434h309v-1434h-309v1434zM-20 1815h758v-201h-758v201z" />
    <glyph glyph-name="imacron" unicode="&#x12b;" horiz-adv-x="623" 
d="M166 1060h291v-1060h-291v1060zM-67 1445h758v-182h-758v182z" />
    <glyph glyph-name="Iogonek" unicode="&#x12e;" horiz-adv-x="718" 
d="M514 0q-178 -195 -178 -440q0 -39 4 -72l-286 62q-1 132 49 245t140 205h-38v1434h309v-1434z" />
    <glyph glyph-name="iogonek" unicode="&#x12f;" horiz-adv-x="623" 
d="M222 1204q-41 24 -65 65t-24 90t24 90.5t65 65.5t90 24t90 -24t65 -65.5t24 -90.5t-24 -90t-65 -65t-90 -24t-90 24zM166 1060h291v-1060q-178 -195 -178 -440q0 -39 4 -72l-286 62q-1 132 49 245t140 205h-20v1060z" />
    <glyph glyph-name="Idotaccent" unicode="&#x130;" horiz-adv-x="718" 
d="M205 1434h309v-1434h-309v1434zM274.5 1572.5q-38.5 22.5 -61 61.5t-22.5 84q0 46 22.5 84.5t61 61t84.5 22.5t84.5 -22.5t61 -61t22.5 -84.5q0 -45 -22.5 -84t-61 -61.5t-84.5 -22.5t-84.5 22.5z" />
    <glyph glyph-name="dotlessi" unicode="&#x131;" horiz-adv-x="623" 
d="M166 1060h291v-1060h-291v1060z" />
    <glyph glyph-name="uni0136" unicode="&#x136;" horiz-adv-x="1713" 
d="M1257 0l-341 548h-402v-548h-309v1434h309v-613h318l416 613h367l-466 -674l477 -760h-369zM582 -493l135 374h373v-19l-318 -374h-190v19z" />
    <glyph glyph-name="uni0137" unicode="&#x137;" horiz-adv-x="1412" 
d="M987 0l-242 428h-278v-428h-290v1536h290v-835h246l229 359h354l-302 -467l340 -593h-347zM435 -493l135 374h373v-19l-318 -374h-190v19z" />
    <glyph glyph-name="Lacute" unicode="&#x139;" horiz-adv-x="1458" 
d="M205 1434h309v-1161h857v-273h-1166v1434zM26 1700l645 188h19v-285l-615 -62z" />
    <glyph glyph-name="lacute" unicode="&#x13a;" horiz-adv-x="644" 
d="M177 1536h290v-1536h-290v1536zM-17 1802l645 188h19v-285l-615 -62z" />
    <glyph glyph-name="uni013B" unicode="&#x13b;" horiz-adv-x="1458" 
d="M205 1434h309v-1161h857v-273h-1166v1434zM535 -493l135 374h373v-19l-318 -374h-190v19z" />
    <glyph glyph-name="uni013C" unicode="&#x13c;" horiz-adv-x="644" 
d="M177 1536h290v-1536h-290v1536zM68 -493l135 374h373v-19l-318 -374h-190v19z" />
    <glyph glyph-name="Lcaron" unicode="&#x13d;" horiz-adv-x="1458" 
d="M514 1434v-1161h857v-273h-1166v1434h309zM947 1434h313l-223 -374h-277z" />
    <glyph glyph-name="lcaron" unicode="&#x13e;" horiz-adv-x="644" 
d="M177 1536h290v-1536h-290v1536zM-78 1999h18l382 -99l382 99h18l45 -157l-436 -190h-18l-436 190z" />
    <glyph glyph-name="Lslash" unicode="&#x141;" horiz-adv-x="1458" 
d="M514 273h857v-273h-1166v602l-185 -74v195l185 74v637h309v-569l393 156v-195l-393 -156v-397z" />
    <glyph glyph-name="lslash" unicode="&#x142;" horiz-adv-x="644" 
d="M608 1082v-242l-141 -84v-756h-290v651l-142 -84v242l142 84v643h290v-538z" />
    <glyph glyph-name="Nacute" unicode="&#x143;" horiz-adv-x="1792" 
d="M205 1434h570l494 -452h9v452h309v-1434h-309v550l-614 575h-150v-1125h-309v1434zM558 1700l645 188h19v-285l-615 -62z" />
    <glyph glyph-name="nacute" unicode="&#x144;" horiz-adv-x="1404" 
d="M1050.5 1029.5q94.5 -51.5 142.5 -147t48 -224.5v-658h-290v618q0 98 -59.5 153t-175.5 55q-131 0 -255 -56v-770h-290v1060h272l7 -112q175 133 371 133q135 0 229.5 -51.5zM547 1183l196 371h435v-18l-412 -372h-219v19z" />
    <glyph glyph-name="uni0145" unicode="&#x145;" horiz-adv-x="1792" 
d="M205 1434h570l494 -452h9v452h309v-1434h-309v550l-614 575h-150v-1125h-309v1434zM643 -493l135 374h373v-19l-318 -374h-190v19z" />
    <glyph glyph-name="uni0146" unicode="&#x146;" horiz-adv-x="1404" 
d="M1050.5 1029.5q94.5 -51.5 142.5 -147t48 -224.5v-658h-290v618q0 98 -59.5 153t-175.5 55q-131 0 -255 -56v-770h-290v1060h272l7 -112q175 133 371 133q135 0 229.5 -51.5zM448 -493l135 374h373v-19l-318 -374h-190v19z" />
    <glyph glyph-name="Ncaron" unicode="&#x147;" horiz-adv-x="1792" 
d="M205 1434h570l494 -452h9v452h309v-1434h-309v550l-614 575h-150v-1125h-309v1434zM497 1897h18l382 -99l382 99h18l45 -157l-436 -190h-18l-436 190z" />
    <glyph glyph-name="ncaron" unicode="&#x148;" horiz-adv-x="1404" 
d="M1050.5 1029.5q94.5 -51.5 142.5 -147t48 -224.5v-658h-290v618q0 98 -59.5 153t-175.5 55q-131 0 -255 -56v-770h-290v1060h272l7 -112q175 133 371 133q135 0 229.5 -51.5zM274 1555h196l232 -156l232 156h196v-19l-302 -371h-252l-302 371v19z" />
    <glyph glyph-name="Eng" unicode="&#x14a;" horiz-adv-x="1792" 
d="M1587 1434v-1441q0 -247 -148.5 -376t-422.5 -129h-35v269q116 0 180.5 28t90.5 81.5t26 138.5v545l-614 575h-150v-1125h-309v1434h570l494 -452h9v452h309z" />
    <glyph glyph-name="eng" unicode="&#x14b;" horiz-adv-x="1404" 
d="M1050.5 1029.5q94.5 -51.5 142.5 -147t48 -224.5v-790q0 -123 -53 -213.5t-144 -138.5t-203 -48q-121 0 -214 26v237q68 -9 131 -9q96 0 144.5 45.5t48.5 129.5v721q0 98 -59.5 153t-175.5 55q-131 0 -255 -56v-770h-290v1060h272l7 -112q175 133 371 133
q135 0 229.5 -51.5z" />
    <glyph glyph-name="Omacron" unicode="&#x14c;" horiz-adv-x="1824" 
d="M515 74q-182 94 -288.5 262.5t-106.5 380.5t106.5 380t288.5 262.5t399 94.5q218 0 398.5 -94.5t285.5 -262.5t105 -380t-105 -380.5t-285.5 -262.5t-398.5 -94q-217 0 -399 94zM1147.5 326q105.5 56 167 158t61.5 233q0 129 -60.5 230.5t-166.5 158.5t-235 57
q-131 0 -237.5 -57t-167.5 -158.5t-61 -230.5q0 -131 62 -233t168.5 -158t235.5 -56q128 0 233.5 56zM533 1815h758v-201h-758v201z" />
    <glyph glyph-name="omacron" unicode="&#x14d;" horiz-adv-x="1429" 
d="M410 50q-139 70 -221 195.5t-82 285.5t82 285.5t221 195t304 69.5q166 0 305 -69.5t220.5 -195t81.5 -285.5t-81.5 -285.5t-220.5 -195.5t-305 -70q-165 0 -304 70zM870.5 287q70.5 35 111.5 98.5t41 145.5t-41 145t-111.5 97.5t-156.5 34.5t-156 -34.5t-110.5 -97.5
t-40.5 -145t40.5 -145.5t110.5 -98.5t156 -35t156.5 35zM335 1445h758v-182h-758v182z" />
    <glyph glyph-name="Ohungarumlaut" unicode="&#x150;" horiz-adv-x="1824" 
d="M515 74q-182 94 -288.5 262.5t-106.5 380.5t106.5 380t288.5 262.5t399 94.5q218 0 398.5 -94.5t285.5 -262.5t105 -380t-105 -380.5t-285.5 -262.5t-398.5 -94q-217 0 -399 94zM1147.5 326q105.5 56 167 158t61.5 233q0 129 -60.5 230.5t-166.5 158.5t-235 57
q-131 0 -237.5 -57t-167.5 -158.5t-61 -230.5q0 -131 62 -233t168.5 -158t235.5 -56q128 0 233.5 56zM633 1899h277l-108 -354h-273zM1043 1899h277l-108 -354h-273z" />
    <glyph glyph-name="ohungarumlaut" unicode="&#x151;" horiz-adv-x="1429" 
d="M410 50q-139 70 -221 195.5t-82 285.5t82 285.5t221 195t304 69.5q166 0 305 -69.5t220.5 -195t81.5 -285.5t-81.5 -285.5t-220.5 -195.5t-305 -70q-165 0 -304 70zM870.5 287q70.5 35 111.5 98.5t41 145.5t-41 145t-111.5 97.5t-156.5 34.5t-156 -34.5t-110.5 -97.5
t-40.5 -145t40.5 -145.5t110.5 -98.5t156 -35t156.5 35zM417 1536h277l-90 -362h-273zM826 1536h277l-90 -362h-273z" />
    <glyph glyph-name="OE" unicode="&#x152;" horiz-adv-x="2832" 
d="M1703 1161v-236h563v-273h-563v-379h976v-273h-1285v123q-101 -69 -223.5 -106t-256.5 -37q-217 0 -399 94t-288.5 262.5t-106.5 380.5t106.5 380t288.5 262.5t399 94.5q134 0 256.5 -37t223.5 -107v124h1285v-273h-976zM1147.5 326q105.5 56 167 158t61.5 233
q0 129 -60.5 230.5t-166.5 158.5t-235 57q-131 0 -237.5 -57t-167.5 -158.5t-61 -230.5q0 -131 62 -233t168.5 -158t235.5 -56q128 0 233.5 56z" />
    <glyph glyph-name="oe" unicode="&#x153;" horiz-adv-x="2288" 
d="M2170 442h-846q54 -226 392 -226q175 0 327 67v-245q-86 -28 -184 -43t-195 -15q-168 0 -293.5 45t-206.5 128q-85 -82 -201.5 -127.5t-248.5 -45.5q-165 0 -304 70t-221 195.5t-82 285.5t82 285.5t221 195t304 69.5q134 0 251.5 -45.5t201.5 -129.5q80 84 193.5 129.5
t244.5 45.5q158 0 287 -72.5t203.5 -206.5t74.5 -312v-48zM1422 785.5q-74 -58.5 -98 -160.5h562q-24 100 -96 159.5t-180 59.5q-114 0 -188 -58.5zM870.5 287q70.5 35 111.5 98.5t41 145.5t-41 145t-111.5 97.5t-156.5 34.5t-156 -34.5t-110.5 -97.5t-40.5 -145
t40.5 -145.5t110.5 -98.5t156 -35t156.5 35z" />
    <glyph glyph-name="Racute" unicode="&#x154;" horiz-adv-x="1779" 
d="M1578 796.5q-54 -94.5 -151 -153t-222 -67.5l398 -576h-369l-370 574h-350v-574h-309v1434h957q136 0 243 -57t167 -155t60 -216q0 -115 -54 -209.5zM514 847h620q90 0 139.5 42t49.5 117q0 76 -49 115.5t-140 39.5h-620v-314zM527 1700l645 188h19v-285l-615 -62z" />
    <glyph glyph-name="racute" unicode="&#x155;" horiz-adv-x="954" 
d="M698 817q-125 0 -237 -49v-768h-290v1060h272l7 -111q175 132 363 132q5 0 23 -3l36 -282q-90 21 -174 21zM331 1183l196 371h435v-18l-412 -372h-219v19z" />
    <glyph glyph-name="uni0156" unicode="&#x156;" horiz-adv-x="1779" 
d="M1578 796.5q-54 -94.5 -151 -153t-222 -67.5l398 -576h-369l-370 574h-350v-574h-309v1434h957q136 0 243 -57t167 -155t60 -216q0 -115 -54 -209.5zM514 847h620q90 0 139.5 42t49.5 117q0 76 -49 115.5t-140 39.5h-620v-314zM612 -493l135 374h373v-19l-318 -374h-190
v19z" />
    <glyph glyph-name="uni0157" unicode="&#x157;" horiz-adv-x="954" 
d="M698 817q-125 0 -237 -49v-768h-290v1060h272l7 -111q175 132 363 132q5 0 23 -3l36 -282q-90 21 -174 21zM56 -493l135 374h373v-19l-318 -374h-190v19z" />
    <glyph glyph-name="Rcaron" unicode="&#x158;" horiz-adv-x="1779" 
d="M1578 796.5q-54 -94.5 -151 -153t-222 -67.5l398 -576h-369l-370 574h-350v-574h-309v1434h957q136 0 243 -57t167 -155t60 -216q0 -115 -54 -209.5zM514 847h620q90 0 139.5 42t49.5 117q0 76 -49 115.5t-140 39.5h-620v-314zM466 1897h18l382 -99l382 99h18l45 -157
l-436 -190h-18l-436 190z" />
    <glyph glyph-name="rcaron" unicode="&#x159;" horiz-adv-x="954" 
d="M698 817q-125 0 -237 -49v-768h-290v1060h272l7 -111q175 132 363 132q5 0 23 -3l36 -282q-90 21 -174 21zM58 1555h196l232 -156l232 156h196v-19l-302 -371h-252l-302 371v19z" />
    <glyph glyph-name="Sacute" unicode="&#x15a;" horiz-adv-x="1445" 
d="M82 150l96 271q113 -87 240.5 -128t275.5 -41q169 0 251 50t82 129q0 57 -42.5 89.5t-107.5 48t-180 31.5q-172 24 -282.5 56.5t-190 118t-79.5 242.5q0 141 69.5 239t197.5 148t303 50q159 0 301 -40t259 -112l-95 -264q-199 143 -460 143q-129 0 -194.5 -35.5
t-65.5 -103.5q0 -54 41.5 -85t105 -47t176.5 -34q173 -28 285 -63t193 -123t81 -246q0 -137 -71.5 -241.5t-217.5 -163.5t-364 -59q-366 0 -607 170zM377 1700l645 188h19v-285l-615 -62z" />
    <glyph glyph-name="sacute" unicode="&#x15b;" horiz-adv-x="1146" 
d="M297 7q-113 27 -205 80l46 256q82 -56 190.5 -87t226.5 -31q103 0 154.5 24.5t51.5 62.5q0 26 -25 41.5t-64 24t-110 18.5q-134 19 -225.5 46t-159 98.5t-67.5 200.5q0 107 52 183.5t150 116.5t235 40q110 0 216.5 -25.5t201.5 -71.5l-33 -246q-95 45 -197.5 71
t-196.5 26q-146 0 -146 -71q0 -30 27.5 -47.5t69 -27.5t121.5 -23q135 -22 223.5 -49t153.5 -93.5t65 -185.5q0 -108 -57 -188.5t-172.5 -125t-285.5 -44.5q-127 0 -240 27zM402 1183l196 371h435v-18l-412 -372h-219v19z" />
    <glyph glyph-name="Scedilla" unicode="&#x15e;" horiz-adv-x="1445" 
d="M1286 226.5q-56 -96.5 -170 -158.5t-285 -81l-166 -419l-275 135l245 278q-331 12 -553 169l96 271q113 -87 240.5 -128t275.5 -41q169 0 251 50t82 129q0 57 -42.5 89.5t-107.5 48t-180 31.5q-172 24 -282.5 56.5t-190 118t-79.5 242.5q0 141 69.5 239t197.5 148t303 50
q159 0 301 -40t259 -112l-95 -264q-199 143 -460 143q-129 0 -194.5 -35.5t-65.5 -103.5q0 -54 41.5 -85t105 -47t176.5 -34q173 -28 285 -63t193 -123t81 -246q0 -121 -56 -217.5z" />
    <glyph glyph-name="scedilla" unicode="&#x15f;" horiz-adv-x="1146" 
d="M959.5 108.5q-92.5 -91.5 -272.5 -118.5l-167 -422l-275 135l245 278q-113 5 -214 31.5t-184 74.5l46 256q82 -56 190.5 -87t226.5 -31q103 0 154.5 24.5t51.5 62.5q0 26 -25 41.5t-64 24t-110 18.5q-134 19 -225.5 46t-159 98.5t-67.5 200.5q0 107 52 183.5t150 116.5
t235 40q110 0 216.5 -25.5t201.5 -71.5l-33 -246q-95 45 -197.5 71t-196.5 26q-146 0 -146 -71q0 -30 27.5 -47.5t69 -27.5t121.5 -23q135 -22 223.5 -49t153.5 -93.5t65 -185.5q0 -138 -92.5 -229.5z" />
    <glyph glyph-name="Scaron" unicode="&#x160;" horiz-adv-x="1445" 
d="M82 150l96 271q113 -87 240.5 -128t275.5 -41q169 0 251 50t82 129q0 57 -42.5 89.5t-107.5 48t-180 31.5q-172 24 -282.5 56.5t-190 118t-79.5 242.5q0 141 69.5 239t197.5 148t303 50q159 0 301 -40t259 -112l-95 -264q-199 143 -460 143q-129 0 -194.5 -35.5
t-65.5 -103.5q0 -54 41.5 -85t105 -47t176.5 -34q173 -28 285 -63t193 -123t81 -246q0 -137 -71.5 -241.5t-217.5 -163.5t-364 -59q-366 0 -607 170zM316 1897h18l382 -99l382 99h18l45 -157l-436 -190h-18l-436 190z" />
    <glyph glyph-name="scaron" unicode="&#x161;" horiz-adv-x="1146" 
d="M297 7q-113 27 -205 80l46 256q82 -56 190.5 -87t226.5 -31q103 0 154.5 24.5t51.5 62.5q0 26 -25 41.5t-64 24t-110 18.5q-134 19 -225.5 46t-159 98.5t-67.5 200.5q0 107 52 183.5t150 116.5t235 40q110 0 216.5 -25.5t201.5 -71.5l-33 -246q-95 45 -197.5 71
t-196.5 26q-146 0 -146 -71q0 -30 27.5 -47.5t69 -27.5t121.5 -23q135 -22 223.5 -49t153.5 -93.5t65 -185.5q0 -108 -57 -188.5t-172.5 -125t-285.5 -44.5q-127 0 -240 27zM129 1555h196l232 -156l232 156h196v-19l-302 -371h-252l-302 371v19z" />
    <glyph glyph-name="uni0162" unicode="&#x162;" horiz-adv-x="1661" 
d="M70 1434h1521v-273h-606v-1161h-41l-171 -432l-275 135l262 297h-84v1161h-606v273z" />
    <glyph glyph-name="uni0163" unicode="&#x163;" horiz-adv-x="1052" 
d="M546 796v-398q0 -79 44.5 -121.5t127.5 -42.5q58 0 106 20t91 52v-244q-77 -50 -161 -69l-168 -425l-275 135l248 282q-146 19 -225 116.5t-79 265.5v429h-224l37 264h187v283l291 37v-320h374v-264h-374z" />
    <glyph glyph-name="Tcaron" unicode="&#x164;" horiz-adv-x="1661" 
d="M676 1161h-606v273h1521v-273h-606v-1161h-309v1161zM431 1897h18l382 -99l382 99h18l45 -157l-436 -190h-18l-436 190z" />
    <glyph glyph-name="tcaron" unicode="&#x165;" horiz-adv-x="1052" 
d="M546 796v-398q0 -79 44.5 -121.5t127.5 -42.5q58 0 106 20t91 52v-244q-124 -82 -282 -82q-180 0 -279 99t-99 288v429h-224l37 264h187v283l291 37v-320h374v-264h-374zM-4 1864h196l232 -156l232 156h196v-19l-302 -371h-252l-302 371v19z" />
    <glyph glyph-name="Tbar" unicode="&#x166;" horiz-adv-x="1661" 
d="M1591 1161h-606v-433h337v-182h-337v-546h-309v546h-337v182h337v433h-606v273h1521v-273z" />
    <glyph glyph-name="tbar" unicode="&#x167;" horiz-adv-x="1052" 
d="M546 796v-163h374v-200h-374v-35q0 -79 44.5 -121.5t127.5 -42.5q58 0 106 20t91 52v-244q-124 -82 -282 -82q-180 0 -279 99t-99 288v66h-201v200h201v163h-224l37 264h187v283l291 37v-320h374v-264h-374z" />
    <glyph glyph-name="Umacron" unicode="&#x16a;" horiz-adv-x="1723" 
d="M503 50.5q-156 70.5 -245.5 218.5t-89.5 371v794h309v-773q0 -198 96.5 -303.5t287.5 -105.5q193 0 289.5 105.5t96.5 303.5v773h309v-794q0 -223 -90 -371t-246.5 -218.5t-358.5 -70.5t-358 70.5zM485 1815h758v-201h-758v201z" />
    <glyph glyph-name="umacron" unicode="&#x16b;" horiz-adv-x="1381" 
d="M1210 1060v-1060h-272l-7 111q-170 -131 -361 -131q-131 0 -222.5 51.5t-138 146.5t-46.5 224v658h291v-618q0 -98 56 -153t167 -55q124 0 243 55v771h290zM294 1445h758v-182h-758v182z" />
    <glyph glyph-name="Uring" unicode="&#x16e;" horiz-adv-x="1720" 
d="M501 50.5q-156 70.5 -245.5 218.5t-89.5 371v794h309v-773q0 -198 96.5 -303.5t287.5 -105.5q193 0 289.5 105.5t96.5 303.5v773h309v-794q0 -223 -90 -371t-246.5 -218.5t-358.5 -70.5t-358 70.5zM566 1583q-90 47 -90 133q0 85 90 131t295 46q204 0 293.5 -46
t89.5 -131q0 -86 -88.5 -133t-294.5 -47q-205 0 -295 47zM964 1672q36 18 36 44q0 25 -36 42t-105 17q-70 0 -106 -17t-36 -42q0 -27 36 -44.5t106 -17.5q69 0 105 18z" />
    <glyph glyph-name="uring" unicode="&#x16f;" horiz-adv-x="1381" 
d="M1210 1060v-1060h-272l-7 111q-170 -131 -361 -131q-131 0 -222.5 51.5t-138 146.5t-46.5 224v658h291v-618q0 -98 56 -153t167 -55q124 0 243 55v771h290zM464.5 1188q-86.5 24 -131.5 68t-45 103t45 103t131.5 68t208.5 24t208 -24t130.5 -68t44.5 -103
q0 -58 -44.5 -102t-131 -68.5t-207.5 -24.5q-122 0 -208.5 24zM777 1311.5q36 18.5 36 47.5t-36 47.5t-104 18.5q-70 0 -106 -18.5t-36 -47.5t36.5 -47.5t105.5 -18.5q68 0 104 18.5z" />
    <glyph glyph-name="Uhungarumlaut" unicode="&#x170;" horiz-adv-x="1723" 
d="M503 50.5q-156 70.5 -245.5 218.5t-89.5 371v794h309v-773q0 -198 96.5 -303.5t287.5 -105.5q193 0 289.5 105.5t96.5 303.5v773h309v-794q0 -223 -90 -371t-246.5 -218.5t-358.5 -70.5t-358 70.5zM584 1899h277l-108 -354h-273zM994 1899h277l-108 -354h-273z" />
    <glyph glyph-name="uhungarumlaut" unicode="&#x171;" horiz-adv-x="1381" 
d="M1210 1060v-1060h-272l-7 111q-170 -131 -361 -131q-131 0 -222.5 51.5t-138 146.5t-46.5 224v658h291v-618q0 -98 56 -153t167 -55q124 0 243 55v771h290zM376 1536h277l-90 -362h-273zM785 1536h277l-90 -362h-273z" />
    <glyph glyph-name="Uogonek" unicode="&#x172;" horiz-adv-x="1723" 
d="M1556 1434v-794q0 -189 -65 -324.5t-181.5 -214.5t-272.5 -106q-173 -193 -173 -434q0 -40 4 -73l-286 62q-1 127 45 236t130 199q-175 17 -307 93.5t-207 217.5t-75 344v794h309v-773q0 -198 96.5 -303.5t287.5 -105.5q193 0 289.5 105.5t96.5 303.5v773h309z" />
    <glyph glyph-name="uogonek" unicode="&#x173;" horiz-adv-x="1381" 
d="M1210 0q-178 -195 -178 -440q0 -39 4 -72l-286 62q-1 132 49 245t140 205h-1l-7 111q-170 -131 -361 -131q-131 0 -222.5 51.5t-138 146.5t-46.5 224v658h291v-618q0 -98 56 -153t167 -55q124 0 243 55v771h290v-1060z" />
    <glyph glyph-name="Wcircumflex" unicode="&#x174;" horiz-adv-x="2303" 
d="M82 1434h327l234 -1112l239 1092h539l239 -1092l234 1112h327l-351 -1434h-417l-259 1141h-85l-259 -1141h-417zM706 1699l436 190h18l436 -190l-45 -157h-18l-382 99l-382 -99h-18z" />
    <glyph glyph-name="wcircumflex" unicode="&#x175;" horiz-adv-x="1967" 
d="M54 1060h307l191 -712l197 712h470l196 -712l191 712h308l-307 -1060h-362l-221 787h-81l-221 -787h-362zM557 1183l302 371h252l302 -371v-19h-196l-232 156l-232 -156h-196v19z" />
    <glyph glyph-name="Ycircumflex" unicode="&#x176;" horiz-adv-x="1617" 
d="M1553 1434l-594 -960v-474h-309v465l-586 969h373l330 -582h74l340 582h372zM365 1699l436 190h18l436 -190l-45 -157h-18l-382 99l-382 -99h-18z" />
    <glyph glyph-name="ycircumflex" unicode="&#x177;" horiz-adv-x="1317" 
d="M1263 1060l-469 -1280q-112 -312 -446 -312q-93 0 -162.5 17.5t-131.5 48.5v258q107 -70 249 -70q171 0 229 155l51 123h-143l-386 1060h309l249 -729h94l248 729h309zM231 1183l302 371h252l302 -371v-19h-196l-232 156l-232 -156h-196v19z" />
    <glyph glyph-name="Ydieresis" unicode="&#x178;" horiz-adv-x="1617" 
d="M1553 1434l-594 -960v-474h-309v465l-586 969h373l330 -582h74l340 582h372zM514.5 1572.5q-38.5 22.5 -61 61.5t-22.5 84q0 46 22.5 84.5t61 61t84.5 22.5t84.5 -22.5t61 -61t22.5 -84.5q0 -45 -22.5 -84t-61 -61.5t-84.5 -22.5t-84.5 22.5zM936.5 1572.5
q-38.5 22.5 -61 61.5t-22.5 84q0 46 22.5 84.5t61 61t84.5 22.5t84.5 -22.5t61 -61t22.5 -84.5q0 -45 -22.5 -84t-61 -61.5t-84.5 -22.5t-84.5 22.5z" />
    <glyph glyph-name="Zacute" unicode="&#x179;" horiz-adv-x="1612" 
d="M142 467l995 643v51h-995v273h1304v-467l-995 -643v-51h1018v-273h-1327v467zM472 1700l645 188h19v-285l-615 -62z" />
    <glyph glyph-name="zacute" unicode="&#x17a;" horiz-adv-x="1249" 
d="M120 399l741 378v34h-741v249h1008v-435l-668 -338v-34h668v-253h-1008v399zM479 1183l196 371h435v-18l-412 -372h-219v19z" />
    <glyph glyph-name="Zdotaccent" unicode="&#x17b;" horiz-adv-x="1612" 
d="M142 467l995 643v51h-995v273h1304v-467l-995 -643v-51h1018v-273h-1327v467zM726.5 1572.5q-38.5 22.5 -61 61.5t-22.5 84q0 46 22.5 84.5t61 61t84.5 22.5t84.5 -22.5t61 -61t22.5 -84.5q0 -45 -22.5 -84t-61 -61.5t-84.5 -22.5t-84.5 22.5z" />
    <glyph glyph-name="zdotaccent" unicode="&#x17c;" horiz-adv-x="1249" 
d="M120 399l741 378v34h-741v249h1008v-435l-668 -338v-34h668v-253h-1008v399zM544 1204q-41 24 -65 65t-24 90t24 90.5t65 65.5t90 24t90 -24t65 -65.5t24 -90.5t-24 -90t-65 -65t-90 -24t-90 24z" />
    <glyph glyph-name="Zcaron" unicode="&#x17d;" horiz-adv-x="1612" 
d="M142 467l995 643v51h-995v273h1304v-467l-995 -643v-51h1018v-273h-1327v467zM411 1897h18l382 -99l382 99h18l45 -157l-436 -190h-18l-436 190z" />
    <glyph glyph-name="zcaron" unicode="&#x17e;" horiz-adv-x="1249" 
d="M120 399l741 378v34h-741v249h1008v-435l-668 -338v-34h668v-253h-1008v399zM206 1555h196l232 -156l232 156h196v-19l-302 -371h-252l-302 371v19z" />
    <glyph glyph-name="florin" unicode="&#x192;" 
d="M1227 1184q-34 -15 -55.5 -46.5t-38.5 -86.5l-111 -363h419v-183h-475l-220 -718q-50 -163 -140.5 -241t-244.5 -78q-108 0 -204 26v251q57 -23 135 -23q53 0 87 15t55.5 46.5t38.5 86.5l194 635h-365v183h421l137 447q50 163 141 241t245 78q111 0 203 -27v-251
q-55 23 -135 23q-53 0 -87 -15z" />
    <glyph glyph-name="uni0218" unicode="&#x218;" horiz-adv-x="1445" 
d="M82 150l96 271q113 -87 240.5 -128t275.5 -41q169 0 251 50t82 129q0 57 -42.5 89.5t-107.5 48t-180 31.5q-172 24 -282.5 56.5t-190 118t-79.5 242.5q0 141 69.5 239t197.5 148t303 50q159 0 301 -40t259 -112l-95 -264q-199 143 -460 143q-129 0 -194.5 -35.5
t-65.5 -103.5q0 -54 41.5 -85t105 -47t176.5 -34q173 -28 285 -63t193 -123t81 -246q0 -137 -71.5 -241.5t-217.5 -163.5t-364 -59q-366 0 -607 170zM448 -493l135 374h373v-19l-318 -374h-190v19z" />
    <glyph glyph-name="uni0219" unicode="&#x219;" horiz-adv-x="1146" 
d="M297 7q-113 27 -205 80l46 256q82 -56 190.5 -87t226.5 -31q103 0 154.5 24.5t51.5 62.5q0 26 -25 41.5t-64 24t-110 18.5q-134 19 -225.5 46t-159 98.5t-67.5 200.5q0 107 52 183.5t150 116.5t235 40q110 0 216.5 -25.5t201.5 -71.5l-33 -246q-95 45 -197.5 71
t-196.5 26q-146 0 -146 -71q0 -30 27.5 -47.5t69 -27.5t121.5 -23q135 -22 223.5 -49t153.5 -93.5t65 -185.5q0 -108 -57 -188.5t-172.5 -125t-285.5 -44.5q-127 0 -240 27zM303 -493l135 374h373v-19l-318 -374h-190v19z" />
    <glyph glyph-name="uni021A" unicode="&#x21a;" horiz-adv-x="1661" 
d="M676 1161h-606v273h1521v-273h-606v-1161h-309v1161zM556 -493l135 374h373v-19l-318 -374h-190v19z" />
    <glyph glyph-name="uni021B" unicode="&#x21b;" horiz-adv-x="1052" 
d="M546 796v-398q0 -79 44.5 -121.5t127.5 -42.5q58 0 106 20t91 52v-244q-124 -82 -282 -82q-180 0 -279 99t-99 288v429h-224l37 264h187v283l291 37v-320h374v-264h-374zM369 -493l135 374h373v-19l-318 -374h-190v19z" />
    <glyph glyph-name="uni0237" unicode="&#x237;" horiz-adv-x="624" 
d="M-66 -525.5q-49 6.5 -90 19.5l-20 271q40 -17 88.5 -30t93.5 -13q80 0 120.5 45t40.5 130v1163h291v-1192q0 -125 -52 -215.5t-143 -137.5t-207 -47q-73 0 -122 6.5z" />
    <glyph glyph-name="circumflex" unicode="&#x2c6;" horiz-adv-x="2048" 
d="M596 1183l302 371h252l302 -371v-19h-196l-232 156l-232 -156h-196v19z" />
    <glyph glyph-name="caron" unicode="&#x2c7;" horiz-adv-x="2054" 
d="M602 1555h196l232 -156l232 156h196v-19l-302 -371h-252l-302 371v19z" />
    <glyph glyph-name="breve" unicode="&#x2d8;" horiz-adv-x="2048" 
d="M634 1552h257q0 -84 31 -125.5t99 -41.5t98.5 41.5t30.5 125.5h257q0 -386 -386 -386q-387 0 -387 386z" />
    <glyph glyph-name="dotaccent" unicode="&#x2d9;" horiz-adv-x="2048" 
d="M934 1204q-41 24 -65 65t-24 90t24 90.5t65 65.5t90 24t90 -24t65 -65.5t24 -90.5t-24 -90t-65 -65t-90 -24t-90 24z" />
    <glyph glyph-name="ring" unicode="&#x2da;" horiz-adv-x="2048" 
d="M823.5 1188q-86.5 24 -131.5 68t-45 103t45 103t131.5 68t208.5 24t208 -24t130.5 -68t44.5 -103q0 -58 -44.5 -102t-131 -68.5t-207.5 -24.5q-122 0 -208.5 24zM1136 1311.5q36 18.5 36 47.5t-36 47.5t-104 18.5q-70 0 -106 -18.5t-36 -47.5t36.5 -47.5t105.5 -18.5
q68 0 104 18.5z" />
    <glyph glyph-name="ogonek" unicode="&#x2db;" horiz-adv-x="2048" 
d="M844 -204.5q50 113.5 141 205.5l270 -1q-178 -195 -178 -440q0 -39 4 -72l-286 62q-1 132 49 245.5z" />
    <glyph glyph-name="tilde" unicode="&#x2dc;" horiz-adv-x="2048" 
d="M1107.5 1182.5q-44.5 18.5 -75 44t-69.5 66.5q-38 41 -65 61t-60 20q-58 0 -58 -73v-117h-183v134q0 65 26.5 119t80.5 86.5t134 32.5q58 0 102.5 -18.5t75 -44t68.5 -65.5q41 -43 67 -62t59 -19q58 0 58 73v117h182v-134q0 -65 -26.5 -119t-80.5 -87t-133 -33
q-58 0 -102.5 18.5z" />
    <glyph glyph-name="hungarumlaut" unicode="&#x2dd;" horiz-adv-x="2048" 
d="M724 1536h277l-90 -362h-273zM1133 1536h277l-90 -362h-273z" />
    <glyph glyph-name="gravecomb" unicode="&#x300;" horiz-adv-x="0" 
d="M-1354 1598v285h19l645 -188l-49 -159z" />
    <glyph glyph-name="acutecomb" unicode="&#x301;" horiz-adv-x="0" 
d="M-1363 1700l645 188h19v-285l-615 -62z" />
    <glyph glyph-name="uni0302" unicode="&#x302;" horiz-adv-x="0" 
d="M-1469 1699l436 190h18l436 -190l-45 -157h-18l-382 99l-382 -99h-18z" />
    <glyph glyph-name="tildecomb" unicode="&#x303;" horiz-adv-x="0" 
d="M-940 1554q-45 18 -75.5 42.5t-69.5 63.5q-39 40 -66 59t-59 19q-58 0 -58 -72v-110h-183v126q0 65 26.5 119t81 87t133.5 33q57 0 101.5 -17.5t75.5 -42.5t70 -64q39 -40 66 -59t59 -19q58 0 58 72v109h182v-125q0 -65 -26.5 -119t-80.5 -87t-133 -33q-57 0 -102 18z
" />
    <glyph glyph-name="uni0304" unicode="&#x304;" horiz-adv-x="0" 
d="M-1403 1815h758v-201h-758v201z" />
    <glyph glyph-name="uni0306" unicode="&#x306;" horiz-adv-x="0" 
d="M-1342.5 1627.5q-94.5 86.5 -94.5 259.5h273q0 -67 27 -97t86 -30q60 0 87 30t27 97h273q0 -173 -94.5 -259.5t-292.5 -86.5q-197 0 -291.5 86.5z" />
    <glyph glyph-name="uni0307" unicode="&#x307;" horiz-adv-x="0" 
d="M-1144.5 1572.5q-38.5 22.5 -61 61.5t-22.5 84q0 46 22.5 84.5t61 61t84.5 22.5t84.5 -22.5t61 -61t22.5 -84.5q0 -45 -22.5 -84t-61 -61.5t-84.5 -22.5t-84.5 22.5z" />
    <glyph glyph-name="uni0308" unicode="&#x308;" horiz-adv-x="0" 
d="M-1300.5 1572.5q-38.5 22.5 -61 61.5t-22.5 84q0 46 22.5 84.5t61 61t84.5 22.5t84.5 -22.5t61 -61t22.5 -84.5q0 -45 -22.5 -84t-61 -61.5t-84.5 -22.5t-84.5 22.5zM-878.5 1572.5q-38.5 22.5 -61 61.5t-22.5 84q0 46 22.5 84.5t61 61t84.5 22.5t84.5 -22.5t61 -61
t22.5 -84.5q0 -45 -22.5 -84t-61 -61.5t-84.5 -22.5t-84.5 22.5z" />
    <glyph glyph-name="uni030A" unicode="&#x30a;" horiz-adv-x="0" 
d="M-1317 1583q-90 47 -90 133q0 85 90 131t295 46q204 0 293.5 -46t89.5 -131q0 -86 -88.5 -133t-294.5 -47q-205 0 -295 47zM-919 1672q36 18 36 44q0 25 -36 42t-105 17q-70 0 -106 -17t-36 -42q0 -27 36 -44.5t106 -17.5q69 0 105 18z" />
    <glyph glyph-name="uni030B" unicode="&#x30b;" horiz-adv-x="0" 
d="M-1301 1899h277l-108 -354h-273zM-891 1899h277l-108 -354h-273z" />
    <glyph glyph-name="uni030C" unicode="&#x30c;" horiz-adv-x="0" 
d="M-1424 1897h18l382 -99l382 99h18l45 -157l-436 -190h-18l-436 190z" />
    <glyph glyph-name="uni0312" unicode="&#x312;" horiz-adv-x="0" 
d="M-965 1536h190l-120 -362h-372z" />
    <glyph glyph-name="uni0326" unicode="&#x326;" horiz-adv-x="0" 
d="M-1278 -493l135 374h373v-19l-318 -374h-190v19z" />
    <glyph glyph-name="uni0327" unicode="&#x327;" horiz-adv-x="0" 
d="M-1281 -297l333 378l138 -18l-196 -495z" />
    <glyph glyph-name="uni0328" unicode="&#x328;" horiz-adv-x="0" 
d="M-1186 -204.5q50 113.5 141 205.5l270 -1q-178 -195 -178 -440q0 -39 4 -72l-286 62q-1 132 49 245.5z" />
    <glyph glyph-name="uni03BC" unicode="&#x3bc;" 
d="M1326 1060v-1060h-219l-11 53q-139 -73 -290 -73q-131 0 -255 55v-547h-273v1572h273v-746q113 -62 255 -62q133 0 247 61v747h273z" />
    <glyph glyph-name="Wgrave" unicode="&#x1e80;" horiz-adv-x="2303" 
d="M82 1434h327l234 -1112l239 1092h539l239 -1092l234 1112h327l-351 -1434h-417l-259 1141h-85l-259 -1141h-417zM826 1598v285h19l645 -188l-49 -159z" />
    <glyph glyph-name="wgrave" unicode="&#x1e81;" horiz-adv-x="1967" 
d="M54 1060h307l191 -712l197 712h470l196 -712l191 712h308l-307 -1060h-362l-221 787h-81l-221 -787h-362zM898 1164l-412 372v18h435l196 -371v-19h-219z" />
    <glyph glyph-name="Wacute" unicode="&#x1e82;" horiz-adv-x="2303" 
d="M82 1434h327l234 -1112l239 1092h539l239 -1092l234 1112h327l-351 -1434h-417l-259 1141h-85l-259 -1141h-417zM812 1700l645 188h19v-285l-615 -62z" />
    <glyph glyph-name="wacute" unicode="&#x1e83;" horiz-adv-x="1967" 
d="M54 1060h307l191 -712l197 712h470l196 -712l191 712h308l-307 -1060h-362l-221 787h-81l-221 -787h-362zM830 1183l196 371h435v-18l-412 -372h-219v19z" />
    <glyph glyph-name="Wdieresis" unicode="&#x1e84;" horiz-adv-x="2303" 
d="M82 1434h327l234 -1112l239 1092h539l239 -1092l234 1112h327l-351 -1434h-417l-259 1141h-85l-259 -1141h-417zM855.5 1572.5q-38.5 22.5 -61 61.5t-22.5 84q0 46 22.5 84.5t61 61t84.5 22.5t84.5 -22.5t61 -61t22.5 -84.5q0 -45 -22.5 -84t-61 -61.5t-84.5 -22.5
t-84.5 22.5zM1277.5 1572.5q-38.5 22.5 -61 61.5t-22.5 84q0 46 22.5 84.5t61 61t84.5 22.5t84.5 -22.5t61 -61t22.5 -84.5q0 -45 -22.5 -84t-61 -61.5t-84.5 -22.5t-84.5 22.5z" />
    <glyph glyph-name="wdieresis" unicode="&#x1e85;" horiz-adv-x="1967" 
d="M54 1060h307l191 -712l197 712h470l196 -712l191 712h308l-307 -1060h-362l-221 787h-81l-221 -787h-362zM703.5 1210.5q-38.5 22.5 -61 61.5t-22.5 84q0 46 22.5 84.5t61 61t84.5 22.5t84.5 -22.5t61 -61t22.5 -84.5q0 -45 -22.5 -84t-61 -61.5t-84.5 -22.5t-84.5 22.5z
M1098.5 1209.5q-38.5 22.5 -61 61.5t-22.5 84q0 46 22.5 84.5t61 61t84.5 22.5t84.5 -22.5t61 -61t22.5 -84.5q0 -45 -22.5 -84t-61 -61.5t-84.5 -22.5t-84.5 22.5z" />
    <glyph glyph-name="uni1E9E" unicode="&#x1e9e;" horiz-adv-x="1690" 
d="M626 80v274q95 -62 210.5 -95.5t243.5 -33.5q118 0 171.5 26t53.5 71q0 24 -26.5 39.5t-67 25t-115.5 21.5q-133 22 -222 48t-154.5 86.5t-65.5 165.5q0 100 49 157.5t118 83t179 49.5q83 18 131 33t80 45t32 79v6h-440q-152 0 -220.5 -72t-68.5 -220v-869h-309v891
q0 167 66 289t197.5 188t322.5 66h745v-255q0 -134 -66.5 -207t-154 -100t-213.5 -44q-83 -11 -120 -22.5t-37 -37.5q0 -34 47.5 -50.5t150.5 -34.5q136 -24 226.5 -53t158.5 -98.5t68 -189.5q0 -101 -60 -183.5t-181.5 -130.5t-297.5 -48q-234 0 -431 100z" />
    <glyph glyph-name="Ygrave" unicode="&#x1ef2;" horiz-adv-x="1617" 
d="M1553 1434l-594 -960v-474h-309v465l-586 969h373l330 -582h74l340 582h372zM485 1598v285h19l645 -188l-49 -159z" />
    <glyph glyph-name="ygrave" unicode="&#x1ef3;" horiz-adv-x="1317" 
d="M1263 1060l-469 -1280q-112 -312 -446 -312q-93 0 -162.5 17.5t-131.5 48.5v258q107 -70 249 -70q171 0 229 155l51 123h-143l-386 1060h309l249 -729h94l248 729h309zM572 1164l-412 372v18h435l196 -371v-19h-219z" />
    <glyph glyph-name="endash" unicode="&#x2013;" horiz-adv-x="1327" 
d="M146 866h1035v-254h-1035v254z" />
    <glyph glyph-name="emdash" unicode="&#x2014;" horiz-adv-x="2048" 
d="M146 866h1756v-254h-1756v254z" />
    <glyph glyph-name="quoteleft" unicode="&#x2018;" horiz-adv-x="685" 
d="M441 1120h-313l226 416h201z" />
    <glyph glyph-name="quoteright" unicode="&#x2019;" horiz-adv-x="685" 
d="M244 1536h313l-226 -416h-201z" />
    <glyph glyph-name="quotesinglbase" unicode="&#x201a;" horiz-adv-x="685" 
d="M244 148h313l-226 -416h-201z" />
    <glyph glyph-name="quotedblleft" unicode="&#x201c;" horiz-adv-x="1143" 
d="M444 1120h-313l226 416h201zM901 1120h-313l226 416h201z" />
    <glyph glyph-name="quotedblright" unicode="&#x201d;" horiz-adv-x="1143" 
d="M244 1536h313l-226 -416h-201zM701 1536h313l-226 -416h-201z" />
    <glyph glyph-name="quotedblbase" unicode="&#x201e;" horiz-adv-x="1143" 
d="M204 148h313l-226 -416h-201zM661 148h313l-226 -416h-201z" />
    <glyph glyph-name="dagger" unicode="&#x2020;" horiz-adv-x="1067" 
d="M965 1242v-272h-285v-631h-291v631h-287v272h287v294h291v-294h285z" />
    <glyph glyph-name="daggerdbl" unicode="&#x2021;" horiz-adv-x="1079" 
d="M965 1025h-285v-176h285v-272h-285v-238h-291v238h-287v272h287v176h-287v273h287v238h291v-238h285v-273z" />
    <glyph glyph-name="bullet" unicode="&#x2022;" horiz-adv-x="843" 
d="M293 520q-63 35 -97.5 99t-34.5 149q0 79 34.5 140.5t98 96t146.5 34.5q80 0 143 -34.5t98 -96t35 -140.5q0 -84 -35 -148.5t-97.5 -99.5t-143.5 -35q-84 0 -147 35z" />
    <glyph glyph-name="ellipsis" unicode="&#x2026;" horiz-adv-x="1556" 
d="M213 30.5q-50 50.5 -50 133.5q0 78 50 127t132 49q52 0 93 -22.5t63.5 -62.5t22.5 -91q0 -83 -49.5 -133.5t-129.5 -50.5q-82 0 -132 50.5zM648 30.5q-50 50.5 -50 133.5q0 78 50 127t132 49q52 0 93 -22.5t63.5 -62.5t22.5 -91q0 -83 -49.5 -133.5t-129.5 -50.5
q-82 0 -132 50.5zM1084 30.5q-50 50.5 -50 133.5q0 78 50 127t132 49q52 0 93 -22.5t63.5 -62.5t22.5 -91q0 -83 -49.5 -133.5t-129.5 -50.5q-82 0 -132 50.5z" />
    <glyph glyph-name="perthousand" unicode="&#x2030;" horiz-adv-x="2334" 
d="M218 898q-69 40 -109 108.5t-40 150.5q0 81 40 149.5t109 108t152 39.5t151.5 -39.5t108.5 -108t40 -149.5q0 -82 -40 -150.5t-108.5 -108.5t-151.5 -40t-152 40zM1168 1434h335l-1067 -1434h-335zM427.5 1098.5q23.5 23.5 23.5 58.5q0 33 -23.5 56.5t-57.5 23.5
t-58 -23.5t-24 -56.5q0 -34 24 -58t58 -24t57.5 23.5zM1094 27q-69 40 -109 108.5t-40 150.5q0 81 40 149.5t109 108t152 39.5t151.5 -39.5t108.5 -108t40 -149.5q0 -82 -40 -150.5t-108.5 -108.5t-151.5 -40t-152 40zM1823 27q-69 40 -109 108.5t-40 150.5q0 81 40 149.5
t109 108t152 39.5t151.5 -39.5t108.5 -108t40 -149.5q0 -82 -40 -150.5t-108.5 -108.5t-151.5 -40t-152 40zM1303.5 227.5q23.5 23.5 23.5 58.5q0 33 -23.5 56.5t-57.5 23.5t-58 -23.5t-24 -56.5q0 -34 24 -58t58 -24t57.5 23.5zM2032.5 227.5q23.5 23.5 23.5 58.5
q0 33 -23.5 56.5t-57.5 23.5t-58 -23.5t-24 -56.5q0 -34 24 -58t58 -24t57.5 23.5z" />
    <glyph glyph-name="guilsinglleft" unicode="&#x2039;" horiz-adv-x="957" 
d="M102 530l411 512h336l-408 -512l408 -512h-336z" />
    <glyph glyph-name="guilsinglright" unicode="&#x203a;" horiz-adv-x="957" 
d="M444 18h-336l408 512l-408 512h336l411 -512z" />
    <glyph glyph-name="fraction" unicode="&#x2044;" horiz-adv-x="126" 
d="M536 1434h227l-1174 -1434h-227z" />
    <glyph glyph-name="uni2070" unicode="&#x2070;" horiz-adv-x="739" 
d="M218 898q-69 40 -109 108.5t-40 150.5q0 81 40 149.5t109 108t152 39.5t151.5 -39.5t108.5 -108t40 -149.5q0 -82 -40 -150.5t-108.5 -108.5t-151.5 -40t-152 40zM448 1025q35 20 55 54.5t20 77.5q0 66 -43.5 108t-109.5 42t-110 -42t-44 -108q0 -43 20 -77.5t55.5 -54.5
t78.5 -20t78 20z" />
    <glyph glyph-name="uni2074" unicode="&#x2074;" horiz-adv-x="739" 
d="M653 1103l-22 -132h-79v-92h-146v92h-345v68l291 395h200v-331h101zM243 1103h163v237h-4z" />
    <glyph glyph-name="uni2075" unicode="&#x2075;" horiz-adv-x="739" 
d="M558.5 1196q59.5 -46 59.5 -129q0 -63 -33.5 -110.5t-95.5 -73t-146 -25.5q-81 0 -145.5 23.5t-119.5 67.5l62 122q96 -66 208 -66q61 0 91 19t30 54q0 33 -29.5 50.5t-98.5 17.5q-90 0 -190 -26l-4 5l16 309h411l-22 -133h-250l-4 -68q39 9 87 9q114 0 173.5 -46z" />
    <glyph glyph-name="uni2076" unicode="&#x2076;" horiz-adv-x="739" 
d="M581.5 1199.5q57.5 -46.5 57.5 -127.5q0 -60 -33.5 -108.5t-93.5 -77t-137 -28.5q-85 0 -148 35t-96.5 96t-33.5 137q0 93 48.5 167.5t141 117.5t218.5 43l25 -148q-135 0 -199.5 -25.5t-80.5 -79.5q88 45 180 45q94 0 151.5 -46.5zM466 1025.5q26 20.5 26 55.5
q0 65 -102 65q-72 0 -143 -31q10 -53 47 -81.5t99 -28.5q47 0 73 20.5z" />
    <glyph glyph-name="uni2077" unicode="&#x2077;" horiz-adv-x="739" 
d="M454 1301h-181l-20 -104h-138l41 237h513v-8l-68 -136q-60 -119 -102 -220.5t-65 -190.5h-156q44 174 176 422z" />
    <glyph glyph-name="uni2078" unicode="&#x2078;" horiz-adv-x="739" 
d="M627 1036q0 -87 -71 -132.5t-186 -45.5q-117 0 -187.5 45t-70.5 133q0 104 101 143q-31 22 -46.5 51.5t-15.5 65.5q0 75 57.5 116.5t161.5 41.5q103 0 160 -41.5t57 -116.5q0 -35 -15.5 -65t-45.5 -52q101 -39 101 -143zM296 1294q-26 -13 -26 -36q0 -22 26 -35t74 -13
q47 0 72.5 13t25.5 35q0 23 -26 36t-72 13q-48 0 -74 -13zM457 1013q31 17 31 47t-30.5 45.5t-87.5 15.5q-58 0 -89 -15.5t-31 -45.5t31.5 -47t88.5 -17q56 0 87 17z" />
    <glyph glyph-name="uni2079" unicode="&#x2079;" horiz-adv-x="739" 
d="M492 1420q63 -35 96.5 -96t33.5 -137q0 -93 -48.5 -167.5t-141 -117.5t-218.5 -43l-25 148q135 0 199.5 25.5t80.5 79.5q-88 -45 -180 -45q-94 0 -151.5 46.5t-57.5 127.5q0 60 33.5 108.5t93.5 77t137 28.5q85 0 148 -35zM329 1167q72 0 143 31q-10 53 -47 81.5
t-99 28.5q-47 0 -73 -20.5t-26 -55.5q0 -65 102 -65z" />
    <glyph glyph-name="uni2080" unicode="&#x2080;" horiz-adv-x="739" 
d="M218 19q-69 40 -109 108.5t-40 150.5q0 81 40 149.5t109 108t152 39.5t151.5 -39.5t108.5 -108t40 -149.5q0 -82 -40 -150.5t-108.5 -108.5t-151.5 -40t-152 40zM448 146q35 20 55 54.5t20 77.5q0 66 -43.5 108t-109.5 42t-110 -42t-44 -108q0 -43 20 -77.5t55.5 -54.5
t78.5 -20t78 20z" />
    <glyph glyph-name="uni2081" unicode="&#x2081;" horiz-adv-x="739" 
d="M448 132h182l-22 -132h-499l23 132h173v290h-196l23 133h316v-423z" />
    <glyph glyph-name="uni2082" unicode="&#x2082;" horiz-adv-x="739" 
d="M149 186.5q34 47.5 79.5 71.5t115.5 49q58 20 83 34.5t25 39.5q0 47 -91 47q-110 0 -202 -67l-63 122q129 92 280 92q107 0 169.5 -45t62.5 -133q0 -64 -33 -104t-77.5 -60.5t-112.5 -40.5q-53 -15 -79.5 -27.5t-31.5 -32.5h342l-22 -132h-479v64q0 75 34 122.5z" />
    <glyph glyph-name="uni2083" unicode="&#x2083;" horiz-adv-x="739" 
d="M582 295.5q40 -41.5 40 -109.5q0 -64 -33.5 -111t-90.5 -71.5t-126 -24.5q-93 0 -161 26t-124 74l62 120q43 -33 98 -53t113 -20q56 0 81 19.5t25 51.5q0 66 -122 66h-91v11l103 148h-229l21 133h462v-8l-146 -198q78 -12 118 -53.5z" />
    <glyph glyph-name="uni2084" unicode="&#x2084;" horiz-adv-x="739" 
d="M653 224l-22 -132h-79v-92h-146v92h-345v68l291 395h200v-331h101zM243 224h163v237h-4z" />
    <glyph glyph-name="uni2085" unicode="&#x2085;" horiz-adv-x="739" 
d="M558.5 317q59.5 -46 59.5 -129q0 -63 -33.5 -110.5t-95.5 -73t-146 -25.5q-81 0 -145.5 23.5t-119.5 67.5l62 122q96 -66 208 -66q61 0 91 19t30 54q0 33 -29.5 50.5t-98.5 17.5q-90 0 -190 -26l-4 5l16 309h411l-22 -133h-250l-4 -68q39 9 87 9q114 0 173.5 -46z" />
    <glyph glyph-name="uni2086" unicode="&#x2086;" horiz-adv-x="739" 
d="M581.5 320.5q57.5 -46.5 57.5 -127.5q0 -60 -33.5 -108.5t-93.5 -77t-137 -28.5q-85 0 -148 35t-96.5 96t-33.5 137q0 93 48.5 167.5t141 117.5t218.5 43l25 -148q-135 0 -199.5 -25.5t-80.5 -79.5q88 45 180 45q94 0 151.5 -46.5zM466 146.5q26 20.5 26 55.5
q0 65 -102 65q-72 0 -143 -31q10 -53 47 -81.5t99 -28.5q47 0 73 20.5z" />
    <glyph glyph-name="uni2087" unicode="&#x2087;" horiz-adv-x="739" 
d="M454 422h-181l-20 -104h-138l41 237h513v-8l-68 -136q-60 -119 -102 -220.5t-65 -190.5h-156q44 174 176 422z" />
    <glyph glyph-name="uni2088" unicode="&#x2088;" horiz-adv-x="739" 
d="M627 148q0 -87 -71 -132.5t-186 -45.5q-117 0 -187.5 45t-70.5 133q0 104 101 143q-31 22 -46.5 51.5t-15.5 65.5q0 75 57.5 116.5t161.5 41.5q103 0 160 -41.5t57 -116.5q0 -35 -15.5 -65t-45.5 -52q101 -39 101 -143zM296 406q-26 -13 -26 -36q0 -22 26 -35t74 -13
q47 0 72.5 13t25.5 35q0 23 -26 36t-72 13q-48 0 -74 -13zM457 125q31 17 31 47t-30.5 45.5t-87.5 15.5q-58 0 -89 -15.5t-31 -45.5t31.5 -47t88.5 -17q56 0 87 17z" />
    <glyph glyph-name="uni2089" unicode="&#x2089;" horiz-adv-x="739" 
d="M492 541q63 -35 96.5 -96t33.5 -137q0 -93 -48.5 -167.5t-141 -117.5t-218.5 -43l-25 148q135 0 199.5 25.5t80.5 79.5q-88 -45 -180 -45q-94 0 -151.5 46.5t-57.5 127.5q0 60 33.5 108.5t93.5 77t137 28.5q85 0 148 -35zM329 288q72 0 143 31q-10 53 -47 81.5t-99 28.5
q-47 0 -73 -20.5t-26 -55.5q0 -65 102 -65z" />
    <glyph glyph-name="Euro" unicode="&#x20ac;" 
d="M894.5 1116q-104.5 -53 -164.5 -148h606v-183h-669q-4 -28 -4 -66q0 -37 4 -65h669v-183h-606q60 -96 167.5 -148.5t245.5 -52.5q175 0 313 84v-319q-157 -55 -331 -55q-187 0 -340 59.5t-258.5 170.5t-153.5 261h-241v183h206q-2 42 -2 65q0 33 3 66h-207v183h244
q51 151 161.5 262t262.5 170t325 59q169 0 331 -59v-325q-68 45 -146 69.5t-176 24.5q-135 0 -239.5 -53z" />
    <glyph glyph-name="uni2116" unicode="&#x2116;" horiz-adv-x="3221" 
d="M205 1434h570l494 -452h9v452h309v-1434h-309v550l-614 575h-150v-1125h-309v1434zM2202 422q-139 70 -221 195.5t-82 285.5t82 285.5t221 195t304 69.5q166 0 305 -69.5t220.5 -195t81.5 -285.5t-81.5 -285.5t-220.5 -195.5t-305 -70q-165 0 -304 70zM2662.5 659
q70.5 35 111.5 98.5t41 145.5t-41 145t-111.5 97.5t-156.5 34.5t-156 -34.5t-110.5 -97.5t-40.5 -145t40.5 -145.5t110.5 -98.5t156 -35t156.5 35zM1983 244h1047v-244h-1047v244z" />
    <glyph glyph-name="trademark" unicode="&#x2122;" horiz-adv-x="1313" 
d="M102 1418v118h504v-118h-184v-358h-136v358h-184zM1045 1536h170v-476h-138v272l-95 -166h-83l-96 167v-273h-136v476h175l99 -173z" />
    <glyph glyph-name="oneeighth" unicode="&#x215b;" 
d="M1276 1434h227l-1175 -1434h-227zM132 1011h173v290h-196l23 133h316v-423h182l-22 -132h-499zM1502 164q0 -87 -71 -132.5t-186 -45.5q-117 0 -187.5 45t-70.5 133q0 104 101 143q-31 22 -46.5 51.5t-15.5 65.5q0 75 57.5 116.5t161.5 41.5q103 0 160 -41.5t57 -116.5
q0 -35 -15.5 -65t-45.5 -52q101 -39 101 -143zM1171 422q-26 -13 -26 -36q0 -22 26 -35t74 -13q47 0 72.5 13t25.5 35q0 23 -26 36t-72 13q-48 0 -74 -13zM1332 141q31 17 31 47t-30.5 45.5t-87.5 15.5q-58 0 -89 -15.5t-31 -45.5t31.5 -47t88.5 -17q56 0 87 17z" />
    <glyph glyph-name="threeeighths" unicode="&#x215c;" 
d="M441 1024.5q25 19.5 25 51.5q0 66 -122 66h-91v11l103 148h-229l21 133h462v-8l-146 -198q78 -12 118 -53.5t40 -109.5q0 -64 -33.5 -111t-90.5 -71.5t-126 -24.5q-93 0 -161 26t-124 74l62 120q43 -33 98 -53t113 -20q56 0 81 19.5zM1276 1434h227l-1175 -1434h-227z
M1502 164q0 -87 -71 -132.5t-186 -45.5q-117 0 -187.5 45t-70.5 133q0 104 101 143q-31 22 -46.5 51.5t-15.5 65.5q0 75 57.5 116.5t161.5 41.5q103 0 160 -41.5t57 -116.5q0 -35 -15.5 -65t-45.5 -52q101 -39 101 -143zM1171 422q-26 -13 -26 -36q0 -22 26 -35t74 -13
q47 0 72.5 13t25.5 35q0 23 -26 36t-72 13q-48 0 -74 -13zM1332 141q31 17 31 47t-30.5 45.5t-87.5 15.5q-58 0 -89 -15.5t-31 -45.5t31.5 -47t88.5 -17q56 0 87 17z" />
    <glyph glyph-name="fiveeighths" unicode="&#x215d;" 
d="M584.5 956.5q-33.5 -47.5 -95.5 -73t-146 -25.5q-81 0 -145.5 23.5t-119.5 67.5l62 122q96 -66 208 -66q61 0 91 19t30 54q0 33 -29.5 50.5t-98.5 17.5q-90 0 -190 -26l-4 5l16 309h411l-22 -133h-250l-4 -68q39 9 87 9q114 0 173.5 -46t59.5 -129q0 -63 -33.5 -110.5z
M1276 1434h227l-1175 -1434h-227zM1502 164q0 -87 -71 -132.5t-186 -45.5q-117 0 -187.5 45t-70.5 133q0 104 101 143q-31 22 -46.5 51.5t-15.5 65.5q0 75 57.5 116.5t161.5 41.5q103 0 160 -41.5t57 -116.5q0 -35 -15.5 -65t-45.5 -52q101 -39 101 -143zM1171 422
q-26 -13 -26 -36q0 -22 26 -35t74 -13q47 0 72.5 13t25.5 35q0 23 -26 36t-72 13q-48 0 -74 -13zM1332 141q31 17 31 47t-30.5 45.5t-87.5 15.5q-58 0 -89 -15.5t-31 -45.5t31.5 -47t88.5 -17q56 0 87 17z" />
    <glyph glyph-name="seveneighths" unicode="&#x215e;" 
d="M1276 1434h227l-1175 -1434h-227zM253 1197h-138l41 237h513v-8l-68 -136q-60 -119 -102 -220.5t-65 -190.5h-156q44 174 176 422h-181zM1502 164q0 -87 -71 -132.5t-186 -45.5q-117 0 -187.5 45t-70.5 133q0 104 101 143q-31 22 -46.5 51.5t-15.5 65.5q0 75 57.5 116.5
t161.5 41.5q103 0 160 -41.5t57 -116.5q0 -35 -15.5 -65t-45.5 -52q101 -39 101 -143zM1171 422q-26 -13 -26 -36q0 -22 26 -35t74 -13q47 0 72.5 13t25.5 35q0 23 -26 36t-72 13q-48 0 -74 -13zM1332 141q31 17 31 47t-30.5 45.5t-87.5 15.5q-58 0 -89 -15.5t-31 -45.5
t31.5 -47t88.5 -17q56 0 87 17z" />
    <glyph glyph-name="partialdiff" unicode="&#x2202;" 
d="M1307 1130.5q107 -219.5 107 -466.5q0 -202 -82.5 -357.5t-223 -241t-308.5 -85.5q-172 0 -311.5 70t-220 196.5t-80.5 290.5q0 163 73.5 286.5t202 190.5t289.5 67q139 0 280 -63q-63 138 -166.5 269t-239.5 249h374q199 -186 306 -405.5zM972.5 295q72.5 43 111.5 127
t39 206q0 52 -6 103q-89 38 -168 57.5t-160 19.5q-150 0 -230 -71.5t-80 -201.5q0 -84 38 -148t110.5 -99.5t172.5 -35.5t172.5 43z" />
    <glyph glyph-name="product" unicode="&#x220f;" 
d="M1543 1536v-273h-322v-1419h-272v1419h-294v-1419h-272v1419h-322v273h1482z" />
    <glyph glyph-name="summation" unicode="&#x2211;" 
d="M155 334l544 357v52l-544 357v436h1294v-273h-949v-50l535 -352v-288l-535 -352v-51h949v-272h-1294v436z" />
    <glyph glyph-name="minus" unicode="&#x2212;" 
d="M259 853h1086v-273h-1086v273z" />
    <glyph glyph-name="radical" unicode="&#x221a;" 
d="M1072 1534h509v-273h-291l-347 -1351h-538l-297 1150h284l224 -877h116z" />
    <glyph glyph-name="infinity" unicode="&#x221e;" 
d="M1275.5 973.5q69.5 -39.5 109.5 -107.5t40 -149t-40 -149t-109 -107.5t-154 -39.5q-112 0 -186 40.5t-134 111.5q-60 -71 -134 -111.5t-186 -40.5q-85 0 -154 39.5t-109 107.5t-40 149t40 149t109.5 107.5t153.5 39.5q112 0 186 -40.5t134 -111.5q60 71 134 111.5
t186 40.5q84 0 153.5 -39.5zM599 632.5q49 29.5 93 84.5q-44 54 -93 83.5t-117 29.5q-56 0 -88 -32t-32 -81t32 -81.5t88 -32.5q68 0 117 29.5zM1210 635.5q32 32.5 32 81.5t-32 81t-88 32q-68 0 -117 -29.5t-93 -83.5q44 -55 93 -84.5t117 -29.5q56 0 88 32.5z" />
    <glyph glyph-name="integral" unicode="&#x222b;" 
d="M124 -130v282q82 -34 146 -34q54 0 90.5 17t67 58t62.5 117l380 896q73 170 177 260t247 90q94 0 186 -26v-282q-82 34 -146 34q-54 0 -90.5 -17t-67 -58t-62.5 -117l-380 -896q-73 -170 -177 -260t-247 -90q-94 0 -186 26z" />
    <glyph glyph-name="approxequal" unicode="&#x2248;" 
d="M382.5 637.5q69.5 20.5 149.5 20.5q73 0 137.5 -14.5t157.5 -43.5q87 -26 138 -38t107 -12q78 0 147.5 29t125.5 79v-304q-54 -35 -124 -56t-149 -21q-73 0 -137.5 14.5t-157.5 43.5q-84 26 -136.5 38.5t-108.5 12.5q-78 0 -147.5 -29.5t-125.5 -79.5v304
q54 36 123.5 56.5zM382.5 1135.5q69.5 20.5 149.5 20.5q73 0 137.5 -14.5t157.5 -43.5q87 -26 138 -38t107 -12q78 0 147.5 29t125.5 79v-304q-54 -35 -124 -56t-149 -21q-73 0 -137.5 14.5t-157.5 43.5q-84 26 -136.5 38.5t-108.5 12.5q-78 0 -147.5 -29.5t-125.5 -79.5
v304q54 36 123.5 56.5z" />
    <glyph glyph-name="notequal" unicode="&#x2260;" 
d="M1345 1434l-232 -376h232v-273h-400l-85 -137h485v-272h-652l-232 -376h-202l232 376h-232v272h400l84 137h-484v273h653l232 376h201z" />
    <glyph glyph-name="lessequal" unicode="&#x2264;" 
d="M1345 1524v-291l-661 -294l661 -292v-291l-1086 492v182zM259 0v273h1086v-273h-1086z" />
    <glyph glyph-name="greaterequal" unicode="&#x2265;" 
d="M259 273h1086v-273h-1086v273zM259 1524l1086 -494v-182l-1086 -492v291l661 292l-661 294v291z" />
    <glyph glyph-name="lozenge" unicode="&#x25ca;" horiz-adv-x="1368" 
d="M82 768l602 788l602 -788l-602 -788zM1054 768l-370 491l-370 -491l370 -491z" />
    <glyph glyph-name="i.loclTRK" horiz-adv-x="623" 
d="M166 1060h291v-1060h-291v1060zM222 1204q-41 24 -65 65t-24 90t24 90.5t65 65.5t90 24t90 -24t65 -65.5t24 -90.5t-24 -90t-65 -65t-90 -24t-90 24z" />
    <glyph glyph-name="zero.lf" 
d="M449.5 68q-154.5 88 -241.5 255t-88 396q0 228 87 394t242 253.5t355 87.5t354 -87.5t240 -253t86 -394.5t-86 -396t-240 -255t-354 -88t-354.5 88zM1062.5 369.5q93.5 117.5 93.5 349.5q0 228 -93.5 345t-260.5 117q-109 0 -188.5 -52t-122.5 -155.5t-43 -254.5
q0 -229 94 -348t260 -119q167 0 260.5 117.5z" />
    <glyph glyph-name="one.lf" horiz-adv-x="966" 
d="M391 1161h-336l38 273h607v-1434h-309v1161z" />
    <glyph glyph-name="two.lf" 
d="M244 475q86 119 205 175t304 110q120 35 187 61.5t110.5 70t43.5 110.5q0 83 -69 133t-213 50q-143 0 -277.5 -49t-240.5 -129l-133 244q125 92 296 147.5t362 55.5q190 0 321.5 -56.5t197 -158t65.5 -235.5q0 -146 -73 -234.5t-177.5 -133t-276.5 -92.5
q-132 -36 -211 -65.5t-139.5 -79.5t-78.5 -126h974l-38 -273h-1225v156q0 200 86 319z" />
    <glyph glyph-name="three.lf" 
d="M1232.5 884.5q107.5 -58.5 163.5 -156.5t56 -227q0 -153 -80 -271t-236.5 -184t-378.5 -66q-213 0 -382 60.5t-309 167.5l160 234q106 -91 242 -140.5t300 -49.5q189 0 282 66.5t93 182.5q0 106 -84 163t-275 57q-125 0 -307 -29l-23 28l342 441h-588l39 273h1093v-21
l-366 -458q151 -12 258.5 -70.5z" />
    <glyph glyph-name="four.lf" 
d="M1525 578l-39 -272h-249v-306h-308v306h-813l-20 114l522 1014h619v-856h288zM512 578h417v583h-138l-279 -579v-4z" />
    <glyph glyph-name="five.lf" 
d="M1168.5 910.5q126.5 -56.5 191 -160t64.5 -243.5q0 -159 -82.5 -278t-236 -184t-358.5 -65q-200 0 -368.5 58.5t-297.5 155.5l159 229q125 -86 247.5 -128.5t262.5 -42.5q173 0 260 62.5t87 174.5q0 111 -81.5 171.5t-234.5 60.5q-135 0 -275.5 -38t-246.5 -80l-11 11
l41 820h1009l-38 -273h-689l-11 -238q158 44 302 44q180 0 306.5 -56.5z" />
    <glyph glyph-name="six.lf" 
d="M1222 902.5q125 -64.5 190 -172t65 -235.5q0 -140 -75 -257.5t-219.5 -187.5t-342.5 -70q-223 0 -380.5 83.5t-238.5 234t-81 349.5q0 237 126 420t354.5 285t527.5 102l62 -273q-597 0 -722 -328q211 114 436 114q173 0 298 -64.5zM1023.5 283.5q70.5 31.5 107.5 87.5
t37 126q0 105 -90 164.5t-252 59.5q-97 0 -194 -16t-177 -42v-9q0 -197 101.5 -299.5t299.5 -102.5q97 0 167.5 31.5z" />
    <glyph glyph-name="seven.lf" horiz-adv-x="1442" 
d="M658.5 530q123.5 286 304.5 631h-590l-40 -247h-307l73 520h1331v-19l-173 -345q-155 -305 -264.5 -569.5t-168.5 -500.5h-349q60 244 183.5 530z" />
    <glyph glyph-name="eight.lf" 
d="M1383.5 635.5q66.5 -91.5 66.5 -214.5q0 -140 -83 -239.5t-230 -150.5t-335 -51t-335 51t-230 150.5t-83 239.5q0 123 66.5 214.5t184.5 146.5q-73 56 -112.5 132t-39.5 165q0 113 64.5 197.5t188 131t296.5 46.5t296.5 -46.5t188 -131t64.5 -197.5q0 -89 -39.5 -165
t-112.5 -132q118 -55 184.5 -146.5zM608.5 1140q-60.5 -41 -60.5 -119q0 -161 254 -161t254 161q0 78 -60.5 119t-193.5 41t-193.5 -41zM1038 305q84 53 84 148q0 93 -83 140.5t-237 47.5t-237 -47.5t-83 -140.5q0 -95 84 -148t236 -53t236 53z" />
    <glyph glyph-name="nine.lf" 
d="M1144.5 1369.5q157.5 -83.5 238.5 -234t81 -349.5q0 -237 -126 -420t-354.5 -285t-527.5 -102l-62 273q597 0 722 328q-211 -114 -436 -114q-173 0 -298 64.5t-190 172t-65 235.5q0 140 75 257.5t219.5 187.5t342.5 70q223 0 380.5 -83.5zM972 728q97 16 177 42v9
q0 197 -101.5 299.5t-299.5 102.5q-97 0 -167.5 -31.5t-107.5 -87.5t-37 -126q0 -105 90 -164.5t252 -59.5q97 0 194 16z" />
    <glyph glyph-name="zero.osf" horiz-adv-x="1429" 
d="M410 50q-139 70 -221 195.5t-82 285.5t82 285.5t221 195t304 69.5q166 0 305 -69.5t220.5 -195t81.5 -285.5t-81.5 -285.5t-220.5 -195.5t-305 -70q-165 0 -304 70zM870.5 287q70.5 35 111 98.5t40.5 145.5t-40.5 145t-111 97.5t-156.5 34.5q-85 0 -155 -34.5t-110 -97.5
t-40 -145t40 -145.5t110 -98.5t155 -35q86 0 156.5 35z" />
    <glyph glyph-name="one.osf" horiz-adv-x="1496" 
d="M953 273h387l-37 -273h-1142l37 273h446v514h-450l37 273h722v-787z" />
    <glyph glyph-name="two.osf" horiz-adv-x="1409" 
d="M321.5 338.5q85.5 33.5 112.5 44.5q167 64 263.5 108t159.5 98.5t63 118.5q0 62 -56 94.5t-167 32.5q-121 0 -247.5 -34t-238.5 -96l-33 246q110 61 245.5 95.5t282.5 34.5q234 0 365 -86.5t131 -251.5q0 -156 -134.5 -265t-424.5 -188v-17h601l-37 -273h-1042v273
q71 32 156.5 65.5z" />
    <glyph glyph-name="three.osf" 
d="M1232.5 510.5q107.5 -58.5 163.5 -156.5t56 -227q0 -153 -80 -271t-236.5 -184t-378.5 -66q-213 0 -382 60.5t-309 167.5l160 234q106 -91 242 -140.5t300 -49.5q189 0 282 66.5t93 182.5q0 106 -84 163t-275 57q-125 0 -307 -29l-23 28l342 441h-588l39 273h1093v-21
l-366 -458q151 -12 258.5 -70.5z" />
    <glyph glyph-name="four.osf" 
d="M1525 204l-39 -272h-249v-306h-308v306h-813l-20 114l522 1014h619v-856h288zM512 204h417v583h-138l-279 -579v-4z" />
    <glyph glyph-name="five.osf" 
d="M1168.5 536.5q126.5 -56.5 191 -160t64.5 -243.5q0 -159 -82.5 -278t-236 -184t-358.5 -65q-200 0 -368.5 58.5t-297.5 155.5l159 229q125 -86 247.5 -128.5t262.5 -42.5q173 0 260 62.5t87 174.5q0 111 -81.5 171.5t-234.5 60.5q-135 0 -275.5 -38t-246.5 -80l-11 11
l41 820h1009l-38 -273h-689l-11 -238q158 44 302 44q180 0 306.5 -56.5z" />
    <glyph glyph-name="six.osf" 
d="M1222 902.5q125 -64.5 190 -172t65 -235.5q0 -140 -75 -257.5t-219.5 -187.5t-342.5 -70q-223 0 -380.5 83.5t-238.5 234t-81 349.5q0 237 126 420t354.5 285t527.5 102l62 -273q-597 0 -722 -328q211 114 436 114q173 0 298 -64.5zM1023.5 283.5q70.5 31.5 107.5 87.5
t37 126q0 105 -90 164.5t-252 59.5q-97 0 -194 -16t-177 -42v-9q0 -197 101.5 -299.5t299.5 -102.5q97 0 167.5 31.5z" />
    <glyph glyph-name="seven.osf" horiz-adv-x="1442" 
d="M658.5 156q123.5 286 304.5 631h-590l-40 -247h-307l73 520h1331v-19l-173 -345q-155 -305 -264.5 -569.5t-168.5 -500.5h-349q60 244 183.5 530z" />
    <glyph glyph-name="eight.osf" 
d="M1383.5 635.5q66.5 -91.5 66.5 -214.5q0 -140 -83 -239.5t-230 -150.5t-335 -51t-335 51t-230 150.5t-83 239.5q0 123 66.5 214.5t184.5 146.5q-73 56 -112.5 132t-39.5 165q0 113 64.5 197.5t188 131t296.5 46.5t296.5 -46.5t188 -131t64.5 -197.5q0 -89 -39.5 -165
t-112.5 -132q118 -55 184.5 -146.5zM608.5 1140q-60.5 -41 -60.5 -119q0 -161 254 -161t254 161q0 78 -60.5 119t-193.5 41t-193.5 -41zM1038 305q84 53 84 148q0 93 -83 140.5t-237 47.5t-237 -47.5t-83 -140.5q0 -95 84 -148t236 -53t236 53z" />
    <glyph glyph-name="nine.osf" 
d="M1144.5 996.5q157.5 -83.5 238.5 -234t81 -349.5q0 -237 -126 -420t-354.5 -285t-527.5 -102l-62 273q597 0 722 328q-211 -114 -436 -114q-173 0 -298 64.5t-190 172t-65 235.5q0 140 75 257.5t219.5 187.5t342.5 70q223 0 380.5 -83.5zM972 355q97 16 177 42v9
q0 197 -101.5 299.5t-299.5 102.5q-97 0 -167.5 -31.5t-107.5 -87.5t-37 -126q0 -105 90 -164.5t252 -59.5q97 0 194 16z" />
    <glyph glyph-name="zero.tf" 
d="M449.5 68q-154.5 88 -241.5 255t-88 396q0 228 87 394t242 253.5t355 87.5t354 -87.5t240 -253t86 -394.5t-86 -396t-240 -255t-354 -88t-354.5 88zM1062.5 369.5q93.5 117.5 93.5 349.5q0 228 -93.5 345t-260.5 117q-109 0 -188.5 -52t-122.5 -155.5t-43 -254.5
q0 -229 94 -348t260 -119q167 0 260.5 117.5z" />
    <glyph glyph-name="one.tf" 
d="M978 273h470l-37 -273h-1250l37 273h472v888h-476l37 273h747v-1161z" />
    <glyph glyph-name="two.tf" 
d="M244 475q86 119 205 175t304 110q120 35 187 61.5t110.5 70t43.5 110.5q0 83 -69 133t-213 50q-143 0 -277.5 -49t-240.5 -129l-133 244q125 92 296 147.5t362 55.5q190 0 321.5 -56.5t197 -158t65.5 -235.5q0 -146 -73 -234.5t-177.5 -133t-276.5 -92.5
q-132 -36 -211 -65.5t-139.5 -79.5t-78.5 -126h974l-38 -273h-1225v156q0 200 86 319z" />
    <glyph glyph-name="three.tf" 
d="M1232.5 884.5q107.5 -58.5 163.5 -156.5t56 -227q0 -153 -80 -271t-236.5 -184t-378.5 -66q-213 0 -382 60.5t-309 167.5l160 234q106 -91 242 -140.5t300 -49.5q189 0 282 66.5t93 182.5q0 106 -84 163t-275 57q-125 0 -307 -29l-23 28l342 441h-588l39 273h1093v-21
l-366 -458q151 -12 258.5 -70.5z" />
    <glyph glyph-name="four.tf" 
d="M1525 578l-39 -272h-249v-306h-308v306h-813l-20 114l522 1014h619v-856h288zM512 578h417v583h-138l-279 -579v-4z" />
    <glyph glyph-name="five.tf" 
d="M1168.5 910.5q126.5 -56.5 191 -160t64.5 -243.5q0 -159 -82.5 -278t-236 -184t-358.5 -65q-200 0 -368.5 58.5t-297.5 155.5l159 229q125 -86 247.5 -128.5t262.5 -42.5q173 0 260 62.5t87 174.5q0 111 -81.5 171.5t-234.5 60.5q-135 0 -275.5 -38t-246.5 -80l-11 11
l41 820h1009l-38 -273h-689l-11 -238q158 44 302 44q180 0 306.5 -56.5z" />
    <glyph glyph-name="six.tf" 
d="M1222 902.5q125 -64.5 190 -172t65 -235.5q0 -140 -75 -257.5t-219.5 -187.5t-342.5 -70q-223 0 -380.5 83.5t-238.5 234t-81 349.5q0 237 126 420t354.5 285t527.5 102l62 -273q-597 0 -722 -328q211 114 436 114q173 0 298 -64.5zM1023.5 283.5q70.5 31.5 107.5 87.5
t37 126q0 105 -90 164.5t-252 59.5q-97 0 -194 -16t-177 -42v-9q0 -197 101.5 -299.5t299.5 -102.5q97 0 167.5 31.5z" />
    <glyph glyph-name="seven.tf" 
d="M759.5 530q123.5 286 304.5 631h-590l-40 -247h-307l73 520h1331v-19l-173 -345q-155 -305 -264.5 -569.5t-168.5 -500.5h-349q60 244 183.5 530z" />
    <glyph glyph-name="eight.tf" 
d="M1383.5 635.5q66.5 -91.5 66.5 -214.5q0 -140 -83 -239.5t-230 -150.5t-335 -51t-335 51t-230 150.5t-83 239.5q0 123 66.5 214.5t184.5 146.5q-73 56 -112.5 132t-39.5 165q0 113 64.5 197.5t188 131t296.5 46.5t296.5 -46.5t188 -131t64.5 -197.5q0 -89 -39.5 -165
t-112.5 -132q118 -55 184.5 -146.5zM608.5 1140q-60.5 -41 -60.5 -119q0 -161 254 -161t254 161q0 78 -60.5 119t-193.5 41t-193.5 -41zM1038 305q84 53 84 148q0 93 -83 140.5t-237 47.5t-237 -47.5t-83 -140.5q0 -95 84 -148t236 -53t236 53z" />
    <glyph glyph-name="nine.tf" 
d="M1144.5 1370.5q157.5 -83.5 238.5 -234t81 -349.5q0 -237 -126 -420t-354.5 -285t-527.5 -102l-62 273q597 0 722 328q-211 -114 -436 -114q-173 0 -298 64.5t-190 172t-65 235.5q0 140 75 257.5t219.5 187.5t342.5 70q223 0 380.5 -83.5zM972 729q97 16 177 42v9
q0 197 -101.5 299.5t-299.5 102.5q-97 0 -167.5 -31.5t-107.5 -87.5t-37 -126q0 -105 90 -164.5t252 -59.5q97 0 194 16z" />
    <glyph glyph-name="zero.dnom" horiz-adv-x="739" 
d="M218 19q-69 40 -109 108.5t-40 150.5q0 81 40 149.5t109 108t152 39.5t151.5 -39.5t108.5 -108t40 -149.5q0 -82 -40 -150.5t-108.5 -108.5t-151.5 -40t-152 40zM448 146q35 20 55 54.5t20 77.5q0 66 -43.5 108t-109.5 42t-110 -42t-44 -108q0 -43 20 -77.5t55.5 -54.5
t78.5 -20t78 20z" />
    <glyph glyph-name="one.dnom" horiz-adv-x="739" 
d="M448 132h182l-22 -132h-499l23 132h173v290h-196l23 133h316v-423z" />
    <glyph glyph-name="two.dnom" horiz-adv-x="739" 
d="M149 186.5q34 47.5 79.5 71.5t115.5 49q58 20 83 34.5t25 39.5q0 47 -91 47q-110 0 -202 -67l-63 122q129 92 280 92q107 0 169.5 -45t62.5 -133q0 -64 -33 -104t-77.5 -60.5t-112.5 -40.5q-53 -15 -79.5 -27.5t-31.5 -32.5h342l-22 -132h-479v64q0 75 34 122.5z" />
    <glyph glyph-name="three.dnom" horiz-adv-x="739" 
d="M582 295.5q40 -41.5 40 -109.5q0 -64 -33.5 -111t-90.5 -71.5t-126 -24.5q-93 0 -161 26t-124 74l62 120q43 -33 98 -53t113 -20q56 0 81 19.5t25 51.5q0 66 -122 66h-91v11l103 148h-229l21 133h462v-8l-146 -198q78 -12 118 -53.5z" />
    <glyph glyph-name="four.dnom" horiz-adv-x="739" 
d="M653 224l-22 -132h-79v-92h-146v92h-345v68l291 395h200v-331h101zM243 224h163v237h-4z" />
    <glyph glyph-name="five.dnom" horiz-adv-x="739" 
d="M558.5 317q59.5 -46 59.5 -129q0 -63 -33.5 -110.5t-95.5 -73t-146 -25.5q-81 0 -145.5 23.5t-119.5 67.5l62 122q96 -66 208 -66q61 0 91 19t30 54q0 33 -29.5 50.5t-98.5 17.5q-90 0 -190 -26l-4 5l16 309h411l-22 -133h-250l-4 -68q39 9 87 9q114 0 173.5 -46z" />
    <glyph glyph-name="six.dnom" horiz-adv-x="739" 
d="M581.5 320.5q57.5 -46.5 57.5 -127.5q0 -60 -33.5 -108.5t-93.5 -77t-137 -28.5q-85 0 -148 35t-96.5 96t-33.5 137q0 93 48.5 167.5t141 117.5t218.5 43l25 -148q-135 0 -199.5 -25.5t-80.5 -79.5q88 45 180 45q94 0 151.5 -46.5zM466 146.5q26 20.5 26 55.5
q0 65 -102 65q-72 0 -143 -31q10 -53 47 -81.5t99 -28.5q47 0 73 20.5z" />
    <glyph glyph-name="seven.dnom" horiz-adv-x="739" 
d="M454 422h-181l-20 -104h-138l41 237h513v-8l-68 -136q-60 -119 -102 -220.5t-65 -190.5h-156q44 174 176 422z" />
    <glyph glyph-name="eight.dnom" horiz-adv-x="739" 
d="M627 148q0 -87 -71 -132.5t-186 -45.5q-117 0 -187.5 45t-70.5 133q0 104 101 143q-31 22 -46.5 51.5t-15.5 65.5q0 75 57.5 116.5t161.5 41.5q103 0 160 -41.5t57 -116.5q0 -35 -15.5 -65t-45.5 -52q101 -39 101 -143zM296 406q-26 -13 -26 -36q0 -22 26 -35t74 -13
q47 0 72.5 13t25.5 35q0 23 -26 36t-72 13q-48 0 -74 -13zM457 125q31 17 31 47t-30.5 45.5t-87.5 15.5q-58 0 -89 -15.5t-31 -45.5t31.5 -47t88.5 -17q56 0 87 17z" />
    <glyph glyph-name="nine.dnom" horiz-adv-x="739" 
d="M492 541q63 -35 96.5 -96t33.5 -137q0 -93 -48.5 -167.5t-141 -117.5t-218.5 -43l-25 148q135 0 199.5 25.5t80.5 79.5q-88 -45 -180 -45q-94 0 -151.5 46.5t-57.5 127.5q0 60 33.5 108.5t93.5 77t137 28.5q85 0 148 -35zM329 288q72 0 143 31q-10 53 -47 81.5t-99 28.5
q-47 0 -73 -20.5t-26 -55.5q0 -65 102 -65z" />
    <glyph glyph-name="zero.numr" horiz-adv-x="739" 
d="M218 898q-69 40 -109 108.5t-40 150.5q0 81 40 149.5t109 108t152 39.5t151.5 -39.5t108.5 -108t40 -149.5q0 -82 -40 -150.5t-108.5 -108.5t-151.5 -40t-152 40zM448 1025q35 20 55 54.5t20 77.5q0 66 -43.5 108t-109.5 42t-110 -42t-44 -108q0 -43 20 -77.5t55.5 -54.5
t78.5 -20t78 20z" />
    <glyph glyph-name="one.numr" horiz-adv-x="739" 
d="M448 1011h182l-22 -132h-499l23 132h173v290h-196l23 133h316v-423z" />
    <glyph glyph-name="two.numr" horiz-adv-x="739" 
d="M149 1065.5q34 47.5 79.5 71.5t115.5 49q58 20 83 34.5t25 39.5q0 47 -91 47q-110 0 -202 -67l-63 122q129 92 280 92q107 0 169.5 -45t62.5 -133q0 -64 -33 -104t-77.5 -60.5t-112.5 -40.5q-53 -15 -79.5 -27.5t-31.5 -32.5h342l-22 -132h-479v64q0 75 34 122.5z" />
    <glyph glyph-name="three.numr" horiz-adv-x="739" 
d="M582 1174.5q40 -41.5 40 -109.5q0 -64 -33.5 -111t-90.5 -71.5t-126 -24.5q-93 0 -161 26t-124 74l62 120q43 -33 98 -53t113 -20q56 0 81 19.5t25 51.5q0 66 -122 66h-91v11l103 148h-229l21 133h462v-8l-146 -198q78 -12 118 -53.5z" />
    <glyph glyph-name="four.numr" horiz-adv-x="739" 
d="M653 1103l-22 -132h-79v-92h-146v92h-345v68l291 395h200v-331h101zM243 1103h163v237h-4z" />
    <glyph glyph-name="five.numr" horiz-adv-x="739" 
d="M558.5 1196q59.5 -46 59.5 -129q0 -63 -33.5 -110.5t-95.5 -73t-146 -25.5q-81 0 -145.5 23.5t-119.5 67.5l62 122q96 -66 208 -66q61 0 91 19t30 54q0 33 -29.5 50.5t-98.5 17.5q-90 0 -190 -26l-4 5l16 309h411l-22 -133h-250l-4 -68q39 9 87 9q114 0 173.5 -46z" />
    <glyph glyph-name="six.numr" horiz-adv-x="739" 
d="M581.5 1199.5q57.5 -46.5 57.5 -127.5q0 -60 -33.5 -108.5t-93.5 -77t-137 -28.5q-85 0 -148 35t-96.5 96t-33.5 137q0 93 48.5 167.5t141 117.5t218.5 43l25 -148q-135 0 -199.5 -25.5t-80.5 -79.5q88 45 180 45q94 0 151.5 -46.5zM466 1025.5q26 20.5 26 55.5
q0 65 -102 65q-72 0 -143 -31q10 -53 47 -81.5t99 -28.5q47 0 73 20.5z" />
    <glyph glyph-name="seven.numr" horiz-adv-x="739" 
d="M454 1301h-181l-20 -104h-138l41 237h513v-8l-68 -136q-60 -119 -102 -220.5t-65 -190.5h-156q44 174 176 422z" />
    <glyph glyph-name="eight.numr" horiz-adv-x="739" 
d="M627 1036q0 -87 -71 -132.5t-186 -45.5q-117 0 -187.5 45t-70.5 133q0 104 101 143q-31 22 -46.5 51.5t-15.5 65.5q0 75 57.5 116.5t161.5 41.5q103 0 160 -41.5t57 -116.5q0 -35 -15.5 -65t-45.5 -52q101 -39 101 -143zM296 1294q-26 -13 -26 -36q0 -22 26 -35t74 -13
q47 0 72.5 13t25.5 35q0 23 -26 36t-72 13q-48 0 -74 -13zM457 1013q31 17 31 47t-30.5 45.5t-87.5 15.5q-58 0 -89 -15.5t-31 -45.5t31.5 -47t88.5 -17q56 0 87 17z" />
    <glyph glyph-name="nine.numr" horiz-adv-x="739" 
d="M492 1420q63 -35 96.5 -96t33.5 -137q0 -93 -48.5 -167.5t-141 -117.5t-218.5 -43l-25 148q135 0 199.5 25.5t80.5 79.5q-88 -45 -180 -45q-94 0 -151.5 46.5t-57.5 127.5q0 60 33.5 108.5t93.5 77t137 28.5q85 0 148 -35zM329 1167q72 0 143 31q-10 53 -47 81.5
t-99 28.5q-47 0 -73 -20.5t-26 -55.5q0 -65 102 -65z" />
    <glyph glyph-name="exclamdown.case" horiz-adv-x="687" 
d="M471.5 1403.5q49.5 -50.5 49.5 -133.5q0 -51 -22.5 -91t-63.5 -62.5t-93 -22.5q-82 0 -132 49t-50 127q0 83 50 133.5t132 50.5q80 0 129.5 -50.5zM232 982h218l37 -445v-537h-291v537z" />
    <glyph glyph-name="questiondown.case" horiz-adv-x="1225" 
d="M603 1116.5q-41 22.5 -63.5 62.5t-22.5 91q0 83 49.5 133.5t129.5 50.5q82 0 132 -50.5t50 -133.5q0 -78 -50 -127t-132 -49q-52 0 -93 22.5zM1112 68q-91 -38 -211 -63t-254 -25q-178 0 -297.5 48.5t-178 138t-58.5 212.5q0 115 56.5 213.5t162 164.5t247.5 85l10 140
h218l31 -378q-68 11 -141 11q-141 0 -217 -52t-76 -143q0 -90 73 -137.5t215 -47.5q191 0 370 70z" />
    <glyph glyph-name="parenleft.case" horiz-adv-x="837" 
d="M288 124.5q-119 260.5 -119 592.5t119 592.5t317 451.5l227 -213q-336 -356 -336 -831t336 -831l-227 -213q-198 191 -317 451.5z" />
    <glyph glyph-name="parenright.case" horiz-adv-x="837" 
d="M5 -114q336 356 336 831t-336 831l227 213q198 -191 317 -451.5t119 -592.5t-119 -592.5t-317 -451.5z" />
    <glyph glyph-name="braceleft.case" horiz-adv-x="837" 
d="M285.5 -81q-104.5 123 -104.5 266q0 52 15.5 95.5t37 75t54.5 72.5q32 38 46.5 62t14.5 48q0 28 -18 46t-56 18h-155v230h155q38 0 56 18t18 46q0 24 -14.5 48t-46.5 62q-33 41 -54.5 72.5t-37 75t-15.5 95.5q0 143 104.5 266t319.5 246l227 -213q-118 -65 -187.5 -118.5
t-103.5 -110t-34 -124.5q0 -49 23 -89.5t67 -94.5q39 -47 59 -80.5t20 -70.5q0 -53 -33.5 -85t-104.5 -58q71 -26 104.5 -58t33.5 -85q0 -37 -19 -69.5t-60 -83.5q-44 -53 -67 -93.5t-23 -88.5q0 -68 34 -124.5t103.5 -110t187.5 -118.5l-227 -213q-215 123 -319.5 246z" />
    <glyph glyph-name="braceright.case" horiz-adv-x="837" 
d="M5 -114q118 65 187.5 118.5t103.5 110t34 124.5q0 48 -23 88.5t-67 93.5q-41 51 -60 83.5t-19 69.5q0 53 33.5 85t104.5 58q-71 26 -104.5 58t-33.5 85q0 37 20 70.5t59 80.5q44 54 67 94.5t23 89.5q0 68 -34 124.5t-103.5 110t-187.5 118.5l227 213q215 -123 319.5 -246
t104.5 -266q0 -52 -15.5 -95.5t-37 -75t-54.5 -72.5q-32 -38 -46.5 -62t-14.5 -48q0 -28 18 -46t56 -18h155v-230h-155q-38 0 -56 -18t-18 -46q0 -24 14.5 -48t46.5 -62q33 -41 54.5 -72.5t37 -75t15.5 -95.5q0 -143 -104.5 -266t-319.5 -246z" />
    <glyph glyph-name="bracketleft.case" horiz-adv-x="837" 
d="M833 1468h-353v-1502h353v-273h-662v2048h662v-273z" />
    <glyph glyph-name="bracketright.case" horiz-adv-x="837" 
d="M666 1741v-2048h-662v273h353v1502h-353v273h662z" />
    <glyph glyph-name="quotesinglbase.case" horiz-adv-x="685" 
d="M244 395h313l-226 -416h-201z" />
    <glyph glyph-name="quotedblbase.case" horiz-adv-x="1143" 
d="M204 395h313l-226 -416h-201zM661 395h313l-226 -416h-201z" />
    <glyph glyph-name="quotedblleft.case" horiz-adv-x="1143" 
d="M444 1018h-313l226 416h201zM901 1018h-313l226 416h201z" />
    <glyph glyph-name="quotedblright.case" horiz-adv-x="1146" 
d="M247 1434h313l-226 -416h-201zM704 1434h313l-226 -416h-201z" />
    <glyph glyph-name="quoteleft.case" horiz-adv-x="685" 
d="M441 1018h-313l226 416h201z" />
    <glyph glyph-name="quoteright.case" horiz-adv-x="685" 
d="M244 1434h313l-226 -416h-201z" />
    <glyph glyph-name="guillemotleft.case" horiz-adv-x="1559" 
d="M102 653l411 512h336l-408 -512l408 -512h-336zM704 653l411 512h336l-408 -512l408 -512h-336z" />
    <glyph glyph-name="guillemotright.case" horiz-adv-x="1559" 
d="M444 141h-336l408 512l-408 512h336l411 -512zM1046 141h-336l408 512l-408 512h336l411 -512z" />
    <glyph glyph-name="guilsinglleft.case" horiz-adv-x="957" 
d="M102 653l411 512h336l-408 -512l408 -512h-336z" />
    <glyph glyph-name="guilsinglright.case" horiz-adv-x="957" 
d="M444 141h-336l408 512l-408 512h336l411 -512z" />
    <glyph glyph-name="quotedbl.case" horiz-adv-x="1118" 
d="M187 1434h313l-56 -416h-200zM619 1434h313l-56 -416h-200z" />
    <glyph glyph-name="quotesingle.case" horiz-adv-x="685" 
d="M187 1434h313l-56 -416h-200z" />
    <glyph glyph-name="at.case" horiz-adv-x="2435" 
d="M1736 1114v-474q0 -106 101 -106q107 0 164 66t57 198q0 145 -93 274t-282 209.5t-460 80.5q-258 0 -436.5 -74t-269.5 -216.5t-91 -346.5q0 -317 224 -476t638 -159q364 0 653 82l1 -185q-265 -80 -654 -80q-324 0 -561 92.5t-365 276t-128 449.5q0 250 115.5 434.5
t338 284.5t535.5 100q330 0 562.5 -107.5t348.5 -279t116 -359.5q0 -144 -57 -253.5t-157.5 -169.5t-227.5 -60q-116 0 -198.5 37t-124.5 103q-77 -62 -164.5 -101t-193.5 -39t-198 45.5t-149 138t-57 226.5q0 136 57 228t149 136.5t198 44.5q172 0 329 -117l7 97h273z
M1071 611q49 -41 135 -41q68 0 122 13t117 42v199q-63 29 -117.5 42.5t-121.5 13.5q-87 0 -135.5 -40t-48.5 -115q0 -73 49 -114z" />
    </font>
</defs>
</svg>
